<?xml version="1.0" standalone="no"?>
<!DOCTYPE svg PUBLIC "-//W3C//DTD SVG 20010904//EN"
 "http://www.w3.org/TR/2001/REC-SVG-20010904/DTD/svg10.dtd">
<svg version="1.0" xmlns="http://www.w3.org/2000/svg"
 width="350.000000pt" height="262.000000pt" viewBox="0 0 350.000000 262.000000"
 preserveAspectRatio="xMidYMid meet">
<metadata>
Created by potrace 1.15, written by Peter Selinger 2001-2017
</metadata>
<g transform="translate(0.000000,262.000000) scale(0.100000,-0.100000)"
fill="#000000" stroke="none">
<path d="M0 2298 c1 -203 5 -328 12 -341 7 -14 7 -18 -1 -13 -8 5 -11 -108
-11 -414 1 -328 3 -419 13 -413 7 4 7 0 -2 -10 -11 -14 -12 -40 -5 -135 11
-152 12 -252 3 -252 -4 0 -8 -162 -9 -360 l-1 -360 408 0 c277 1 411 4 420 12
9 7 13 7 13 -1 0 -8 49 -11 162 -11 89 0 159 2 156 5 -2 3 -18 6 -34 7 -16 1
-36 10 -46 20 -12 14 -17 15 -21 6 -4 -11 -7 -11 -18 0 -24 23 25 41 67 25 16
-6 16 -7 -2 -14 -16 -6 -15 -8 9 -8 15 -1 27 3 27 8 0 13 53 21 67 10 7 -7 13
-6 17 0 4 6 13 8 21 4 15 -5 20 7 15 37 -3 22 -8 24 -26 9 -14 -11 -18 -11
-28 2 -6 9 -17 14 -25 11 -8 -3 -11 0 -7 7 4 6 3 11 -1 11 -5 0 -18 6 -29 14
-18 14 -16 15 18 13 20 -1 34 -4 32 -6 -5 -5 44 -31 59 -31 18 0 36 -34 25
-48 -21 -24 -1 -22 22 3 19 21 21 25 7 25 -9 0 -17 5 -17 10 0 6 7 10 15 10 8
0 15 5 15 12 0 7 6 6 17 -4 33 -28 41 -28 46 -2 4 23 2 25 -19 20 -27 -7 -32
8 -8 22 9 5 14 15 10 21 -4 6 -11 9 -16 6 -5 -3 -11 -1 -15 5 -4 6 6 10 23 10
17 0 32 6 36 15 7 19 22 19 29 1 4 -10 1 -13 -9 -9 -7 3 -14 0 -14 -6 0 -14
27 -15 35 -1 4 6 13 4 22 -6 15 -15 17 -15 25 6 7 18 13 20 38 15 19 -4 30 -3
30 4 0 6 -5 11 -11 11 -5 0 -7 5 -3 11 3 6 15 9 25 6 11 -3 19 -1 19 4 0 5 11
7 25 3 16 -4 25 -2 25 6 0 7 8 9 23 5 15 -4 18 -4 8 3 -8 6 -10 15 -5 23 5 9
-1 8 -19 -3 -33 -22 -43 -23 -23 -2 9 8 16 24 16 34 0 10 6 21 13 23 6 3 2 6
-11 6 -13 1 -20 -3 -17 -9 3 -6 -4 -10 -17 -11 -13 0 -17 -3 -10 -6 22 -9 13
-28 -18 -40 -24 -9 -30 -9 -30 2 0 15 38 55 53 55 11 0 -2 40 -19 58 -7 7 -19
12 -26 11 -41 -5 -53 14 -15 26 19 6 19 8 5 12 -10 2 -18 8 -18 13 0 5 8 14
18 19 9 6 12 11 5 11 -7 0 -10 7 -7 15 4 9 0 15 -9 15 -8 0 -17 -7 -21 -15 -3
-8 -2 -14 2 -12 19 6 12 -20 -9 -30 -35 -18 -109 -17 -109 2 0 8 -6 12 -12 10
-7 -3 -18 7 -25 21 -12 25 -11 26 18 22 34 -5 62 18 39 32 -7 4 -19 6 -27 3
-7 -3 -13 0 -13 7 0 10 -3 10 -15 0 -12 -10 -16 -9 -20 2 -6 16 -12 18 -68 22
-20 2 -40 6 -44 10 -16 16 -24 4 -9 -13 17 -19 17 -19 -1 -16 -10 2 -23 4 -30
4 -6 1 -14 9 -16 19 -4 16 -5 16 -6 0 0 -10 -8 -19 -16 -19 -28 -3 -33 -4 -41
-12 -4 -4 -14 -7 -22 -7 -12 0 -12 3 -1 16 11 14 10 19 -9 34 -12 10 -32 16
-44 14 -17 -3 -15 -1 7 10 17 9 37 15 45 16 12 0 13 2 1 9 -11 7 -10 11 5 19
11 5 25 7 32 5 6 -3 12 2 12 10 0 14 28 32 37 24 10 -10 -12 -37 -38 -46 -32
-11 -40 -22 -10 -14 13 3 21 -2 25 -15 5 -13 15 -19 31 -18 14 0 25 4 25 7 0
3 11 11 24 17 19 8 27 8 36 -3 7 -8 17 -12 22 -8 10 5 19 7 66 12 6 0 12 8 12
16 0 8 7 15 15 15 8 0 15 5 15 12 0 13 14 2 16 -13 1 -5 2 -13 3 -19 0 -5 8
-10 16 -10 9 0 12 -6 9 -15 -4 -9 0 -15 9 -15 22 0 29 28 10 39 -14 7 -13 9 5
15 12 4 26 4 32 1 5 -3 10 1 10 9 0 10 6 13 15 10 10 -4 15 0 15 11 0 9 -4 14
-10 10 -5 -3 -7 7 -5 26 3 26 1 29 -13 23 -9 -5 -36 -8 -59 -9 -42 0 -55 -8
-30 -18 6 -3 2 -6 -10 -6 -12 -1 -23 5 -26 12 -3 9 -7 9 -18 0 -9 -7 -20 -8
-29 -3 -10 6 -7 10 16 15 16 4 38 10 49 13 11 3 27 5 36 3 9 -1 19 4 22 12 3
8 20 17 39 22 18 4 27 9 21 12 -7 2 -13 11 -13 19 0 8 -7 14 -15 14 -8 0 -15
4 -15 10 0 5 -7 7 -15 4 -11 -5 -13 -2 -9 9 3 9 12 13 20 10 8 -3 14 1 14 11
0 9 -6 16 -12 15 -18 -1 -55 -17 -43 -18 6 -1 3 -6 -5 -11 -8 -5 -25 -7 -36
-4 -12 3 -25 1 -28 -5 -11 -17 -26 -13 -19 4 7 20 61 48 79 41 8 -3 14 -1 14
5 0 7 10 9 25 5 19 -5 23 -3 19 9 -4 11 0 15 16 15 19 0 20 -2 10 -15 -7 -9
-10 -18 -7 -22 4 -3 2 -14 -4 -24 -6 -11 -6 -19 0 -19 5 0 12 7 15 16 3 8 10
13 15 9 6 -3 8 -12 5 -19 -3 -8 7 -26 21 -42 24 -26 27 -27 36 -11 12 20 31
13 22 -8 -8 -21 4 -18 29 7 14 14 23 18 26 10 2 -7 9 -9 15 -5 7 4 7 1 -1 -9
-8 -10 -9 -19 -3 -22 5 -4 12 -2 15 3 4 5 22 7 41 4 30 -5 35 -3 35 13 0 15 2
16 9 5 8 -12 12 -13 26 -1 9 7 14 19 11 27 -3 8 -2 11 4 8 5 -3 14 4 20 15 6
11 14 19 18 16 4 -2 7 9 8 25 1 16 -3 29 -7 29 -5 0 -9 11 -9 24 0 19 4 22 23
19 14 -3 29 2 36 11 8 9 20 16 27 16 8 0 14 5 14 10 0 17 -35 11 -49 -9 -19
-26 -50 -15 -67 25 -19 45 -18 63 4 62 9 0 52 4 95 11 43 6 83 11 88 11 5 0 9
4 9 10 0 9 -19 8 -115 -8 -33 -5 -60 -4 -79 3 -26 11 -22 13 56 24 46 7 91 13
101 13 12 -1 17 4 13 13 -5 15 1 18 74 30 19 3 43 7 52 8 10 2 21 7 25 11 5 5
-14 5 -42 1 -69 -11 -115 -13 -115 -4 0 9 37 19 80 20 l35 1 -28 10 c-15 5
-40 7 -55 3 -36 -10 -75 -10 -90 -1 -8 5 -11 2 -10 -6 2 -9 -10 -14 -37 -15
-31 -2 -35 0 -20 7 l20 9 -20 2 c-12 1 -6 5 15 10 35 8 35 8 -7 6 -24 -2 -43
1 -43 5 0 5 27 8 61 8 33 0 58 -4 55 -9 -7 -11 87 -1 95 11 3 5 17 5 32 -1 17
-7 27 -7 27 -1 0 6 9 10 20 10 11 0 20 5 20 10 0 6 -9 10 -20 10 -11 0 -20 -4
-20 -10 0 -14 -28 -12 -32 2 -3 9 -13 8 -39 -3 -22 -10 -52 -14 -85 -11 -46 3
-51 6 -47 23 4 13 11 18 20 15 8 -3 27 -7 41 -7 23 -1 22 -3 -8 -9 -34 -7 -34
-7 13 -9 34 -1 52 4 66 18 19 19 19 19 -4 24 -13 2 -28 0 -32 -4 -5 -5 -14 -4
-22 0 -9 6 0 11 30 17 39 6 41 8 19 14 -14 4 -30 3 -36 -2 -12 -9 -74 0 -74
11 0 4 15 12 33 18 17 5 22 8 10 6 -12 -2 -25 1 -28 7 -4 6 11 11 37 12 l43 1
-38 4 c-40 5 -51 22 -14 24 21 1 21 1 -2 8 -25 7 -42 31 -22 31 6 0 11 4 11
10 0 9 -58 3 -70 -7 -3 -3 4 -12 15 -20 20 -16 20 -16 0 -8 -11 4 -30 10 -42
12 -12 3 -25 14 -28 24 -4 12 -16 19 -31 19 -13 0 -24 5 -24 10 0 6 17 10 38
10 27 0 33 3 22 10 -10 6 7 10 55 13 l70 3 -85 2 c-64 2 -81 5 -70 13 12 9 11
10 -7 6 -13 -3 -26 0 -30 5 -3 7 -1 8 5 4 7 -4 12 -3 12 3 0 6 7 8 15 5 9 -4
15 0 15 10 0 9 9 17 20 17 37 3 75 8 120 17 44 9 44 10 -27 11 -39 0 -75 -3
-78 -9 -11 -17 -24 -11 -20 10 2 13 -4 24 -18 32 -22 11 -22 12 7 19 31 9 239
24 318 24 25 0 44 3 41 7 -2 5 -48 8 -101 9 -64 0 -90 3 -77 9 11 5 34 9 51 9
46 1 117 61 72 61 -5 0 -6 -4 -3 -10 3 -5 -1 -10 -9 -10 -9 0 -16 5 -16 10 0
6 -7 10 -16 10 -29 0 -3 20 29 21 27 2 28 2 7 6 l-24 5 24 14 25 14 -25 -1
c-58 -3 -100 2 -100 11 0 6 15 10 33 11 30 0 30 1 9 10 -46 18 -12 29 74 23
46 -3 84 -3 84 0 0 4 -18 13 -40 22 -22 9 -37 20 -34 25 9 15 -6 49 -22 49
-14 0 -15 -3 -18 -40 0 -11 -5 -21 -10 -22 -13 -4 -16 32 -5 54 5 10 6 24 2
31 -8 13 -11 67 -3 67 3 0 4 52 4 116 -1 63 2 127 6 142 l9 27 0 -30 c0 -16 2
-67 5 -112 2 -53 0 -83 -6 -83 -7 0 -7 -4 0 -12 13 -17 11 -98 -3 -98 -16 -1
38 -40 55 -40 12 0 13 -2 1 -9 -25 -16 27 -24 108 -15 l76 8 -68 10 c-55 9
-66 13 -56 24 11 10 8 12 -12 12 -14 0 -30 -5 -37 -12 -9 -9 -15 -9 -24 0 -9
9 -7 12 10 12 12 0 22 4 22 8 0 4 16 6 35 4 26 -3 35 0 35 11 0 10 7 13 25 9
17 -3 25 0 25 9 0 10 -14 14 -50 12 -27 0 -50 3 -50 8 0 5 5 9 11 9 6 0 9 6 6
14 -3 8 -3 17 1 21 10 10 11 97 2 116 -10 17 5 48 17 36 4 -5 1 -12 -6 -16
-11 -7 -11 -9 0 -13 15 -5 17 -58 5 -120 l-6 -34 57 -1 c39 -1 51 2 38 7 -13
6 8 9 59 9 87 1 97 9 20 15 -57 5 -61 20 -7 24 74 5 108 13 92 23 -8 5 -27 8
-44 8 -26 0 -27 -2 -10 -9 15 -6 6 -9 -33 -9 -47 -1 -53 1 -62 25 -6 14 -10
27 -10 30 0 7 152 3 203 -5 26 -4 50 -5 52 -1 3 4 -27 11 -66 14 -80 8 -127
25 -107 38 9 5 6 8 -9 8 -12 0 -25 5 -28 10 -3 6 -22 10 -42 10 -20 0 -34 3
-31 6 4 3 52 5 108 5 59 0 99 3 95 9 -3 5 3 13 12 19 16 10 16 11 -7 18 l-25
7 25 7 c23 6 23 7 -7 8 -18 1 -33 -3 -33 -9 0 -5 -9 -10 -20 -10 -11 0 -20 5
-20 11 0 6 6 9 12 7 7 -3 19 2 27 10 9 8 25 12 42 8 16 -3 31 -1 34 4 3 6 19
10 36 10 16 0 29 5 29 10 0 6 -18 10 -40 10 -76 0 -40 17 58 27 58 7 74 10 40
9 -31 0 -56 3 -55 8 1 5 -9 13 -23 17 -25 7 -25 7 -2 8 13 1 21 5 17 10 -3 6
3 14 12 20 17 10 17 10 1 11 -11 0 -15 5 -12 15 5 13 -68 15 -625 15 l-631 0
0 -22 0 -21 -19 22 c-24 27 -36 22 -39 -16 l-2 -28 168 -2 c207 -3 355 -12
373 -24 11 -7 11 -9 -3 -9 -9 0 -33 -18 -54 -40 -21 -22 -45 -38 -52 -35 -7 3
-22 0 -33 -5 -16 -9 -19 -7 -20 12 -1 17 -3 18 -6 6 -2 -10 -10 -18 -18 -18
-16 0 -26 25 -15 36 5 5 6 15 2 21 -6 10 -14 9 -35 -2 -23 -12 -27 -12 -27 1
0 8 -4 14 -10 14 -5 0 -10 -4 -10 -10 0 -5 -7 -7 -16 -3 -8 3 -29 -4 -45 -16
-26 -19 -35 -21 -91 -12 -35 5 -102 12 -150 16 -69 5 -88 10 -91 23 -3 10 -5
6 -6 -9 -2 -40 -18 -47 -88 -40 -7 0 -13 12 -13 26 0 27 25 45 80 56 l35 7
-36 1 c-25 1 -39 7 -44 19 -6 16 -7 16 -16 0 -10 -19 -43 -13 -33 6 3 6 -1 3
-9 -7 -14 -16 -15 -15 -21 18 -5 27 -12 35 -24 33 -9 -2 -17 -10 -18 -18 -2
-35 -5 -40 -20 -40 -13 0 -15 7 -10 30 5 28 4 30 -25 30 -29 0 -31 -2 -26 -29
4 -21 2 -31 -9 -35 -22 -9 -24 -8 -24 12 0 13 -2 14 -9 3 -6 -9 -11 -10 -15
-2 -13 20 -25 12 -34 -21 l-9 -33 -12 28 c-6 16 -11 39 -11 53 0 17 -5 24 -20
24 -11 0 -20 -4 -20 -10 0 -5 5 -10 10 -10 6 0 10 -12 10 -26 0 -43 22 -107
32 -92 4 7 8 -21 8 -64 l0 -78 -30 0 c-20 0 -30 5 -30 15 0 8 -5 15 -10 15 -6
0 -9 -6 -8 -12 2 -8 -8 -13 -27 -13 l-30 0 -12 130 c-6 72 -12 133 -12 138 -1
4 -25 7 -55 7 l-53 0 4 -52 c7 -97 14 -138 24 -138 5 0 9 -11 9 -25 0 -14 -4
-25 -9 -25 -5 0 -8 -8 -7 -17 1 -15 -8 -19 -47 -21 -27 -2 -54 2 -62 8 -9 8
-19 8 -36 0 -44 -20 -49 -48 -38 -208 5 -80 7 -152 5 -159 -3 -6 1 -103 9
-215 7 -112 10 -207 6 -211 -10 -10 -24 40 -16 53 4 6 2 10 -3 10 -5 0 -8 37
-7 83 1 45 -1 87 -4 92 -3 6 -6 45 -7 88 -1 43 -4 81 -8 84 -3 4 -6 14 -6 24
0 10 -4 21 -10 24 -5 3 -10 -4 -10 -17 0 -46 -12 -108 -21 -108 -5 0 -9 4 -9
10 0 5 -7 7 -15 4 -11 -4 -15 1 -15 17 0 20 -2 21 -11 9 -8 -11 -9 -6 -7 22 3
29 1 35 -9 27 -9 -8 -12 -49 -12 -146 1 -79 -3 -139 -9 -145 -7 -7 -7 -19 -1
-36 8 -21 15 -111 18 -229 1 -18 6 -33 11 -33 6 0 10 6 9 13 -4 30 2 58 11 52
6 -4 10 8 10 29 0 20 5 36 11 36 8 0 8 4 2 13 -13 16 -23 57 -14 57 4 0 6 25
5 55 -1 42 2 55 13 55 12 0 13 -7 8 -27 -10 -41 -13 -133 -4 -127 4 2 6 -6 3
-18 -2 -13 -6 -43 -8 -68 -2 -25 -7 -57 -11 -72 -5 -20 -3 -29 8 -34 10 -4 14
-18 13 -45 -1 -27 -5 -38 -13 -34 -7 2 -13 0 -13 -5 0 -6 7 -10 15 -10 18 0
20 -20 3 -20 -8 -1 -6 -6 5 -14 21 -16 22 -27 2 -20 -9 4 -15 0 -15 -10 0 -9
5 -16 10 -16 6 0 10 -4 10 -9 0 -5 -8 -7 -18 -4 -14 3 -18 12 -15 31 3 23 2
24 -6 7 -5 -11 -10 -30 -10 -43 -1 -13 -5 -21 -10 -18 -4 3 -6 28 -3 56 3 33
1 50 -7 50 -6 0 -11 5 -11 11 0 5 5 7 10 4 6 -3 10 -1 10 4 0 6 -4 11 -9 11
-16 0 -23 79 -36 365 -2 66 -7 158 -10 205 -14 238 -15 343 -4 375 10 28 10
46 -4 103 -9 39 -17 96 -17 128 l1 59 16 -29 c11 -21 14 -45 10 -83 -5 -49 -4
-54 23 -73 21 -15 27 -26 22 -42 -4 -16 -2 -19 8 -13 10 6 11 30 5 109 -4 56
-7 113 -7 129 1 15 -4 27 -9 27 -7 0 -8 14 -4 40 l7 40 -96 0 -96 0 0 -322z"/>
</g>
</svg>
