<?xml version="1.0" standalone="no"?>
<!DOCTYPE svg PUBLIC "-//W3C//DTD SVG 20010904//EN"
 "http://www.w3.org/TR/2001/REC-SVG-20010904/DTD/svg10.dtd">
<svg version="1.0" xmlns="http://www.w3.org/2000/svg"
 width="621.000000pt" height="300.000000pt" viewBox="0 0 621.000000 300.000000"
 preserveAspectRatio="xMidYMid meet">
<metadata>
Created by potrace 1.15, written by Peter Selinger 2001-2017
</metadata>
<g transform="translate(0.000000,300.000000) scale(0.100000,-0.100000)"
fill="#000000" stroke="none">
<path d="M1176 2775 c-21 -7 -42 -19 -46 -25 -5 -8 -17 -7 -45 4 -46 20 -55
14 -79 -54 l-18 -51 -44 7 -44 6 0 -171 0 -171 33 0 c42 0 68 -27 70 -71 2
-30 0 -32 -38 -35 -22 -3 -45 -6 -52 -9 -8 -2 -11 -57 -12 -179 -1 -151 1
-176 14 -176 19 0 19 -14 0 -34 -18 -18 -20 -47 -2 -40 35 13 39 49 11 119 -7
18 -6 19 10 6 9 -8 24 -28 33 -45 17 -33 43 -57 54 -50 4 2 9 -5 12 -17 4 -16
2 -19 -14 -14 -13 5 -32 -2 -55 -20 -19 -15 -42 -24 -49 -21 -25 9 -20 -124 6
-168 12 -20 25 -34 29 -31 5 3 11 1 15 -5 3 -5 -1 -10 -9 -10 -21 0 -30 -18
-16 -35 9 -11 7 -16 -10 -25 -15 -8 -20 -18 -17 -31 3 -10 1 -22 -4 -25 -5 -3
-9 -85 -9 -183 l0 -177 60 -72 c34 -40 68 -72 75 -72 19 0 19 5 -1 35 -13 20
-14 28 -4 40 6 8 9 18 6 23 -8 14 12 167 30 231 11 37 21 55 35 58 12 3 18 11
15 19 -4 10 3 14 24 14 17 0 30 5 30 10 0 6 26 10 58 10 51 0 149 23 178 42 7
5 15 20 19 35 3 15 12 34 18 41 6 8 11 28 11 45 1 29 8 36 73 73 40 23 95 64
123 93 57 59 104 79 172 73 72 -6 88 -27 88 -117 0 -91 4 -93 129 -70 83 16
91 16 115 0 21 -14 29 -15 41 -5 17 14 35 5 35 -18 0 -20 -40 -83 -80 -127
-15 -16 -32 -43 -37 -60 -9 -28 -17 -32 -109 -59 -54 -15 -115 -35 -134 -44
-63 -29 -114 -24 -123 10 -5 18 -8 19 -21 8 -12 -9 -19 -10 -30 -1 -11 9 -23
8 -51 -3 -21 -9 -41 -13 -46 -10 -12 7 -11 -3 0 -25 8 -14 21 -17 68 -15 54 3
56 3 23 -7 -19 -6 -44 -15 -55 -19 -11 -5 -42 -13 -70 -20 -27 -7 -59 -15 -70
-20 -11 -4 -45 -15 -75 -25 -93 -29 -110 -37 -110 -53 0 -27 -34 -91 -52 -97
-10 -4 -18 -13 -18 -20 0 -9 -6 -12 -15 -9 -20 8 -41 -6 -24 -17 9 -5 6 -11
-13 -19 -14 -7 -31 -22 -37 -34 -10 -17 -11 -14 -6 23 l6 44 -32 -7 c-43 -8
-45 -12 -25 -35 10 -11 20 -43 23 -77 4 -42 14 -71 35 -102 23 -33 28 -49 23
-71 -3 -17 -2 -32 4 -36 16 -9 14 -58 -2 -52 -10 4 -13 -6 -11 -37 2 -22 3
-57 3 -77 1 -28 6 -38 21 -42 11 -3 25 -17 31 -31 11 -24 9 -30 -16 -56 -23
-24 -25 -30 -13 -35 9 -4 14 -14 11 -24 -2 -9 3 -23 11 -30 9 -8 16 -12 17
-10 0 2 2 22 3 44 5 68 26 122 53 134 32 15 54 13 77 -4 27 -21 38 -19 24 4
-7 11 -16 17 -21 14 -5 -3 -7 0 -5 8 3 8 15 14 27 13 13 0 21 5 21 16 0 10 7
23 15 30 18 15 20 40 3 40 -8 0 -9 3 -2 10 5 5 43 12 84 14 81 5 102 20 116
79 8 38 46 53 56 23 12 -41 8 -94 -9 -115 -10 -12 -56 -35 -103 -51 -108 -38
-167 -90 -151 -133 7 -17 18 -27 30 -27 23 0 32 18 20 41 -6 11 -2 22 11 34
24 22 40 12 40 -25 0 -23 4 -28 16 -23 10 4 22 -1 30 -12 19 -25 30 -11 16 20
-11 23 -8 27 36 60 36 26 55 34 82 32 22 -2 39 3 47 13 10 13 13 13 27 0 28
-28 97 -162 92 -177 -3 -8 -3 -26 0 -39 l6 -24 501 1 c410 0 504 3 521 14 17
11 35 12 76 6 30 -5 58 -7 62 -4 4 2 24 -1 44 -6 36 -10 67 -3 64 15 -1 5 4
10 11 13 7 2 10 -2 6 -11 -4 -12 4 -17 35 -22 22 -4 43 -5 45 -2 4 4 35 288
47 422 2 23 6 46 10 53 11 17 113 14 119 -3 4 -11 22 -15 64 -15 71 1 293 -26
347 -42 21 -6 54 -8 72 -4 31 5 35 3 45 -22 14 -33 18 -289 6 -350 l-9 -43
686 0 686 0 0 305 c0 168 -1 305 -2 305 -2 0 -25 -7 -52 -15 -78 -24 -80 -23
-95 46 -15 72 -14 73 69 89 30 6 61 13 67 15 10 3 13 47 12 170 0 156 -1 166
-18 160 -31 -10 -153 -35 -221 -46 -36 -6 -76 -18 -90 -27 -14 -9 -43 -19 -65
-23 -22 -4 -56 -10 -75 -15 -34 -7 -34 -7 28 52 34 33 62 66 62 72 0 7 -7 24
-16 37 -18 27 -10 46 28 66 24 13 50 -15 44 -45 -4 -14 4 -10 30 15 51 50 57
65 42 99 -12 27 -16 29 -63 26 -27 -1 -58 -6 -67 -10 -13 -6 -18 -4 -18 8 0 9
-6 16 -14 16 -13 0 -73 -43 -87 -63 -3 -4 -10 3 -16 16 -9 20 -8 26 9 36 18
11 20 11 15 -3 -3 -8 -2 -18 3 -21 5 -3 12 4 15 16 8 24 -7 39 -39 39 -11 0
-27 7 -37 16 -20 18 -67 26 -75 12 -3 -5 0 -15 6 -23 9 -11 10 -18 1 -29 -8
-10 -7 -21 5 -45 18 -36 64 -232 64 -273 0 -16 -7 -31 -17 -37 -27 -14 -265
-71 -286 -68 -9 2 -32 19 -51 38 -63 64 -86 75 -86 39 0 -11 -5 -20 -11 -20
-8 0 -9 -14 -5 -43 5 -31 3 -47 -6 -54 -19 -16 -117 -43 -153 -43 -17 0 -35
-4 -40 -9 -6 -6 -28 -13 -51 -17 -32 -5 -42 -3 -47 10 -6 16 36 46 65 46 8 0
30 20 50 44 28 33 43 43 62 41 23 -3 26 1 26 26 0 26 2 28 19 19 25 -13 34
-13 26 1 -4 6 2 13 12 15 17 5 19 15 20 87 0 45 -3 89 -7 97 -4 8 -10 45 -14
82 l-7 68 36 14 c43 18 46 31 5 22 -22 -4 -29 -2 -24 5 4 8 28 10 67 6 57 -5
124 5 232 35 22 7 53 13 70 16 16 2 33 9 37 15 5 8 13 6 26 -6 10 -9 22 -14
27 -10 4 5 5 -1 1 -11 -5 -15 -4 -17 7 -8 8 7 17 9 20 6 3 -3 9 11 12 32 10
60 13 67 38 94 13 14 22 31 19 38 -2 6 3 12 12 12 9 0 16 -4 16 -10 0 -5 3 -9
8 -9 4 1 18 1 31 0 23 -1 23 -2 6 -21 -9 -10 -19 -34 -20 -52 -4 -43 -3 -42
-20 -28 -13 10 -19 8 -36 -14 -12 -15 -27 -25 -34 -23 -7 3 -12 -5 -12 -24 0
-22 6 -30 30 -38 25 -9 30 -8 34 10 4 13 11 18 20 15 24 -10 34 3 22 26 -9 17
-8 24 8 37 11 9 30 32 42 53 19 32 20 38 6 51 -19 19 -19 27 0 27 9 0 12 6 9
15 -3 8 -13 14 -22 13 -10 -1 -28 0 -42 1 -23 1 -24 3 -7 15 16 12 16 14 2 20
-23 8 -7 28 16 21 25 -8 24 9 -3 46 l-22 30 42 39 c23 22 46 40 50 40 15 0
122 -149 122 -169 0 -12 5 -21 11 -21 6 0 10 -15 8 -32 -3 -54 0 -70 14 -63 6
4 5 1 -4 -7 -20 -17 -34 -58 -20 -58 6 0 11 9 11 21 0 12 4 17 11 14 6 -4 8
-13 5 -21 -3 -7 -1 -16 4 -19 6 -4 10 -17 10 -30 0 -29 32 -49 64 -41 12 3 35
19 51 36 24 25 26 30 10 24 -14 -5 -17 -4 -10 4 6 5 19 12 30 14 17 3 21 12
23 58 2 39 -1 57 -12 65 -18 14 -96 116 -96 127 0 5 10 8 23 8 13 0 33 11 45
25 12 14 26 25 32 25 6 0 10 49 10 130 0 72 -3 130 -8 130 -4 0 -27 -31 -51
-70 -24 -38 -48 -67 -53 -64 -5 3 -7 1 -6 -5 2 -5 -12 -25 -30 -44 -17 -20
-27 -37 -22 -39 7 -2 4 -11 -5 -23 -10 -14 -15 -15 -13 -5 2 8 -2 15 -7 15 -6
0 -9 -4 -7 -8 1 -5 -2 -6 -8 -2 -5 3 -10 16 -10 28 0 19 -3 17 -27 -11 -24
-30 -27 -31 -44 -16 -17 15 -17 18 -2 40 8 13 19 22 23 19 5 -3 11 -1 15 5 3
5 2 10 -3 10 -6 0 -5 10 1 25 7 14 15 25 20 25 4 0 2 9 -5 20 -16 25 -43 25
-75 0 -18 -14 -29 -17 -38 -10 -9 7 -16 5 -26 -6 -8 -10 -22 -14 -39 -10 -15
3 -32 0 -39 -7 -9 -9 -16 -9 -31 1 -18 11 -20 10 -21 -10 0 -16 -8 -6 -25 32
-14 30 -39 69 -56 87 -16 17 -29 35 -27 40 2 5 36 38 75 75 69 64 85 90 41 66
-11 -6 -39 -8 -63 -4 -50 7 -94 -7 -94 -29 0 -8 -1 -15 -2 -15 -12 0 -160 31
-188 40 -54 16 -201 12 -224 -5 -27 -21 -32 -19 -46 14 -14 36 -9 46 35 67 28
13 38 14 50 4 10 -9 15 -9 15 -1 0 6 -5 11 -12 11 -6 0 -8 3 -5 7 4 3 1 13 -7
22 -9 10 -11 23 -6 36 6 14 9 16 9 4 1 -9 12 -22 26 -29 14 -7 25 -19 25 -27
0 -7 5 -13 10 -13 14 0 13 13 -2 28 -7 7 -11 28 -10 47 3 39 -4 44 -24 18 -12
-17 -13 -17 -14 -1 0 9 -9 18 -22 20 -36 5 -33 27 4 25 28 -2 32 1 30 17 -3
17 -2 18 12 7 15 -12 15 -15 -1 -28 -12 -9 -13 -13 -4 -11 31 9 36 36 13 68
-23 31 -22 50 3 50 13 0 41 -52 81 -152 20 -49 37 -62 98 -73 20 -4 36 -13 36
-20 0 -7 7 -16 16 -19 24 -9 54 -7 54 4 0 6 19 10 43 10 24 0 47 3 51 7 3 4
13 8 21 9 11 2 12 -2 6 -15 -7 -11 -4 -24 8 -40 15 -20 21 -22 40 -12 12 7 21
17 20 24 -3 26 2 36 15 31 8 -3 24 6 37 20 15 18 26 23 34 16 8 -6 18 -5 31 5
10 8 24 14 29 15 9 0 55 -62 55 -74 0 -3 -19 -10 -41 -16 -101 -27 -100 -21
-18 -106 41 -41 78 -82 83 -91 6 -12 11 -9 26 15 15 24 24 29 42 25 21 -4 22
-3 6 10 -16 12 -16 16 -2 35 14 21 13 24 -13 46 l-28 24 21 28 c27 36 36 38
63 14 13 -11 40 -23 60 -26 20 -4 45 -13 56 -20 19 -14 18 -15 -7 -18 -13 -1
-24 -26 -11 -26 16 1 40 26 48 50 7 23 8 24 15 5 4 -12 9 10 14 59 7 75 -3
114 -24 101 -5 -3 -29 11 -54 30 -33 25 -56 35 -82 35 -27 0 -35 3 -31 14 5
11 -4 16 -35 18 l-40 3 22 28 c20 25 20 28 4 34 -9 3 -42 21 -72 40 -65 39
-135 46 -158 16 -13 -17 -14 -17 -8 0 10 29 -49 23 -66 -7 l-13 -25 -48 25
c-47 23 -54 24 -288 24 -203 0 -240 -2 -245 -15 -3 -8 -12 -15 -19 -15 -8 0
-20 7 -27 15 -7 8 -26 15 -43 15 l-30 0 7 -61 c6 -58 5 -61 -14 -56 -27 7 -36
-10 -10 -18 15 -5 19 -12 14 -30 -3 -13 0 -33 6 -45 12 -23 -2 -52 -17 -35 -5
4 -3 10 4 12 13 5 6 33 -9 33 -5 0 -6 -4 -3 -10 8 -13 5 -12 -33 1 -28 10 -36
7 -98 -36 -61 -41 -69 -44 -76 -28 -6 16 -8 16 -14 -5 -11 -36 -34 -22 -70 42
-38 70 -34 90 26 113 48 19 57 39 30 68 -11 12 -20 29 -20 37 0 15 -55 17
-616 17 l-616 1 6 -33 c19 -92 19 -115 0 -125 -19 -10 -54 -15 -86 -13 -12 1
-19 18 -28 72 -7 39 -10 73 -7 76 4 3 21 9 39 14 25 6 16 7 -37 5 l-70 -3 -13
-38 c-15 -45 -28 -62 -19 -25 10 41 -2 70 -29 70 -30 0 -40 -17 -15 -25 20 -6
19 -9 -5 -78 -6 -15 -75 -57 -94 -57 -8 0 -34 52 -32 63 1 4 -5 21 -14 38 -15
30 -11 56 5 30 7 -11 10 -11 15 0 3 8 4 4 2 -8 -4 -20 20 -41 32 -28 3 3 0 5
-6 5 -7 0 -12 5 -12 10 0 6 9 10 20 10 23 0 27 25 5 34 -8 3 -232 5 -497 5
-389 0 -491 -2 -522 -14z m1510 -45 c40 6 44 5 38 -12 -8 -27 6 -82 18 -70 6
6 6 17 -1 31 -10 17 -9 20 4 15 24 -10 17 -42 -16 -73 -17 -17 -36 -32 -42
-34 -6 -2 -8 -11 -4 -20 5 -15 10 -15 26 -5 26 16 29 12 37 -55 6 -49 4 -57
-9 -57 -9 0 -23 13 -32 30 -11 21 -22 29 -38 27 -16 -1 -22 3 -22 18 0 11 -10
40 -23 64 -27 55 -28 64 -2 31 13 -17 20 -20 20 -10 0 18 -28 61 -47 73 -18
11 -16 27 2 27 8 0 15 7 15 15 0 12 4 14 16 7 8 -5 35 -6 60 -2z m-527 -114
c-8 -8 -13 -7 -16 2 -8 21 -36 14 -30 -8 4 -15 1 -20 -11 -18 -12 2 -17 -4
-17 -20 0 -13 -8 -28 -18 -33 -9 -6 -17 -22 -17 -37 0 -31 -9 -47 -30 -55 -10
-3 -7 -6 8 -6 12 -1 39 6 60 15 39 17 144 27 175 18 16 -5 18 -14 15 -60 -2
-36 1 -55 10 -59 16 -6 15 -35 -3 -59 -8 -11 -15 -39 -15 -63 0 -34 6 -49 25
-67 16 -15 25 -34 25 -52 0 -18 9 -37 21 -47 14 -12 19 -26 15 -40 -3 -12 -1
-29 4 -37 8 -13 10 -12 10 3 0 9 5 17 10 17 7 0 7 7 0 21 -20 36 -5 63 47 86
l48 21 -52 1 c-59 1 -57 -2 -68 106 -3 33 -8 77 -12 98 l-6 38 79 -3 79 -3 10
-97 c11 -102 18 -119 37 -100 7 7 25 12 40 12 26 0 28 2 22 28 -10 40 -12 42
-44 42 -36 0 -39 5 -47 85 -3 36 -11 65 -17 66 -6 0 -48 0 -93 -1 -65 -1 -83
2 -83 13 0 19 47 73 56 64 4 -4 -1 -16 -11 -27 -22 -25 -1 -28 26 -4 13 12 22
13 35 6 15 -8 23 -4 42 24 12 19 29 34 36 34 7 0 46 -36 85 -80 l73 -80 29 17
c28 17 30 17 51 -5 l22 -22 -22 -16 c-17 -12 -20 -19 -12 -29 8 -9 7 -20 -1
-39 -9 -20 -9 -29 1 -41 11 -13 11 -20 0 -40 -7 -14 -17 -25 -21 -25 -5 0 -6
-13 -2 -30 8 -40 -8 -38 -52 6 -43 43 -53 39 -27 -10 11 -19 22 -33 25 -30 7
8 62 -75 75 -115 11 -30 10 -36 -8 -48 -11 -8 -20 -20 -20 -26 0 -13 -43 -44
-109 -78 -24 -12 -46 -31 -49 -41 -2 -10 -8 -18 -13 -18 -5 0 -6 -7 -3 -15 10
-24 -3 -18 -53 30 -26 24 -55 45 -64 45 -21 0 -53 36 -45 49 4 6 -8 27 -26 48
-18 21 -42 56 -53 77 -11 22 -40 61 -65 87 -39 41 -49 46 -77 42 -23 -4 -33
-11 -33 -23 0 -14 -12 -18 -65 -23 -35 -3 -76 -14 -89 -23 l-25 -16 20 -41
c34 -67 40 -72 59 -47 l16 22 32 -27 c20 -16 32 -36 32 -51 0 -13 5 -24 12
-24 19 0 -21 -38 -64 -60 -50 -26 -70 -25 -38 1 18 16 25 31 26 60 0 31 -2 36
-13 27 -7 -6 -15 -9 -17 -7 -13 16 -64 111 -76 144 -15 38 -18 40 -53 37 -29
-3 -37 0 -37 12 0 12 6 15 23 11 14 -4 32 1 47 13 41 32 283 49 300 21 9 -13
40 -5 40 10 0 5 -14 21 -31 35 -33 28 -33 28 13 80 35 39 7 29 -35 -12 -24
-23 -46 -42 -50 -42 -3 0 -42 27 -85 61 l-80 60 -16 72 c-25 103 -21 97 -50
84 -15 -7 -29 -20 -32 -30 -3 -9 -9 -15 -13 -13 -7 5 -22 -3 -100 -58 -23 -16
-43 -27 -46 -25 -2 3 2 18 10 33 8 16 15 34 15 42 0 7 18 23 41 34 22 12 64
37 94 56 30 18 56 34 59 34 3 0 36 18 72 41 65 40 66 40 60 15 -5 -20 -3 -24
9 -20 8 4 15 15 15 25 0 10 4 19 9 19 5 0 12 9 16 20 6 19 7 18 31 -7 18 -20
22 -29 13 -37z m1112 19 c17 -19 41 -38 53 -41 22 -5 54 -44 37 -44 -5 0 -11
6 -14 13 -2 6 -7 9 -11 5 -4 -3 -3 -16 4 -27 9 -18 7 -22 -15 -31 -15 -6 -34
-10 -44 -10 -10 0 -24 -7 -31 -15 -20 -25 -50 -19 -50 10 0 17 -4 23 -14 19
-11 -4 -17 4 -21 28 -12 68 13 114 73 127 1 1 16 -15 33 -34z m-141 -106 c16
-19 30 -39 30 -45 0 -32 -25 -76 -52 -90 -38 -20 -43 -12 -53 65 -4 31 -13 66
-21 78 -15 25 -7 31 38 28 17 -1 39 -14 58 -36z m-1893 -113 c10 -13 27 -42
38 -65 15 -35 16 -44 5 -51 -21 -13 6 -70 34 -70 11 0 29 -7 39 -15 16 -11 25
-11 60 1 49 17 66 31 78 61 5 15 14 21 24 17 21 -8 9 -50 -27 -94 -15 -19 -28
-38 -28 -43 0 -4 -16 -31 -35 -60 l-35 -52 23 -9 c21 -9 20 -10 -10 -14 -32
-3 -42 -15 -24 -26 4 -3 4 -27 -1 -53 -9 -42 -17 -53 -65 -87 -30 -22 -61 -41
-69 -42 -8 -1 -26 -14 -40 -29 -27 -29 -28 -28 -14 9 6 16 5 47 -1 87 -10 65
0 112 29 134 10 9 3 18 -36 43 -27 17 -66 47 -87 66 -21 20 -43 37 -49 39 -6
2 -8 8 -4 12 4 5 27 1 50 -8 23 -9 44 -15 46 -12 8 8 -20 35 -35 35 -9 0 -13
6 -9 15 10 26 -4 45 -29 39 -27 -7 -33 1 -50 67 -13 47 -12 48 6 38 14 -7 19
-6 19 3 1 20 40 44 84 52 21 4 45 14 53 22 21 20 39 17 60 -10z m672 -42 l14
-46 -56 -51 c-55 -52 -123 -95 -132 -85 -3 3 -11 30 -17 61 -13 63 -15 60 65
113 l38 25 19 -23 c11 -13 19 -29 20 -35 0 -16 26 -17 35 -3 4 6 3 24 0 42 -5
20 -10 26 -15 18 -6 -9 -9 -9 -15 0 -7 11 9 29 25 30 3 0 12 -21 19 -46z
m1707 21 c9 -14 14 -32 10 -40 -3 -9 1 -18 9 -21 34 -13 25 -104 -11 -104 -8
0 -12 -4 -9 -10 3 -5 -1 -10 -10 -10 -9 0 -13 -5 -9 -11 4 -8 0 -8 -15 0 -13
7 -21 21 -21 36 0 16 -6 25 -15 25 -8 0 -15 3 -15 8 1 13 27 42 39 42 24 0 9
40 -24 67 -19 15 -35 31 -35 36 0 4 20 7 45 7 36 0 47 -5 61 -25z m400 -15
c27 -10 74 -64 74 -86 0 -5 14 -15 30 -21 26 -10 43 -43 22 -43 -4 0 -30 -20
-57 -45 -35 -33 -51 -42 -57 -33 -5 9 -8 4 -8 -13 0 -17 -9 -33 -25 -43 -25
-17 -26 -17 -19 9 6 25 4 27 -23 24 -22 -3 -43 6 -77 31 -39 30 -46 40 -44 65
3 25 8 31 31 33 15 2 27 7 27 11 0 5 8 11 19 14 14 3 17 11 14 29 -4 19 3 31
27 51 17 15 33 27 34 27 2 0 16 -5 32 -10z m-848 -184 c15 -8 100 -88 188
-178 89 -90 226 -226 303 -302 78 -77 149 -151 157 -165 8 -14 14 -19 13 -11
-4 48 21 52 122 19 111 -36 104 -40 -76 -45 -41 -1 -51 -4 -53 -20 -8 -54 -58
-111 -341 -390 -236 -233 -313 -303 -338 -309 -74 -15 -80 -11 -414 325 -282
283 -318 322 -323 357 -4 21 -3 49 1 61 11 28 629 651 658 663 31 12 73 10
103 -5z m1596 -109 c16 -25 29 -62 30 -84 2 -41 16 -72 40 -93 24 -19 19 -33
-6 -16 -12 9 -39 16 -60 16 -26 0 -40 6 -48 19 -6 12 -37 27 -82 41 -40 12
-79 24 -87 26 -9 3 1 16 30 36 24 18 64 49 88 70 25 21 49 37 55 35 6 -2 24
-24 40 -50z m-418 -128 c10 -11 27 -25 37 -31 17 -9 18 -7 13 24 -6 29 -5 31
7 16 8 -10 18 -18 22 -18 4 0 35 -25 70 -55 47 -42 65 -64 69 -90 9 -48 23
-52 60 -16 18 17 37 31 43 31 6 0 13 -23 15 -51 5 -50 5 -50 -51 -104 -31 -30
-61 -55 -67 -55 -7 0 -14 10 -18 23 -9 35 -7 87 4 87 12 0 14 37 2 44 -16 10
-43 -22 -37 -45 5 -21 -1 -28 -47 -51 -61 -32 -71 -34 -88 -13 -18 22 -33 18
-20 -5 8 -15 6 -21 -10 -30 -16 -9 -20 -8 -20 5 0 24 -24 12 -28 -13 -2 -16
-10 -22 -27 -22 -14 0 -40 -9 -60 -20 l-36 -20 -14 34 c-8 19 -26 43 -40 54
-20 16 -25 29 -25 63 0 38 4 46 29 60 21 12 30 26 35 57 3 22 4 47 0 55 -5 15
20 35 101 78 62 34 58 33 81 8z m-535 -681 c26 -142 28 -133 -37 -135 -36 -2
-53 1 -49 8 4 6 0 18 -8 27 -8 9 -17 36 -18 58 -3 34 2 48 26 76 17 19 37 44
44 56 8 12 17 19 19 17 2 -2 13 -50 23 -107z m-236 -248 c22 0 46 -4 53 -9 18
-11 19 -138 3 -170 -11 -20 -18 -22 -59 -18 -90 9 -257 39 -266 47 -5 5 -2 16
8 25 9 9 16 12 16 5 0 -6 10 -10 23 -8 16 2 22 10 22 28 0 14 8 42 18 62 20
43 56 58 107 47 19 -5 53 -9 75 -9z m-747 -98 l3 -63 29 6 c25 5 31 2 43 -22
13 -25 13 -33 -6 -79 l-21 -51 -76 -6 c-87 -7 -290 2 -305 13 -5 4 -32 11 -59
15 -72 10 -76 13 -76 55 0 21 -5 40 -11 42 -6 2 59 23 146 48 86 24 167 51
178 61 28 21 106 49 132 46 17 -2 20 -11 23 -65z m2327 -241 c-3 -5 -10 -44
-15 -87 -6 -42 -12 -80 -15 -83 -3 -3 -20 2 -38 11 -64 33 -189 88 -198 88
-27 0 6 18 43 24 44 7 138 32 173 46 28 12 57 12 50 1z"/>
<path d="M2758 1852 c-295 -294 -318 -320 -318 -352 0 -32 23 -58 318 -352
294 -295 320 -318 352 -318 32 0 58 23 352 318 295 294 318 320 318 352 0 32
-23 58 -318 352 -294 295 -320 318 -352 318 -32 0 -58 -23 -352 -318z m380
284 c15 -8 161 -149 325 -313 226 -227 297 -305 297 -323 0 -18 -73 -98 -307
-332 -169 -170 -316 -311 -326 -314 -10 -3 -30 2 -45 12 -38 24 -597 584 -611
612 -9 17 -9 27 0 45 12 21 556 566 608 608 28 23 25 23 59 5z"/>
<path d="M3075 1971 c-111 -28 -184 -119 -185 -228 0 -28 5 -64 11 -80 7 -15
11 -44 10 -63 -1 -39 12 -60 49 -80 14 -7 31 -22 38 -32 7 -10 25 -18 40 -18
36 -1 141 -1 172 0 13 0 33 9 45 19 11 11 35 33 54 50 27 26 32 37 29 63 -3
18 1 47 8 65 41 96 -14 231 -115 282 -44 23 -115 33 -156 22z"/>
<path d="M2800 1540 c-6 -12 -9 -28 -6 -35 2 -7 -2 -19 -10 -25 -17 -15 -18
-52 -2 -68 17 -17 53 -15 68 3 17 20 24 19 110 -14 45 -17 69 -31 60 -35 -143
-54 -151 -55 -171 -35 -22 22 -32 23 -60 9 -23 -13 -26 -62 -5 -79 8 -7 12
-20 9 -29 -2 -10 5 -26 17 -37 20 -18 24 -18 48 -4 18 10 27 23 27 39 0 22 12
29 119 68 l118 44 119 -44 c100 -36 119 -46 119 -64 0 -11 9 -29 20 -39 17
-15 24 -16 45 -7 14 6 26 17 27 24 3 29 4 34 17 56 19 35 10 65 -22 76 -22 8
-31 6 -48 -11 l-21 -20 -75 28 c-41 15 -77 30 -79 32 -2 2 32 16 76 31 73 26
81 27 95 12 19 -19 56 -21 73 -4 17 17 15 53 -3 68 -9 7 -13 20 -10 28 7 20
-23 52 -50 52 -27 0 -45 -18 -45 -46 0 -19 -13 -27 -79 -52 -164 -63 -148 -63
-311 -1 -67 26 -77 33 -85 61 -8 27 -16 34 -42 36 -24 2 -34 -2 -43 -18z"/>
<path d="M1764 1493 c-40 -5 -54 -21 -97 -108 -31 -61 -33 -71 -19 -76 12 -5
20 1 27 16 20 44 36 55 81 55 23 0 46 -5 49 -10 4 -6 13 -7 23 -1 9 4 34 6 55
4 37 -5 49 -17 25 -26 -12 -3 59 -3 89 1 14 2 37 42 47 82 6 22 5 22 -11 -5
-10 -16 -24 -31 -30 -32 -18 -4 -16 4 8 38 11 16 16 29 11 29 -6 0 -12 -7 -15
-15 -8 -19 -88 -60 -85 -43 2 7 12 18 23 25 20 12 20 12 -2 13 -12 0 -26 -6
-30 -14 -16 -27 -50 -37 -94 -27 -23 5 -48 7 -56 4 -13 -5 -13 -2 -4 15 7 12
22 22 34 23 19 0 20 1 4 8 -17 6 -17 8 -3 20 16 14 22 32 9 29 -5 0 -22 -3
-39 -5z"/>
<path d="M1340 1334 c-41 -13 -100 -29 -130 -35 -100 -21 -105 -26 -118 -125
-6 -48 -10 -89 -8 -91 2 -2 16 28 31 66 15 39 32 71 39 71 7 0 21 9 31 20 10
12 29 19 44 18 14 -1 41 2 59 6 18 4 31 4 30 -1 -5 -13 5 -15 47 -8 71 12 74
14 71 43 -2 15 -4 35 -5 45 -1 21 2 21 -91 -9z"/>
<path d="M1280 1170 c-23 -62 -39 -78 -93 -91 -69 -17 -64 -16 -92 -18 -28 -1
-36 -35 -11 -44 18 -7 105 19 125 38 9 7 42 24 74 36 57 22 74 40 91 94 5 18
1 20 -38 20 -41 0 -45 -2 -56 -35z"/>
</g>
</svg>
