<?xml version="1.0" standalone="no"?>
<!DOCTYPE svg PUBLIC "-//W3C//DTD SVG 20010904//EN"
 "http://www.w3.org/TR/2001/REC-SVG-20010904/DTD/svg10.dtd">
<svg version="1.0" xmlns="http://www.w3.org/2000/svg"
 width="620.000000pt" height="354.000000pt" viewBox="0 0 620.000000 354.000000"
 preserveAspectRatio="xMidYMid meet">
<metadata>
Created by potrace 1.15, written by Peter Selinger 2001-2017
</metadata>
<g transform="translate(0.000000,354.000000) scale(0.100000,-0.100000)"
fill="#000000" stroke="none">
<path d="M0 3485 c0 -65 -18 -61 209 -44 145 11 146 11 216 53 64 38 68 41 42
44 -16 2 -39 -4 -52 -12 -19 -12 -23 -13 -19 -2 4 10 -6 13 -40 13 -26 0 -46
-4 -46 -8 0 -5 6 -10 13 -10 6 -1 17 -2 22 -4 6 -1 17 -3 25 -4 13 -1 13 -3 1
-10 -8 -5 -19 -8 -25 -6 -6 2 -24 6 -39 10 -20 4 -27 10 -23 20 5 13 -17 15
-139 15 l-145 0 0 -55z"/>
<path d="M585 3533 c11 -3 32 -16 47 -28 15 -13 41 -26 57 -30 16 -3 35 -13
42 -21 7 -8 28 -22 48 -30 45 -19 71 -42 71 -64 0 -14 -26 -24 -132 -50 -73
-18 -137 -36 -142 -41 -6 -5 -24 -9 -40 -10 -30 -1 -30 -1 -6 -9 14 -4 52 -13
85 -20 33 -6 78 -16 100 -22 22 -5 67 -13 100 -18 68 -10 72 -7 100 74 34 98
58 146 71 146 18 0 18 4 -11 -75 -26 -69 -26 -111 1 -101 9 4 12 2 8 -5 -3 -6
-15 -9 -25 -6 -12 3 -25 -3 -34 -16 -19 -27 -19 -41 -1 -34 9 4 34 -18 68 -56
29 -34 61 -70 71 -79 9 -10 17 -23 17 -29 0 -7 13 -24 28 -39 16 -14 26 -32
24 -38 -2 -7 6 -12 18 -12 14 0 19 4 14 12 -4 7 -7 31 -5 54 3 47 -9 60 -49
56 -22 -3 -30 4 -49 43 -25 51 -24 66 3 36 11 -12 25 -17 34 -14 15 6 15 4 -1
-14 -12 -14 -15 -23 -8 -28 6 -3 22 6 35 22 17 19 21 30 13 35 -9 6 -9 8 -1 8
15 0 12 56 -3 71 -9 9 -16 9 -29 -2 -15 -12 -16 -12 -10 9 5 15 2 28 -10 40
-17 16 -17 17 7 20 13 2 30 9 38 15 11 10 13 8 7 -10 -4 -12 0 -36 11 -57 16
-36 37 -49 31 -22 -2 8 1 15 6 15 16 -1 46 55 36 65 -16 16 -11 25 10 19 29
-8 26 -20 -24 -101 -25 -40 -42 -72 -38 -72 4 0 24 11 44 25 40 27 48 30 48
16 0 -6 -23 -22 -52 -38 -61 -33 -72 -52 -28 -45 16 2 30 8 30 13 0 5 5 9 11
9 8 0 8 -4 -1 -15 -6 -8 -9 -18 -6 -24 3 -5 0 -11 -6 -14 -9 -3 -3 -14 17 -31
17 -15 43 -38 58 -53 27 -24 30 -25 68 -13 21 7 39 20 39 27 0 23 -20 53 -34
53 -18 0 -9 40 13 58 14 12 14 13 -2 8 -10 -3 -23 -6 -29 -6 -6 0 -8 -7 -5
-15 4 -8 2 -17 -4 -20 -10 -7 -14 2 -23 50 -6 28 -5 29 9 11 21 -27 19 -11 -6
54 -11 30 -27 59 -35 63 -22 12 -6 28 21 21 13 -3 37 2 55 11 20 10 64 18 117
21 78 3 84 2 78 -15 -4 -13 4 -27 25 -44 16 -14 30 -30 30 -35 0 -10 80 -96
114 -122 18 -14 19 -13 14 8 -6 21 -3 22 44 22 35 0 48 -4 46 -12 -3 -7 -17
-14 -31 -16 -34 -4 -34 -13 3 -52 20 -22 26 -35 20 -43 -51 -61 -60 -87 -55
-160 3 -40 8 -89 11 -109 4 -33 1 -38 -15 -38 -21 0 -37 32 -26 50 11 18 -6
90 -21 90 -17 0 -16 3 -5 -38 18 -62 -8 -22 -53 81 -17 40 -23 114 -7 88 5 -8
7 -20 4 -27 -2 -7 0 -21 6 -31 19 -31 6 79 -13 113 l-17 29 4 -28 c3 -17 0
-26 -7 -24 -6 2 -12 19 -13 37 -4 40 -5 42 -23 29 -11 -8 -12 -12 -2 -16 6 -2
12 -9 12 -14 0 -14 -49 24 -50 38 0 7 -8 16 -17 22 -13 7 -17 22 -16 65 1 31
-2 56 -7 56 -4 0 -4 17 1 38 12 53 12 53 -21 50 -16 -1 -30 -6 -30 -11 0 -5
-7 -7 -15 -3 -26 9 -17 -11 20 -45 34 -32 45 -59 25 -59 -16 0 -12 -15 20 -85
17 -36 30 -71 30 -78 0 -26 46 -103 68 -112 23 -10 30 -31 11 -37 -6 -2 -7
-11 -3 -22 7 -19 8 -19 14 0 6 16 10 13 24 -20 9 -21 16 -45 16 -53 0 -8 7
-21 15 -30 18 -17 16 -32 -6 -46 -11 -7 -33 2 -82 31 -58 35 -67 38 -67 22 0
-10 9 -34 20 -53 11 -19 18 -41 15 -48 -3 -8 -26 -27 -51 -43 -47 -30 -46 -46
5 -46 12 0 44 -10 70 -23 25 -13 58 -27 72 -30 29 -7 65 -68 55 -93 -6 -17
-25 -17 -86 -3 -116 27 -274 37 -398 27 -113 -10 -125 -9 -140 7 -16 16 -15
17 13 12 50 -9 198 13 215 32 20 23 58 25 56 3 -2 -26 39 -27 63 -1 12 13 21
18 21 13 0 -6 -5 -15 -12 -22 -7 -7 -10 -12 -8 -13 3 0 12 -2 20 -4 8 -1 35
-6 60 -9 25 -4 69 -11 99 -16 30 -6 56 -8 59 -6 2 2 -5 13 -15 23 -12 12 -59
27 -128 42 -60 13 -114 24 -120 26 -5 1 -17 5 -25 8 -50 18 -123 12 -90 -8 13
-8 13 -25 0 -25 -5 0 -12 11 -16 25 -3 14 -11 25 -18 25 -6 1 -36 3 -66 5 -63
6 -143 -10 -161 -31 -9 -11 -8 -18 2 -31 13 -15 12 -15 -8 -4 -13 6 -27 20
-33 31 -9 17 -7 22 15 30 15 6 30 10 34 10 4 0 23 7 41 16 22 11 58 17 111 17
l78 0 -19 27 c-11 16 -23 43 -27 61 -3 19 -16 49 -27 69 -11 19 -23 55 -26 79
l-5 45 -168 55 c-92 30 -162 58 -155 62 6 4 21 1 32 -6 12 -8 62 -25 111 -40
50 -14 107 -32 129 -41 21 -8 41 -13 43 -10 3 3 -17 27 -43 54 -34 34 -63 54
-94 63 -25 7 -49 16 -55 21 -13 11 28 10 61 -2 l26 -10 -32 36 c-17 20 -42 47
-55 60 -13 13 -29 32 -37 43 -13 18 -18 18 -78 6 -36 -7 -58 -13 -49 -14 26
-2 42 -28 35 -56 -7 -27 -25 -32 -44 -13 -8 8 -8 17 -1 30 7 14 6 20 -6 24
-27 11 -36 -9 -20 -40 l15 -29 -45 6 c-55 8 -61 -9 -7 -19 35 -7 94 -9 117 -4
24 6 65 -1 65 -10 0 -6 -35 -10 -85 -10 -71 0 -83 -2 -79 -15 4 -8 2 -15 -4
-15 -5 0 -12 6 -15 13 -5 15 -71 37 -108 37 -13 0 -43 7 -67 15 -24 9 -47 13
-51 11 -4 -3 -30 2 -57 10 -27 9 -66 15 -86 15 -26 0 -44 7 -60 24 -22 24 -45
34 -34 16 8 -12 -99 -8 -115 5 -16 13 -97 34 -128 34 -21 0 -21 -3 -21 -358
l0 -359 30 5 c23 3 30 0 30 -12 0 -10 -13 -22 -30 -27 l-30 -11 0 -815 c0
-540 3 -812 10 -808 6 3 10 2 10 -4 0 -5 -5 -11 -11 -13 -6 -2 -9 -18 -7 -36
l3 -32 103 87 c84 71 100 88 90 100 -9 11 -9 16 3 24 8 5 20 9 28 9 11 0 11
-3 1 -15 -7 -8 -8 -15 -3 -15 5 0 17 14 26 30 19 32 37 39 37 15 0 -8 5 -15
12 -15 6 0 3 -9 -7 -20 -10 -11 -24 -20 -31 -20 -7 0 -16 -5 -20 -12 -4 -7 -3
-8 4 -4 7 4 12 3 12 -3 0 -6 -16 -17 -35 -26 -19 -10 -56 -38 -82 -64 -26 -25
-69 -64 -95 -85 -46 -37 -48 -40 -48 -92 0 -43 3 -52 15 -48 8 4 15 12 15 20
0 8 5 14 10 14 18 0 11 -18 -15 -38 l-25 -20 0 -256 1 -256 39 0 c21 0 42 5
46 12 5 8 1 9 -12 4 -14 -5 -16 -4 -8 4 9 9 19 8 42 -4 28 -15 315 -16 3062
-16 l3030 0 0 1000 c0 771 -3 1000 -12 1000 -9 0 -9 3 0 12 7 7 12 32 12 56
l0 45 -25 -46 c-13 -26 -22 -55 -19 -64 5 -15 4 -16 -5 -3 -9 13 -11 12 -11
-6 0 -38 -56 -134 -79 -134 -13 0 -14 12 -2 26 17 17 61 103 61 118 0 9 9 30
20 48 11 18 20 41 20 51 0 10 8 29 17 44 11 17 18 51 20 100 2 63 -1 80 -18
104 -11 16 -19 34 -18 41 6 49 -2 68 -37 86 -23 12 -33 22 -25 26 6 4 11 3 11
-3 0 -5 13 -12 28 -16 15 -3 35 -18 45 -33 16 -26 17 -25 16 75 -1 91 -3 102
-20 106 -25 7 -24 27 0 34 18 5 20 15 19 136 0 130 0 131 -15 89 -19 -55 -28
-48 -12 9 19 66 20 83 25 372 l4 267 -140 0 c-121 0 -140 -2 -150 -17 -11 -17
-11 -17 -6 0 5 16 -7 17 -161 17 -146 0 -168 -2 -180 -17 -14 -17 -14 -17 -9
0 5 16 -93 17 -2005 15 l-2011 -3 -29 -70 c-17 -38 -32 -71 -34 -74 -8 -7 -95
21 -89 30 3 5 13 5 24 -1 10 -5 23 -10 29 -10 7 0 39 56 69 123 6 13 -223 8
-237 -5 -11 -10 -13 -10 -7 0 6 9 -66 12 -346 11 -194 -1 -344 -4 -333 -6z
m1573 -619 c14 9 25 -11 18 -31 -5 -13 -9 -12 -26 7 l-20 22 -17 -31 c-10 -17
-22 -31 -26 -31 -5 0 -6 -4 -2 -9 7 -12 -27 -131 -37 -131 -3 0 -8 8 -10 17
-2 11 -9 6 -22 -20 -17 -31 -18 -39 -7 -64 28 -59 40 -78 48 -74 9 4 62 142
70 183 3 15 13 34 23 43 17 15 19 15 34 -6 15 -23 16 -23 69 -6 30 9 65 17 80
17 14 0 29 5 32 10 4 6 11 8 16 4 5 -3 28 4 51 16 32 16 43 18 49 9 11 -19 3
-26 -33 -32 -56 -8 -232 -58 -243 -68 -7 -7 -3 -15 10 -24 11 -8 25 -19 32
-25 9 -7 15 -5 22 9 6 10 7 21 4 25 -3 3 1 6 10 6 23 0 29 -15 16 -44 -7 -15
-20 -26 -32 -26 -16 0 -17 -3 -7 -14 6 -8 18 -12 26 -9 8 3 14 -1 14 -11 0 -9
4 -16 9 -16 6 0 30 -25 55 -55 l44 -55 -18 -52 c-10 -29 -30 -77 -44 -105 -14
-29 -26 -57 -26 -61 0 -5 13 -19 30 -32 16 -12 37 -34 46 -47 15 -24 15 -25
-4 -19 -18 6 -19 3 -11 -46 15 -92 49 -147 49 -78 0 22 -5 30 -17 30 -16 1
-16 2 1 15 17 13 18 18 8 40 -8 17 -8 24 -1 20 21 -13 30 -61 24 -117 -10 -84
-28 -77 -103 37 -34 53 -66 93 -71 90 -5 -2 -17 -27 -27 -55 -10 -27 -23 -50
-29 -50 -6 0 -23 19 -38 42 -27 43 -35 78 -17 78 5 0 9 -10 8 -22 -2 -20 27
-78 38 -78 11 0 64 127 64 153 0 24 -6 31 -40 44 l-40 16 0 66 0 66 -20 -42
c-10 -24 -25 -43 -32 -43 -20 0 -68 66 -68 94 0 14 -4 28 -10 31 -15 9 -12
-57 4 -80 7 -11 16 -43 20 -72 5 -43 4 -53 -11 -62 -26 -14 -41 30 -35 101 4
49 2 59 -13 64 -11 5 -21 1 -27 -9 -5 -10 -16 -17 -24 -17 -9 0 -28 -9 -44
-20 -24 -17 -29 -18 -40 -5 -10 12 -9 32 4 100 19 94 42 150 100 240 46 71 96
165 96 181 0 16 43 34 51 21 4 -5 11 -7 17 -3z m3712 -324 c0 -5 -3 -10 -7
-10 -11 0 -132 -19 -165 -26 -21 -4 -28 -11 -28 -29 0 -13 -5 -27 -11 -31 -8
-4 -2 -12 15 -21 14 -7 26 -22 26 -33 0 -10 5 -41 12 -69 10 -46 16 -53 61
-76 55 -29 79 -29 83 0 14 116 41 172 93 199 15 8 33 22 40 30 15 18 41 21 41
5 0 -5 -15 -16 -32 -24 -66 -29 -118 -94 -118 -147 0 -13 -4 -30 -10 -38 -5
-8 -5 -17 -1 -20 4 -3 11 -17 15 -32 5 -21 3 -28 -8 -28 -19 0 -140 52 -144
62 -2 4 -10 8 -17 8 -7 0 -23 9 -36 20 -26 21 -20 26 11 10 16 -9 17 -6 8 33
-17 71 -16 70 -35 51 -16 -16 -18 -15 -26 17 -6 22 -5 47 3 72 6 20 8 43 4 49
-5 7 -2 9 9 5 9 -3 31 -2 49 4 18 5 58 12 88 15 30 3 57 7 59 10 8 8 21 4 21
-6z m-2483 -211 c-12 -7 -16 -17 -11 -31 4 -14 2 -18 -5 -14 -6 4 -14 1 -17
-8 -3 -8 -11 -13 -19 -10 -16 7 -26 -31 -12 -45 8 -8 7 -11 -3 -11 -7 0 -25
-10 -38 -22 -14 -13 -22 -17 -17 -9 4 8 2 16 -5 21 -9 6 -7 11 9 19 12 7 21
21 21 34 0 28 -30 29 -83 4 -45 -22 -55 -37 -33 -49 24 -13 9 -29 -20 -22 -18
5 -24 2 -24 -10 0 -18 -16 -22 -22 -6 -2 6 -52 39 -112 74 -74 43 -103 65 -92
69 15 6 92 -34 175 -90 39 -26 68 -26 63 0 -2 9 3 17 9 17 7 0 9 3 6 6 -4 4
-18 -1 -33 -10 -35 -24 -41 -14 -9 18 18 19 37 26 63 26 47 0 59 8 68 44 6 26
10 28 41 23 28 -5 36 -2 50 19 l16 25 26 -26 c24 -24 25 -27 8 -36z m2073 36
c0 -3 -40 -24 -90 -47 -93 -43 -103 -55 -76 -94 8 -11 19 -37 25 -59 24 -91
224 -354 259 -340 7 2 10 1 7 -4 -11 -18 157 -126 181 -117 11 4 11 12 -2 42
-8 20 -13 38 -11 40 8 8 39 -74 33 -85 -9 -14 -53 -14 -61 -1 -3 6 -12 10 -18
10 -21 -1 34 -40 57 -40 16 0 18 -2 7 -9 -9 -6 -25 -2 -45 10 -33 20 -61 25
-51 9 3 -5 2 -10 -4 -10 -5 0 -13 5 -16 10 -3 6 -1 10 4 10 19 0 12 18 -24 54
-34 35 -59 50 -35 21 10 -12 10 -15 -3 -15 -9 0 -19 10 -22 23 -14 43 -86 101
-118 93 -7 -1 -9 -1 -4 1 15 9 6 26 -38 75 -25 28 -42 54 -39 59 3 5 -8 31
-25 58 -25 41 -62 125 -84 193 -7 20 41 59 93 77 19 6 46 18 60 26 26 15 40
18 40 10z m-3397 -175 c31 -6 57 -16 57 -21 0 -13 -73 -78 -88 -79 -10 0 -10
5 -2 20 6 11 15 18 19 16 4 -3 16 0 26 7 16 12 16 14 -6 29 -27 16 -93 32 -85
20 3 -5 -29 -37 -70 -73 -41 -35 -74 -67 -74 -71 0 -12 24 -10 37 3 6 6 19 9
29 7 31 -7 -36 -34 -73 -30 -57 6 -49 71 9 72 9 0 26 15 37 34 12 19 32 37 46
40 13 3 27 15 30 27 5 15 13 19 28 16 12 -3 48 -11 80 -17z m3136 -30 c-15
-28 -28 -40 -43 -40 -14 0 -28 -11 -40 -31 -15 -25 -16 -41 -10 -92 10 -80 8
-136 -6 -187 -10 -38 -21 -53 -63 -87 -11 -9 -14 -27 -10 -77 5 -51 2 -71 -11
-91 -13 -19 -15 -37 -11 -69 7 -42 8 -44 78 -74 40 -17 94 -38 120 -48 44 -16
70 -34 49 -34 -9 0 -54 17 -107 39 -11 5 -47 19 -80 32 -33 12 -62 24 -64 25
-2 2 -7 24 -12 50 -7 36 -6 53 5 69 10 15 14 45 13 93 -3 70 -2 72 35 107 45
44 53 83 46 227 -5 90 -3 103 16 131 14 20 32 33 48 35 17 2 30 11 34 25 6 18
21 36 31 37 2 0 -7 -18 -18 -40z m-1764 -469 c11 -20 26 -36 33 -36 6 0 19
-10 28 -23 9 -13 27 -27 40 -32 13 -5 24 -14 24 -20 0 -17 -13 -11 -59 25 -24
19 -47 35 -50 35 -3 0 -16 22 -28 48 -20 43 -26 49 -53 49 -23 0 -29 -4 -26
-16 5 -15 -58 -69 -179 -154 l-40 -29 35 34 c20 18 60 53 90 77 64 52 80 70
80 88 0 9 -7 7 -22 -7 -12 -11 -24 -16 -28 -10 -3 5 -17 -1 -31 -14 -15 -13
-46 -34 -70 -46 -24 -13 -57 -32 -72 -42 l-28 -20 23 -26 23 -25 -28 18 c-15
10 -32 27 -38 37 -14 25 -5 32 136 103 111 57 135 64 168 50 14 -6 16 -3 11
11 -7 24 34 -27 61 -75z"/>
<path d="M2101 2614 c-11 -14 -21 -30 -21 -35 0 -4 -3 -15 -7 -25 -10 -27 15
-8 39 30 l20 31 -7 -40 c-8 -50 -27 -105 -36 -105 -11 0 3 -43 22 -68 l18 -23
20 40 c12 22 21 43 21 46 0 3 -15 6 -32 6 -31 2 -31 2 7 8 l40 6 3 57 c3 55 2
59 -25 70 -15 7 -31 16 -34 21 -3 5 -16 -4 -28 -19z"/>
<path d="M2231 2564 c-11 -31 -21 -72 -20 -92 l1 -37 10 38 c6 20 14 37 20 37
5 0 25 -12 44 -26 38 -29 42 -53 23 -133 -12 -55 -5 -65 11 -14 6 21 23 66 38
101 l25 63 -58 59 c-33 33 -62 60 -66 60 -3 0 -16 -25 -28 -56z"/>
<path d="M245 3384 c-5 -1 -63 -6 -127 -9 l-118 -7 0 -55 0 -56 48 7 c26 3 58
14 72 24 14 10 39 21 56 25 24 5 134 64 134 72 0 3 -54 2 -65 -1z"/>
<path d="M1530 3136 c0 -49 13 -86 30 -86 6 0 10 6 10 14 0 15 53 27 70 16 6
-4 13 -21 15 -39 2 -17 11 -38 20 -47 8 -8 15 -24 15 -35 0 -10 5 -19 10 -19
6 0 10 -9 10 -20 0 -31 22 -24 49 16 l24 35 -78 79 c-76 75 -80 77 -102 63
-21 -14 -23 -14 -30 3 -3 11 -15 30 -25 43 l-18 24 0 -47z"/>
<path d="M1480 3031 c0 -4 -11 -6 -25 -3 -24 4 -25 3 -18 -29 4 -19 8 -46 8
-61 0 -16 3 -28 6 -28 4 0 9 -18 12 -40 5 -43 49 -110 71 -110 7 0 32 -14 54
-30 46 -33 52 -26 23 29 -10 20 -27 59 -36 86 -10 28 -33 83 -51 123 -31 66
-44 85 -44 63z"/>
<path d="M1190 2948 c0 -72 29 -229 46 -249 8 -8 14 -28 14 -43 0 -15 7 -40
15 -56 14 -26 21 -30 60 -30 24 0 55 -5 69 -11 25 -12 28 -11 139 63 7 4 7 11
0 20 -6 7 -32 67 -57 133 -26 66 -53 135 -61 153 l-15 32 -36 -15 c-50 -20
-62 -19 -102 11 -28 22 -36 24 -43 13 -6 -10 -9 -8 -9 9 0 12 -4 22 -10 22 -5
0 -10 -24 -10 -52z"/>
</g>
</svg>
