<?xml version="1.0" standalone="no"?>
<!DOCTYPE svg PUBLIC "-//W3C//DTD SVG 20010904//EN"
 "http://www.w3.org/TR/2001/REC-SVG-20010904/DTD/svg10.dtd">
<svg version="1.0" xmlns="http://www.w3.org/2000/svg"
 width="960.000000pt" height="640.000000pt" viewBox="0 0 960.000000 640.000000"
 preserveAspectRatio="xMidYMid meet">
<metadata>
Created by potrace 1.15, written by Peter Selinger 2001-2017
</metadata>
<g transform="translate(0.000000,640.000000) scale(0.100000,-0.100000)"
fill="#000000" stroke="none">
<path d="M0 5708 l0 -693 31 55 c16 30 36 58 44 63 8 4 15 17 15 28 0 18 30
86 58 134 7 11 17 31 22 45 6 14 20 41 32 60 11 19 31 56 44 81 13 26 31 52
39 59 8 7 15 22 15 34 0 16 -4 13 -19 -14 -27 -52 -55 -47 -59 9 -2 27 2 49
11 60 22 24 68 119 65 133 -2 6 10 16 26 22 24 9 31 8 46 -12 l19 -23 17 37
c9 20 23 38 31 41 7 3 11 9 8 13 -3 4 2 13 10 20 17 14 20 40 6 40 -6 0 -12
-4 -15 -9 -3 -5 -15 -7 -26 -4 -22 6 -28 -12 -7 -20 6 -3 1 -6 -12 -6 -17 -1
-22 3 -17 15 3 9 6 23 6 31 0 11 7 14 25 11 20 -4 24 -2 20 11 -3 10 6 39 20
67 21 41 23 53 13 71 -9 19 -8 29 8 58 10 19 22 35 26 35 4 0 15 14 24 31 15
30 15 43 0 79 -7 18 46 45 70 36 9 -4 18 3 24 18 5 13 14 27 19 31 6 3 16 15
21 26 11 19 4 19 -325 19 l-335 0 0 -692z"/>
<path d="M1038 6369 c-13 -22 -23 -29 -37 -24 -14 4 -23 -4 -40 -37 -12 -24
-29 -54 -37 -68 -8 -15 -12 -36 -8 -54 5 -24 4 -28 -10 -23 -10 4 -14 3 -11
-2 3 -5 1 -12 -5 -16 -5 -3 -10 -15 -10 -26 0 -10 -6 -19 -13 -19 -24 0 -37
-21 -24 -40 14 -23 -7 -51 -31 -43 -13 4 -13 2 2 -9 24 -19 31 -97 12 -123
-11 -15 -16 -16 -37 -5 l-24 13 24 -26 23 -26 -22 -31 c-17 -24 -27 -30 -44
-25 -65 20 -86 22 -86 11 0 -6 -9 -29 -20 -51 -24 -47 -25 -62 -5 -82 14 -14
13 -17 -6 -34 -27 -23 -28 -23 -51 -2 -18 16 -18 16 -10 -8 7 -18 19 -25 50
-30 23 -3 50 -13 60 -22 22 -20 42 -22 42 -4 0 28 17 39 48 32 35 -7 48 -34
33 -64 -9 -16 -5 -25 24 -54 19 -19 35 -42 35 -51 0 -26 -78 -126 -106 -137
-14 -5 -40 -9 -57 -9 -27 0 -35 -5 -44 -30 -8 -22 -18 -30 -36 -30 -37 0 -50
23 -43 74 5 33 3 54 -9 77 -17 32 -17 106 0 174 8 29 7 29 -11 13 -11 -10 -35
-50 -53 -90 -19 -40 -37 -80 -41 -88 -4 -9 -26 -17 -55 -20 -56 -6 -41 15
-176 -252 l-76 -151 36 -39 c20 -21 43 -38 51 -38 24 0 74 -45 66 -59 -4 -6
-12 -9 -17 -6 -5 4 -8 -4 -6 -17 1 -17 -4 -24 -21 -26 -21 -3 -23 -7 -18 -37
5 -23 2 -35 -6 -38 -7 -2 -10 -8 -6 -12 5 -5 17 0 28 10 43 39 70 -20 29 -64
-19 -21 -22 -21 -45 -6 -19 12 -27 13 -44 3 -17 -11 -32 -6 -110 33 l-91 46 3
-71 c3 -68 4 -72 33 -86 17 -8 46 -25 66 -38 43 -26 75 -30 41 -4 -18 14 -21
23 -16 50 8 41 5 41 156 -27 37 -17 69 -31 71 -31 3 0 25 -12 51 -26 46 -26
47 -27 31 -51 -11 -16 -14 -34 -10 -55 7 -28 5 -30 -16 -23 -13 4 -56 23 -96
41 -39 19 -80 34 -91 34 -12 0 -24 5 -27 10 -7 12 -119 -84 -166 -142 -28 -35
-29 -39 -10 -33 31 10 38 -20 12 -55 -19 -26 -19 -30 -5 -38 19 -11 44 -5 168
39 81 28 91 29 102 15 16 -23 29 -20 53 12 l21 27 20 -25 c20 -25 26 -50 13
-50 -5 -1 -39 -5 -78 -9 -69 -8 -71 -9 -141 -77 -39 -38 -80 -76 -93 -84 -21
-14 -18 -15 54 -17 106 -2 132 -27 78 -78 -16 -14 -72 -55 -126 -91 l-97 -66
0 -130 0 -130 65 61 c36 33 72 61 80 61 8 0 24 13 36 29 12 16 29 32 38 35 9
3 40 21 70 40 30 19 58 33 63 30 12 -7 10 -34 -2 -34 -19 0 -115 -71 -191
-142 -33 -31 -37 -40 -13 -31 13 5 15 2 8 -18 -4 -13 -8 -37 -9 -54 0 -21 -7
-33 -23 -40 -26 -12 -29 -40 -5 -54 12 -6 16 -20 15 -44 -2 -29 3 -39 29 -58
29 -20 31 -26 26 -66 l-5 -44 30 6 c72 16 110 -71 49 -114 -61 -43 -117 -17
-108 51 5 36 4 38 -16 31 -34 -11 -69 -6 -79 11 -5 9 -16 16 -23 16 -18 0 -18
-5 -4 -31 9 -17 7 -21 -10 -26 -19 -5 -21 -13 -21 -92 l0 -88 46 -59 c55 -70
131 -221 168 -330 37 -113 61 -259 52 -319 -9 -60 -26 -43 -26 27 0 155 -78
362 -200 533 l-35 49 -3 -133 c-2 -109 0 -137 13 -151 20 -22 20 -51 0 -44
-13 5 -15 -29 -15 -275 0 -155 2 -281 5 -281 12 0 109 53 122 66 14 14 30 19
88 27 26 4 88 26 373 129 l54 19 20 -26 c14 -18 23 -23 28 -15 4 6 10 11 14
11 29 -4 36 1 36 29 0 23 6 33 26 42 24 11 29 9 49 -14 12 -14 34 -64 49 -112
15 -47 29 -86 32 -86 15 0 64 32 64 43 0 6 -14 41 -30 76 -27 57 -33 63 -55
58 -33 -6 -42 9 -11 17 16 4 25 15 29 36 7 34 43 48 77 30 29 -15 78 4 82 32
2 16 23 28 87 51 76 28 84 29 93 14 8 -16 11 -16 36 -1 l27 16 -28 -26 c-16
-14 -33 -24 -38 -21 -5 4 -9 2 -9 -4 0 -6 -12 -14 -27 -17 -16 -4 -33 -10 -38
-15 -6 -4 -35 -17 -65 -28 -84 -32 -105 -82 -62 -148 19 -30 30 -29 75 11 l38
34 -25 6 c-29 7 -49 37 -40 59 5 15 80 51 136 68 24 6 29 3 48 -28 l21 -36
-28 -23 c-15 -13 -39 -28 -53 -35 -27 -14 -90 -69 -90 -79 0 -8 75 3 105 15
20 8 20 8 1 -13 -10 -12 -44 -41 -75 -64 -31 -23 -63 -51 -72 -61 -9 -11 -21
-17 -27 -13 -28 17 -313 -156 -292 -178 3 -3 37 4 74 15 37 11 70 18 73 16 2
-3 -25 -24 -61 -47 -36 -24 -66 -49 -66 -57 0 -26 -49 -60 -50 -35 -1 4 -11
20 -24 36 l-23 28 -29 -18 c-16 -10 -31 -21 -34 -24 -3 -3 -53 -41 -112 -83
-59 -43 -110 -87 -113 -97 -8 -24 28 -108 50 -116 12 -5 7 -13 -22 -36 -21
-17 -57 -39 -80 -50 -37 -17 -41 -22 -33 -43 11 -29 -10 -48 -102 -94 -37 -18
-74 -41 -84 -52 -9 -10 -22 -16 -28 -12 -7 3 -6 1 1 -7 9 -9 16 -10 25 -3 7 6
23 14 35 17 43 14 17 -24 -104 -150 l-43 -44 0 -119 0 -119 88 58 c131 88 242
145 242 125 0 -9 -22 -30 -50 -47 -27 -17 -50 -37 -50 -45 0 -7 -11 -30 -24
-51 -12 -20 -23 -41 -24 -46 0 -5 -4 -12 -9 -15 -20 -16 -177 -183 -165 -177
19 11 42 -17 30 -37 -5 -9 -7 -17 -4 -17 2 0 53 39 113 86 59 47 118 91 131
97 14 6 20 16 17 27 -6 18 60 62 156 104 31 13 59 32 62 40 4 9 11 16 17 16 6
0 8 -5 4 -12 -5 -8 0 -9 14 -6 27 8 39 -8 13 -17 -11 -3 -25 -12 -32 -21 -13
-16 -7 -14 84 25 51 22 63 37 21 27 -25 -7 -25 -6 -7 13 25 27 69 33 65 9 -4
-22 14 -24 22 -3 3 8 14 15 24 15 11 0 36 12 57 26 21 14 46 23 57 21 10 -3
18 -1 18 5 0 5 4 7 8 4 5 -3 21 2 37 10 25 13 29 12 41 -3 13 -17 14 -17 7 1
-5 16 -2 18 35 15 22 -3 40 -2 39 1 -2 8 62 69 85 81 16 8 23 8 29 -2 7 -11
14 -8 33 12 12 15 39 32 58 38 19 6 53 26 74 44 21 18 53 39 71 46 17 7 40 22
50 33 10 11 41 30 68 43 28 12 61 35 75 50 14 15 44 36 68 46 23 10 54 30 67
44 14 13 50 36 80 50 31 15 67 42 84 64 29 36 29 39 14 62 -9 13 -13 21 -8 17
4 -4 15 -3 22 4 9 7 17 8 21 2 6 -8 37 -10 80 -5 6 0 12 6 12 12 0 5 -5 7 -11
3 -8 -5 -8 -1 0 14 12 23 1 65 -26 94 -15 16 -15 18 0 18 33 0 44 -11 39 -37
-4 -21 -2 -25 10 -20 12 4 15 0 11 -16 -3 -13 -1 -18 4 -12 4 6 24 18 43 27
33 16 35 16 41 0 4 -10 14 -24 23 -31 9 -7 16 -23 16 -34 0 -20 0 -20 14 -1
13 17 12 20 -5 30 -21 11 -16 24 10 24 12 0 13 -2 3 -8 -9 -6 -6 -12 13 -20
18 -8 25 -8 25 -1 0 8 5 7 15 -1 8 -7 24 -10 35 -7 11 3 20 1 20 -5 0 -5 -9
-12 -20 -15 -11 -3 -20 -12 -20 -21 0 -12 3 -13 12 -4 7 7 31 12 54 12 l43 0
4 -52 c3 -29 4 -1 2 62 -1 63 -5 122 -9 131 -6 14 3 16 66 18 166 5 321 49
493 140 105 55 98 57 111 -33 6 -44 5 -48 -10 -43 -10 4 -22 7 -27 7 -5 0 -9
11 -9 25 0 14 -4 25 -9 25 -4 0 -41 -15 -82 -34 -41 -18 -101 -40 -135 -50
-78 -21 -253 -46 -328 -46 l-58 0 7 -27 c18 -65 24 -112 25 -178 1 -52 4 -64
10 -47 5 12 7 29 4 37 -4 8 -2 15 4 15 10 0 22 -23 22 -41 0 -6 -4 -7 -10 -4
-5 3 -10 -1 -10 -9 0 -9 9 -16 20 -16 11 0 20 -7 20 -16 0 -8 4 -13 8 -10 4 2
14 1 22 -5 13 -7 12 -9 -2 -9 -22 0 -68 -21 -68 -31 0 -4 10 -11 23 -15 12 -4
48 -19 80 -34 41 -19 54 -29 43 -33 -9 -4 -23 -4 -31 -1 -35 14 -11 -6 32 -26
26 -12 72 -38 103 -58 30 -20 58 -35 61 -34 11 2 -3 -42 -15 -50 -22 -15 -26
-7 -9 20 9 15 13 24 9 20 -4 -4 -37 10 -73 29 -53 29 -67 33 -74 22 -5 -8 -9
-19 -9 -25 0 -5 -9 -20 -20 -32 -12 -12 -16 -23 -10 -27 6 -3 10 -1 10 6 0 19
16 -1 25 -31 7 -23 7 -23 -9 -7 -10 9 -22 17 -27 17 -5 0 0 -9 12 -21 11 -11
18 -27 15 -34 -2 -7 2 -16 10 -19 8 -3 14 -17 14 -31 0 -15 4 -24 9 -21 18 11
21 -26 4 -54 l-16 -28 -19 24 c-11 13 -17 27 -14 32 2 4 -4 13 -15 20 -22 14
-24 6 -4 -28 16 -29 19 -44 6 -36 -5 3 -11 -1 -15 -9 -8 -21 -29 -19 -44 5
-10 17 -15 18 -31 8 -18 -11 -18 -14 -5 -39 17 -34 19 -63 3 -53 -7 4 -10 1
-7 -7 3 -8 11 -13 18 -11 7 2 17 -3 21 -10 12 -18 11 -28 -1 -28 -5 0 -9 5 -7
11 1 6 -8 13 -21 15 -16 3 -21 0 -16 -8 4 -7 3 -8 -4 -4 -6 4 -9 13 -6 20 3 8
1 17 -5 20 -6 4 -8 13 -5 21 5 13 2 13 -18 2 -13 -6 -38 -22 -56 -35 -18 -13
-40 -21 -50 -19 -16 4 -16 5 1 6 19 1 24 21 5 21 -7 1 1 7 17 14 44 19 62 44
47 64 -7 10 -15 23 -19 31 -3 7 -17 25 -29 39 -13 14 -24 32 -24 41 0 10 -5
22 -12 29 -7 7 -8 12 -4 12 5 0 1 12 -9 26 -9 14 -14 32 -11 40 3 8 -1 17 -9
20 -19 8 -19 24 0 24 8 0 15 -7 15 -15 0 -8 7 -15 15 -15 22 0 18 28 -5 40
-11 6 -18 15 -15 21 4 5 1 9 -4 9 -6 0 -11 -4 -11 -9 0 -4 -10 -6 -23 -4 -16
3 -28 16 -36 39 -7 19 -18 34 -24 34 -13 0 -41 38 -42 55 0 12 -45 16 -45 4 0
-5 -6 -9 -14 -9 -11 0 -14 10 -10 40 3 26 1 40 -7 40 -6 0 -9 -7 -5 -15 3 -8
1 -15 -4 -15 -5 0 -7 -6 -4 -14 3 -7 -9 -25 -26 -40 -19 -15 -28 -31 -24 -38
5 -7 2 -9 -8 -6 -8 4 -27 -6 -45 -22 -20 -19 -45 -30 -81 -35 -29 -4 -52 -10
-52 -14 0 -4 -15 -12 -34 -19 -39 -14 -79 -46 -69 -56 3 -3 1 -6 -5 -6 -6 0
-18 -7 -27 -17 -14 -14 -18 -14 -27 -2 -8 11 -9 10 -4 -4 8 -24 -50 -49 -96
-42 -18 3 -27 3 -20 -1 6 -3 12 -9 12 -14 0 -10 -40 -25 -57 -22 -7 2 -13 -2
-13 -7 0 -15 -41 -25 -50 -11 -5 8 -17 6 -43 -7 -41 -20 -45 -30 -19 -49 16
-12 15 -13 -5 -14 -12 0 -24 -6 -27 -12 -3 -9 -8 -8 -16 4 -10 17 -13 17 -35
2 -14 -9 -34 -14 -45 -11 -11 3 -18 0 -17 -6 1 -7 -21 -11 -58 -12 -33 -1 -69
-6 -81 -13 -12 -6 -26 -7 -34 -2 -16 10 -33 3 -25 -10 3 -5 1 -11 -4 -14 -5
-4 -12 -2 -16 4 -3 5 -25 10 -47 10 -39 0 -40 -1 -25 -18 37 -41 13 -61 -91
-77 -86 -14 -92 -13 -92 5 0 13 -6 17 -20 13 -11 -3 -20 -9 -20 -14 0 -5 -5
-9 -10 -9 -12 0 -73 -41 -78 -52 -2 -5 -10 -8 -17 -8 -7 0 -30 -15 -51 -34
-21 -19 -55 -39 -76 -45 -21 -7 -38 -15 -38 -20 0 -4 -11 -13 -25 -19 -15 -7
-25 -20 -25 -33 0 -15 -5 -19 -15 -15 -19 7 -78 -43 -71 -61 3 -7 1 -15 -5
-18 -5 -4 -12 1 -15 9 -9 23 -26 20 -22 -4 2 -10 -6 -26 -17 -35 -16 -12 -17
-14 -3 -9 28 10 21 -13 -12 -43 -16 -14 -30 -34 -30 -43 0 -10 -19 -27 -47
-41 -27 -13 -50 -25 -52 -26 -11 -6 32 -33 56 -34 20 -1 22 -3 8 -6 -11 -2
-27 -7 -35 -10 -22 -8 37 -25 85 -24 36 1 38 0 20 -11 -11 -7 -22 -13 -25 -13
-3 0 -18 -4 -34 -9 -22 -5 -26 -10 -17 -16 18 -10 -37 -40 -79 -43 -17 -1 -30
-6 -30 -10 0 -5 -4 -5 -10 -2 -6 4 -10 -12 -10 -39 l0 -46 261 0 c243 0 260 1
255 18 -3 9 -1 24 4 31 7 12 10 9 15 -12 6 -24 26 -40 24 -19 -2 19 -37 67
-50 67 -8 1 -13 6 -12 13 2 7 -2 12 -7 12 -6 0 -10 5 -10 10 0 6 9 10 20 10
11 0 20 6 20 14 0 17 -23 27 -39 16 -7 -4 -27 -5 -44 -2 -18 2 -68 4 -112 4
-66 -1 -76 1 -60 11 19 11 85 19 148 18 15 0 27 4 27 10 0 6 7 3 16 -5 8 -9
18 -16 22 -16 4 -1 23 -3 43 -6 21 -3 40 -1 44 5 3 6 15 11 26 11 11 0 18 4
15 9 -9 14 20 33 59 38 33 4 35 3 35 -23 0 -15 3 -24 7 -21 9 10 33 -13 33
-32 0 -18 -63 -47 -80 -36 -6 4 -9 -8 -6 -32 5 -54 16 -75 33 -68 11 3 13 1 9
-10 -8 -23 89 -21 102 1 6 11 11 13 16 5 15 -24 28 -11 22 21 -4 18 -10 49
-13 68 -3 19 -11 38 -17 43 -7 5 -4 13 11 26 16 14 24 35 29 75 4 31 10 56 13
56 3 0 12 14 20 31 11 25 11 36 2 50 -6 10 -11 25 -11 33 0 8 -6 17 -12 19 -7
3 -3 6 9 6 13 1 22 -4 20 -11 -1 -7 4 -13 11 -14 25 -3 27 -5 13 -13 -11 -7
-8 -11 10 -16 28 -9 33 -7 37 20 3 23 22 36 37 27 20 -13 53 -9 47 7 -4 10 -1
12 8 6 8 -5 11 -3 8 6 -4 13 17 38 33 39 3 0 16 -9 29 -20 28 -24 59 -26 75
-3 12 16 40 9 30 -8 -4 -5 3 -9 13 -9 11 0 23 -8 26 -17 6 -15 8 -15 16 -3 7
11 10 12 10 2 0 -18 72 -12 78 7 3 8 0 11 -6 7 -7 -4 -9 5 -5 30 6 33 4 37
-14 32 -16 -4 -19 -1 -15 18 4 22 32 43 32 24 0 -6 -5 -10 -12 -10 -9 0 -9 -3
0 -12 8 -8 15 -8 27 2 8 7 15 9 15 6 0 -4 12 5 27 19 15 14 39 25 52 25 13 0
42 8 63 17 30 13 37 21 32 36 -5 17 -2 18 26 12 53 -12 114 12 171 67 47 45
54 49 93 45 69 -6 58 -29 -38 -82 -71 -39 -91 -45 -119 -40 -23 5 -37 3 -42
-6 -6 -9 -1 -10 18 -5 14 3 29 2 32 -4 3 -5 -1 -10 -9 -10 -9 0 -33 -12 -54
-27 -52 -38 -168 -91 -214 -98 -29 -4 -38 -11 -38 -25 0 -11 5 -20 12 -20 7 0
22 -12 35 -28 18 -21 22 -23 23 -9 0 27 28 20 45 -13 8 -16 14 -33 13 -37 0
-4 4 -21 11 -37 6 -16 9 -37 5 -45 -4 -9 -6 -23 -5 -33 1 -9 -3 -19 -9 -23 -5
-3 -10 2 -10 12 0 10 -9 33 -20 51 l-20 32 25 -16 c31 -20 40 -15 21 12 -11
16 -27 20 -84 22 -66 2 -72 0 -91 -24 -12 -15 -21 -33 -21 -40 0 -7 -5 -25
-12 -38 -11 -26 -11 -26 -26 -5 l-14 21 -12 -23 c-6 -13 -22 -26 -36 -30 -14
-4 -19 -7 -12 -8 6 -1 12 -5 12 -10 0 -5 -17 -4 -40 1 -30 8 -44 7 -56 -3 -24
-20 -47 -71 -46 -102 0 -20 -3 -27 -13 -23 -7 2 -21 -6 -30 -20 -11 -18 -22
-23 -38 -19 -12 3 -34 2 -47 -4 -19 -7 4 -10 90 -10 102 -1 117 1 127 18 6 10
25 21 42 24 16 4 34 15 40 25 9 17 6 19 -20 20 -24 1 -29 -3 -24 -17 3 -12 -1
-17 -15 -17 -14 0 -20 7 -20 23 0 23 38 52 49 37 10 -15 31 -15 25 0 -3 8 -1
17 5 20 14 9 25 -37 17 -69 -4 -14 -15 -34 -26 -45 -20 -20 -19 -20 324 -20
l344 0 64 88 c36 48 73 99 84 113 10 15 51 69 89 120 39 52 89 120 110 151 22
32 44 58 48 58 12 0 110 -68 322 -224 105 -76 225 -164 268 -195 57 -42 76
-61 73 -74 -4 -15 0 -18 17 -13 12 2 31 -2 41 -10 11 -8 38 -14 60 -14 l41 0
-77 56 -78 56 134 176 c74 98 145 187 158 198 25 23 113 41 101 21 -6 -11
-281 -384 -305 -414 -12 -15 26 -36 52 -28 10 3 40 28 66 55 84 87 89 59 8
-48 -31 -41 -50 -72 -43 -70 8 3 71 78 142 169 195 251 196 252 223 245 27 -7
29 -3 14 24 -8 15 -6 21 7 29 10 6 13 11 7 11 -5 0 -15 -5 -21 -11 -16 -16
-75 15 -128 67 -25 24 -45 41 -45 38 0 -2 -13 2 -29 11 -34 17 -42 10 -43 -37
-1 -24 -7 -33 -30 -42 -19 -7 -26 -15 -23 -27 7 -22 -16 -41 -35 -29 -12 8
-13 13 -2 30 7 11 9 20 4 20 -14 0 -11 69 4 81 13 10 11 15 -7 35 -19 20 -20
24 -6 30 9 3 21 3 27 -1 5 -3 10 -4 10 -1 0 3 -16 12 -34 20 -19 8 -61 40 -93
71 -32 32 -82 74 -113 95 -70 47 -110 88 -110 110 0 10 -9 29 -20 43 -11 14
-20 33 -20 42 0 22 -47 63 -69 60 -9 -1 -11 0 -6 2 6 2 17 18 26 35 16 33 42
50 38 27 -3 -29 1 -69 9 -69 4 0 7 18 7 39 1 25 10 51 26 72 14 19 24 40 23
47 -1 6 -2 18 -3 26 -1 9 -22 19 -56 26 -30 6 -65 20 -77 30 l-23 19 63 -6 62
-6 0 32 c0 17 -1 31 -3 31 -2 0 -49 -16 -106 -35 l-102 -34 -52 23 -52 23 145
48 c172 56 164 55 165 31 0 -11 6 -21 12 -23 9 -3 11 4 7 26 -5 23 -2 32 10
37 9 3 16 13 16 21 0 8 6 13 13 10 6 -2 11 -11 9 -18 -1 -9 3 -8 11 4 8 9 19
17 26 17 6 0 11 4 11 9 0 5 12 14 28 19 21 8 23 11 7 11 -11 1 -32 -6 -45 -15
-24 -16 -24 -16 -8 1 15 16 15 21 3 46 -27 51 -75 49 -95 -4 -39 -108 -75
-137 -171 -137 -71 0 -150 38 -184 88 -14 20 -25 39 -25 43 0 3 18 11 41 18
23 7 47 15 55 18 10 4 14 -3 14 -21 0 -64 100 -104 134 -54 9 12 16 31 16 41
0 34 31 79 65 93 75 31 162 9 201 -51 16 -24 18 -25 35 -9 16 14 16 19 3 57
-8 23 -12 47 -9 55 10 27 38 7 51 -36 10 -36 10 -44 -2 -49 -24 -9 -15 -20 18
-21 18 0 35 4 39 10 9 14 69 0 63 -16 -2 -6 3 -12 13 -12 10 -1 26 -5 36 -9
13 -5 17 -3 15 6 -2 10 10 14 47 15 59 2 76 -6 100 -43 l18 -28 -32 29 c-35
33 -43 25 -10 -10 25 -27 19 -54 -13 -55 -17 -1 -19 -2 -5 -6 9 -2 15 -9 11
-14 -3 -6 6 -21 20 -34 23 -21 25 -30 21 -76 -3 -44 -1 -55 17 -71 12 -10 24
-18 27 -18 4 0 11 -10 16 -22 6 -12 16 -24 24 -26 8 -3 11 0 7 7 -4 6 -1 11 8
11 14 0 14 -3 4 -20 -14 -21 -28 -27 -28 -10 0 6 -4 10 -10 10 -5 0 -10 -7
-10 -16 0 -8 4 -13 9 -10 5 4 22 -5 38 -18 15 -13 53 -43 84 -67 31 -24 99
-78 150 -119 84 -68 149 -114 232 -164 15 -9 25 -21 22 -26 -4 -6 1 -10 9 -10
9 0 16 -4 16 -9 0 -5 8 -12 18 -15 24 -8 29 -71 7 -80 -8 -3 -22 -3 -30 0 -11
5 -13 2 -9 -10 3 -9 13 -16 21 -16 14 0 13 -23 -3 -82 -3 -9 0 -19 5 -22 11
-7 16 9 27 74 7 45 23 80 36 80 5 0 8 -7 8 -15 0 -8 5 -15 11 -15 5 0 7 -4 4
-10 -3 -6 4 -10 17 -10 18 0 20 -2 8 -10 -12 -7 -12 -10 -1 -10 9 0 11 -8 7
-24 -5 -20 -1 -24 23 -29 16 -4 44 -19 63 -34 18 -16 45 -34 59 -42 21 -10 67
-81 53 -81 -5 0 -182 98 -210 116 -22 15 -54 10 -54 -8 0 -6 -12 -8 -29 -5
-24 5 -30 2 -35 -16 -3 -12 -1 -24 5 -25 17 -7 -14 -132 -33 -132 -5 0 -8 -9
-8 -20 0 -10 -13 -34 -28 -52 -15 -18 -40 -50 -56 -71 -22 -31 -31 -36 -42
-26 -8 6 -14 20 -14 32 0 23 37 87 51 87 12 0 12 -17 -1 -25 -12 -8 -13 -25
-1 -25 13 0 22 29 15 54 -3 12 -19 27 -37 34 -18 8 -40 18 -49 23 -10 5 -18 5
-18 0 0 -4 -10 -6 -23 -4 -18 4 -25 -2 -35 -29 -6 -18 -52 -104 -102 -191 -49
-87 -90 -160 -90 -163 0 -2 7 -4 15 -4 8 0 15 5 15 11 0 6 8 8 19 4 11 -3 22
-1 26 5 3 5 -1 10 -9 10 -9 0 -16 5 -16 10 0 6 5 10 10 10 6 0 10 5 10 11 0
16 32 82 47 97 13 13 59 7 69 -9 3 -5 -6 -31 -20 -57 -26 -46 -26 -47 -2 -18
13 16 29 25 35 22 6 -4 9 -12 5 -17 -3 -5 -9 -7 -14 -4 -5 3 -8 -12 -7 -34 2
-47 15 -41 42 19 10 22 24 40 32 40 18 0 16 -8 -12 -58 l-24 -42 26 0 c22 0
71 42 128 112 6 8 9 44 7 86 l-4 72 29 -12 c15 -7 39 -20 52 -30 13 -10 29
-18 37 -18 16 0 120 -114 139 -154 19 -37 19 -42 -2 -25 -15 12 -16 12 -10 -4
4 -10 7 -21 7 -23 0 -3 76 -4 169 -4 153 2 169 3 165 18 -5 15 -4 15 9 -1 8
-9 28 -17 46 -17 30 0 32 2 27 33 -3 17 -10 65 -17 104 -6 40 -15 75 -20 79
-5 3 -9 20 -9 38 0 17 -4 36 -9 42 -4 5 -20 61 -35 124 -15 63 -37 151 -50
195 -13 44 -30 105 -36 135 -13 57 -47 192 -56 223 -3 9 -2 17 3 17 9 0 63
-192 64 -225 0 -11 6 -31 14 -45 8 -14 14 -40 15 -58 0 -21 4 -31 11 -27 6 4
10 1 8 -6 -3 -27 1 -40 12 -33 8 4 9 0 4 -15 -3 -11 -2 -21 3 -21 5 0 13 -24
16 -53 12 -86 27 -147 37 -147 6 0 7 5 3 12 -5 7 -7 24 -6 39 3 43 -53 291
-76 336 -27 51 -63 159 -68 203 -7 56 3 63 37 29 15 -15 18 -24 10 -32 -6 -6
-11 -16 -11 -21 0 -6 5 -4 10 4 8 12 10 11 10 -7 0 -30 1 -34 12 -63 5 -14 12
-34 14 -45 26 -129 65 -268 78 -277 12 -8 45 -160 46 -211 0 -35 33 -181 65
-287 10 -34 14 -39 15 -20 1 25 1 25 10 3 13 -31 45 -31 36 0 -3 12 -24 110
-47 217 -22 107 -45 209 -50 226 -15 48 -19 93 -8 99 5 4 9 13 9 21 0 8 12 41
26 72 37 80 42 93 49 129 7 37 12 38 154 47 69 5 86 9 98 26 13 18 16 18 36 6
21 -14 81 -15 94 -2 3 3 19 6 35 6 23 0 32 -7 45 -35 9 -19 24 -35 32 -34 11
0 12 2 3 6 -14 6 -46 62 -39 70 6 5 12 6 80 18 26 4 50 11 53 16 3 5 9 7 14 4
5 -3 18 -1 28 4 11 6 34 13 53 16 36 6 119 41 119 51 0 3 -5 2 -10 -1 -6 -4
-15 7 -21 23 -11 32 -11 32 -94 3 -16 -6 -79 -23 -139 -37 -105 -25 -110 -25
-123 -8 -7 10 -13 24 -13 31 0 7 -4 13 -8 13 -18 0 -20 -13 -5 -36 14 -22 14
-24 -8 -33 -47 -17 -309 -49 -309 -37 0 3 11 31 25 62 21 47 23 62 15 97 -5
23 -18 49 -28 57 -25 21 -22 53 8 85 18 20 21 28 12 34 -18 11 -5 38 40 83 40
40 49 77 23 98 -9 7 -13 15 -10 18 3 3 -7 19 -22 35 -17 17 -22 27 -13 25 10
-2 14 4 12 20 -2 12 2 22 8 22 7 0 9 -7 6 -16 -6 -15 -4 -15 11 -3 11 9 14 10
9 1 -8 -13 3 -16 28 -6 8 3 12 13 9 22 -4 14 -3 15 6 2 14 -20 -15 -52 -41
-44 -12 3 -18 0 -18 -10 0 -19 23 -33 28 -18 2 7 10 12 18 12 8 0 14 5 14 10
0 6 10 10 21 10 18 0 19 -3 9 -15 -10 -13 -6 -14 34 -11 59 4 65 10 36 41 -19
21 -21 25 -7 25 9 0 17 -5 17 -12 0 -6 8 -1 19 10 10 12 21 19 24 16 3 -3 3 4
0 17 -4 15 -3 20 5 15 7 -4 12 -16 12 -27 0 -10 4 -19 10 -19 5 0 7 13 4 29
-6 28 -4 30 47 45 30 9 85 28 122 43 66 26 68 26 81 7 8 -10 39 -50 70 -89 31
-38 54 -76 51 -83 -3 -7 -1 -11 4 -7 10 6 23 -6 61 -56 14 -18 33 -42 43 -53
18 -21 18 -21 13 12 -4 21 -2 31 4 27 6 -4 10 -21 8 -39 -1 -25 7 -45 32 -77
19 -24 37 -46 40 -49 51 -49 67 -81 73 -145 4 -38 11 -71 17 -75 6 -4 12 -21
13 -38 1 -18 6 -32 11 -32 5 0 7 -3 4 -6 -9 -8 12 -76 32 -105 22 -31 36 -79
23 -79 -6 0 -15 10 -20 23 l-11 22 -7 -27 c-9 -36 1 -51 26 -38 21 12 19 15
38 -66 7 -27 9 -57 6 -66 -4 -9 -2 -19 4 -23 6 -3 11 -22 11 -41 0 -20 13 -60
31 -93 26 -48 30 -65 25 -96 -6 -30 -10 -34 -22 -25 -21 18 -19 -11 12 -146
31 -134 38 -120 -81 -161 l-80 -28 80 -3 c86 -4 172 4 193 17 13 8 11 14 -103
494 -25 109 -45 201 -42 203 2 3 10 -17 17 -43 7 -26 16 -52 20 -58 4 -5 11
-25 15 -44 4 -19 16 -48 27 -65 l19 -31 -6 35 c-4 20 -1 48 6 65 12 29 12 28
31 -50 10 -44 27 -111 38 -150 25 -89 80 -334 80 -357 0 -15 9 -18 57 -18 51
0 55 1 37 14 -32 24 -7 30 31 7 29 -17 53 -21 115 -21 82 0 195 23 216 45 17
16 130 38 214 40 36 1 82 6 103 10 30 6 37 5 37 -8 0 -11 15 -20 43 -27 23 -6
59 -22 79 -36 24 -15 51 -24 75 -23 21 0 32 3 26 6 -16 6 -17 33 -2 33 6 0 8
7 5 17 -6 15 -4 15 14 -2 11 -10 20 -26 20 -37 0 -16 10 -18 104 -18 74 0 106
4 110 13 5 9 7 9 12 0 3 -7 20 -13 38 -13 26 0 36 6 46 27 l14 28 4 -27 c3
-26 7 -28 51 -28 l48 0 7 83 c3 45 9 93 12 107 18 76 20 70 -20 58 -20 -6 -43
-18 -52 -27 -54 -55 -114 -128 -114 -138 0 -7 -6 -16 -14 -20 -7 -4 -16 -15
-20 -23 -3 -8 -3 27 0 77 l5 93 -70 -30 c-73 -31 -106 -37 -116 -20 -3 6 3 10
13 10 30 0 176 61 186 77 4 8 35 45 68 81 55 60 60 69 55 102 -4 35 -3 38 42
61 25 13 53 29 61 35 8 6 35 14 59 18 31 5 57 18 88 46 41 36 133 80 167 80 8
0 21 11 29 24 16 23 15 25 -21 41 -20 10 -50 23 -66 31 -41 20 -56 17 -56 -8
0 -22 -102 -128 -124 -128 -6 0 -24 -14 -40 -30 -32 -33 -41 -36 -52 -18 -4 7
-3 8 4 4 7 -4 12 -3 12 1 0 5 19 21 43 36 44 28 84 76 53 64 -9 -4 -16 -2 -16
3 0 5 21 16 47 23 31 9 49 21 54 35 6 17 5 22 -8 22 -13 0 -14 2 -2 17 13 15
10 15 -36 9 -28 -4 -61 -10 -75 -13 -19 -4 -15 2 19 26 37 24 42 31 28 37 -10
3 -30 4 -45 1 -23 -5 -37 2 -74 33 l-46 40 13 66 c15 81 37 105 96 108 52 3
90 -11 68 -25 -11 -7 -11 -9 3 -9 29 0 28 16 -1 46 -15 16 -35 43 -44 60 -13
24 -22 31 -42 29 -13 -2 -27 1 -31 6 -3 5 4 9 14 9 16 0 19 5 14 23 -3 12 -12
33 -21 46 -8 13 -14 37 -13 52 1 16 -2 29 -8 29 -6 0 -8 27 -5 76 3 41 1 73
-4 70 -4 -3 -9 -42 -10 -86 -3 -109 -15 -133 -22 -45 -3 45 -1 81 7 102 7 17
10 34 7 37 -3 3 2 9 12 13 18 6 18 7 -1 13 -26 10 -46 -13 -39 -47 3 -15 2
-22 -1 -15 -8 17 -24 15 -24 -3 0 -8 5 -15 10 -15 6 0 10 -17 9 -37 0 -33 -1
-35 -9 -15 -15 35 -33 26 -83 -38 -31 -39 -42 -60 -32 -60 8 0 15 6 15 13 1 6
7 1 14 -13 17 -30 13 -40 -13 -33 -10 3 -22 0 -25 -6 -11 -17 -29 -13 -22 5 6
15 4 15 -16 2 -13 -8 -33 -21 -45 -29 -19 -11 -23 -23 -23 -59 0 -63 17 -85
54 -71 15 6 47 25 72 41 24 17 41 25 38 17 -2 -7 -30 -28 -62 -47 -31 -19 -65
-41 -75 -49 -16 -13 -17 -13 -11 2 5 15 2 17 -27 12 -44 -8 -46 -11 -12 -28
27 -15 25 -15 -35 -10 -66 6 -90 -4 -114 -52 -8 -14 -3 -12 17 7 49 49 130 34
184 -36 31 -39 42 -74 19 -60 -9 5 -8 2 1 -9 8 -10 11 -21 7 -25 -4 -4 -14 2
-22 13 -13 18 -14 17 -8 -12 5 -25 2 -34 -17 -47 -13 -9 -19 -16 -13 -16 6 0
19 7 30 15 23 17 71 20 76 3 3 -7 12 -3 25 11 12 13 19 29 17 35 -3 7 7 23 21
36 14 13 25 19 25 13 0 -20 -29 -78 -49 -100 -12 -12 -21 -25 -21 -29 0 -4
-10 -21 -23 -38 -37 -49 -43 -64 -20 -43 21 18 21 18 25 0 2 -10 10 4 18 35 8
28 17 52 22 52 19 0 7 -107 -18 -158 -27 -54 -84 -112 -110 -112 -21 0 -11 49
22 109 29 53 31 65 4 31 -25 -32 -25 -14 1 25 10 17 21 37 25 45 3 8 10 24 16
35 10 17 9 18 -4 7 -11 -9 -17 -9 -20 -2 -2 7 -14 3 -31 -10 -37 -29 -54 -28
-113 7 -29 17 -74 34 -102 38 -42 6 -52 11 -52 26 0 10 6 20 13 20 23 2 42 -3
49 -14 15 -23 8 5 -12 48 -15 32 -25 43 -40 42 -18 -1 -24 -10 -21 -29 0 -5
-3 -8 -8 -8 -5 0 -14 -14 -20 -31 -15 -42 -13 -48 4 -25 13 17 15 17 15 4 0
-9 -4 -20 -10 -23 -16 -10 -12 -25 5 -19 20 8 19 4 -11 -56 -14 -28 -24 -56
-22 -62 2 -6 17 17 34 50 33 70 44 74 109 41 36 -18 37 -20 10 -14 -23 4 -27
3 -15 -5 11 -9 12 -13 2 -17 -9 -3 -7 -12 8 -33 25 -35 25 -62 2 -83 -33 -30
-74 -20 -91 23 -7 18 -10 20 -10 8 -1 -21 -12 -23 -29 -6 -8 8 -15 9 -23 1 -7
-7 16 -23 78 -52 66 -32 84 -44 73 -51 -8 -6 -22 -10 -31 -10 -9 0 -19 -6 -22
-13 -3 -7 -23 -19 -46 -27 -22 -7 -38 -17 -34 -23 3 -5 0 -8 -8 -5 -8 3 -14
11 -14 19 0 8 -10 15 -22 17 -25 4 -53 37 -53 63 0 9 -7 22 -16 30 -11 9 -14
22 -10 43 5 24 4 28 -6 18 -19 -19 -17 -64 3 -85 10 -11 20 -42 24 -71 8 -62
31 -157 47 -192 15 -33 28 -13 28 46 1 37 3 42 11 27 6 -10 9 -36 7 -58 -2
-24 1 -40 9 -43 8 -3 2 -22 -18 -60 -33 -61 -24 -76 12 -24 13 18 27 34 31 36
4 2 22 30 39 63 18 33 34 57 36 55 3 -2 -7 -25 -21 -50 -14 -25 -23 -46 -19
-46 4 0 -2 -6 -13 -14 -18 -14 -18 -15 12 -58 45 -64 75 -52 54 22 -8 29 13
88 41 114 12 11 11 4 -7 -54 -9 -27 10 -25 24 3 7 15 11 17 11 6 1 -20 -33
-52 -44 -42 -5 5 1 -6 13 -23 14 -20 18 -35 11 -45 -5 -7 -9 -36 -9 -63 l0
-50 -28 27 -28 27 -34 -35 c-19 -19 -39 -35 -45 -35 -15 0 -52 39 -62 66 -7
19 -100 110 -316 310 -32 30 -63 54 -70 54 -22 0 -75 38 -82 59 -3 12 -9 20
-13 17 -4 -2 -16 5 -26 15 -19 19 -19 19 10 20 18 1 22 3 11 6 -10 3 -26 2
-35 -2 -33 -14 -101 -7 -145 14 -24 11 -51 21 -60 21 -10 0 -45 14 -78 30 -51
26 -59 34 -53 52 15 48 50 91 124 150 195 157 249 199 307 235 114 70 505 351
730 523 54 41 190 137 302 212 135 91 206 144 208 157 3 25 -31 104 -41 93 -4
-4 -6 -2 -5 3 2 6 -3 21 -10 33 -7 13 -11 26 -8 28 5 6 45 -47 75 -100 22 -36
22 -39 5 -52 -26 -19 -6 -17 28 3 28 16 29 16 44 -2 21 -29 19 -37 -20 -64
-35 -23 -35 -24 -29 -80 4 -31 17 -96 29 -146 21 -82 21 -92 7 -107 -8 -10
-20 -18 -26 -18 -6 0 -2 7 8 15 24 18 24 18 -84 5 -111 -14 -116 -16 -99 -37
12 -14 11 -15 -11 -9 -21 6 -22 5 -7 -4 9 -6 21 -9 25 -6 5 3 24 -10 42 -29
19 -19 29 -35 22 -35 -7 0 -12 -12 -12 -26 l0 -26 34 20 34 20 6 -21 c6 -22 7
-22 21 -3 15 19 15 19 15 -3 0 -20 2 -21 15 -11 12 10 15 9 15 -6 1 -18 1 -18
15 0 11 14 15 16 15 5 0 -12 2 -12 10 1 6 9 10 10 10 3 0 -6 9 -10 20 -8 23 4
24 1 10 -26 -7 -13 -7 -19 0 -19 5 0 10 3 10 8 0 4 4 13 8 20 7 10 18 9 56 -8
26 -11 45 -24 41 -30 -3 -5 0 -7 8 -5 25 10 152 -59 141 -76 -3 -5 2 -6 10 -3
9 3 16 1 16 -5 0 -6 9 -11 21 -11 13 0 18 -4 13 -12 -4 -6 -3 -8 3 -5 29 18
133 -72 133 -113 0 -9 9 -34 21 -55 11 -22 20 -53 20 -70 0 -38 -37 -184 -51
-201 -8 -8 -8 -14 0 -19 11 -7 14 -145 2 -145 -4 0 -18 7 -30 16 -21 14 -22
14 -22 -5 0 -12 6 -21 14 -21 8 0 17 -8 21 -17 7 -17 8 -17 14 1 7 17 8 18 14
3 3 -9 2 -17 -2 -17 -11 0 -71 -126 -71 -147 0 -10 7 -14 20 -10 11 3 22 1 25
-3 3 -5 -7 -10 -22 -12 -19 -2 -29 -10 -31 -23 -11 -76 -83 -177 -224 -317
l-98 -98 250 0 c241 0 250 1 250 19 0 11 5 23 10 26 7 4 9 -2 4 -19 -6 -25 -4
-26 35 -26 31 0 43 5 47 17 4 10 22 56 41 103 23 57 38 113 44 170 23 215 29
287 24 311 -4 18 -1 28 9 32 9 4 17 27 21 61 4 31 11 56 16 56 5 0 9 5 9 11 0
6 -14 8 -37 4 -34 -5 -36 -4 -18 9 10 7 26 11 35 8 8 -2 -6 17 -32 44 -37 39
-44 52 -36 65 9 13 3 25 -28 58 -42 44 -59 51 -61 24 -5 -72 -26 -210 -34
-218 -6 -5 -9 -4 -9 4 0 8 -7 10 -19 6 -16 -5 -19 -1 -16 20 2 19 -3 29 -19
35 -11 5 -16 9 -9 9 7 1 10 8 7 16 -4 9 0 15 10 15 9 0 16 5 16 11 0 6 -8 9
-19 6 -18 -4 -18 -2 3 36 12 23 34 45 51 53 17 7 23 13 15 14 -13 0 -15 21
-15 129 0 71 3 125 6 119 4 -7 9 -6 14 1 4 7 2 18 -5 26 -9 10 -7 20 6 40 19
29 32 27 13 -3 -10 -16 -9 -26 3 -53 9 -19 19 -54 23 -78 7 -41 6 -43 -14 -36
-12 4 -21 2 -21 -4 0 -6 9 -11 20 -11 25 0 27 -17 3 -22 -16 -3 -15 -6 5 -16
19 -11 22 -10 22 6 0 16 12 20 88 28 105 12 162 1 266 -50 49 -24 107 -42 177
-55 128 -24 189 -38 195 -44 3 -3 14 -39 24 -81 23 -89 58 -165 70 -147 5 10
9 8 13 -4 4 -9 3 -13 -3 -10 -6 3 -10 1 -10 -5 0 -20 20 -49 42 -61 20 -11 21
-10 15 72 -3 46 -9 98 -12 114 -5 23 -4 26 4 15 8 -11 10 3 9 55 l-1 70 -56 2
c-71 2 -221 35 -286 61 -42 18 -46 21 -22 21 15 1 36 6 46 13 15 9 28 8 65 -8
35 -16 67 -20 134 -20 88 1 89 1 75 -20 -11 -18 -21 -21 -66 -18 -48 4 -50 3
-19 -7 19 -5 55 -9 80 -7 42 3 47 6 50 28 3 22 -4 27 -60 47 -35 12 -101 29
-148 37 -124 23 -156 31 -145 38 13 7 47 4 63 -6 7 -4 35 -9 63 -12 28 -2 55
-6 60 -10 14 -8 10 18 -5 39 -17 22 -141 87 -167 87 -21 0 -40 -35 -32 -57 3
-7 0 -13 -7 -13 -8 0 -9 10 -5 28 4 20 -2 44 -20 81 -15 29 -25 54 -23 56 5 5
128 25 155 25 12 0 35 -12 52 -26 l31 -26 41 21 c22 12 45 19 50 16 5 -4 9 1
9 9 0 12 -5 14 -22 7 -13 -4 -49 -2 -83 4 -62 12 -63 12 10 38 17 5 39 18 50
27 19 17 59 40 68 40 14 0 14 -88 0 -118 -13 -27 -25 -35 -74 -49 -33 -9 -59
-19 -59 -22 0 -3 14 -14 30 -23 24 -14 36 -15 60 -7 16 6 30 17 30 23 0 7 14
25 30 39 17 15 30 36 30 46 0 11 5 23 10 26 6 3 10 26 10 50 l0 44 -46 7 c-51
7 -110 -6 -160 -37 -42 -25 -44 -25 -31 16 l10 35 114 0 113 0 0 41 0 42 -32
-8 c-67 -15 -83 -12 -86 17 -2 14 -10 32 -18 38 -18 16 -18 30 1 30 8 0 15 -7
15 -15 0 -21 32 -35 79 -35 l41 0 0 40 0 40 -50 0 c-40 0 -48 3 -44 15 4 9 -1
17 -12 21 -74 23 -94 37 -100 71 -4 21 -2 39 5 46 8 8 11 6 11 -10 0 -11 7
-26 15 -33 12 -10 15 -10 15 4 0 23 17 20 25 -5 6 -19 7 -20 20 -2 19 26 31 8
15 -22 -12 -22 -11 -27 14 -51 24 -25 27 -26 44 -10 10 9 24 16 30 16 8 0 11
45 11 154 0 152 0 154 -21 148 -14 -3 -26 1 -34 13 -13 17 -23 17 -151 8 -76
-6 -154 -9 -173 -7 -19 3 -71 9 -115 14 -136 17 -333 20 -345 5 -8 -9 -5 -14
9 -18 11 -3 21 -1 23 4 2 4 26 1 53 -7 28 -9 56 -18 63 -20 20 -6 14 -24 -14
-36 -21 -10 -31 -9 -56 5 -34 20 -64 22 -74 6 -4 -7 -12 1 -20 20 -11 25 -11
36 -1 52 10 16 23 19 94 19 45 0 85 5 88 10 3 6 33 10 66 10 32 0 59 4 59 10
0 19 95 57 157 63 86 9 121 -6 71 -31 -22 -10 -22 -11 -2 -11 24 -1 54 28 54
53 0 9 5 26 10 37 8 13 7 25 0 40 -12 20 -25 18 -25 -4 0 -7 -11 -11 -25 -10
-14 1 -46 3 -72 5 -27 2 -48 8 -48 13 0 6 -60 23 -132 39 -164 34 -188 41
-263 78 -70 34 -93 53 -55 46 14 -3 34 -9 45 -13 30 -12 -22 26 -68 49 -41 21
-67 46 -48 46 6 0 11 9 11 20 0 17 -7 20 -40 20 -33 0 -38 3 -33 17 5 12 2 15
-9 10 -10 -3 -19 0 -22 9 -7 17 -9 17 92 -5 45 -10 82 -15 82 -11 0 6 -44 19
-75 21 -2 1 -27 7 -54 14 -37 10 -51 10 -54 1 -3 -7 -13 -3 -29 12 -13 12 -28
22 -32 22 -12 0 -66 40 -66 50 0 4 23 13 50 20 40 9 50 16 46 29 -7 20 8 46
22 37 6 -3 13 -2 17 4 4 6 11 8 16 5 5 -4 9 -2 9 3 0 12 78 32 126 32 21 0 35
2 32 5 -3 3 -49 6 -102 6 l-96 0 20 29 c24 33 40 46 40 31 0 -5 -4 -13 -10
-16 -21 -13 -9 -23 14 -12 16 8 21 14 13 19 -9 6 -9 8 0 8 16 0 26 -17 13 -25
-21 -13 -9 -25 13 -13 29 17 36 28 29 46 -4 10 -1 13 7 8 7 -5 10 -14 8 -20
-4 -9 3 -11 19 -8 31 6 31 30 -1 42 -14 5 -25 17 -25 26 0 9 -8 23 -17 30 -15
11 -16 15 -4 23 8 5 9 10 3 12 -6 2 -13 28 -15 57 -4 55 -17 84 -17 39 0 -41
-16 -32 -17 9 0 26 3 34 13 30 11 -4 14 13 14 88 0 107 -5 127 -28 120 -9 -2
-6 1 8 8 21 11 25 21 27 63 4 80 13 115 28 115 8 0 15 5 15 11 0 5 -4 8 -9 5
-5 -4 -11 -1 -13 6 -9 27 6 56 62 117 49 52 58 67 50 82 -15 28 -13 43 5 27
44 -40 45 -40 55 -13 5 14 13 25 18 25 6 0 26 42 32 68 1 4 6 12 12 19 5 7 6
18 2 25 -5 7 -9 18 -10 24 -1 7 -11 21 -23 33 -38 38 -25 71 63 164 20 22 43
52 52 68 8 16 19 29 24 29 21 0 85 163 92 239 2 13 11 26 21 29 13 3 15 7 6
18 -9 11 -8 14 5 14 9 0 16 5 16 10 0 6 6 10 14 10 8 0 16 7 20 15 3 9 0 15
-9 15 -21 0 -19 20 3 21 15 0 15 1 -2 8 -19 7 -19 8 0 16 10 4 25 7 32 6 15
-2 16 41 1 56 -15 15 -3 33 23 33 13 0 18 5 15 14 -3 8 -1 17 6 20 7 2 -4 5
-23 5 -26 1 -31 4 -20 11 13 8 13 10 0 10 -8 0 1 11 20 24 19 13 38 22 43 19
4 -2 7 0 7 5 0 6 9 8 20 5 11 -3 20 0 20 6 0 7 -20 11 -50 11 -27 0 -50 4 -50
10 0 13 39 48 62 56 24 7 23 24 -2 24 -14 0 -20 7 -20 23 0 18 2 19 11 7 9
-13 10 -13 6 0 -2 8 -14 21 -28 27 -32 17 -20 16 134 -6 160 -24 217 -29 217
-19 0 8 -31 14 -155 29 -92 10 -265 46 -275 55 -5 5 75 -2 143 -12 32 -5 33
-3 10 23 -10 11 -24 18 -32 15 -8 -3 -11 0 -7 6 3 6 0 13 -6 15 -10 4 -9 6 1
6 10 1 11 4 2 15 -6 7 -12 29 -13 48 -1 29 -6 36 -37 50 l-36 16 36 -5 c38 -5
103 21 129 52 19 22 11 25 -43 12 -42 -9 -51 -8 -75 9 -84 62 -80 205 9 290
36 35 64 27 55 -16 -7 -38 8 -39 22 -2 20 54 21 63 12 87 -13 34 -58 34 -99
-1 -54 -45 -111 -153 -117 -220 -7 -72 -30 -213 -45 -266 -5 -21 -7 -44 -3
-50 5 -7 3 -8 -6 -3 -9 5 -10 2 -5 -14 3 -11 3 -21 -2 -21 -4 0 -9 -12 -9 -27
-3 -59 -24 -147 -41 -166 -11 -12 -12 -17 -4 -12 11 6 13 4 8 -9 -4 -10 -7
-20 -7 -22 0 -3 -5 -2 -11 2 -8 5 -8 1 0 -14 13 -24 14 -35 4 -29 -5 3 -9 -16
-10 -41 -1 -26 -7 -48 -13 -50 -5 -2 -8 -8 -4 -13 3 -5 -25 -130 -61 -277 -55
-220 -71 -272 -93 -294 l-25 -28 -20 33 c-10 17 -35 49 -55 69 l-36 38 21 27
c12 16 26 27 33 25 6 -1 9 2 5 8 -3 5 28 119 69 252 41 134 89 290 106 348 17
58 33 111 35 118 3 6 3 12 1 12 -6 0 -153 -299 -175 -355 -10 -27 -42 -98 -71
-157 -47 -100 -69 -124 -85 -98 -3 6 -16 10 -27 10 -12 0 -56 12 -97 26 -42
15 -89 28 -106 30 -16 2 -40 6 -52 9 -18 4 -29 -5 -60 -52 -21 -31 -55 -75
-75 -97 -35 -36 -51 -86 -29 -86 5 0 14 -13 19 -29 7 -18 38 -48 91 -86 45
-31 89 -68 98 -81 8 -13 21 -24 28 -24 7 0 15 -4 17 -8 2 -5 26 -26 55 -46 74
-53 113 -116 112 -180 -1 -44 -2 -47 -9 -23 -5 16 -21 45 -37 65 -15 20 -27
44 -25 52 2 13 1 13 -7 1 -8 -12 -12 -11 -27 4 -52 52 -205 132 -323 169 -361
114 -671 98 -904 -47 -41 -26 -87 -64 -103 -84 -56 -75 -68 -77 -38 -5 30 72
127 150 272 217 39 19 72 35 72 37 0 2 -8 5 -17 6 -61 6 -84 9 -88 13 -2 3 0
18 4 35 5 16 10 23 10 17 1 -7 4 -13 9 -13 4 0 8 18 8 40 1 31 -2 40 -15 40
-10 0 -22 14 -29 34 -7 18 -21 41 -32 51 -11 10 -20 24 -20 32 0 7 -5 13 -11
13 -6 0 -8 9 -4 20 5 17 2 20 -24 20 l-31 0 20 -32 c25 -43 50 -98 50 -112 0
-6 -20 11 -44 38 -25 26 -42 53 -40 60 3 7 -5 18 -18 24 l-23 12 22 -6 c17 -4
21 -2 18 9 -4 8 5 18 20 25 14 7 24 16 21 21 -10 15 45 60 85 71 22 6 39 15
39 19 0 5 15 8 32 7 l33 -1 7 79 c12 129 42 201 112 267 25 23 58 48 73 56 15
8 35 20 43 27 8 8 22 16 30 19 20 7 -200 12 -507 12 -301 0 -330 17 -45 26
l187 5 -188 1 c-104 1 -191 4 -194 7 -3 3 9 35 26 72 23 50 31 80 31 124 0 53
-2 58 -20 53 -15 -4 -20 -14 -20 -38 0 -18 -7 -38 -15 -45 -8 -7 -14 -20 -13
-29 6 -36 -130 -69 -160 -39 -29 29 -2 68 49 68 17 0 20 3 12 11 -8 8 -8 20
-3 35 7 18 5 26 -8 34 -16 9 -16 11 3 26 19 14 54 15 130 1 27 -5 45 2 45 18
0 14 22 25 50 25 10 0 22 5 26 12 5 8 -3 9 -29 5 -23 -4 -39 -1 -47 8 -14 17
-26 15 475 74 449 53 627 71 960 96 225 17 366 32 390 41 9 4 15 1 15 -7 0 -7
8 -21 18 -32 17 -20 17 -20 -10 -3 -18 12 -37 15 -60 12 -46 -8 -333 -34 -518
-46 -188 -13 -748 -78 -1104 -129 -66 -10 -99 -21 -60 -21 11 0 180 18 375 40
523 60 702 78 924 95 110 9 252 20 315 25 63 4 118 5 121 2 8 -8 34 -117 44
-178 4 -28 13 -45 28 -53 20 -10 21 -11 1 -6 -18 5 -22 -2 -34 -62 -14 -69
-16 -78 -18 -101 -2 -9 -15 -11 -49 -7 -28 4 -128 -3 -233 -15 -102 -13 -214
-26 -250 -30 -36 -4 -57 -8 -48 -9 10 0 15 -7 12 -15 -3 -8 -14 -12 -27 -9
-18 4 -19 3 -7 -6 13 -9 12 -13 -6 -31 l-20 -21 -45 25 c-25 14 -74 32 -111
41 -62 14 -69 14 -124 -5 -78 -27 -224 -98 -224 -110 0 -5 8 -11 18 -14 11 -4
25 -18 32 -31 11 -21 11 -27 0 -38 -10 -10 -12 -9 -7 5 6 18 -11 41 -45 59
-16 9 -25 6 -46 -13 -54 -47 -54 -58 -5 -58 24 0 34 -3 27 -10 -6 -6 -22 -6
-43 0 -37 10 -55 5 -45 -12 4 -7 2 -8 -5 -4 -15 9 -54 -81 -48 -111 2 -13 1
-23 -3 -23 -3 0 -7 -21 -9 -46 l-2 -47 78 7 c134 10 257 10 261 -2 6 -18 -21
-27 -80 -27 -44 0 -62 -5 -77 -20 -20 -20 -20 -20 32 -18 29 0 60 2 69 2 24 1
78 50 78 70 0 36 -36 53 -137 65 -54 7 -104 15 -111 20 -15 9 -16 62 -1 71 17
11 21 -2 7 -25 -21 -34 12 -52 90 -48 34 2 63 0 65 -3 3 -10 75 -22 137 -23
93 -2 238 83 243 141 0 12 6 19 14 16 14 -5 28 39 20 61 -3 8 1 17 9 20 8 3
25 29 38 58 41 91 78 111 241 131 179 23 314 25 326 6 15 -24 10 -27 -28 -18
-58 13 -168 11 -305 -7 -96 -12 -131 -21 -160 -40 -42 -27 -45 -34 -23 -68 39
-58 25 -250 -25 -365 l-21 -46 26 28 c14 15 25 33 24 40 -4 29 2 38 19 33 21
-7 82 20 82 37 0 6 7 2 16 -9 13 -16 15 -16 10 -1 -3 9 -1 17 4 17 4 0 41 32
80 70 39 39 75 70 80 70 4 0 6 10 4 23 -2 12 -2 16 2 10 3 -7 13 -13 22 -13
12 -1 9 -7 -13 -25 -16 -13 -27 -27 -24 -30 3 -3 18 5 32 18 19 16 27 32 27
54 0 18 5 35 12 39 8 5 9 2 5 -10 -4 -10 -3 -15 3 -11 6 3 10 10 10 15 0 14
55 67 78 74 12 4 22 14 22 22 0 8 5 12 10 9 6 -3 10 4 11 17 0 13 3 18 5 11 3
-7 16 -1 33 15 63 59 102 92 110 92 8 0 21 33 21 57 0 7 -18 13 -42 15 l-43 3
28 14 c15 8 27 19 27 26 0 6 11 26 25 45 13 18 29 48 35 66 11 32 10 34 -56
101 -94 95 -193 219 -221 278 -23 47 -24 41 -7 -30 4 -17 1 -32 -10 -44 -15
-16 -14 -19 9 -39 14 -12 39 -22 56 -22 17 0 28 -4 24 -10 -7 -12 -65 -14 -65
-2 0 4 -22 21 -49 36 -44 26 -139 122 -129 131 9 9 50 -28 59 -52 18 -49 18
-17 0 57 -14 54 -25 79 -42 90 -13 8 -32 23 -41 33 -17 16 -18 14 -12 -54 l7
-70 -42 21 c-47 25 -54 33 -56 70 -1 15 -10 67 -21 115 -16 73 -24 90 -47 107
-22 16 -26 23 -15 29 9 6 7 9 -9 9 -17 0 -23 9 -33 50 -7 28 -17 53 -23 57 -6
3 -30 6 -54 6 -33 0 -43 4 -39 14 3 8 2 12 -3 9 -5 -3 -25 1 -45 9 -30 13
-131 15 -681 15 -607 0 -645 -1 -645 -17 -1 -17 -1 -17 -11 0 -5 9 -18 17 -28
17 -15 0 -16 -7 -9 -72 4 -40 5 -82 2 -93 -9 -36 -39 -95 -47 -95 -5 0 -6 4
-3 8 3 5 -8 23 -25 41 -20 23 -36 32 -49 28 -11 -3 -17 -1 -14 4 7 13 -26 101
-44 116 -8 6 -11 17 -7 23 4 6 1 17 -5 25 -10 12 -47 15 -195 15 l-183 0 -22
-54 c-17 -43 -25 -53 -38 -48 -14 5 -15 3 -5 -9 9 -11 7 -26 -7 -69 -10 -30
-23 -56 -28 -58 -11 -3 -37 202 -27 217 9 15 62 14 67 -1 5 -14 38 -4 38 12 0
6 -36 10 -93 10 l-94 0 -11 -37 c-20 -71 -25 -106 -14 -99 21 13 22 -14 2 -34
-11 -11 -23 -34 -27 -50 -3 -17 -9 -30 -12 -30 -23 0 5 181 35 228 8 12 11 22
7 22 -5 0 -17 -16 -28 -35 -10 -20 -24 -34 -31 -31 -26 10 -78 -163 -119 -399
-16 -89 -41 -155 -59 -155 -23 0 23 404 54 475 9 20 36 93 47 128 5 16 -29 17
-618 17 l-624 0 60 -29 c33 -15 103 -45 155 -66 52 -21 99 -42 104 -46 8 -8
-212 62 -299 93 -36 14 -41 13 -55 -4 -14 -17 -17 -17 -37 -3 -13 9 -23 26
-23 38 l-1 22 -19 -23 c-20 -25 -60 -23 -60 2 0 16 -118 18 -137 3 -9 -6 -17
-6 -26 1 -8 7 -105 11 -276 12 l-262 0 6 -22 c24 -86 57 -110 113 -83 43 22
45 28 20 61 -19 26 -18 26 11 -3 40 -41 64 -44 55 -7 -6 24 -5 25 14 15 11 -6
36 -11 54 -10 61 1 193 -12 225 -22 18 -6 48 -8 68 -5 27 5 40 1 56 -15 24
-24 58 -95 59 -121 0 -10 5 -18 10 -18 6 0 10 -16 10 -36 0 -39 15 -38 31 3 6
16 15 23 27 21 13 -3 17 -14 16 -50 0 -40 2 -44 13 -30 7 9 13 24 13 33 0 22
26 43 45 35 20 -7 20 -68 0 -106 -9 -17 -15 -32 -15 -35 0 -3 -3 -18 -6 -35
-6 -26 -11 -30 -39 -30 -24 0 -35 -6 -45 -25 -19 -36 -7 -41 54 -22 64 21 66
21 66 2 0 -8 5 -15 11 -15 7 0 9 9 6 22 -8 29 9 48 43 48 20 0 35 -10 56 -37
17 -22 23 -38 17 -40 -12 -4 24 -73 78 -148 24 -33 69 -135 103 -229 5 -14 9
-16 20 -7 11 9 20 6 43 -18 l28 -31 33 20 c19 12 32 28 32 40 0 13 7 20 19 20
21 0 256 -71 346 -105 33 -12 120 -42 194 -66 143 -46 286 -114 441 -208 52
-32 161 -97 241 -145 167 -98 175 -109 139 -194 -10 -26 -21 -61 -23 -78 -3
-18 -10 -47 -16 -65 -6 -19 -22 -70 -37 -114 -32 -101 -86 -212 -120 -249
l-27 -28 29 -24 c16 -14 47 -38 70 -54 23 -16 48 -40 58 -54 l16 -26 21 21
c24 24 67 41 81 33 6 -4 19 4 30 17 l19 24 -7 -30 c-9 -38 -6 -35 -43 -38 -17
-1 -31 -5 -31 -9 0 -3 -10 -4 -21 -1 -19 5 -20 4 -10 -15 17 -33 25 -33 81 -6
29 14 53 24 55 22 1 -2 7 -13 14 -25 10 -19 7 -24 -25 -44 -20 -12 -44 -30
-53 -40 -17 -19 -18 -19 -36 1 -10 11 -23 20 -28 20 -5 0 2 -9 17 -21 15 -12
26 -30 26 -44 0 -17 9 -29 29 -40 16 -8 31 -20 34 -27 3 -8 6 -8 6 -2 1 6 -11
24 -25 39 l-26 28 39 13 c21 8 43 12 50 10 6 -3 14 5 17 17 6 25 13 19 45 -38
13 -22 16 -31 7 -21 -9 11 -19 16 -23 13 -4 -4 -1 -13 5 -19 7 -7 12 -15 12
-20 0 -14 -62 -78 -76 -78 -8 0 -11 -6 -8 -15 4 -9 0 -15 -10 -15 -9 0 -16 -5
-16 -11 0 -8 -6 -7 -17 2 -10 7 4 -10 32 -39 27 -29 54 -52 60 -52 12 0 179
-172 177 -182 -1 -5 4 -8 12 -8 8 0 16 -5 18 -11 3 -8 15 -8 45 1 36 11 46 11
68 -4 25 -17 33 -36 15 -36 -6 0 -2 -10 9 -22 11 -11 18 -24 16 -28 -3 -4 8
-20 23 -36 26 -28 62 -116 62 -154 0 -10 11 -43 25 -75 14 -32 23 -60 20 -64
-4 -3 -10 1 -15 9 -8 16 -60 84 -82 109 -7 8 -15 24 -18 35 -3 10 -13 20 -22
22 -15 2 -61 47 -122 121 -18 21 -33 30 -44 27 -13 -5 -14 -4 -4 4 11 7 1 24
-45 73 -32 35 -74 82 -92 104 -19 22 -59 66 -89 99 -49 51 -57 56 -67 42 -16
-21 -25 -20 -25 4 0 13 5 18 15 14 8 -4 15 -1 15 5 0 7 -7 14 -15 17 -8 4 -15
12 -15 19 0 20 -71 77 -90 72 -9 -2 -17 1 -17 9 0 7 4 11 9 8 12 -8 10 10 -4
24 -16 16 -31 15 -22 0 5 -9 2 -9 -9 1 -20 16 -23 26 -4 15 8 -5 8 -3 -2 9 -7
9 -17 14 -22 11 -5 -3 -12 3 -16 13 -9 23 -35 43 -48 36 -5 -4 -7 -2 -2 2 4 5
-9 25 -29 46 l-36 37 -27 -31 c-23 -25 -37 -31 -82 -35 -42 -3 -58 0 -68 11
-34 41 24 81 78 54 35 -18 56 -5 40 24 -13 25 -70 53 -150 75 -80 22 -421 27
-454 7 -11 -7 -15 -13 -8 -13 20 0 8 -77 -18 -114 -22 -32 -44 -46 -77 -46
-10 0 -6 13 12 44 28 48 31 114 5 108 -71 -17 -155 -79 -176 -130 -33 -79 49
-193 268 -370 79 -64 92 -72 83 -47 -4 10 3 18 20 25 21 7 25 15 24 42 -1 19
5 44 11 57 14 25 95 66 154 77 32 5 36 9 25 20 -10 10 -29 10 -95 1 -45 -7
-88 -18 -95 -25 -15 -15 -38 -16 -38 -1 0 6 7 9 15 5 9 -3 15 0 15 9 0 9 -15
17 -37 20 -21 4 -51 12 -68 18 -16 7 -33 11 -37 9 -5 -1 -7 1 -6 6 3 9 -50 62
-62 62 -5 0 -13 6 -17 14 -4 7 -19 19 -31 25 -13 7 -22 15 -19 17 3 3 22 -4
43 -15 l39 -21 8 22 c11 30 33 44 106 69 55 18 79 21 175 17 128 -6 210 -31
249 -78 14 -16 28 -26 32 -22 11 11 -17 -52 -30 -66 -6 -7 -33 -21 -59 -31
-63 -23 -48 -35 79 -61 152 -32 207 -71 191 -135 -12 -47 -127 -75 -157 -39
-30 36 26 62 89 40 20 -7 23 -5 20 11 -9 47 -245 57 -340 15 -39 -17 -48 -26
-48 -46 0 -15 8 -30 19 -35 38 -21 196 -41 316 -41 88 0 138 -5 175 -17 59
-19 115 -65 106 -88 -3 -8 0 -15 7 -16 13 -1 72 -67 65 -74 -2 -3 -94 -14
-203 -25 -109 -11 -201 -23 -204 -26 -12 -12 28 -23 108 -30 79 -6 107 -16 95
-35 -6 -11 -158 0 -234 17 -36 8 -75 24 -87 36 -26 25 -30 66 -7 75 10 4 -3
12 -37 23 -86 29 -106 84 -46 120 28 17 29 20 10 20 -12 0 -53 11 -91 25 -73
26 -97 31 -88 16 3 -4 -1 -16 -8 -26 -15 -20 -19 -14 70 -117 76 -88 97 -137
102 -235 3 -45 1 -99 -3 -120 l-7 -38 -17 60 c-20 68 -37 105 -51 105 -6 0
-10 11 -10 24 0 31 -40 63 -94 77 l-41 10 3 50 c7 97 -73 220 -219 334 l-60
47 15 -36 c10 -25 11 -35 3 -33 -7 1 -12 -6 -12 -16 0 -9 -13 -33 -28 -52 -15
-18 -27 -36 -27 -39 0 -15 -82 -91 -125 -116 l-50 -30 35 -1 c19 0 44 -4 54
-8 17 -6 15 -9 -13 -21 -17 -7 -50 -26 -71 -41 -44 -32 -48 -31 -24 6 20 30 4
33 -21 5 -10 -12 -25 -18 -32 -16 -7 3 -26 -6 -42 -19 -46 -39 -49 -29 -6 16
22 23 58 50 80 61 40 19 40 19 7 14 -35 -6 -46 12 -12 21 31 8 24 28 -19 51
-17 10 -21 10 -16 1 6 -9 1 -10 -19 -7 -14 3 -29 1 -32 -3 -7 -12 -44 -11 -44
0 0 12 83 40 136 46 21 3 45 13 52 23 7 9 21 16 31 14 9 -1 31 12 48 30 17 18
51 49 76 68 57 43 64 85 21 119 -44 35 -64 -4 -21 -40 l22 -18 -36 -1 c-30 0
-42 -7 -64 -36 -15 -19 -29 -33 -31 -31 -2 2 -12 36 -23 75 -16 61 -16 70 -3
64 9 -3 13 -1 9 5 -4 6 -1 14 5 16 8 3 6 6 -4 6 -15 1 -16 5 -4 45 8 25 11 47
9 50 -3 3 -7 16 -8 28 -6 49 -15 101 -21 109 -3 5 0 9 5 9 6 0 11 7 11 16 0
10 -7 14 -22 12 -22 -3 -23 1 -26 66 -2 48 1 72 10 79 10 6 8 7 -4 3 -10 -3
-20 -1 -23 4 -6 9 32 25 51 22 6 -1 17 11 24 28 7 16 16 30 21 30 19 0 8 -48
-21 -93 -36 -57 -39 -83 -5 -44 24 27 25 27 37 7 7 -11 16 -20 20 -20 3 0 30
16 60 35 29 19 89 46 133 60 l80 24 3 55 c2 30 -1 64 -7 74 -8 15 -6 18 11 17
28 -2 40 -28 40 -85 l0 -48 117 -4 c159 -6 325 -47 379 -94 l39 -33 16 53 c19
59 21 88 8 102 -5 5 -11 18 -14 29 -3 11 -5 0 -5 -25 0 -67 -1 -70 -17 -70 -9
0 -15 -9 -15 -22 0 -34 -10 -15 -15 28 -25 227 -39 330 -45 337 -15 17 -53
-136 -52 -208 1 -77 -10 -60 -23 36 -6 40 -14 58 -33 74 -15 11 -28 19 -30 17
-5 -5 -32 26 -32 38 0 6 -4 8 -10 5 -5 -3 -10 3 -10 14 0 22 -20 40 -21 19 0
-7 -4 -4 -9 8 -9 23 -90 91 -91 77 0 -4 -4 1 -9 12 l-9 20 -1 -20 c0 -11 -7
-29 -15 -39 -14 -19 -15 -17 -17 20 0 21 -1 45 -1 51 1 7 -3 11 -7 8 -5 -3
-11 -1 -15 5 -3 5 -21 10 -38 10 -18 0 -39 5 -47 10 -11 8 -7 9 15 4 l30 -7
-27 22 c-15 12 -32 20 -37 16 -6 -3 -15 4 -21 16 -8 14 -18 19 -32 16 -14 -4
-22 0 -25 14 -5 17 -15 23 -35 20 -4 0 -12 8 -18 19 -12 22 -46 27 -53 8 -3
-7 -6 -3 -6 8 -1 23 -24 48 -35 37 -3 -4 -13 2 -22 13 -14 18 -15 18 -8 -6 10
-35 6 -73 -14 -126 -22 -60 -43 -75 -71 -50 -19 17 -20 28 -16 90 l4 71 -15
-47 c-8 -27 -17 -48 -21 -48 -3 0 -3 25 -1 55 5 53 4 55 -14 38 -18 -16 -19
-16 -9 11 7 17 7 25 1 21 -6 -4 -10 5 -10 19 0 29 -19 36 -21 9 -1 -10 -4 -4
-8 12 -4 17 -3 32 2 33 4 2 2 11 -5 19 -6 8 -14 24 -15 36 -2 12 -7 24 -12 27
-4 3 -7 15 -6 27 1 12 -4 24 -12 27 -7 3 -13 13 -13 21 0 9 -3 14 -8 11 -4 -2
-4 -37 -1 -78 4 -40 12 -170 18 -288 6 -118 14 -247 17 -287 l6 -71 61 27 c34
15 80 34 102 41 22 7 45 16 50 20 6 4 35 16 67 25 37 12 55 22 51 31 -3 9 -15
11 -34 7 -25 -5 -28 -3 -22 12 5 14 3 17 -10 12 -22 -8 -23 19 -2 39 8 9 15
23 15 32 0 13 -2 14 -9 3 -5 -8 -16 -11 -30 -6 -12 4 -21 2 -21 -4 0 -13 -10
-14 -27 -3 -9 6 -6 20 11 56 14 29 26 43 29 35 3 -11 7 -9 12 5 5 10 3 21 -2
25 -6 3 -7 14 -2 26 5 13 8 15 8 5 1 -13 3 -13 10 0 11 16 8 -60 -3 -101 -6
-18 -5 -21 3 -9 9 12 12 13 20 1 5 -7 11 -9 13 -5 3 5 3 3 1 -5 -2 -8 4 -25
13 -38 15 -24 15 -25 -8 -18 -20 7 -21 6 -9 -9 7 -9 18 -16 23 -16 5 0 21 -9
35 -20 14 -11 29 -17 34 -14 5 3 9 -2 9 -10 0 -9 -42 -50 -92 -92 -67 -55 -95
-85 -101 -108 -5 -17 -16 -37 -25 -43 -14 -11 -11 -13 19 -14 l34 -1 -29 -8
c-16 -5 -33 -7 -36 -5 -11 7 -18 55 -9 55 5 0 9 -5 9 -12 0 -18 10 -3 15 22 4
21 4 22 -23 4 -15 -9 -31 -23 -35 -31 -4 -7 -15 -13 -23 -13 -8 0 -24 -16 -35
-35 -21 -35 -34 -43 -41 -26 -1 6 -31 -16 -65 -47 -70 -64 -88 -107 -51 -121
13 -4 17 -10 11 -14 -6 -4 -16 0 -23 8 -7 8 -16 15 -20 15 -13 0 -3 -74 10
-78 8 -3 8 -8 -1 -18 -6 -8 -9 -27 -7 -43 3 -21 1 -28 -9 -24 -18 7 -16 -7 3
-28 13 -14 21 -16 35 -8 13 7 19 6 19 -1 0 -6 -6 -13 -14 -16 -8 -3 -17 -16
-20 -30 -4 -13 -10 -24 -14 -24 -22 1 -33 23 -36 74 -2 31 -10 63 -17 72 -7 8
-14 27 -15 41 -2 14 -8 31 -13 36 -6 6 -11 16 -11 21 0 6 4 5 9 -2 6 -10 10
-7 13 12 3 14 1 26 -4 26 -5 0 -35 -24 -66 -52 -31 -29 -74 -62 -96 -73 -21
-11 -41 -25 -43 -32 -3 -7 -10 -13 -17 -13 -16 0 -148 -92 -158 -110 -26 -49
-86 -180 -81 -180 3 0 -5 -9 -18 -20 -15 -12 -19 -19 -10 -20 9 0 11 -6 6 -17
-4 -10 -7 -26 -7 -36 1 -17 -8 -16 -35 5 -15 12 -2 49 27 81 23 24 64 94 86
146 25 59 -10 18 -42 -50 -28 -58 -81 -108 -102 -95 -5 3 -9 -7 -9 -22 0 -15
-3 -40 -7 -56 -6 -23 -4 -27 8 -23 18 7 21 -4 6 -19 -7 -7 -4 -19 11 -38 15
-19 18 -30 11 -39 -6 -7 -13 -29 -17 -49 -7 -34 -9 -37 -28 -26 -19 10 -19 12
-4 23 19 13 25 109 8 120 -6 3 -8 -6 -5 -21 3 -14 0 -32 -6 -39 -6 -7 -8 -19
-5 -27 4 -9 0 -18 -8 -21 -10 -3 -13 -14 -10 -31 5 -25 9 -26 72 -28 36 0 71
-1 78 -1 6 0 14 -5 17 -13 4 -10 0 -11 -20 -4 -14 6 -35 10 -47 10 -22 -1 -22
-1 -2 -15 37 -27 46 -37 42 -48 -2 -7 10 -22 27 -34 37 -28 40 -28 26 -4 -12
24 -13 44 -1 36 5 -3 11 3 13 12 2 11 11 -3 22 -34 10 -29 23 -56 29 -60 7 -5
0 -10 -18 -13 -20 -4 -30 -11 -29 -23 3 -29 -10 -19 -42 32 -36 60 -143 144
-161 129 -7 -6 -10 -14 -7 -19 3 -5 -2 -12 -11 -15 -13 -5 -14 -9 -4 -15 8 -4
10 -11 6 -15 -3 -4 -14 -1 -23 7 -16 13 -16 12 -6 -8 19 -35 31 -36 43 -6 l11
28 26 -35 c49 -64 114 -120 139 -120 39 0 17 -17 -44 -35 -43 -13 -61 -14 -77
-5 -12 6 -37 12 -56 13 -29 2 -35 -2 -35 -17 0 -22 -25 -35 -25 -14 0 8 -4 7
-11 -4 -5 -10 -19 -18 -30 -18 -11 0 -27 -6 -34 -14 -17 -17 -171 -59 -185
-51 -6 3 -10 1 -10 -4 0 -6 -8 -11 -17 -11 -10 -1 -36 -7 -58 -15 -97 -36
-355 -79 -371 -62 -4 4 -13 -1 -20 -11 -20 -27 -146 -21 -264 12 -52 15 -114
31 -137 36 -23 5 -81 21 -130 35 -48 15 -97 28 -108 29 -31 5 -55 17 -50 25 2
4 -37 18 -88 30 -51 13 -107 29 -126 37 -48 20 -51 18 -51 -25 0 -45 9 -54 64
-59 22 -2 47 -7 55 -12 9 -4 79 -33 156 -65 136 -55 212 -95 227 -120 4 -7 18
-10 32 -8 21 4 24 1 23 -21 -2 -30 -15 -32 -83 -15 -34 9 -59 9 -97 0 -29 -6
-72 -13 -97 -15 -88 -9 -121 -19 -139 -42 -12 -16 -22 -20 -32 -13 -17 11 -32
12 -25 1 2 -4 1 -14 -4 -22 -7 -12 -11 -9 -18 10 -8 20 -6 30 14 51 38 40 37
42 -55 148 -12 13 -21 31 -21 39 0 9 -6 23 -14 31 -8 9 -19 32 -24 51 l-10 35
-16 -37 c-17 -40 -23 -84 -7 -60 7 11 10 10 15 -3 9 -24 8 -24 -13 -20 -26 5
-23 -41 7 -83 20 -28 19 -45 -2 -24 -4 4 -11 7 -14 7 -4 0 -24 11 -45 23 -38
24 -44 39 -28 70 5 9 13 28 19 42 6 14 20 47 31 74 25 57 25 59 9 51 -7 -4 -4
2 7 12 39 35 73 201 44 218 -6 4 -8 14 -5 22 3 8 1 11 -4 8 -6 -3 -10 -15 -10
-25 0 -11 -9 -24 -19 -30 -24 -12 -116 -163 -102 -168 5 -2 8 -11 5 -20 -5
-14 -2 -13 10 2 9 11 16 30 16 42 0 13 5 26 10 29 6 3 10 1 10 -5 0 -6 5 -8
11 -4 8 4 7 9 -2 14 -10 7 -10 11 1 25 22 27 33 2 19 -44 -7 -22 -16 -41 -20
-41 -5 0 -20 -21 -34 -47 -17 -33 -23 -39 -19 -20 5 20 2 27 -9 27 -20 0 -46
-57 -100 -220 l-42 -124 -5 49 -6 50 -7 -40 c-8 -43 -27 -81 -27 -57 0 30 33
124 39 113 10 -16 26 19 50 108 11 40 32 93 46 117 14 23 24 47 23 51 -4 18
16 81 41 128 14 28 27 56 27 63 2 31 5 34 29 28 24 -6 25 -5 13 14 -7 11 -14
16 -16 10 -2 -5 -8 -10 -13 -10 -6 0 -7 5 -4 10 10 17 -57 11 -115 -9 -29 -10
-71 -35 -92 -54 -21 -20 -52 -39 -69 -42 -21 -5 -29 -11 -25 -21 3 -8 2 -12
-3 -9 -6 3 -13 0 -18 -7 -12 -20 -73 -49 -86 -41 -6 4 -8 0 -4 -10 3 -10 3
-17 -1 -17 -4 0 -16 -14 -26 -31 -11 -18 -14 -29 -8 -25 6 4 5 -6 -3 -21 -9
-18 -13 -40 -9 -62 6 -31 5 -33 -17 -26 -31 9 -58 33 -55 48 11 56 82 138 196
229 53 42 202 126 239 135 23 6 25 5 12 -10 -16 -20 -14 -20 27 -6 17 6 33 17
36 26 5 12 9 13 21 3 12 -10 15 -10 15 3 0 9 4 19 10 22 6 4 8 -7 4 -27 -3
-18 6 -3 19 34 41 112 120 251 151 266 39 20 26 25 -24 10 -24 -7 -57 -28 -74
-45 -33 -36 -52 -39 -102 -21 -30 11 -58 49 -53 74 4 21 -2 26 -18 13 -15 -12
-16 -12 -10 4 4 10 3 16 -2 12 -5 -3 -13 -1 -16 5 -4 6 -16 10 -28 8 -21 -3
-22 1 -28 112 -4 63 -7 140 -8 170 l-1 55 -156 -1 c-117 -1 -157 2 -160 11 -3
7 9 41 26 75 17 34 44 95 60 136 26 67 39 85 141 187 61 61 103 99 92 82 -11
-16 -25 -45 -33 -63 -7 -19 -19 -40 -27 -48 -12 -12 -11 -14 9 -14 27 1 51 18
61 42 3 9 15 103 27 210 12 106 28 225 36 263 29 135 29 131 0 166 -29 34 -31
72 -6 119 15 28 50 59 67 60 6 0 23 52 38 118 14 64 37 150 51 190 14 41 24
75 22 76 -2 2 -22 13 -44 26 -37 20 -42 28 -53 79 -7 31 -18 76 -26 101 -23
77 -28 113 -16 106 6 -4 9 -11 7 -15 -3 -4 15 -32 40 -62 24 -29 44 -57 44
-61 0 -4 18 -11 41 -14 39 -7 69 -26 69 -45 0 -16 -54 -10 -93 10 -20 10 -40
15 -43 10 -11 -19 8 -48 36 -54 19 -4 30 -13 32 -27 5 -34 25 -32 44 4 9 18
27 45 39 60 13 15 31 49 40 75 9 26 23 60 31 75 8 14 14 32 14 40 0 28 44 58
87 58 24 0 46 6 53 16 35 41 131 64 305 71 77 3 142 9 145 13 3 4 12 8 20 9
44 5 67 9 83 16 9 4 33 5 52 3 19 -2 35 -2 35 1 0 2 -8 28 -17 58 l-17 53
-1004 0 -1005 0 -23 -27 c-30 -34 -68 -115 -80 -167 -13 -59 -30 -56 -37 6 -4
42 -2 58 14 80 10 15 19 40 19 56 0 15 5 33 12 40 9 9 -9 12 -82 12 l-95 0
-17 -31z m1179 -51 c76 -48 115 -78 240 -188 85 -74 98 -106 23 -56 -22 14
-42 26 -46 26 -3 0 -37 23 -76 50 -44 33 -93 58 -136 71 -69 21 -122 40 -122
44 0 19 36 95 45 95 2 0 34 -19 72 -42z m6115 -12 c4 -6 8 -26 8 -44 0 -18 6
-48 14 -67 19 -44 24 -170 8 -169 -7 1 -23 2 -36 3 -18 1 -28 11 -39 39 -14
35 -34 143 -40 207 -4 55 55 77 85 31z m-175 -28 c6 -7 13 -33 17 -58 3 -25
14 -85 23 -133 15 -77 16 -89 3 -97 -26 -17 -50 -11 -50 10 0 11 -9 53 -20 93
-27 98 -34 152 -20 176 12 24 33 27 47 9z m-1103 -110 c9 -12 16 -33 16 -45 0
-13 12 -71 26 -128 26 -107 28 -152 6 -147 -7 1 -12 -9 -13 -25 l0 -28 -10 25
c-18 45 -68 250 -70 288 -3 42 8 82 21 82 5 0 16 -10 24 -22z m146 7 c7 -9 16
-32 20 -53 5 -20 17 -70 28 -111 20 -76 15 -105 -15 -94 -7 3 -13 -1 -14 -8
-1 -25 -30 75 -35 121 -3 25 -11 59 -19 75 -25 55 2 109 35 70z m-256 -122 c3
-54 13 -125 21 -158 18 -76 19 -112 1 -122 -8 -4 -15 -17 -17 -27 -6 -31 -35
38 -50 119 -18 94 -17 279 1 300 24 28 36 -5 44 -112z m-115 -12 c-4 -63 -5
-123 -3 -135 2 -12 6 -62 8 -113 3 -51 7 -97 11 -103 3 -5 -3 -10 -14 -10 -16
0 -21 -6 -21 -25 0 -24 4 -27 40 -29 18 -1 23 -26 10 -46 -14 -23 -42 -1 -59
46 -23 62 -26 264 -6 370 18 99 35 168 39 163 2 -2 0 -55 -5 -118z m1264 -186
c30 -90 35 -145 13 -145 -22 0 -52 44 -65 97 -7 26 -19 63 -27 81 -18 42 -19
86 -1 76 6 -4 5 1 -4 12 -17 20 -33 118 -18 108 5 -3 9 -20 10 -37 0 -32 0
-32 10 -7 6 14 8 45 5 70 -3 25 7 -4 23 -65 15 -60 40 -146 54 -190z m-220
124 c16 12 22 -1 72 -153 21 -63 24 -84 16 -103 -10 -23 -12 -23 -36 -7 -13 9
-26 23 -29 32 -23 75 -66 238 -66 246 0 6 7 2 15 -8 11 -15 17 -16 28 -7z
m-6870 -639 c21 -41 42 -77 48 -78 5 -2 25 31 45 73 35 73 37 75 55 59 23 -21
24 -40 3 -48 -8 -3 -24 -27 -35 -53 -33 -78 -71 -147 -87 -160 -22 -18 -34 -5
-27 28 7 29 -12 80 -56 153 l-17 29 -37 -72 c-20 -41 -41 -71 -48 -68 -18 6
-21 46 -4 65 21 24 67 118 67 137 0 12 8 15 28 13 23 -2 33 -15 65 -78z m5707
65 c36 -18 39 -29 7 -22 -27 7 -52 -6 -42 -23 5 -8 10 -9 18 -1 6 6 24 11 39
11 29 0 35 9 17 27 -7 7 1 10 28 9 39 -1 64 -21 56 -43 -8 -20 -23 -15 -23 7
0 11 -4 20 -10 20 -5 0 -9 -6 -7 -12 1 -7 -20 -20 -46 -29 -48 -16 -48 -16
-19 -22 39 -8 47 -32 23 -71 -21 -34 -81 -95 -81 -82 0 4 10 16 22 25 23 19
17 41 -11 41 -25 0 -35 49 -15 71 13 15 13 17 -5 22 -29 7 -39 54 -15 72 24
18 29 18 64 0z m-5372 -143 c21 -27 8 -37 -43 -33 -54 3 -55 -13 -2 -27 48
-12 46 -37 -9 -93 -84 -85 -149 -100 -174 -39 -17 42 1 61 24 26 9 -15 22 -26
29 -26 7 0 33 20 57 45 47 48 46 61 -5 67 -26 3 -31 8 -36 38 -10 62 3 72 79
65 43 -5 71 -13 80 -23z m-899 -76 c7 -9 50 -34 95 -57 88 -45 106 -57 106
-70 0 -23 -65 -6 -128 34 -37 23 -88 52 -113 63 l-46 22 -52 -105 c-29 -58
-51 -106 -49 -108 37 -27 107 -67 155 -90 34 -16 65 -35 67 -42 7 -19 -13 -27
-37 -15 -69 33 -158 72 -165 72 -19 0 -51 61 -57 106 -6 44 -4 53 24 91 17 24
31 49 31 57 0 19 21 57 45 82 l20 21 46 -23 c25 -12 51 -29 58 -38z m6511 23
c0 -11 -6 -22 -12 -24 -7 -3 -14 -19 -15 -35 -1 -17 -9 -38 -18 -46 -19 -19
-19 -25 -1 -18 12 4 13 -2 6 -33 -5 -21 -9 -39 -10 -40 0 -2 0 -16 0 -33 0
-19 -5 -30 -14 -30 -16 0 -16 31 -1 42 6 5 6 8 -2 8 -8 0 -11 18 -10 54 2 53
2 53 -20 39 -21 -14 -22 -14 -21 26 0 23 4 41 9 41 5 0 7 11 3 24 -9 37 1 44
56 44 43 1 50 -2 50 -19z m-6475 -111 c27 -12 30 -24 16 -78 -5 -19 -12 -52
-16 -73 l-6 -38 20 20 c12 12 21 25 21 31 0 5 5 20 11 33 22 48 99 60 83 13
-4 -11 -7 -36 -7 -53 0 -18 -4 -33 -8 -33 -5 0 -6 -7 -3 -15 5 -13 2 -14 -19
-6 -29 11 -37 6 -37 -26 0 -28 -26 -41 -49 -25 -9 7 -37 23 -64 37 -42 23 -47
29 -45 57 2 18 -2 33 -9 35 -8 3 -13 -4 -13 -16 0 -28 -31 -28 -56 0 -16 18
-16 23 -4 27 8 3 35 25 61 49 25 23 51 43 56 43 6 0 13 7 17 15 7 18 17 19 51
3z m6551 -70 c-3 -35 -9 -96 -13 -136 -6 -72 -7 -74 -44 -98 -21 -13 -41 -24
-44 -24 -3 0 -5 29 -5 65 0 36 -3 65 -6 65 -11 0 -33 -28 -27 -34 4 -3 1 -6
-5 -6 -6 0 -10 14 -10 30 1 17 5 30 10 30 5 0 6 5 2 11 -4 7 0 9 12 5 17 -5
19 1 22 57 2 34 7 66 12 71 7 7 54 20 94 25 5 0 6 -26 2 -61z m1049 -18 c3 -5
15 -10 26 -10 10 0 28 -9 39 -20 18 -18 20 -18 29 -2 10 16 10 16 11 0 0 -10
-10 -27 -22 -38 l-23 -21 -5 27 c-4 21 -13 30 -37 36 -18 5 -35 13 -38 18 -5
8 -29 7 -92 -6 -13 -2 -23 -10 -23 -17 0 -6 -18 -25 -39 -40 -36 -27 -42 -43
-33 -90 3 -12 127 -4 127 8 0 6 -25 12 -55 15 -60 6 -52 15 23 25 53 7 112 -8
121 -30 6 -17 -18 -43 -51 -56 -43 -16 -151 -11 -197 11 -24 11 -62 22 -85 26
-65 10 -48 24 30 24 69 0 71 1 65 23 -4 18 2 26 32 42 22 12 38 29 40 41 2 12
13 26 25 32 28 14 124 15 132 2z m-7634 -317 c26 -60 26 -61 43 -37 8 10 18
16 22 11 9 -9 -22 -77 -35 -77 -6 0 -21 16 -35 36 l-24 36 -13 -23 c-7 -13
-12 -30 -10 -38 6 -29 -9 -61 -29 -61 -22 0 -26 20 -8 38 8 8 5 14 -15 21 -18
7 -25 15 -21 26 3 8 10 15 15 15 5 0 16 17 24 37 33 78 57 83 86 16z m769
-553 c0 -4 14 -24 30 -45 17 -21 38 -63 47 -94 8 -31 18 -63 20 -71 4 -13 4
-13 -6 0 -9 12 -11 9 -11 -15 l-1 -30 -15 28 c-22 40 -30 25 -10 -17 9 -19 16
-39 16 -45 0 -6 7 -8 15 -5 8 4 15 1 15 -6 0 -6 -4 -8 -10 -5 -5 3 -10 -2 -10
-12 0 -16 -1 -16 -14 2 -7 11 -17 31 -21 45 -13 46 -77 205 -86 215 -13 13
-11 49 2 62 12 12 39 7 39 -7z m611 -143 c19 -23 40 -58 46 -77 11 -31 10 -37
-8 -50 -18 -14 -19 -21 -10 -58 8 -37 6 -45 -11 -61 -19 -18 -19 -19 4 -25 13
-3 33 -14 45 -23 21 -17 22 -20 8 -46 -13 -25 -13 -31 2 -53 15 -23 15 -26 -1
-42 -16 -16 -17 -15 -11 11 12 46 -37 29 -65 -23 -7 -14 -15 -20 -17 -13 -6
16 26 63 43 63 16 0 18 9 5 29 -7 11 -12 11 -32 -2 -21 -13 -28 -14 -49 -2
-14 7 -24 17 -23 22 2 4 -3 8 -11 8 -7 0 -28 15 -47 33 -18 17 -36 32 -41 32
-16 0 -8 -27 15 -47 33 -30 117 -122 117 -128 0 -3 12 -17 28 -30 l27 -24 -30
-28 c-25 -24 -26 -24 -7 -2 27 31 28 43 4 30 -13 -7 -34 -5 -69 5 -48 14 -53
14 -85 -6 -18 -11 -42 -20 -53 -20 -11 0 -33 -7 -49 -15 -40 -21 -61 -19 -79
8 -15 23 -14 26 31 68 26 24 53 42 61 41 9 -2 12 2 8 12 -4 10 -1 16 9 16 10
0 14 6 11 15 -4 8 0 27 8 42 8 15 15 36 15 46 0 10 7 20 15 23 8 4 15 12 15
19 0 7 9 33 20 59 15 32 27 46 40 46 17 0 18 3 9 23 -9 19 -5 38 21 100 21 49
37 74 45 71 7 -3 28 -24 46 -47z m-121 17 c0 -17 -6 -28 -20 -31 -22 -6 -25
-14 -10 -29 7 -7 -4 -45 -35 -120 -84 -201 -121 -267 -177 -316 l-43 -38 -16
21 c-13 18 -23 21 -51 15 -43 -8 -98 14 -126 49 -11 14 -22 25 -25 25 -10 0
-1 -28 13 -46 14 -16 13 -16 -8 -5 -34 18 -37 38 -11 61 13 10 28 19 33 20 18
0 45 32 39 46 -3 8 1 14 9 14 15 0 143 110 322 277 50 46 94 83 98 83 4 0 8
-12 8 -26z m3120 -104 c6 -11 7 -20 3 -20 -12 0 -47 -63 -44 -78 3 -18 -60
-122 -70 -116 -5 2 -13 -14 -19 -36 -6 -22 -15 -40 -21 -40 -5 0 -7 -10 -4
-23 8 -29 -17 -54 -32 -35 -23 30 -23 66 0 95 29 37 60 93 51 93 -13 0 -83
-83 -97 -112 -13 -30 -54 -40 -54 -13 0 8 3 12 7 10 4 -2 15 2 25 9 14 10 15
15 5 21 -9 6 -11 4 -5 -5 5 -8 3 -11 -6 -8 -8 3 -15 12 -17 20 -4 19 29 33 38
18 5 -7 18 -2 38 15 30 25 56 87 54 128 0 9 4 15 9 11 6 -3 7 -19 4 -36 -5
-19 -3 -28 3 -24 14 8 21 55 10 62 -10 6 19 44 34 44 4 0 17 9 28 20 11 11 27
20 35 20 8 0 19 -9 25 -20z m3540 -164 c0 -7 -94 -33 -210 -57 -92 -20 -136
-23 -343 -23 -223 -1 -239 0 -252 18 -25 33 -8 39 99 32 112 -8 325 -8 371 -1
17 3 88 9 159 15 71 5 131 12 134 15 6 6 42 7 42 1z m-2905 -133 c8 -54 24
-93 39 -93 5 0 23 -12 38 -27 22 -21 28 -23 28 -10 0 20 1 20 35 7 34 -13 23
-30 -21 -30 -19 0 -34 -4 -34 -10 0 -5 -15 -20 -33 -32 -19 -13 -32 -29 -29
-36 2 -7 24 -34 48 -59 47 -48 54 -63 29 -63 -9 0 -19 -9 -23 -21 -7 -17 -10
-18 -19 -7 -6 7 -15 29 -20 48 -13 50 -76 92 -147 98 -49 4 -55 2 -61 -18 -6
-20 -7 -20 -20 -3 -7 10 -17 15 -21 10 -4 -4 -2 -7 5 -7 7 0 10 -4 7 -9 -9
-14 5 -42 16 -35 11 7 7 -101 -5 -112 -17 -17 -45 10 -61 61 -10 33 -23 55
-32 55 -7 0 -14 7 -14 16 0 8 4 13 8 10 10 -6 92 79 92 94 0 5 10 10 23 10 12
0 33 7 45 16 12 8 26 13 30 10 5 -3 26 9 48 27 21 17 33 24 25 14 -7 -9 -9
-17 -3 -17 16 0 23 30 8 36 -13 5 -41 11 -58 13 -4 1 -1 20 7 42 8 23 15 49
15 58 0 9 6 23 12 29 18 18 34 -7 43 -65z m2350 33 c274 0 410 9 552 39 26 6
27 5 7 -7 -26 -16 -20 -38 9 -39 77 -2 -162 -52 -327 -68 -134 -13 -374 -14
-476 -1 -98 13 -210 40 -210 51 0 5 12 6 26 3 18 -5 25 -3 20 4 -3 6 0 12 6
15 7 2 -2 11 -19 21 -18 9 -33 18 -33 20 0 2 35 -6 78 -17 69 -19 108 -21 367
-21z m-6848 -104 c26 -21 68 -65 92 -98 25 -32 65 -80 89 -105 25 -27 39 -49
34 -53 -6 -3 -53 36 -106 88 -105 104 -133 122 -133 82 0 -14 6 -27 13 -30 8
-3 14 -12 14 -21 0 -9 9 -15 21 -15 12 0 23 -8 26 -18 2 -10 20 -26 39 -37 19
-10 34 -21 35 -24 4 -33 27 -75 91 -167 15 -22 28 -52 30 -69 3 -27 0 -30 -29
-33 -33 -3 -47 -22 -18 -22 26 0 28 -28 6 -80 -26 -61 -26 -89 -1 -143 23 -49
74 -87 116 -87 34 0 44 7 63 39 51 91 16 200 -69 217 -21 5 -30 12 -30 25 0
26 52 25 96 -1 52 -33 79 -99 78 -193 -1 -47 -6 -83 -13 -90 -10 -9 -11 -6 -6
16 l7 27 -31 -17 c-36 -21 -40 -39 -11 -48 22 -7 26 -20 10 -30 -11 -7 -130
15 -249 46 -119 30 -156 23 -114 -23 15 -17 15 -18 1 -13 -9 4 -21 20 -27 36
-9 26 -14 29 -54 29 -53 0 -86 23 -123 86 -23 40 -25 50 -19 111 4 38 8 145 9
238 2 168 10 240 27 251 5 3 9 28 9 55 0 54 17 83 40 69 20 -12 32 -2 25 21
-9 29 8 23 62 -19z m-527 6 c0 -7 -17 -22 -37 -33 -44 -24 -52 -42 -21 -47 29
-4 30 -22 1 -26 -12 -2 -27 -10 -33 -18 -18 -21 -40 -17 -40 7 0 11 -5 19 -12
17 -25 -9 -18 -29 26 -76 25 -27 46 -53 46 -58 0 -5 -23 -20 -51 -33 -46 -23
-51 -23 -67 -8 -15 16 -15 18 2 30 17 13 16 16 -23 46 -57 45 -54 101 6 101
12 0 26 6 30 14 7 12 147 92 166 95 4 1 7 -5 7 -11z m1787 -245 c1 -10 -8 -49
-19 -87 -11 -38 -21 -82 -23 -97 -6 -48 -25 -103 -41 -124 -15 -19 -16 -19
-11 10 3 17 9 49 12 73 7 41 6 42 -17 33 -14 -5 -40 -19 -59 -30 -19 -12 -42
-21 -53 -21 -13 0 -17 -5 -13 -20 4 -17 2 -18 -14 -9 -22 11 -23 7 -8 -24 9
-20 9 -20 -11 2 -15 18 -20 35 -18 70 3 39 7 48 30 58 15 6 30 23 33 36 5 18
13 25 32 25 13 0 30 5 36 12 10 10 7 12 -10 7 -44 -10 -24 23 39 63 66 43 114
52 115 23z m4558 -111 c162 -45 291 -125 315 -196 5 -17 30 -49 55 -70 61 -50
95 -121 111 -231 8 -49 14 -94 14 -100 0 -6 -23 -9 -55 -7 l-54 4 -5 41 c-3
23 -8 72 -11 108 -6 74 -29 152 -50 169 -11 9 -25 7 -60 -10 -123 -60 -327
-40 -354 34 -13 32 -2 53 37 73 48 23 194 23 271 0 30 -9 56 -15 58 -13 8 8
-48 36 -59 30 -6 -4 -8 -3 -5 3 6 9 -59 38 -130 58 -160 44 -448 37 -617 -16
-161 -51 -188 -155 -50 -195 90 -26 217 -21 296 13 46 19 54 38 25 58 -27 19
-60 19 -121 1 -41 -13 -53 -13 -80 -1 -55 24 -70 28 -95 26 -43 -5 -17 22 45
44 113 40 267 15 310 -51 57 -86 -144 -171 -341 -143 -75 10 -166 47 -204 82
-33 31 -52 77 -40 100 6 9 7 22 4 27 -11 17 29 70 74 101 24 16 76 39 115 51
39 13 72 26 74 29 1 4 103 6 225 5 195 -2 232 -5 302 -24z m-1116 -198 c21 19
35 8 25 -19 -5 -12 -9 -13 -14 -5 -5 8 -23 -13 -49 -58 -71 -121 -165 -167
-298 -145 -36 7 -71 17 -77 23 -8 9 -3 10 24 4 53 -11 152 -6 191 10 45 19
119 73 119 87 0 8 -4 8 -12 2 -19 -15 -175 -63 -204 -63 -14 0 -22 4 -19 10 3
6 22 10 41 10 19 0 33 4 30 9 -4 5 2 7 13 4 41 -11 169 85 187 140 7 22 7 22
16 -2 8 -23 9 -23 27 -7z m147 -143 c40 -24 59 -76 44 -116 -9 -23 -13 -25
-26 -14 -10 8 -13 21 -9 36 4 17 -2 30 -19 48 -31 31 -67 32 -102 2 -44 -38
-30 -107 22 -107 12 0 30 -8 39 -17 16 -16 16 -17 -4 -25 -36 -13 -96 14 -117
54 -24 46 -18 77 25 119 32 32 46 39 77 39 22 0 53 -9 70 -19z m-1206 -69
l142 -37 43 -82 c23 -45 48 -90 56 -100 13 -15 12 -16 -6 -9 -11 5 -68 21
-127 37 -210 56 -282 79 -304 100 -12 12 -27 18 -33 15 -5 -4 -12 -2 -15 3 -3
5 -14 7 -25 4 -14 -3 -20 2 -25 23 -5 18 -10 24 -15 16 -6 -10 -14 -8 -32 6
-13 11 -34 23 -47 27 -28 8 -22 17 13 21 17 2 25 -2 25 -13 0 -11 7 -14 25
-11 13 3 22 1 19 -3 -3 -5 2 -9 11 -9 9 0 14 4 11 8 -2 4 -1 14 5 22 6 10 9
11 9 3 0 -7 7 -13 15 -13 8 0 15 5 15 10 0 16 42 30 71 24 15 -3 91 -22 169
-42z m-2835 1 c14 -16 22 -34 20 -41 -6 -16 26 -83 37 -76 7 5 12 -9 10 -27
-1 -4 10 -10 23 -13 16 -4 27 -16 31 -34 3 -15 8 -34 10 -44 4 -15 -7 -16
-123 -12 -128 5 -173 15 -173 41 0 27 116 233 131 233 6 0 21 -12 34 -27z
m4837 6 c186 -40 225 -150 70 -195 -46 -14 -52 -18 -40 -30 10 -11 25 -11 68
-4 92 17 425 24 537 11 106 -11 220 -46 254 -77 33 -30 21 -67 -26 -82 -40
-13 -85 -9 -85 7 0 5 18 11 39 15 59 9 58 23 -1 41 -126 36 -271 39 -513 12
l-110 -13 55 -16 c66 -19 141 -27 275 -29 74 -1 105 -5 117 -16 10 -9 16 -19
14 -22 -5 -7 -117 0 -301 19 -55 6 -133 20 -173 32 -71 21 -73 21 -133 3 -48
-15 -57 -21 -43 -28 11 -6 19 -5 25 4 7 11 9 11 9 1 0 -19 -25 -25 -49 -12
-15 8 -27 8 -42 0 -31 -17 -7 -38 52 -46 32 -4 49 -11 49 -20 0 -8 5 -14 10
-14 6 0 10 7 10 15 0 9 9 15 25 15 14 0 25 3 25 8 0 4 60 4 133 0 178 -11 240
-34 240 -93 0 -13 3 -23 7 -20 4 2 15 -4 25 -15 10 -11 22 -17 28 -13 6 3 7 1
3 -6 -4 -6 -2 -19 5 -27 19 -24 1 -32 -91 -38 -119 -8 -298 -31 -306 -39 -16
-15 12 -22 109 -27 66 -3 102 -9 104 -17 7 -20 -43 -26 -146 -20 -107 7 -155
20 -189 51 -22 19 -23 30 -8 67 5 12 -3 18 -31 27 -73 22 -103 73 -67 113 15
16 12 19 -46 35 -35 9 -67 25 -73 36 -7 10 -16 18 -21 18 -4 0 -3 -7 4 -15 10
-12 10 -15 -3 -15 -22 0 -29 16 -15 32 7 7 19 25 27 41 17 32 85 73 148 89 35
8 41 13 32 24 -8 10 -35 14 -90 14 -90 0 -168 15 -220 41 -53 27 -69 46 -69
85 0 29 5 36 40 54 92 47 238 63 352 39z m-599 -24 c4 -9 -8 -24 -33 -42 -45
-32 -48 -39 -21 -46 26 -6 54 -63 47 -93 -4 -13 -27 -38 -54 -55 -26 -18 -57
-41 -70 -52 -21 -20 -23 -20 -40 -3 -16 17 -16 18 3 32 126 92 131 99 98 136
-24 27 -43 23 -113 -27 -62 -43 -80 -48 -80 -20 0 15 227 184 246 185 7 0 14
-7 17 -15z m-3085 -9 c7 -4 19 -2 27 4 12 10 25 8 62 -10 44 -21 46 -23 28
-36 -23 -17 -62 -18 -68 -1 -4 9 -6 9 -6 -1 -1 -7 9 -17 22 -22 18 -7 16 -9
-19 -9 -24 -1 -47 -7 -54 -16 -16 -19 -26 -19 -34 0 -4 10 2 19 16 24 18 6 13
9 -28 15 -51 7 -101 36 -91 53 7 11 126 11 145 -1z m-2099 -32 c6 4 11 3 11
-2 0 -18 42 -52 65 -52 14 0 25 -5 25 -11 0 -6 9 -8 20 -4 12 4 26 2 33 -3 20
-16 95 -23 99 -10 3 9 38 5 135 -15 190 -39 213 -37 213 24 0 26 17 24 45 -7
66 -71 -6 -81 -245 -34 -102 20 -137 20 -125 0 10 -17 -113 -12 -151 6 -19 9
-34 20 -34 25 0 5 -4 9 -10 9 -5 0 -10 -6 -10 -14 0 -23 88 -51 162 -51 36 0
64 -4 61 -9 -3 -4 -42 -6 -87 -4 -63 4 -93 11 -136 32 -79 40 -100 63 -100
105 0 25 3 32 9 22 5 -7 14 -10 20 -7z m2260 -46 c-4 -32 2 -47 15 -42 9 3 12
13 9 22 -5 14 -3 14 16 -2 12 -11 20 -25 17 -32 -2 -6 1 -17 7 -24 9 -10 8
-12 -5 -7 -23 8 -24 -16 -2 -34 14 -12 14 -14 -5 -21 -12 -4 -24 -16 -28 -25
-10 -26 -75 -117 -91 -127 -8 -4 -38 -30 -67 -56 -74 -67 -164 -134 -171 -127
-14 13 8 79 27 84 10 3 19 12 19 19 0 8 4 14 8 14 12 0 57 40 46 40 -5 0 -1 7
9 14 12 9 14 16 7 21 -6 4 -18 1 -27 -7 -13 -9 -12 -6 2 13 14 19 25 24 35 19
8 -4 24 -4 35 0 17 6 17 7 -7 13 l-27 7 36 55 c20 30 44 57 54 60 39 13 19 27
-27 20 -31 -4 -49 -3 -54 4 -4 8 -16 3 -33 -13 -15 -14 -27 -21 -27 -16 0 13
26 36 83 72 36 23 51 28 56 19 6 -9 16 -9 42 3 32 15 32 16 7 12 -16 -2 -28 0
-28 3 0 7 45 27 63 30 4 1 7 -5 6 -11z m4661 -163 c11 -25 30 -57 44 -72 13
-14 32 -47 42 -72 9 -25 28 -68 41 -95 20 -38 22 -50 12 -57 -7 -4 -19 -3 -26
3 -7 6 -27 12 -44 14 l-31 4 21 -36 c12 -20 20 -38 19 -39 -4 -4 -35 18 -36
25 0 3 -4 13 -8 23 -4 10 -2 23 5 30 6 6 11 16 11 22 0 5 -4 4 -9 -3 -6 -10
-14 -4 -31 25 -13 21 -38 52 -57 69 -30 29 -47 64 -23 49 16 -10 12 20 -7 53
-9 16 -30 35 -46 42 -27 12 -28 14 -11 23 25 14 86 36 102 37 7 0 21 -20 32
-45z m-1677 1 c47 -20 69 -50 71 -95 1 -39 -26 -90 -51 -98 -6 -2 -34 28 -63
67 -43 58 -55 69 -62 56 -5 -9 -8 -31 -6 -48 3 -32 8 -36 77 -68 8 -3 17 -12
19 -18 7 -21 -72 -14 -100 8 -86 67 -42 192 75 209 4 0 22 -5 40 -13z m1286
-79 c60 -63 107 -88 219 -118 45 -12 80 -25 77 -28 -11 -10 -150 -1 -210 15
-33 8 -78 26 -101 39 -41 24 -103 86 -124 124 -10 20 -8 21 39 21 47 0 52 -3
100 -53z m-4695 -15 c7 -11 -25 -72 -38 -72 -6 0 7 -10 29 -21 50 -27 52 -28
39 -37 -7 -4 0 -18 19 -37 18 -19 27 -23 24 -12 -4 9 -2 17 2 17 5 0 14 -13
20 -30 8 -24 7 -30 -3 -30 -8 0 -19 7 -26 15 -6 8 -36 21 -65 30 -30 8 -66 26
-82 39 -15 13 -57 37 -93 54 -36 16 -74 40 -84 51 -26 29 -10 26 35 -5 20 -14
46 -26 58 -27 11 -1 23 -7 26 -15 8 -21 24 -4 17 20 -3 14 -2 19 7 14 6 -4 24
-10 39 -12 25 -5 26 -4 8 9 -25 18 -12 41 20 33 17 -5 24 -2 24 9 0 16 15 21
24 7z m3699 -52 c-9 -16 -22 -30 -28 -31 -5 0 -25 -21 -43 -46 -23 -30 -28
-44 -17 -39 12 4 18 0 22 -14 3 -12 19 -28 36 -36 26 -14 28 -17 14 -31 -11
-12 -19 -12 -35 -4 -35 19 -65 12 -121 -29 -41 -30 -58 -37 -68 -28 -7 6 -13
13 -13 17 0 3 27 24 60 46 46 31 60 46 60 66 0 29 -16 49 -40 49 -9 0 -41 -18
-70 -40 -54 -40 -85 -48 -85 -20 0 21 162 133 181 126 9 -4 14 -13 10 -21 -8
-23 13 -18 46 10 16 14 36 25 44 25 8 0 14 5 14 11 0 5 4 8 9 4 5 -3 12 -1 16
5 3 5 11 10 16 10 6 0 2 -13 -8 -30z m-1420 -22 c42 -33 55 -32 36 4 -11 20
-11 22 3 10 9 -7 21 -25 28 -41 6 -16 21 -33 33 -38 35 -16 147 -104 147 -115
0 -5 -9 -7 -20 -3 -23 7 -138 -14 -146 -26 -5 -8 10 -13 29 -10 4 1 17 -20 30
-46 12 -27 25 -50 28 -53 11 -10 18 -40 9 -40 -6 0 -10 5 -10 10 0 6 -4 10
-10 10 -5 0 -7 -7 -4 -15 4 -10 0 -15 -11 -15 -9 0 -13 4 -10 10 3 6 -1 7 -10
4 -17 -7 -37 -38 -29 -47 3 -3 17 1 32 9 40 21 65 18 57 -6 -5 -15 -3 -18 9
-14 18 7 19 4 10 -20 -3 -9 -12 -16 -19 -16 -24 0 -23 -14 2 -40 17 -18 22
-20 17 -7 -3 10 -3 17 2 15 5 -1 20 2 33 6 20 7 29 3 49 -20 23 -26 23 -28 6
-35 -16 -6 -15 -8 6 -8 34 -1 80 -66 60 -84 -10 -10 -12 -9 -8 3 4 11 -4 19
-28 26 -20 7 -37 7 -40 2 -3 -5 0 -7 8 -6 7 2 14 -7 16 -20 3 -20 6 -21 20
-10 12 10 12 8 -2 -14 -10 -15 -22 -25 -27 -23 -4 3 -13 -4 -19 -15 -6 -11
-14 -19 -18 -17 -4 1 -23 -8 -42 -19 -35 -22 -77 -34 -135 -40 -49 -5 -79 -11
-99 -20 -16 -6 -18 -4 -14 14 7 24 -14 30 -42 12 -12 -8 -11 -10 8 -10 12 0
22 -5 22 -10 0 -6 -13 -9 -30 -8 -24 2 -30 7 -30 25 0 27 -18 31 -27 6 -5 -14
-8 -13 -14 5 -6 15 -17 22 -34 22 -14 0 -25 5 -25 10 0 6 -7 10 -15 10 -8 0
-15 9 -15 20 0 12 -7 20 -17 20 -17 1 -17 1 0 14 9 7 17 18 17 25 0 6 6 12 13
12 6 1 -1 4 -17 8 -16 3 -30 13 -32 23 -2 14 2 15 22 8 19 -7 24 -6 24 5 0 8
5 15 11 15 5 0 7 5 4 10 -3 6 2 11 12 12 10 0 24 2 31 2 7 1 16 6 20 11 9 13
72 35 99 35 12 0 24 6 26 13 4 7 6 6 6 -5 1 -9 -5 -23 -11 -30 -7 -7 -14 -22
-16 -32 -4 -19 -2 -19 22 -3 31 21 36 21 36 3 0 -22 23 -24 44 -4 26 24 35 23
45 -4 l8 -23 8 24 c4 13 2 28 -4 34 -8 8 -11 8 -11 -2 0 -7 -5 -9 -10 -6 -6 4
-8 9 -6 13 2 4 -9 7 -25 8 -23 1 -26 -1 -15 -10 13 -9 13 -13 1 -24 -12 -10
-17 -8 -31 12 -16 26 -11 52 8 40 6 -4 8 -2 5 3 -9 15 -60 23 -73 12 -8 -6
-13 -3 -17 12 -5 17 -2 20 15 16 16 -5 18 -3 9 6 -6 6 -11 21 -11 34 0 16 -6
23 -20 23 -11 0 -20 -5 -20 -11 0 -6 -7 -4 -15 5 -17 16 -21 41 -5 31 6 -3 10
-1 10 4 0 18 -38 12 -50 -6 -7 -12 -10 -13 -7 -3 2 8 0 25 -4 38 -5 13 -5 22
1 22 6 0 10 9 10 21 0 15 -5 19 -15 15 -8 -3 -15 -1 -15 5 0 6 -5 7 -10 4 -7
-4 -7 -11 -2 -18 13 -17 24 -119 12 -112 -6 4 -10 0 -10 -8 0 -10 -7 -13 -20
-10 -14 4 -19 11 -15 23 4 12 -1 19 -17 24 -19 5 -20 8 -8 16 13 8 13 10 -1
10 -9 0 -20 7 -23 16 -4 12 -1 14 14 9 15 -5 18 -3 14 10 -4 9 -13 14 -20 11
-7 -3 -20 2 -29 10 -16 17 -20 7 -6 -15 6 -9 6 -22 -1 -34 -8 -16 -7 -18 9
-13 14 5 20 1 20 -11 0 -10 -3 -22 -7 -28 -4 -5 -13 -39 -20 -73 -7 -35 -19
-66 -27 -69 -29 -11 -105 22 -141 61 -32 36 -34 40 -16 47 10 4 48 8 84 8 77
1 104 13 71 31 -21 11 -21 13 -7 29 18 20 22 41 4 23 -8 -8 -17 -8 -30 -1 -11
6 -26 8 -34 5 -25 -10 -41 4 -36 30 3 15 11 24 23 24 10 0 21 5 24 10 4 6 11
8 16 5 5 -4 9 5 9 19 0 14 -6 26 -12 26 -8 1 -5 6 6 15 10 7 15 18 12 23 -3 6
0 12 8 15 8 3 16 -2 19 -13 3 -13 -2 -20 -17 -24 -17 -5 -18 -8 -6 -15 10 -7
17 -6 22 2 4 7 8 8 8 2 0 -5 5 -3 10 5 9 13 11 13 20 0 9 -13 11 -13 20 0 12
18 13 30 3 29 -22 -4 -53 2 -53 9 0 16 25 42 45 46 50 10 64 18 58 34 -4 9 -2
13 4 9 5 -3 34 16 63 44 61 58 79 59 143 7z m-3218 -139 c-11 -4 -17 -8 -13
-8 4 -1 3 -15 -2 -32 -12 -41 12 -64 76 -73 27 -4 71 -14 98 -22 69 -20 69
-19 41 26 -14 22 -25 44 -25 49 0 5 -7 14 -16 21 -8 8 -20 23 -26 34 -19 39
58 -48 96 -106 33 -53 35 -58 16 -58 -29 0 -25 -11 20 -48 23 -19 40 -27 40
-20 0 21 -79 159 -117 206 -26 31 -30 42 -18 42 18 0 49 -34 112 -123 39 -55
64 -86 50 -61 -8 13 11 96 25 109 7 7 8 2 3 -15 -4 -14 -9 -60 -10 -103 -1
-42 -6 -82 -13 -89 -8 -8 -10 -5 -6 13 5 21 4 22 -6 7 -14 -23 -28 -23 -53 -1
-18 17 -19 17 -16 -12 3 -25 0 -31 -18 -33 -23 -3 -31 12 -13 23 6 3 10 12 10
18 0 8 -3 8 -9 -1 -7 -11 -9 -10 -15 3 -4 11 -15 15 -38 13 -18 -2 -32 2 -31
7 0 6 3 24 5 40 l3 30 -107 9 c-111 9 -126 17 -93 50 9 9 11 17 5 21 -11 7
-14 84 -4 109 5 14 9 14 37 -1 29 -15 30 -17 12 -24z m4659 -66 c6 -15 -62
-127 -88 -145 -16 -11 16 -10 33 1 7 5 10 14 7 20 -4 6 -2 11 3 11 6 0 11 -4
11 -10 0 -17 18 -11 39 12 11 11 17 26 14 32 -4 6 1 5 10 -3 9 -7 14 -18 10
-24 -4 -6 3 -8 20 -3 16 4 27 2 30 -7 3 -9 8 -9 21 3 16 13 20 12 32 -5 42
-62 60 -85 72 -90 8 -3 10 0 5 8 -15 24 -13 85 3 91 9 3 12 2 9 -4 -4 -6 3
-22 14 -36 12 -15 21 -23 21 -19 0 4 12 -4 26 -19 15 -14 33 -26 40 -26 12 0
12 -4 2 -20 -11 -16 -9 -22 7 -34 17 -13 18 -15 3 -16 -9 0 -20 5 -23 10 -11
19 -23 10 -17 -12 5 -21 4 -21 -11 -9 -15 12 -17 10 -13 -17 2 -20 -2 -33 -10
-36 -8 -3 -13 0 -11 6 1 7 -8 17 -20 23 -28 12 -29 20 -5 37 10 7 22 20 27 28
8 13 7 13 -8 1 -9 -7 -17 -9 -17 -4 0 13 -57 73 -70 73 -10 0 -36 42 -30 50 2
3 -3 6 -12 8 -25 5 -18 -59 7 -70 14 -6 9 -7 -17 -4 -25 3 -38 1 -38 -7 0 -7
-5 -4 -11 6 -14 23 -2 42 17 26 8 -7 14 -7 14 -1 0 15 -22 21 -54 15 -19 -4
-31 -15 -38 -34 -11 -32 -29 -31 -21 1 7 25 11 25 -77 -5 -40 -14 -84 -25 -97
-25 -33 0 -63 17 -63 36 0 19 27 29 43 16 21 -18 54 -3 60 26 3 15 13 36 21
47 15 20 15 20 9 -2 -9 -38 4 -26 51 47 47 72 59 82 70 53z m-3055 -57 c9 -11
10 -20 1 -35 -9 -19 -8 -21 14 -21 35 0 45 -36 18 -63 -19 -18 -19 -22 -5 -43
8 -13 13 -31 9 -39 -5 -13 -2 -14 15 -5 11 6 25 9 32 7 7 -2 -7 -13 -30 -25
-36 -19 -42 -20 -47 -5 -4 8 -2 21 4 28 9 11 6 12 -12 8 -23 -4 -23 -4 -3 12
20 17 20 17 -2 10 -27 -8 -30 3 -7 20 15 11 14 12 -6 11 -35 -2 -48 28 -25 55
20 22 20 22 -1 15 -57 -18 -74 32 -21 64 38 24 51 25 66 6z m3898 -50 c-3 -8
-2 -28 2 -43 6 -20 4 -32 -5 -41 -8 -7 -14 -31 -14 -52 0 -25 -5 -40 -12 -40
-9 0 -8 -4 2 -11 12 -8 10 -10 -11 -7 -27 5 -56 -16 -39 -27 6 -3 10 -1 10 4
0 6 6 11 13 11 6 0 12 -11 12 -24 0 -13 -3 -22 -7 -19 -5 2 -8 -5 -8 -17 0
-13 -5 -20 -12 -17 -7 2 -12 12 -12 21 2 18 -2 18 -31 6 -18 -7 -19 -8 -2 -15
9 -4 17 -15 17 -24 -1 -14 -2 -14 -11 2 -13 23 -24 22 -26 -4 -2 -23 -20 -49
-34 -49 -16 0 -5 60 13 77 10 9 18 25 18 36 0 11 3 17 7 14 12 -13 36 37 40
83 4 59 26 114 55 134 28 20 42 20 35 2z m1888 -37 c4 -6 -9 -25 -29 -43 -32
-30 -36 -31 -41 -15 -12 35 -28 21 -21 -18 3 -21 6 -46 6 -57 0 -11 5 -16 14
-13 23 9 28 -23 9 -64 -10 -21 -21 -39 -25 -39 -11 0 -10 8 3 32 15 28 3 34
-71 33 -59 0 -80 17 -27 23 27 3 61 45 54 65 -3 7 -8 4 -13 -8 -11 -29 -25
-35 -66 -28 -34 5 -38 3 -38 -16 0 -11 4 -21 9 -21 5 0 7 -9 4 -20 -3 -11 -11
-20 -18 -20 -6 0 -20 -9 -29 -19 -10 -11 -25 -19 -34 -19 -10 0 -25 -3 -34 -7
-12 -5 -18 -3 -18 6 0 8 -11 27 -25 43 -27 32 -30 42 -15 51 5 3 7 12 3 20 -9
25 22 60 78 89 41 22 54 25 60 14 5 -7 9 -17 9 -21 0 -5 27 -7 60 -6 33 1 63
-1 67 -4 14 -15 23 -5 23 26 0 19 3 37 7 40 11 11 91 8 98 -4z m-7384 -39 c16
-9 17 -15 8 -31 -8 -15 -7 -24 2 -35 16 -19 27 -18 25 3 -2 25 35 28 70 6 16
-10 54 -44 84 -76 56 -61 56 -60 9 -87 -9 -5 -21 -5 -30 1 -11 8 -11 12 -1 16
19 8 15 35 -5 31 -10 -2 -17 -10 -16 -16 4 -15 -23 -16 -32 -2 -9 15 -34 12
-52 -6 -13 -12 -13 -18 -4 -24 7 -4 9 -10 4 -13 -4 -3 -16 1 -26 8 -14 10 -15
14 -5 18 10 4 10 8 -2 17 -12 9 -11 10 7 5 12 -3 24 -1 28 5 3 5 18 10 33 10
23 0 25 2 12 15 -16 15 -60 10 -60 -6 0 -5 -11 -7 -25 -3 -15 4 -25 2 -25 -5
0 -15 -30 -14 -31 2 0 6 -2 22 -3 35 -2 12 2 22 8 22 6 0 0 6 -14 13 -31 16
-50 11 -50 -14 0 -10 -9 -24 -21 -32 -13 -10 -22 -30 -26 -59 -3 -23 -12 -48
-19 -54 -8 -6 -13 -22 -12 -35 3 -22 0 -24 -34 -21 -27 2 -38 -1 -38 -11 0 -7
-5 -18 -11 -24 -17 -17 -39 9 -33 38 5 21 4 22 -8 9 -14 -16 -58 -15 -58 1 0
20 21 49 31 43 5 -3 18 -3 27 1 16 6 15 8 -2 21 -20 14 -20 14 0 49 11 19 42
60 68 91 l49 56 61 -4 c92 -7 138 16 79 39 -27 10 -27 11 -5 12 13 1 32 -4 43
-9z m2549 -17 c3 -3 1 -7 -5 -10 -5 -2 -17 -8 -25 -13 -13 -9 -12 -12 4 -25
17 -13 18 -15 3 -15 -9 0 -17 -4 -17 -10 0 -5 8 -10 18 -10 13 0 14 -2 4 -9
-11 -7 -11 -9 2 -14 11 -4 16 -1 17 11 1 9 6 2 11 -15 12 -36 25 -42 35 -18 5
14 8 13 19 -4 8 -11 15 -31 16 -45 1 -13 7 -22 12 -19 5 4 7 -1 3 -10 -3 -10
-2 -17 3 -17 6 0 10 6 10 13 1 6 7 1 15 -13 9 -15 15 -19 15 -10 0 10 7 7 20
-10 15 -19 22 -22 28 -12 13 20 43 -29 31 -50 -7 -13 -5 -15 11 -11 14 4 20 0
20 -11 0 -9 -6 -13 -14 -10 -13 5 -14 1 -7 -35 1 -2 7 2 15 8 11 9 17 4 30
-24 10 -20 21 -33 26 -30 5 3 11 1 15 -5 3 -5 20 -8 38 -6 l32 4 -27 -23 c-15
-13 -24 -26 -21 -29 4 -3 -2 -15 -11 -25 -11 -12 -15 -27 -12 -39 4 -11 2 -31
-3 -45 -10 -25 -12 -26 -83 -20 -65 5 -118 26 -103 41 2 3 -10 23 -27 45 -30
38 -32 39 -40 17 -4 -12 -6 -25 -3 -30 6 -9 -25 -23 -33 -15 -3 3 1 5 8 5 9 0
8 5 -4 19 -16 17 -22 60 -30 201 -1 27 -7 35 -25 40 -13 3 -28 12 -32 20 -16
32 -32 131 -26 169 3 23 3 41 0 41 -9 0 -98 -64 -172 -122 -52 -42 -76 -56
-82 -47 -4 7 -1 19 7 27 13 12 13 16 -3 27 -10 7 -16 15 -13 17 26 20 57 34
68 30 10 -3 7 -8 -7 -19 -12 -8 -19 -19 -16 -24 7 -10 70 20 100 48 36 33 89
70 133 92 50 26 53 32 10 26 -27 -4 -29 -3 -13 4 19 10 64 6 75 -6z m4905
-153 l-30 -8 28 -1 c18 -1 27 -6 27 -18 1 -17 1 -17 11 0 13 22 66 23 91 0 27
-24 23 -43 -10 -43 -18 0 -36 -10 -54 -30 l-26 -30 36 -1 c59 -2 65 -3 69 -16
4 -12 -20 -16 -88 -17 -13 0 -15 -5 -9 -27 8 -26 3 -69 -6 -69 -13 0 -63 69
-64 86 0 15 -8 23 -25 26 -14 3 -28 1 -31 -4 -3 -5 -12 -7 -20 -4 -25 10 -30
-45 -9 -96 5 -13 2 -18 -8 -18 -9 0 -36 -24 -62 -52 -45 -53 -46 -53 -25 -70
20 -16 23 -16 53 2 43 27 61 25 20 -1 -18 -12 -33 -24 -33 -28 0 -15 48 -52
54 -42 13 21 52 -17 54 -53 0 -5 6 -12 13 -17 8 -4 11 -11 7 -14 -3 -4 -23 11
-43 32 l-36 38 20 -42 c12 -23 21 -49 21 -58 0 -28 -16 -15 -35 28 -20 46
-135 167 -160 167 -22 0 -19 17 6 31 16 8 23 8 29 0 8 -14 25 5 64 66 30 48
34 94 10 114 -15 12 -16 10 -10 -17 6 -27 3 -35 -24 -57 -16 -14 -33 -39 -36
-55 l-6 -29 -25 23 c-26 24 -36 28 -63 25 -8 -2 -4 6 10 15 43 31 109 96 115
113 5 15 63 61 78 61 4 0 7 -6 7 -13 0 -13 28 -14 68 -2 23 8 28 20 12 30 -11
7 -14 68 -3 78 3 4 20 6 37 6 l31 -1 -30 -8z m-5271 -56 c-18 -13 -18 -14 1
-7 18 6 18 5 6 -10 -7 -9 -10 -17 -5 -17 5 0 -8 -16 -29 -35 -21 -19 -37 -40
-36 -47 3 -20 -12 -49 -22 -42 -5 3 -9 -2 -9 -11 0 -23 -34 -65 -47 -57 -5 4
-15 17 -22 30 -6 12 -16 22 -22 22 -6 0 -7 -5 -3 -12 4 -7 3 -8 -5 -4 -6 4 -8
12 -5 18 4 6 -1 8 -16 3 -15 -5 -20 -4 -16 4 4 6 14 11 22 11 8 0 14 5 14 11
0 7 -9 5 -22 -5 -13 -9 -30 -19 -38 -22 -45 -17 -58 -28 -53 -43 3 -11 1 -11
-7 3 -10 15 -8 23 9 47 12 15 21 32 21 37 0 5 7 15 15 22 8 7 12 17 9 22 -3 5
-8 24 -11 41 -3 18 -10 35 -16 39 -9 6 -9 8 0 8 16 0 23 -12 25 -45 2 -23 4
-24 15 -9 11 16 13 15 22 -7 5 -13 10 -19 10 -12 1 6 10 9 20 6 19 -5 19 -30
0 -43 -4 -3 -1 -11 6 -17 11 -10 16 -7 26 16 7 15 26 34 43 41 17 7 34 18 37
23 4 5 18 10 33 10 25 0 38 17 14 17 -7 1 1 12 17 25 17 14 32 20 34 14 1 -6
-5 -17 -15 -25z m4926 -253 c0 -40 15 -58 34 -42 11 9 16 10 16 2 0 -6 -5 -11
-11 -11 -7 0 -9 -8 -4 -22 3 -13 7 -29 7 -35 1 -7 7 -13 14 -13 7 0 22 -16 34
-34 11 -19 29 -37 38 -41 10 -3 53 -42 96 -86 60 -62 81 -78 88 -68 7 11 11
11 15 2 2 -7 12 -13 21 -14 15 0 15 -1 -1 -8 -17 -6 -17 -8 3 -34 l22 -28 -28
7 c-59 14 -149 53 -147 63 2 5 -21 28 -50 51 -28 23 -62 55 -75 71 -36 45 -43
34 -13 -21 14 -27 33 -50 42 -50 8 0 24 -7 35 -15 18 -13 18 -14 -6 -9 -71 16
-160 50 -200 78 -24 17 -48 34 -52 37 -9 6 16 117 28 128 4 3 4 -3 0 -13 -8
-22 1 -56 15 -56 5 0 9 17 9 38 0 44 7 57 38 66 32 11 27 25 -15 43 -50 20
-50 19 -23 47 21 23 24 24 46 9 15 -10 24 -25 24 -42z m-1368 -957 c6 -5 -4
-50 -35 -158 -7 -27 -22 -55 -32 -62 -18 -13 -18 -14 3 -14 12 0 22 -4 22 -9
0 -12 -44 -23 -48 -11 -2 5 -16 7 -32 3 -25 -4 -28 -3 -24 15 3 11 17 25 30
31 16 7 24 18 22 30 -2 10 4 26 12 36 10 12 15 39 14 81 l-1 64 32 0 c17 0 34
-3 37 -6z"/>
<path d="M927 2993 c-11 -11 -8 -183 3 -183 6 0 19 -9 30 -20 30 -30 150 -49
150 -23 0 7 -9 13 -19 13 -22 0 -41 45 -34 81 3 18 -3 30 -28 49 -17 14 -46
40 -64 58 -17 17 -35 29 -38 25z"/>
<path d="M6753 2979 c-40 -12 -42 -33 -6 -56 38 -25 180 -25 246 1 27 10 45
22 40 27 -30 30 -210 48 -280 28z"/>
<path d="M6416 2699 c-45 -11 -66 -25 -66 -45 0 -22 33 -33 119 -40 77 -7 81
-6 81 13 0 11 3 35 6 52 l7 31 -54 -1 c-30 -1 -72 -5 -93 -10z"/>
<path d="M6790 2284 c-115 -22 -164 -55 -103 -70 27 -7 350 30 361 41 3 3 0
11 -7 18 -12 12 -199 20 -251 11z"/>
<path d="M3447 6394 c-15 -15 -6 -64 16 -88 13 -14 27 -23 31 -19 4 4 24 6 46
4 27 -2 41 2 47 13 7 13 17 15 56 7 26 -5 50 -5 52 0 3 4 -2 25 -12 46 l-18
38 -106 3 c-58 1 -108 -1 -112 -4z"/>
<path d="M8636 6391 c-3 -5 1 -14 10 -21 8 -7 13 -19 10 -27 -3 -7 -1 -13 5
-13 6 0 7 -4 4 -10 -3 -5 -1 -10 5 -10 12 0 41 -61 34 -72 -3 -5 0 -8 5 -8 15
0 14 10 -4 60 -32 92 -4 126 35 43 12 -27 55 -139 96 -250 72 -199 102 -267
192 -432 34 -63 47 -80 52 -67 5 14 10 7 20 -25 l13 -44 14 34 c8 18 11 41 7
50 -4 9 -8 21 -9 28 0 6 -9 21 -19 32 -13 15 -19 34 -18 64 3 71 16 102 43
105 13 2 29 8 34 12 6 5 48 18 95 30 47 12 122 33 168 46 45 14 97 24 114 22
30 -3 32 -5 35 -47 2 -25 7 -49 13 -55 7 -7 10 19 10 77 0 86 0 87 -25 87 -14
0 -25 -4 -25 -10 0 -5 5 -10 10 -10 6 0 10 -6 10 -12 0 -8 -18 -14 -50 -16
-28 -1 -99 -18 -158 -36 -129 -41 -176 -54 -236 -65 l-47 -9 -34 53 c-22 32
-35 64 -35 84 0 18 4 30 9 27 5 -3 11 3 14 14 3 11 1 18 -4 14 -5 -3 -9 4 -9
15 0 11 4 22 9 25 5 3 2 31 -5 63 -9 38 -10 59 -3 64 12 7 14 38 4 63 -5 12
-5 17 1 13 17 -10 32 6 35 38 3 25 0 31 -18 33 -13 2 -23 7 -23 12 0 5 -13 11
-30 15 -16 4 -32 11 -35 16 -8 12 -312 12 -319 0z"/>
<path d="M2954 5821 c-22 -25 -49 -68 -59 -96 -10 -27 -32 -67 -48 -87 -53
-70 3 -38 94 52 62 61 69 77 60 136 l-6 41 -41 -46z"/>
<path d="M9480 5578 c-17 -23 -40 -61 -52 -86 -30 -59 -63 -93 -82 -86 -26 10
-19 28 30 78 39 41 45 52 42 84 -2 24 -9 38 -19 40 -20 4 -65 -42 -90 -90 -21
-41 -26 -127 -9 -159 17 -30 54 -23 89 16 17 19 32 35 35 35 2 0 7 -12 11 -27
15 -63 49 -69 94 -18 34 40 41 42 41 18 0 -10 7 -27 15 -37 13 -18 15 -7 15
105 l-1 124 -42 -85 c-31 -63 -47 -85 -62 -85 -28 0 -40 49 -23 100 15 46 47
61 49 23 0 -16 5 -11 16 20 12 34 12 46 3 57 -19 23 -27 19 -60 -27z"/>
<path d="M8127 5527 c-29 -25 -37 -39 -37 -64 0 -29 -3 -33 -27 -33 -14 0 -48
-14 -75 -31 -40 -26 -48 -36 -48 -63 0 -17 -4 -48 -9 -69 l-9 -39 51 7 c29 4
62 11 74 16 12 4 24 5 27 1 2 -4 24 -6 49 -4 36 3 46 8 51 25 8 30 6 204 -2
249 l-7 36 -38 -31z"/>
<path d="M8690 5548 c-63 -6 -94 -15 -122 -33 -37 -24 -38 -27 -38 -84 0 -52
-12 -140 -25 -182 -5 -13 3 -14 54 -8 58 6 166 37 158 45 -2 2 -26 0 -53 -5
-27 -5 -52 -7 -56 -5 -3 2 -2 19 3 37 5 17 9 65 9 104 l0 73 41 0 c28 0 51 8
77 27 51 37 58 43 47 42 -6 -1 -48 -6 -95 -11z"/>
<path d="M8415 5471 c-16 -4 -41 -14 -54 -22 -18 -11 -25 -11 -28 -1 -3 6 -11
12 -18 12 -12 0 -115 -59 -115 -66 0 -1 10 0 22 4 21 5 21 3 15 -66 l-7 -72
40 0 c34 0 42 4 50 26 6 14 10 47 10 74 0 46 1 48 31 52 l32 5 -7 -74 -6 -73
43 6 c23 4 45 12 49 18 4 6 8 50 8 99 0 95 1 94 -65 78z"/>
<path d="M7829 5403 c-12 -3 -18 -21 -22 -71 -4 -37 -10 -78 -13 -91 -7 -23
-6 -24 37 -17 24 4 48 11 53 16 5 5 11 45 14 90 l5 80 -29 -1 c-16 -1 -36 -3
-45 -6z"/>
<path d="M7710 5391 c-23 -4 -34 -12 -32 -21 4 -18 -27 -169 -39 -192 -9 -16
-5 -18 36 -18 43 0 47 2 60 34 26 61 38 209 17 205 -4 -1 -23 -5 -42 -8z"/>
<path d="M7460 5361 l-45 -6 55 -19 c92 -31 88 -38 -29 -50 -62 -6 -57 -4 -66
-38 -12 -48 51 -84 109 -62 9 3 14 9 12 13 -3 4 5 7 17 7 106 1 105 1 112 47
3 23 9 50 11 60 4 13 -6 22 -41 37 -48 21 -58 21 -135 11z"/>
<path d="M8295 5010 c-5 -8 -11 -24 -12 -35 -9 -58 -49 -117 -107 -156 -32
-22 -69 -42 -83 -45 -19 -5 -21 -9 -12 -20 8 -9 8 -14 1 -14 -6 0 -14 5 -17
10 -3 6 -14 10 -23 9 -14 0 -14 -2 3 -10 20 -9 -31 -5 -83 8 -18 4 -21 2 -16
-12 5 -13 9 -14 15 -3 6 8 9 9 9 1 0 -8 42 -12 144 -12 l143 -2 11 28 c36 95
41 140 17 140 -8 0 -15 -5 -15 -10 0 -6 -3 -8 -6 -5 -3 4 0 16 6 28 9 18 14
20 20 9 12 -18 23 27 18 72 -2 26 -5 31 -13 19z"/>
<path d="M7608 4640 c-1 -5 -28 -16 -58 -24 -32 -9 -46 -15 -32 -17 12 -1 27
-3 32 -4 6 -1 13 -3 18 -4 4 -1 1 -5 -7 -10 -12 -8 -12 -12 -2 -25 7 -8 21
-18 31 -21 22 -7 32 -39 17 -54 -8 -8 -8 -11 1 -11 17 0 5 -96 -15 -127 -13
-19 -12 -22 4 -25 14 -2 9 -9 -22 -28 l-40 -25 30 -3 c17 -2 37 -10 45 -17 11
-10 59 -14 175 -15 197 -3 196 -3 193 12 -3 12 2 14 37 17 11 1 14 9 10 28 -2
16 -9 29 -15 31 -17 6 -11 58 10 77 11 10 20 26 20 36 0 10 4 20 9 23 4 3 11
19 14 35 4 16 16 38 27 49 21 19 21 19 -42 26 -34 4 -71 12 -81 18 -15 8 -25
5 -46 -16 -34 -32 -52 -33 -89 -1 -29 24 -30 24 -46 6 -17 -19 -86 -41 -127
-41 -19 0 -21 4 -16 38 3 20 9 47 13 60 5 19 3 22 -19 22 -14 0 -27 -4 -29
-10z"/>
<path d="M6048 3500 c-26 -4 -52 -11 -57 -15 -20 -12 -11 -35 15 -41 38 -10
346 14 359 28 27 26 -210 48 -317 28z"/>
<path d="M720 2121 c-8 -6 -18 -7 -24 -4 -5 4 -6 -4 -2 -18 24 -87 21 -92 -44
-59 -46 23 -59 24 -93 7 -25 -13 -24 -14 58 -60 l82 -48 56 22 c32 12 57 27
57 33 0 20 -55 135 -65 136 -5 0 -17 -4 -25 -9z"/>
<path d="M260 1912 c-19 -11 -41 -17 -49 -14 -8 3 -11 0 -7 -6 8 -14 -30 -35
-46 -26 -7 4 -8 3 -4 -4 4 -7 1 -12 -8 -12 -9 0 -16 -4 -16 -10 0 -5 -20 -39
-45 -76 -40 -58 -53 -84 -41 -84 2 0 20 7 40 15 30 13 43 29 75 94 28 54 47
80 62 84 30 8 35 4 50 -48 15 -50 18 -51 59 -30 l29 15 -27 60 c-15 32 -29 59
-32 60 -3 0 -21 -8 -40 -18z"/>
<path d="M7498 1614 c-47 -35 -47 -35 -41 -83 4 -34 2 -51 -7 -56 -9 -6 -11
-4 -5 5 6 10 4 12 -11 6 -10 -4 -31 -10 -46 -13 -16 -3 -29 -14 -32 -27 -12
-44 -6 -48 29 -17 38 33 82 41 91 17 3 -8 12 -12 20 -9 8 3 14 -1 14 -10 0
-19 -16 -31 -25 -18 -3 5 -19 17 -36 25 -28 14 -30 14 -18 0 11 -14 10 -15
-11 -12 -17 2 -33 -6 -52 -26 -33 -34 -33 -34 -9 -63 l19 -23 59 26 c106 46
108 47 107 82 -1 18 2 30 6 27 5 -3 21 0 37 7 22 9 24 12 11 15 -24 6 -23 48
2 73 20 20 16 24 -25 21 -23 -2 -75 -55 -75 -76 0 -8 -7 -15 -15 -15 -8 0 -15
3 -15 6 0 3 7 12 15 20 17 17 21 49 5 39 -22 -14 -8 26 25 69 19 25 34 46 32
45 -1 0 -23 -16 -49 -35z"/>
<path d="M90 1597 c-85 -32 -85 -32 -88 -70 l-3 -38 48 24 c80 40 119 50 142
36 15 -10 25 -10 46 -1 37 17 43 41 16 64 -32 25 -63 22 -161 -15z"/>
<path d="M3149 1542 c11 -8 10 -12 -7 -21 -11 -6 -29 -11 -38 -11 -15 0 -15
-3 4 -23 22 -24 28 -43 15 -49 -11 -5 -65 -78 -86 -116 -17 -33 -17 -33 10
-70 15 -20 29 -39 31 -42 2 -2 6 1 10 7 10 16 72 -21 72 -43 0 -11 6 -14 23
-8 44 13 54 23 23 24 -22 0 -27 4 -22 16 9 24 -3 37 -22 22 -10 -7 -2 4 16 25
17 21 32 42 32 48 0 5 14 15 30 20 20 7 30 18 30 31 0 31 34 125 38 106 3 -14
32 -27 32 -15 0 16 -50 63 -70 65 -14 2 -34 9 -45 17 -24 15 -98 31 -76 17z"/>
<path d="M279 1454 c-14 -9 -29 -26 -35 -38 -5 -11 -46 -41 -91 -66 -46 -25
-95 -55 -110 -67 l-28 -22 32 0 c33 -1 163 43 232 79 43 21 55 46 49 96 -4 34
-15 38 -49 18z"/>
<path d="M8889 634 c-11 -13 -11 -18 -1 -21 6 -3 12 -11 12 -19 0 -8 -6 -14
-12 -15 -32 -2 91 -28 160 -33 42 -4 96 -10 120 -15 31 -6 42 -5 39 3 -2 6
-12 10 -21 10 -9 -1 -16 4 -16 12 0 9 -12 14 -36 14 -27 0 -37 5 -41 19 -6 22
-59 34 -115 25 -31 -5 -36 -4 -35 12 3 25 -35 30 -54 8z"/>
<path d="M6790 586 c0 -11 -83 -66 -100 -66 -6 0 -10 -4 -10 -10 0 -23 51 -2
87 36 22 24 53 24 53 0 0 -10 31 -33 89 -65 15 -8 28 -18 29 -23 2 -4 10 -8
17 -8 7 0 16 -7 19 -16 4 -9 9 -14 13 -11 3 4 1 12 -5 20 -7 7 -7 18 -2 27 5
8 5 22 -1 32 -6 10 -7 24 -3 30 4 6 3 8 -3 5 -6 -4 -14 0 -17 9 -3 8 -2 12 4
9 13 -8 13 1 -1 26 -9 18 -20 20 -90 18 -50 -1 -79 -6 -79 -13z"/>
<path d="M8371 526 c-7 -8 -34 -23 -59 -33 -53 -19 -113 -58 -112 -69 2 -10
-32 -23 -43 -17 -5 3 6 14 24 25 25 15 29 22 18 29 -24 15 -105 10 -151 -10
-73 -32 -90 -53 -21 -26 35 14 79 25 99 25 l37 0 -24 -18 c-28 -21 -115 -63
-126 -60 -5 1 -20 -2 -36 -7 -35 -9 -53 -40 -36 -61 10 -12 9 -13 -4 -9 -19 8
-33 -13 -18 -28 8 -8 11 -8 11 1 0 7 4 12 10 12 5 0 7 -7 4 -15 -4 -11 1 -15
17 -15 17 0 20 -3 11 -12 -8 -8 -15 -8 -24 0 -9 7 -19 7 -28 2 -8 -6 -19 -10
-25 -10 -5 0 -5 4 2 8 7 4 9 13 4 21 -7 10 -11 10 -22 -2 -8 -7 -20 -12 -27
-9 -16 5 -15 -8 3 -33 19 -25 84 -24 114 2 26 21 27 38 4 53 -17 11 -17 11 0
6 9 -3 25 -9 35 -13 15 -6 15 -5 3 10 -8 11 -9 17 -3 17 6 0 9 7 6 15 -7 18
22 21 30 3 5 -10 7 -10 12 0 7 14 40 16 49 2 3 -5 0 -10 -7 -10 -7 0 -24 -16
-38 -34 -14 -18 -30 -31 -37 -29 -7 3 -21 -10 -32 -29 -18 -29 -19 -33 -5 -38
13 -5 9 -13 -20 -38 -19 -17 -31 -34 -26 -37 6 -3 10 -1 10 6 0 7 3 10 6 6 7
-7 21 3 76 55 22 20 41 37 44 37 3 0 34 24 70 53 36 29 78 62 92 74 58 45 142
133 152 159 6 15 6 33 2 41 -8 14 -10 13 -21 0z"/>
<path d="M9555 267 c-8 -12 -11 -25 -6 -31 20 -26 7 -51 -24 -47 -5 0 -11 -25
-12 -57 -2 -31 -6 -74 -9 -94 l-6 -38 51 0 51 0 0 90 c0 73 -3 90 -15 90 -8 0
-15 5 -15 11 0 6 7 9 15 5 12 -4 15 4 15 43 0 53 -19 65 -45 28z"/>
<path d="M9032 245 c-15 -32 -9 -43 13 -25 9 8 24 10 42 4 16 -4 30 -7 33 -6
3 0 18 4 33 7 24 6 28 5 25 -11 -2 -16 7 -21 55 -30 52 -11 144 -10 155 1 3 2
17 -2 33 -11 35 -18 73 -10 86 19 8 18 6 24 -14 34 -17 9 -30 10 -43 3 -13 -7
-21 -7 -25 0 -4 7 -11 7 -18 2 -7 -5 -22 -12 -34 -15 -20 -4 -21 -3 -12 15 9
18 8 18 -10 9 -14 -8 -22 -8 -27 0 -5 8 -10 6 -16 -5 -10 -18 -65 -22 -88 -5
-12 8 -9 9 10 4 l25 -6 -24 14 c-19 11 -29 12 -43 3 -14 -8 -23 -8 -38 1 -10
7 -26 10 -34 7 -8 -3 -17 -1 -21 5 -3 6 -11 11 -16 11 -6 0 -7 -4 -4 -10 3 -5
0 -10 -9 -10 -8 0 -16 5 -18 11 -2 6 -9 -1 -16 -16z"/>
<path d="M2205 151 c-3 -6 -3 -16 0 -21 4 -6 2 -9 -3 -8 -5 2 -23 -12 -39 -29
-17 -18 -29 -33 -26 -33 2 0 -5 -13 -17 -30 l-21 -30 40 0 c33 0 44 5 62 30
l22 29 41 -29 c35 -26 48 -30 108 -30 l67 0 -25 25 c-14 14 -27 25 -31 25 -3
0 -36 23 -75 51 -80 58 -93 64 -103 50z"/>
</g>
</svg>
