<?xml version="1.0" standalone="no"?>
<!DOCTYPE svg PUBLIC "-//W3C//DTD SVG 20010904//EN"
 "http://www.w3.org/TR/2001/REC-SVG-20010904/DTD/svg10.dtd">
<svg version="1.0" xmlns="http://www.w3.org/2000/svg"
 width="600.000000pt" height="450.000000pt" viewBox="0 0 600.000000 450.000000"
 preserveAspectRatio="xMidYMid meet">
<metadata>
Created by potrace 1.15, written by Peter Selinger 2001-2017
</metadata>
<g transform="translate(0.000000,450.000000) scale(0.100000,-0.100000)"
fill="#000000" stroke="none">
<path d="M0 2250 l0 -2250 1330 0 c1176 0 1330 2 1330 15 0 8 -7 15 -15 15 -8
0 -15 5 -15 11 0 5 4 8 9 5 28 -18 113 105 182 264 51 120 120 318 164 474 16
56 16 60 -2 76 -20 19 -257 170 -266 170 -13 0 -103 -149 -173 -285 -41 -80
-74 -141 -74 -136 0 23 102 240 165 351 84 148 96 156 217 146 73 -6 78 -5 89
16 7 13 27 40 45 61 25 27 34 46 34 73 0 27 9 46 36 77 29 35 34 47 29 73 -4
22 0 38 15 57 11 14 20 36 20 49 0 48 11 68 38 68 19 0 23 3 15 11 -9 9 -9 16
0 31 10 15 9 21 -3 28 -13 8 -12 10 2 10 10 0 23 9 30 20 7 11 20 20 29 20 18
0 39 47 39 86 0 35 -48 33 -81 -2 l-24 -27 23 12 c13 7 26 11 28 8 7 -7 -61
-47 -79 -47 -8 0 -17 -4 -19 -9 -1 -4 -29 -25 -61 -45 -39 -25 -64 -35 -77
-31 -11 4 -20 10 -20 15 0 5 -16 17 -35 26 -19 9 -35 23 -35 30 0 8 -5 14 -11
14 -7 0 -9 10 -5 25 6 22 3 25 -19 25 -28 0 -29 4 -14 51 18 58 52 119 65 119
7 0 15 10 17 23 l4 22 2 -23 c2 -36 33 -23 45 17 15 51 68 99 78 70 2 -5 11
-7 20 -4 18 7 35 49 41 100 2 17 9 41 14 55 18 44 43 127 43 141 0 9 -3 10
-11 2 -8 -8 -21 -6 -49 6 -30 12 -41 25 -51 54 -11 34 -10 39 7 51 10 8 36 20
56 27 21 6 35 16 32 20 -3 5 2 9 12 9 13 0 14 3 4 15 -16 19 -40 19 -40 0 0
-8 -9 -15 -20 -15 -11 0 -20 6 -20 13 0 6 -11 13 -25 13 -31 2 -33 -13 -3 -18
19 -3 19 -5 6 -16 -13 -10 -19 -6 -43 29 -22 34 -26 49 -21 80 5 31 3 37 -9
33 -10 -4 -13 0 -10 16 5 28 12 35 33 35 9 0 18 8 20 18 2 10 19 44 37 76 l33
59 -23 10 c-12 6 -30 27 -40 49 -23 50 -20 48 -46 24 -32 -30 -169 -74 -186
-60 -7 6 -20 9 -28 5 -9 -3 -15 0 -15 8 0 8 -3 16 -7 18 -5 2 -23 21 -42 43
-19 22 -47 47 -63 55 l-29 16 28 38 c15 21 46 57 68 80 23 22 47 53 54 68 17
33 109 138 122 138 22 0 129 -249 129 -301 l0 -33 28 32 c31 37 78 50 106 30
16 -13 15 -14 -16 -10 -72 8 -116 -99 -67 -163 19 -23 27 -26 56 -20 38 7 38
6 -3 -50 -12 -16 -27 -41 -34 -54 -11 -22 -11 -23 8 -19 27 7 62 -26 37 -35
-8 -4 -15 -3 -15 1 0 17 -37 9 -49 -10 -12 -19 -11 -20 11 -15 12 3 39 -1 58
-8 l35 -13 -32 -1 c-33 -1 -48 -18 -15 -18 9 1 35 -1 57 -2 35 -2 37 -3 18
-11 -13 -5 -23 -15 -22 -22 0 -10 2 -10 6 0 6 16 36 16 30 0 -2 -8 -18 -12
-40 -10 -21 1 -37 -2 -37 -8 0 -5 -5 -10 -11 -10 -7 0 -5 10 5 25 16 24 16 25
-10 15 -15 -6 -34 -8 -43 -5 -22 7 -64 -37 -59 -62 3 -17 6 -18 43 -7 l40 12
-34 1 c-26 1 -32 4 -24 12 8 8 20 7 44 -5 18 -9 40 -16 49 -16 24 0 46 -29 59
-77 9 -32 17 -43 31 -43 24 0 22 -20 -2 -38 -19 -14 -24 -42 -8 -42 17 0 70
58 57 64 -7 2 -5 5 5 5 9 1 20 11 24 24 4 12 15 28 25 35 32 22 20 64 -26 90
-11 6 -14 12 -7 12 6 0 12 11 12 24 0 14 5 28 10 31 6 4 8 10 5 15 -3 5 9 19
26 32 52 42 44 118 -13 118 -30 0 -33 -7 -29 -67 2 -18 -2 -33 -8 -33 -6 0
-11 4 -11 10 0 5 -6 9 -12 7 -9 -1 -13 15 -13 55 0 54 0 56 -17 41 -33 -30
-15 -82 47 -135 30 -26 3 -21 -38 6 -19 13 -43 26 -54 29 -16 4 -16 5 0 6 18
1 23 16 8 25 -11 7 11 124 29 153 25 38 71 56 130 51 46 -5 59 -11 88 -43 35
-37 35 -38 29 -110 l-7 -72 40 -43 c22 -24 42 -51 45 -60 3 -11 19 -20 38 -23
28 -4 37 2 77 47 69 78 110 116 127 116 8 0 61 16 118 36 57 19 114 34 127 32
13 -2 22 2 21 8 -1 7 8 9 22 6 14 -2 25 0 25 7 0 5 7 8 16 4 10 -3 22 0 28 8
20 25 197 99 239 99 9 0 25 4 35 9 49 25 95 41 117 41 13 0 25 5 27 11 5 16
45 -10 51 -33 3 -10 14 -18 26 -18 22 0 46 34 36 50 -3 6 -1 10 4 10 6 0 11
10 11 21 0 22 -18 23 -75 4 -16 -5 -25 3 -44 39 -21 38 -23 48 -13 70 6 14 16
26 21 26 6 0 8 7 5 15 -4 8 -2 15 4 15 5 0 18 20 28 44 20 47 48 64 71 44 11
-9 18 -7 31 6 14 14 15 18 3 25 -10 7 -11 13 -2 30 7 11 16 21 21 21 6 0 10 6
10 13 0 6 11 20 24 29 21 15 26 16 36 3 10 -13 21 -9 74 28 33 23 70 50 81 60
11 10 36 28 55 40 31 18 70 46 108 78 10 9 18 6 32 -12 11 -13 46 -58 79 -100
34 -42 61 -80 61 -83 0 -4 18 -30 39 -59 22 -28 38 -53 36 -55 -5 -5 -51 27
-47 33 5 11 1 25 -8 25 -5 0 -7 -13 -4 -29 5 -25 2 -29 -21 -35 -16 -4 -33 -2
-42 6 -14 11 -15 9 -9 -19 7 -30 6 -32 -28 -39 -24 -4 -42 -2 -51 6 -9 7 -18
10 -22 7 -3 -4 2 -9 11 -13 23 -9 21 -44 -3 -44 -10 0 -21 -7 -25 -15 -6 -17
-46 -21 -46 -5 0 6 -5 10 -11 10 -6 0 -8 -9 -4 -20 7 -21 -13 -28 -31 -10 -5
5 -19 7 -32 3 -18 -4 -20 -8 -10 -20 7 -8 11 -41 10 -77 -2 -55 13 -151 48
-319 10 -49 32 -91 43 -81 3 3 3 -3 0 -15 -3 -12 -1 -21 5 -21 6 0 13 -14 17
-31 8 -36 19 -41 65 -30 l35 9 -40 1 c-30 1 -36 4 -25 11 13 8 13 10 -2 10
-16 0 -16 3 -2 42 10 28 11 44 4 46 -17 6 -11 19 10 25 22 6 26 31 8 47 -7 6
-26 22 -43 35 -26 22 -27 25 -10 25 11 0 49 -9 84 -20 35 -11 72 -18 82 -15
29 10 108 -16 139 -45 18 -17 30 -38 30 -53 0 -14 3 -27 8 -29 17 -7 83 -98
101 -139 11 -24 22 -66 25 -94 l6 -50 -14 45 c-28 91 -44 119 -68 120 -3 0 3
-28 13 -62 35 -113 80 -340 74 -372 -11 -56 -15 -64 -35 -69 -13 -3 -25 2 -35
16 -11 15 -29 23 -68 27 -77 8 -100 1 -104 -35 -2 -17 -7 -33 -11 -36 -4 -4
-88 -21 -187 -39 -99 -18 -184 -34 -189 -37 -9 -6 0 -134 16 -221 6 -31 11
-68 11 -82 1 -14 6 -29 12 -33 5 -4 -7 -5 -27 -1 -46 8 -80 -2 -58 -16 8 -6
10 -10 4 -10 -6 0 -17 7 -24 15 -7 8 -27 15 -44 16 -28 0 -29 1 -8 9 29 12 30
60 2 85 -46 42 -108 -26 -64 -70 14 -13 14 -19 4 -25 -7 -4 -10 -13 -6 -18 5
-8 -2 -8 -23 -1 -17 6 -31 19 -34 32 -3 12 -12 49 -21 82 -8 33 -15 90 -16
128 0 47 -4 67 -12 66 -7 0 -34 -4 -60 -8 -42 -7 -48 -6 -48 10 0 23 17 33 60
35 36 2 175 28 245 45 22 6 45 10 50 11 6 0 21 4 33 9 13 5 43 10 65 11 23 0
47 4 52 8 14 10 85 24 110 21 12 -1 34 5 50 13 17 9 40 16 52 16 30 0 54 10
47 21 -3 5 -7 55 -10 111 -5 114 -33 298 -64 415 -11 42 -20 89 -20 103 0 29
-33 66 -49 55 -7 -4 -6 -16 5 -37 15 -29 54 -157 54 -177 0 -5 -26 -7 -60 -4
-41 4 -60 2 -60 -6 0 -6 17 -11 39 -11 57 0 87 -14 95 -45 12 -47 35 -189 42
-258 7 -68 7 -68 -17 -63 -13 3 -152 20 -309 37 -157 17 -286 32 -288 34 -9 8
168 16 229 10 52 -5 70 -4 65 4 -5 7 2 11 17 11 14 0 27 -7 31 -15 8 -22 22
-18 22 5 0 12 -7 20 -18 20 -9 0 -20 5 -23 10 -3 6 0 10 8 10 10 0 13 12 11
45 -1 25 2 45 7 45 5 0 9 -15 9 -32 0 -42 16 -70 25 -47 3 9 5 22 3 30 -2 7 2
13 9 14 6 0 14 3 17 6 9 9 -15 70 -25 63 -5 -3 -9 1 -9 8 0 16 56 23 65 8 3
-5 1 -10 -4 -10 -6 0 -11 -7 -11 -16 0 -9 5 -12 13 -8 10 6 10 4 0 -7 -16 -16
-17 -29 -3 -29 10 0 50 -36 50 -45 0 -3 -8 -5 -17 -6 -11 0 -13 -3 -5 -6 6 -2
12 -14 13 -26 0 -12 3 -16 6 -9 2 6 13 12 24 12 10 0 19 6 19 14 0 8 6 17 13
19 6 3 2 6 -10 6 -27 1 -31 20 -5 22 9 1 1 5 -18 9 -22 5 -27 8 -13 9 30 1 40
21 17 34 -18 10 -17 11 6 18 23 7 23 7 -7 8 -17 1 -34 -5 -36 -11 -3 -7 -6 1
-6 18 -1 45 -30 49 -123 18 -43 -15 -84 -24 -92 -21 -8 3 -16 2 -18 -4 -3 -8
-70 -31 -293 -99 -33 -10 -145 -46 -250 -79 -104 -33 -255 -80 -335 -106 -80
-25 -156 -51 -169 -58 -15 -7 -65 -12 -130 -12 -126 1 -224 25 -259 63 -12 14
-24 23 -27 20 -3 -3 -11 -28 -19 -57 l-13 -51 60 -22 c52 -19 61 -26 77 -63
10 -23 30 -67 44 -97 31 -66 31 -68 6 -68 -14 0 -18 -5 -14 -18 4 -10 3 -13
-3 -6 -11 15 -83 38 -91 29 -4 -4 -1 -10 6 -12 20 -7 14 -23 -26 -77 -22 -28
-49 -68 -61 -88 -13 -21 -28 -38 -34 -38 -6 0 -2 -7 10 -15 21 -15 21 -16 5
-65 -10 -30 -23 -50 -32 -50 -13 0 -13 -1 0 -10 10 -6 11 -10 3 -10 -30 0 -10
-19 27 -25 45 -8 56 -24 11 -17 -27 4 -28 2 -40 -60 -7 -34 -30 -140 -51 -234
-31 -138 -39 -190 -38 -265 1 -69 -5 -116 -21 -174 -24 -87 -49 -179 -56 -209
-2 -10 -9 -24 -15 -31 -9 -11 5 -13 77 -12 79 1 145 -9 196 -28 10 -4 17 -3
17 4 0 6 -11 16 -25 21 -32 12 -32 40 0 63 l24 17 50 -67 c64 -87 83 -112 98
-128 16 -16 63 -123 63 -141 0 -8 9 -19 20 -26 11 -7 20 -19 20 -26 0 -7 4
-10 10 -7 5 3 7 0 4 -8 -3 -8 0 -18 5 -22 6 -3 8 -11 5 -17 -4 -6 -2 -8 3 -5
6 4 16 0 23 -8 11 -13 10 -14 -6 -8 -17 6 -18 5 -5 -13 7 -10 -18 15 -57 56
-39 41 -81 95 -93 120 -28 58 -94 137 -128 154 -14 8 -43 18 -63 24 l-36 10 4
-95 c2 -53 6 -99 9 -102 2 -4 5 -55 6 -114 l3 -107 1273 0 1273 0 0 431 0 431
-25 29 -24 29 4 -56 c4 -49 2 -57 -15 -61 -10 -3 -21 -12 -23 -22 -3 -11 -9
-4 -21 22 -18 41 -41 56 -58 39 -8 -8 -6 -18 6 -36 9 -15 13 -26 8 -26 -4 0
-16 15 -27 32 -47 80 -135 152 -223 184 -27 9 -31 13 -15 14 12 0 26 7 31 16
6 11 17 15 31 11 11 -3 24 -1 27 4 9 15 24 10 24 -7 0 -11 6 -14 22 -9 17 6
20 4 15 -10 -5 -12 -2 -16 10 -13 30 6 23 23 -17 41 -22 9 -48 17 -58 17 -9 0
-24 5 -32 10 -11 7 -7 9 15 6 17 -2 24 -1 18 1 -22 8 -14 20 17 27 18 3 44 0
63 -8 24 -11 27 -15 12 -15 -14 -1 -10 -6 18 -21 48 -26 51 -25 21 5 -14 14
-22 30 -18 37 5 8 2 9 -9 5 -9 -3 -19 -2 -22 3 -4 6 -16 10 -28 11 -15 1 -10
4 13 10 41 10 75 4 136 -22 42 -19 65 -39 45 -39 -5 0 -13 5 -16 10 -3 6 -12
10 -18 10 -7 0 -3 -7 7 -15 11 -8 27 -13 36 -10 10 3 26 -5 40 -20 24 -25 16
-36 -9 -13 -11 11 -11 9 -2 -9 14 -27 26 -29 35 -7 3 9 6 796 6 1750 l0 1734
-1449 0 -1450 0 22 -34 c26 -40 82 -55 90 -24 6 22 33 24 41 2 3 -8 3 -27 0
-41 -6 -23 -9 -24 -58 -18 l-51 7 23 -22 c19 -18 23 -29 18 -53 -3 -16 -6 -33
-6 -38 0 -4 -9 -11 -20 -14 -27 -9 -15 -25 18 -25 43 0 56 -14 49 -49 -8 -37
6 -40 75 -17 24 8 95 23 158 35 63 12 125 24 137 27 19 5 26 -3 57 -67 19 -41
42 -95 51 -121 9 -27 23 -48 33 -50 9 -2 53 6 97 18 44 13 132 32 195 43 63
12 161 32 218 46 108 26 152 31 152 16 0 -5 -24 -11 -52 -15 -29 -4 -91 -16
-138 -26 -47 -11 -130 -29 -185 -40 -213 -44 -279 -60 -287 -68 -8 -8 53 -377
65 -388 5 -6 80 7 122 21 16 6 17 5 5 -4 -13 -9 -12 -11 4 -11 10 0 24 6 30
14 11 14 215 61 224 51 3 -3 -3 -5 -14 -6 -14 -1 -13 -3 6 -8 16 -4 26 -15 28
-29 3 -16 12 -25 33 -29 40 -8 44 -6 44 21 1 24 14 49 16 30 0 -5 4 -60 7
-122 l7 -113 -65 8 c-103 13 -455 9 -555 -6 -74 -11 -251 -45 -352 -68 -25 -6
-28 8 -14 57 7 25 7 25 13 3 6 -22 8 -22 39 -9 37 16 48 34 28 47 -10 6 -8 9
9 9 12 0 22 4 22 9 0 5 2 16 5 24 5 11 -2 13 -40 7 -56 -8 -54 -11 -91 153
-13 59 -30 127 -38 150 l-15 42 1 -43 c1 -23 -1 -45 -5 -48 -3 -3 -23 -8 -45
-11 l-40 -5 -20 53 c-11 30 -23 68 -26 86 -7 31 -7 31 49 44 48 11 58 10 66
-2 16 -25 10 40 -11 129 -11 46 -20 94 -20 107 0 12 -7 25 -15 29 -8 3 -15 12
-15 20 0 7 -12 17 -27 21 -22 5 -31 2 -46 -19 -10 -14 -25 -26 -33 -26 -8 0
-14 -7 -14 -16 0 -14 8 -16 56 -11 64 7 84 2 84 -22 0 -25 -37 -43 -72 -35
-30 6 -31 6 -25 -25 7 -32 -9 -129 -23 -144 -4 -5 -14 5 -21 22 -8 17 -17 31
-21 31 -11 0 -10 -8 7 -64 8 -27 13 -51 11 -54 -3 -2 -33 16 -68 41 -68 48
-115 63 -163 49 -21 -6 -29 -14 -27 -27 3 -14 -1 -16 -23 -11 -38 10 -49 -1
-30 -30 15 -23 14 -24 -7 -23 -13 0 -32 5 -43 10 -17 8 -16 9 7 6 41 -6 24 10
-19 18 -21 4 -41 11 -44 17 -7 11 -180 51 -187 43 -3 -3 -3 -5 -1 -6 2 0 42
-9 89 -20 69 -15 75 -17 31 -13 -30 3 -68 7 -85 9 -28 4 -29 4 -6 -4 21 -8 22
-9 5 -11 -17 -1 -17 -3 5 -11 14 -6 45 -8 70 -6 25 2 34 2 20 -1 l-25 -5 25
-8 c16 -5 6 -6 -30 -4 -38 3 -47 2 -30 -4 21 -6 16 -9 -29 -12 -58 -4 -65 0
-103 70 -11 19 -25 31 -38 31 -20 0 -20 -1 -5 -30 10 -20 23 -30 38 -30 17 0
19 -2 8 -9 -13 -8 -12 -15 5 -46 21 -41 35 -50 61 -41 12 5 14 9 5 18 -22 22
-12 31 27 24 23 -3 58 0 87 9 62 19 76 19 121 0 35 -15 35 -16 18 -35 -10 -11
-16 -20 -12 -20 3 0 -21 -26 -53 -57 -31 -32 -91 -96 -132 -143 -41 -47 -94
-107 -119 -133 -24 -26 -59 -66 -78 -88 l-34 -40 12 -77 c7 -42 13 -85 15 -96
1 -10 19 -31 40 -47 21 -15 49 -42 62 -60 l24 -33 -23 -30 c-13 -16 -28 -31
-34 -33 -6 -2 -41 21 -79 51 -38 30 -70 54 -71 52 -2 -2 0 -17 3 -34 4 -19 14
-33 28 -37 27 -7 96 -90 96 -115 0 -30 -41 -92 -56 -86 -37 14 -98 -50 -88
-90 5 -20 -13 -49 -229 -368 -36 -54 -69 -106 -72 -116 -3 -10 -19 -23 -35
-30 -30 -12 -45 -11 -162 11 -79 15 -81 14 -143 -79 -21 -31 -59 -78 -84 -103
-25 -26 -58 -61 -72 -78 -14 -17 -36 -33 -48 -36 -21 -4 -22 -1 -16 23 6 26 6
26 -13 9 -19 -17 -23 -17 -66 -3 -66 22 -82 20 -106 -14 -12 -17 -27 -30 -33
-29 -33 4 -36 -3 -10 -24 67 -56 119 -84 156 -85 42 -2 99 -31 62 -33 -18 0
-18 -1 3 -9 30 -13 28 -18 -4 -12 -18 3 -25 1 -20 -6 3 -6 0 -13 -6 -16 -9 -4
-6 -10 10 -22 12 -9 22 -22 22 -29 0 -7 18 -24 40 -39 41 -27 51 -46 25 -46
-8 0 -15 -5 -15 -10 0 -6 -15 -8 -38 -4 -43 7 -74 -15 -54 -39 15 -17 -19 -73
-53 -89 -13 -6 -22 -14 -20 -19 10 -15 -45 -2 -64 15 -10 9 -35 21 -54 27 -39
10 -97 62 -97 85 0 8 9 23 19 33 15 15 19 30 16 61 -5 48 -6 49 106 -6 l73
-36 23 27 c29 34 29 51 -2 71 -14 9 -25 22 -25 30 0 7 -33 38 -72 68 -62 45
-82 54 -128 59 -53 6 -54 6 -25 -8 17 -8 36 -14 43 -15 16 0 15 -31 -2 -77
-14 -37 -24 -93 -31 -164 -1 -20 -8 -45 -14 -57 -16 -30 -14 -58 10 -123 23
-61 20 -109 -6 -109 -9 0 -12 -6 -9 -15 8 -20 -16 -19 -112 1 -164 33 -357
100 -334 114 6 4 8 18 5 31 -7 26 -5 28 92 98 39 28 65 69 79 126 4 16 -2 24
-30 38 -36 17 -43 31 -27 56 6 9 18 12 37 7 50 -11 57 -11 61 2 3 7 -4 12 -19
12 -12 0 -32 7 -42 15 -19 14 -19 15 -1 36 15 15 27 19 51 15 28 -6 32 -4 41
26 5 18 14 32 19 32 5 -1 27 -4 49 -7 l40 -6 -35 15 c-19 9 -36 17 -38 19 -2
2 4 28 14 59 21 66 28 68 138 35 60 -18 77 -20 114 -10 61 16 112 14 112 -4 0
-8 4 -15 9 -15 5 0 12 26 16 58 10 99 24 160 45 204 20 41 46 176 36 186 -9 8
-60 -38 -86 -78 -40 -61 -65 -77 -115 -78 -25 -1 -45 3 -45 8 0 6 -5 10 -11
10 -15 0 -79 50 -79 62 0 5 -7 16 -16 25 -14 14 -18 13 -45 -15 -31 -32 -81
-51 -87 -33 -5 16 -38 13 -52 -4 -7 -8 -29 -15 -49 -15 -49 0 -88 40 -99 101
-6 29 -13 43 -22 41 -7 -2 -73 -3 -146 -3 -142 0 -171 7 -209 52 l-20 24 27
-23 c23 -21 27 -22 35 -8 7 13 15 14 43 6 42 -12 100 -13 100 -2 0 14 -43 50
-72 61 -39 15 -35 29 10 33 l37 3 -60 30 c-32 17 -85 54 -116 83 -31 28 -61
52 -67 52 -5 0 -13 28 -17 62 -8 70 -19 62 -30 -24 -4 -40 -11 -58 -20 -58 -9
0 -12 -6 -9 -15 4 -8 1 -15 -5 -15 -6 0 -11 3 -12 8 -5 47 -5 69 1 82 4 8 10
35 13 60 5 41 4 43 -9 26 -22 -31 -25 -14 -9 47 8 32 14 61 13 65 -3 14 15 88
28 114 8 15 14 39 14 53 0 33 -28 45 -46 20 -11 -15 -16 -16 -29 -5 -8 7 -15
22 -15 34 0 11 -7 29 -14 39 -15 20 -10 61 10 78 7 6 28 11 46 11 29 0 37 6
61 47 53 86 95 121 124 103 17 -11 4 -62 -16 -59 -9 1 -17 -2 -18 -8 -2 -5 19
-11 45 -11 26 -1 61 -6 79 -12 58 -19 187 29 214 80 36 66 -4 184 -78 230 -45
28 -117 30 -153 5 -14 -9 -32 -17 -41 -17 -15 0 -14 10 12 76 16 42 42 95 57
117 31 47 93 83 349 202 l162 75 68 -5 c102 -9 229 -32 300 -56 47 -15 78 -34
119 -74 l57 -53 -7 -53 c-16 -116 -130 -405 -165 -417 -9 -3 -11 2 -8 14 3 11
9 37 12 59 l6 40 -24 -29 c-18 -20 -30 -26 -44 -22 -16 5 -23 0 -33 -24 -7
-16 -31 -51 -54 -76 -92 -101 -176 -212 -176 -232 0 -5 -8 -16 -17 -23 -15
-12 -16 -12 -8 6 16 40 75 200 75 205 0 4 -15 4 -33 2 -29 -3 -35 -9 -51 -54
-19 -55 -17 -65 12 -49 19 10 19 7 -6 -50 -20 -47 -33 -64 -54 -71 -15 -6 -28
-14 -28 -18 0 -25 -173 -288 -234 -355 -25 -27 -45 -53 -46 -57 0 -5 -7 -8
-15 -8 -8 0 -15 -5 -15 -11 0 -6 -6 -9 -14 -6 -21 8 -5 -42 32 -102 l30 -48
-24 5 c-13 2 -24 0 -24 -4 0 -14 126 -41 150 -32 12 4 23 20 27 38 3 17 14 35
24 40 10 6 44 49 76 97 32 49 71 103 88 122 24 28 29 41 27 75 -9 109 -6 143
10 168 15 23 194 125 203 116 2 -2 -2 -23 -9 -47 -9 -31 -10 -57 -2 -97 9 -54
10 -55 40 -52 27 3 31 6 28 30 -3 23 2 30 32 42 39 16 48 36 16 36 -11 0 -20
7 -20 15 0 16 12 18 47 9 13 -4 20 -10 17 -15 -3 -5 4 -9 15 -9 13 0 26 -12
37 -36 l18 -37 72 6 c85 6 87 5 134 -98 40 -86 40 -127 2 -174 -25 -31 -47
-70 -128 -221 -53 -98 41 -13 157 142 44 59 85 110 91 114 6 4 21 -5 34 -19
36 -42 63 -31 44 17 -8 22 -14 25 -35 20 -28 -7 -34 9 -11 32 9 8 12 26 9 45
-3 21 4 48 22 85 55 112 25 245 -78 351 -69 72 -124 78 -202 24 -38 -26 -252
-131 -268 -131 -19 0 12 25 116 94 165 109 239 144 432 200 28 8 117 38 198
67 106 37 147 55 143 65 -4 10 2 12 22 8 17 -3 64 8 127 31 55 19 106 38 113
40 9 3 4 13 -17 31 -27 23 -37 25 -84 20 -49 -5 -50 -5 -14 5 54 16 47 33 -10
25 -46 -5 -47 -5 -16 7 45 17 48 23 21 40 -20 13 -34 13 -103 2 -44 -8 -92
-14 -106 -14 -26 -1 -26 0 -18 46 5 26 5 51 1 55 -5 5 -26 1 -48 -8 -30 -13
-71 -18 -175 -18 -117 -1 -136 -3 -131 -16 3 -9 -6 -5 -21 9 -29 27 -34 52
-14 70 10 8 17 7 25 -1 9 -9 12 -8 12 5 0 9 -4 17 -9 17 -5 0 -7 9 -4 19 3 10
0 28 -6 40 -8 14 -8 21 -1 21 5 0 10 5 10 10 0 6 -7 10 -15 10 -8 0 -15 5 -15
10 0 6 16 10 35 10 19 0 35 5 35 11 0 6 -7 8 -16 5 -20 -8 -64 19 -64 38 0 8
12 24 28 35 l27 20 -28 1 c-22 0 -28 4 -25 18 2 9 11 16 20 14 18 -3 16 21 -8
75 -24 53 -25 51 64 68 15 3 62 20 105 37 45 17 82 27 87 22 20 -22 95 -280
116 -397 8 -47 16 -52 53 -33 16 9 50 20 76 26 26 6 81 32 123 59 71 45 84 49
157 56 113 9 111 8 119 68 4 28 11 56 16 62 15 18 -5 36 -48 42 -47 6 -49 2
-54 -97 -3 -55 -3 -55 -37 -58 -19 -2 -44 -1 -57 2 -23 6 -24 10 -23 104 0 53
4 118 8 145 l8 47 -1154 0 -1153 0 0 -2250z m4539 2082 c33 -33 80 -149 117
-292 14 -58 30 -108 33 -112 11 -13 106 -27 109 -17 5 13 23 11 36 -4 10 -13
193 -47 251 -47 27 0 27 1 21 48 -9 72 -51 231 -75 285 -11 27 -21 53 -21 58
0 5 24 7 58 3 52 -6 61 -10 107 -58 27 -28 49 -54 48 -57 -1 -4 5 -6 15 -5 9
0 16 -5 15 -11 -2 -7 2 -13 7 -13 6 0 10 -20 10 -44 0 -28 6 -48 16 -57 15
-12 16 -10 12 24 -4 35 4 48 17 27 12 -20 25 -9 25 21 0 17 4 28 10 24 5 -3
18 0 29 7 29 18 73 0 82 -35 9 -34 -7 -96 -27 -104 -9 -3 -29 4 -45 16 -38 29
-37 7 2 -30 26 -25 95 -146 87 -154 -2 -2 -12 -5 -23 -7 -14 -2 -25 8 -40 36
-11 21 -29 44 -40 50 -11 6 -25 18 -32 26 -22 25 -5 -38 24 -87 22 -39 27 -43
63 -43 22 0 40 -4 40 -10 0 -5 7 -10 15 -10 21 0 19 -28 -2 -33 -10 -3 -38 -5
-62 -6 -25 -1 -48 -4 -52 -7 -4 -2 -22 9 -40 26 -20 18 -44 30 -61 30 -39 0
-134 -37 -183 -72 -67 -48 -96 -50 -320 -22 -110 13 -220 28 -245 32 l-45 7 0
75 c0 41 5 98 11 125 8 40 7 69 -8 145 -19 98 -20 102 -57 183 -38 85 -25 117
47 117 34 0 49 -6 71 -28z m-540 -144 c29 -55 31 -63 17 -73 -21 -16 -260 -69
-278 -62 -19 7 -64 125 -52 136 15 14 64 22 64 11 0 -5 -9 -10 -20 -10 -22 0
-25 -7 -11 -29 5 -8 14 -10 21 -6 20 12 80 15 80 5 0 -6 -7 -10 -15 -10 -23 0
-18 -17 8 -24 l22 -7 -22 -11 c-32 -15 -29 -31 5 -25 15 3 45 8 67 12 84 14
90 16 74 26 -10 7 -6 8 14 3 33 -8 33 -4 1 62 -17 35 -33 54 -47 57 -16 3 -14
5 8 6 27 1 33 -5 64 -61z m-2045 -396 c3 -5 8 -28 12 -50 7 -42 6 -42 -37 -62
-25 -11 -66 -20 -95 -20 l-51 0 -10 44 -10 44 43 5 c24 2 60 14 81 25 42 23
59 26 67 14z m443 -1094 c26 -24 54 -50 63 -58 162 -148 224 -221 215 -250 -3
-11 -11 -20 -16 -20 -22 0 -5 -17 39 -38 26 -12 61 -33 77 -46 l29 -23 -25
-55 -24 -56 -75 38 c-80 41 -211 90 -237 90 -9 0 -23 7 -32 15 -9 8 -30 27
-47 42 -26 23 -33 40 -42 98 -6 39 -25 101 -42 139 -28 61 -30 72 -19 98 11
27 61 68 82 68 4 0 28 -19 54 -42z m-123 -402 c8 -19 29 -48 46 -65 30 -28 31
-31 14 -37 -27 -10 -172 -63 -217 -80 -52 -19 -64 -18 -37 6 13 11 18 20 12
20 -6 0 -14 -4 -17 -10 -3 -6 -45 -10 -93 -9 l-87 1 55 18 c30 11 78 19 105
19 38 1 56 7 75 25 31 29 81 86 76 86 -4 0 47 59 51 60 2 0 9 -15 17 -34z
m2280 -19 c17 -13 16 -21 -19 -163 -20 -82 -41 -157 -47 -167 -5 -10 -25 -25
-44 -33 -19 -8 -40 -26 -46 -40 -16 -36 -56 -29 -77 12 -9 19 -40 47 -74 68
-32 20 -56 40 -53 44 2 4 -11 18 -30 32 -18 14 -32 30 -29 37 2 7 0 15 -5 18
-6 4 -10 17 -10 30 0 21 7 25 57 36 42 8 73 9 113 1 65 -12 68 -10 116 65 19
29 39 53 46 54 24 1 50 7 56 13 9 10 27 7 46 -7z m-3799 -172 c25 -24 45 -52
45 -61 0 -19 -40 -64 -57 -64 -13 0 -123 108 -123 121 0 12 54 48 73 49 10 0
38 -20 62 -45z m1233 -107 c-22 -51 -42 -98 -44 -104 -3 -7 -22 -11 -42 -10
-35 1 -76 -20 -67 -35 3 -4 -10 -10 -28 -13 -24 -5 -40 -17 -58 -46 -13 -22
-30 -40 -36 -40 -7 0 -13 -6 -13 -13 0 -8 -6 -14 -14 -14 -10 0 -11 5 -6 16 5
9 20 41 34 71 13 30 34 65 46 78 12 13 23 29 24 35 7 37 19 56 42 61 13 4 29
17 34 31 9 22 58 45 101 45 8 0 24 7 35 15 10 8 22 15 26 15 3 0 -12 -42 -34
-92z m1973 61 c119 -86 299 -298 453 -534 109 -167 118 -188 103 -231 -17 -54
-101 -94 -162 -78 -20 5 -23 10 -18 39 7 44 -14 97 -78 193 -27 42 -47 82 -45
89 3 7 1 13 -5 13 -7 0 -9 10 -5 24 3 12 3 26 -1 30 -4 4 -8 13 -9 21 -1 7
-14 43 -28 78 -14 36 -26 69 -26 74 -1 15 -35 49 -95 93 -33 24 -62 47 -65 50
-14 19 -133 99 -140 95 -5 -3 -11 -1 -15 4 -3 6 -26 13 -50 17 -25 3 -45 10
-45 15 0 13 88 33 161 38 15 0 45 -12 70 -30z m-1931 -104 c-2 -12 27 -32 64
-45 35 -11 41 -11 52 5 15 20 10 21 193 -43 183 -64 183 -65 85 -282 -59 -131
-259 -592 -339 -780 -22 -52 -38 -76 -51 -78 -10 -1 -49 17 -86 40 -37 24
-106 68 -154 98 -119 75 -174 124 -167 151 3 11 11 18 19 15 7 -3 16 -1 19 4
3 5 13 7 23 4 10 -4 13 -2 7 3 -6 4 -12 20 -13 35 -1 21 2 25 18 21 11 -3 20
0 20 6 0 6 -6 11 -14 11 -8 0 -16 7 -20 15 -3 8 -12 12 -20 9 -19 -7 -12 21
36 134 6 15 12 34 14 42 2 8 7 23 13 35 17 35 121 263 197 434 66 147 90 188
102 176 2 -2 3 -6 2 -10z m-286 -341 c20 -8 21 -24 1 -24 -19 0 -67 -29 -78
-47 -4 -7 -24 -20 -44 -28 -30 -13 -34 -18 -27 -37 12 -37 10 -114 -5 -131
-12 -15 -15 -15 -38 3 -14 11 -31 20 -38 20 -21 0 -27 -32 -10 -50 15 -16 15
-23 0 -71 -9 -30 -23 -69 -31 -87 -8 -18 -14 -53 -14 -77 0 -25 -4 -45 -10
-45 -5 0 -10 -7 -10 -15 0 -8 -4 -15 -9 -15 -5 0 -12 -15 -15 -34 -13 -68
-120 -374 -179 -511 -55 -130 -108 -225 -125 -225 -4 0 -12 -10 -17 -22 -10
-22 -16 -26 -77 -52 -48 -21 -61 -21 -149 10 -74 26 -76 28 -75 58 2 37 20 42
98 27 144 -29 169 -33 186 -25 12 5 3 9 -33 15 -62 9 -116 29 -95 36 8 3 22 7
30 9 10 4 5 11 -17 25 -29 18 -31 23 -20 42 7 12 18 26 25 30 6 4 12 14 12 21
0 7 8 21 19 32 27 30 35 60 17 67 -26 10 -187 47 -209 48 -17 1 -18 2 -5 6 20
5 25 25 6 22 -7 -2 -29 5 -48 14 l-35 16 40 -6 c22 -4 48 -6 58 -5 10 0 17 -6
17 -18 0 -14 5 -18 18 -14 14 5 15 4 2 -6 -13 -9 -12 -10 5 -8 11 1 26 -1 33
-5 15 -10 35 1 26 14 -3 5 -9 7 -14 4 -5 -3 -22 1 -37 9 -37 20 -14 20 78 1
72 -15 106 -14 95 4 -5 8 9 45 33 91 5 8 19 16 32 17 13 0 30 1 36 2 7 1 12 4
11 9 -1 4 5 21 15 39 17 31 17 31 -11 41 -15 6 -20 11 -12 12 8 1 -3 8 -25 15
-27 8 -40 18 -39 29 2 18 -11 22 -21 6 -8 -13 -65 -13 -65 0 0 5 8 25 17 45
14 30 22 35 52 37 20 0 43 0 51 -1 8 -1 26 -3 40 -5 14 -1 24 -7 23 -12 -1 -7
15 -8 49 -3 49 8 68 20 68 45 0 11 -51 36 -98 49 -19 5 -21 9 -11 21 9 11 8
14 -2 15 -8 0 2 5 21 11 19 5 41 14 47 20 19 16 43 68 43 95 0 17 5 23 18 21
18 -3 22 24 8 72 -6 22 -2 29 31 51 26 16 38 32 40 49 0 14 1 28 2 33 2 17 0
22 -8 22 -21 0 -21 15 -2 53 21 41 41 52 97 52 17 0 42 8 55 19 27 21 104 63
134 72 27 9 50 10 69 3z m1991 -149 c186 -12 307 -27 312 -41 3 -8 0 -28 -7
-46 -26 -71 -40 -168 -40 -270 l0 -106 43 -7 c55 -9 109 -34 100 -48 -4 -6 0
-8 8 -5 10 4 15 -4 16 -28 3 -37 2 -38 -66 -34 l-44 2 22 -28 c12 -16 42 -58
66 -94 99 -146 327 -458 362 -493 28 -28 34 -40 25 -49 -14 -14 -26 -1 -132
152 -45 63 -110 156 -146 205 -78 107 -135 190 -149 213 -5 9 -31 47 -57 83
-27 37 -48 71 -48 76 0 5 -10 19 -22 30 -22 20 -74 35 -168 49 -25 3 -52 10
-61 15 -12 6 -31 -5 -74 -41 -49 -41 -160 -110 -179 -110 -3 0 -24 25 -47 55
-25 34 -48 54 -55 51 -36 -14 -28 104 17 256 16 53 29 108 29 121 0 29 21 49
47 45 11 -2 22 6 28 19 13 30 43 43 90 38 22 -2 81 -7 130 -10z m1440 -132
c26 -28 51 -77 85 -163 l19 -48 -47 -23 c-26 -13 -52 -28 -59 -34 -7 -5 -37
-28 -67 -50 -56 -40 -60 -49 -47 -95 4 -14 3 -32 -3 -41 -8 -15 -14 -15 -47
-4 -20 8 -40 11 -43 8 -3 -4 -6 -1 -6 5 0 7 -7 12 -15 12 -8 0 -14 5 -13 12 6
25 -47 38 -157 39 -161 2 -218 10 -221 32 -4 28 -9 30 -46 19 -18 -6 -54 -12
-80 -15 l-48 -5 -11 40 c-5 22 -8 42 -5 45 2 3 33 15 68 28 44 16 64 28 66 41
3 20 52 41 207 91 44 14 150 49 235 79 85 29 167 53 182 53 17 1 37 -9 53 -26z
m-831 -350 c28 -36 92 -63 154 -63 48 0 52 -2 52 -24 0 -13 -7 -43 -15 -66
-16 -46 -20 -90 -7 -90 8 0 32 71 32 95 0 8 5 15 10 15 6 0 10 11 10 25 0 25
19 36 21 13 0 -10 2 -10 6 0 7 19 23 14 16 -5 -4 -10 -9 -20 -13 -23 -7 -6
-36 -76 -45 -107 -4 -13 -12 -23 -18 -23 -7 0 -21 -16 -31 -35 -11 -19 -23
-35 -28 -35 -4 0 -8 -6 -8 -14 0 -7 -7 -27 -15 -42 -13 -26 -15 -27 -15 -7 0
34 -17 36 -22 3 -3 -17 0 -30 5 -30 6 0 8 -2 5 -5 -11 -12 -37 7 -31 23 5 14
3 15 -8 5 -18 -17 -32 -16 -26 1 4 10 1 13 -8 10 -8 -3 -22 0 -32 6 -16 10
-16 11 4 7 19 -4 20 -3 10 14 -6 10 -21 19 -33 19 -18 0 -26 16 -54 103 -38
119 -71 201 -82 205 -17 7 -7 23 10 18 26 -9 89 20 103 46 11 21 13 22 23 4 6
-10 20 -29 30 -43z m1246 2 c16 -10 5 -20 -88 -78 l-88 -54 -70 17 -69 18 53
7 c54 8 71 18 51 31 -20 12 13 24 69 24 39 0 52 4 52 15 0 10 -10 15 -27 16
-25 0 -26 1 -8 10 20 9 107 5 125 -6z m119 -65 c61 -49 111 -130 111 -182 0
-29 -3 -36 -15 -32 -11 5 -13 2 -8 -12 5 -14 3 -16 -11 -11 -10 4 -29 7 -42 7
-14 0 -22 4 -19 10 3 6 0 13 -9 16 -8 3 -12 12 -9 20 3 9 -1 14 -11 14 -13 0
-15 -4 -6 -19 5 -11 10 -29 10 -40 0 -15 7 -21 23 -21 19 -1 20 -2 7 -13 -8
-7 -20 -21 -27 -32 -6 -11 -16 -19 -22 -18 -6 2 -8 -4 -5 -11 4 -11 0 -13 -16
-9 -12 3 -19 11 -16 19 3 7 2 14 -3 16 -4 2 -27 33 -51 70 -26 40 -65 83 -96
106 l-51 38 96 61 c53 34 101 62 108 62 6 1 34 -17 62 -39z m-1319 -621 c0 -5
5 -7 12 -3 7 4 8 3 4 -5 -4 -6 -2 -19 5 -27 10 -12 8 -20 -9 -43 -15 -21 -19
-39 -16 -72 3 -40 3 -41 -5 -11 -15 56 -26 53 -21 -5 1 -15 -4 -23 -15 -23 -9
0 -13 -4 -10 -10 3 -5 1 -10 -4 -10 -6 0 -11 7 -11 15 0 16 -16 20 -24 6 -6
-9 -79 -6 -95 4 -6 3 -7 13 -4 23 5 12 -1 11 -20 -7 -15 -14 -27 -20 -27 -14
0 19 42 48 64 45 13 -2 29 4 36 12 7 9 18 16 24 16 6 0 3 -5 -6 -11 -11 -6
-17 -21 -17 -37 2 -24 2 -24 6 -4 3 14 12 22 24 22 12 0 17 4 13 11 -5 8 -1 8
14 0 18 -10 19 -8 15 23 -6 46 29 115 60 116 4 0 7 -5 7 -11z"/>
<path d="M2277 1480 c-3 -11 -11 -19 -19 -17 -7 2 -10 2 -5 0 4 -3 7 -10 7
-16 0 -24 -124 -287 -135 -287 -7 0 -47 16 -90 35 -43 20 -79 34 -81 32 -2 -2
35 -21 83 -42 49 -21 89 -40 91 -41 2 -1 -4 -16 -12 -33 l-16 -30 -63 28
c-163 73 -252 116 -255 123 -2 5 -12 8 -22 8 -10 0 -22 5 -26 12 -4 7 -3 8 5
4 12 -8 41 10 41 26 0 5 -10 13 -22 18 -13 5 -17 9 -10 9 7 1 27 -6 43 -15 17
-8 33 -14 35 -12 2 2 -16 14 -41 26 l-45 22 -12 -23 c-20 -37 -20 -77 0 -83 9
-3 97 -41 194 -85 98 -43 180 -79 183 -79 3 0 13 17 22 38 8 20 51 117 94 216
44 98 79 180 79 182 0 14 -19 0 -23 -16z"/>
<path d="M3067 269 c-14 -30 -34 -76 -45 -104 -11 -27 -32 -72 -46 -99 -14
-27 -26 -53 -26 -57 0 -5 43 -9 96 -9 l96 0 -6 42 c-3 24 -11 90 -17 147 -14
139 -20 149 -52 80z"/>
</g>
</svg>
