<?xml version="1.0" standalone="no"?>
<!DOCTYPE svg PUBLIC "-//W3C//DTD SVG 20010904//EN"
 "http://www.w3.org/TR/2001/REC-SVG-20010904/DTD/svg10.dtd">
<svg version="1.0" xmlns="http://www.w3.org/2000/svg"
 width="800.000000pt" height="548.000000pt" viewBox="0 0 800.000000 548.000000"
 preserveAspectRatio="xMidYMid meet">
<metadata>
Created by potrace 1.15, written by Peter Selinger 2001-2017
</metadata>
<g transform="translate(0.000000,548.000000) scale(0.100000,-0.100000)"
fill="#000000" stroke="none">
<path d="M0 5223 c0 -200 3 -254 12 -245 7 7 23 12 38 13 l25 1 -25 8 c-14 4
-19 8 -12 9 7 1 20 14 30 30 13 21 22 27 32 21 7 -4 20 -6 28 -3 11 5 9 9 -9
20 -24 13 -24 13 4 7 15 -4 27 -2 26 2 -4 21 2 34 16 34 17 0 40 38 37 61 -2
10 6 19 20 22 17 5 20 9 11 18 -11 11 -9 15 35 64 10 11 29 30 43 42 13 12 33
33 44 47 11 14 23 26 26 26 3 0 25 18 48 40 l42 40 -236 0 -235 0 0 -257z"/>
<path d="M4016 5458 c3 -13 17 -45 29 -73 35 -78 72 -177 80 -214 4 -19 20
-66 36 -105 16 -38 27 -71 25 -73 -1 -2 -19 9 -38 24 -28 22 -38 39 -48 81 -9
42 -15 52 -29 50 -10 -2 -25 3 -34 10 -13 11 -15 10 -13 -10 7 -55 29 -110 52
-131 19 -18 26 -36 30 -87 6 -64 6 -65 -22 -77 -16 -6 -95 -17 -176 -24 -90
-8 -148 -17 -148 -23 0 -6 -11 12 -24 40 -26 55 -41 71 -49 51 -4 -11 -63 -27
-159 -42 -21 -3 -40 -11 -44 -17 -4 -6 -3 -8 4 -4 6 3 13 2 16 -3 8 -12 -26
-23 -46 -16 -9 4 -18 -1 -22 -10 -3 -10 -13 -15 -20 -12 -8 3 -17 1 -19 -6 -3
-9 -7 -9 -18 0 -12 10 -21 9 -41 -1 -31 -16 -137 -36 -155 -29 -7 3 -19 1 -26
-4 -27 -21 -277 -50 -277 -32 0 5 7 9 15 9 8 0 15 5 15 10 0 19 -32 10 -37
-10 -5 -20 -23 -28 -23 -11 0 21 13 41 27 41 8 0 26 9 40 20 15 11 41 20 61
20 19 0 32 3 29 6 -13 13 -111 4 -135 -12 -20 -13 -26 -14 -33 -3 -7 11 -9 10
-9 -4 0 -11 -5 -17 -12 -14 -7 2 -12 10 -10 16 1 7 -2 10 -8 6 -5 -3 -19 -1
-31 6 l-22 12 24 12 c13 7 43 12 66 10 24 -2 43 0 43 6 0 5 6 9 14 9 7 0 16 9
19 20 5 20 37 29 37 10 0 -5 8 -10 18 -10 10 0 24 -6 31 -12 10 -11 15 -10 25
5 7 9 25 17 40 17 14 0 26 5 26 10 0 6 -10 10 -22 10 -38 0 1 20 42 21 19 0
53 6 75 13 37 11 38 13 17 20 -14 5 -29 3 -37 -4 -11 -9 -15 -9 -15 -1 0 6 4
11 9 11 5 0 12 12 14 28 4 25 5 26 12 5 4 -11 15 -23 25 -26 28 -7 50 24 50
71 0 33 -4 42 -17 42 -13 0 -15 -2 -5 -8 15 -10 5 -42 -13 -42 -7 0 -20 -3
-29 -6 -12 -4 -16 0 -16 15 0 12 -4 21 -10 21 -5 0 -10 -11 -10 -24 0 -13 -9
-35 -21 -50 -11 -14 -16 -26 -10 -26 16 0 13 -17 -4 -24 -10 -4 -19 2 -24 16
-7 19 -15 22 -48 20 -36 -3 -42 0 -61 30 -17 25 -22 28 -22 14 0 -11 -3 -16
-7 -13 -3 4 -14 -6 -24 -22 -16 -26 -23 -29 -61 -28 -36 2 -43 -1 -40 -15 2
-10 -2 -18 -8 -18 -5 0 -10 7 -10 15 0 22 -17 18 -34 -7 -9 -12 -16 -17 -16
-10 0 17 -40 15 -46 -3 -4 -8 -14 -15 -24 -15 -10 0 -20 -7 -24 -15 -8 -22 11
-65 28 -65 26 0 30 -22 7 -39 l-22 -17 20 -26 c12 -14 21 -31 21 -37 0 -6 16
-28 35 -50 25 -27 35 -48 35 -71 0 -19 7 -42 17 -52 9 -11 11 -18 5 -18 -7 0
-12 -7 -12 -15 0 -8 6 -12 13 -9 9 3 21 -11 33 -38 10 -24 36 -71 56 -105 41
-68 43 -73 28 -73 -5 0 -10 6 -10 14 0 8 -9 24 -20 37 -20 24 -20 23 1 -26 11
-27 24 -54 29 -60 4 -5 32 -55 60 -110 29 -55 59 -109 66 -120 8 -11 14 -24
14 -30 0 -5 -4 -3 -10 5 -5 8 -12 12 -15 8 -4 -3 -1 -15 6 -27 11 -16 16 -18
28 -8 8 7 12 8 9 2 -3 -5 -11 -29 -17 -52 -10 -38 -15 -43 -41 -43 -26 0 -51
23 -55 50 -5 26 -21 57 -36 68 -10 7 -16 19 -13 26 3 7 -1 20 -9 27 -8 8 -18
28 -24 44 -5 17 -12 28 -15 25 -10 -8 -42 42 -68 105 -13 33 -30 66 -37 74
-11 10 -11 16 -2 27 9 11 8 14 -2 14 -15 1 -70 90 -91 146 -6 19 -17 34 -23
34 -15 0 -79 -41 -88 -57 -6 -10 -14 -5 -34 24 -33 50 -104 123 -119 123 -14
0 -24 -22 -24 -52 0 -16 -4 -19 -22 -13 -13 3 -33 9 -45 12 -12 3 -25 14 -28
24 -11 35 -85 119 -110 125 -13 3 -40 1 -60 -6 -44 -15 -41 -23 3 -10 18 5 30
5 27 0 -3 -5 -18 -11 -35 -15 -16 -3 -55 -23 -87 -43 -32 -21 -92 -50 -133
-66 -41 -15 -84 -31 -95 -36 -11 -4 -47 -18 -80 -30 -33 -12 -71 -26 -83 -31
-13 -5 -42 -12 -64 -14 -75 -10 -23 24 117 75 221 80 318 120 312 126 -2 3
-42 -11 -88 -29 -46 -18 -136 -53 -200 -76 -64 -24 -134 -53 -155 -65 -34 -19
-39 -26 -37 -56 0 -19 4 -48 8 -64 6 -21 5 -27 -4 -22 -6 4 -11 0 -11 -9 0
-10 -5 -15 -14 -12 -8 3 -22 -10 -36 -35 -12 -22 -39 -56 -60 -74 -34 -31 -98
-149 -87 -160 3 -3 41 32 86 78 72 74 81 87 81 121 0 38 2 40 53 51 25 6 30 3
47 -36 l20 -43 -31 -25 c-23 -19 -31 -36 -34 -65 -3 -45 -28 -109 -38 -99 -4
4 -10 -1 -14 -11 -3 -10 -16 -28 -27 -39 -21 -21 -21 -21 -1 -24 71 -12 93
-23 105 -52 10 -23 10 -33 0 -45 -13 -16 -6 -51 17 -77 14 -16 3 -35 -15 -24
-15 9 -44 -24 -47 -56 -2 -18 -6 -51 -11 -73 -4 -22 -8 -49 -8 -60 -1 -11 -4
-24 -7 -30 -4 -5 -10 -32 -13 -60 -3 -27 -9 -67 -12 -89 -4 -27 -3 -36 5 -32
6 4 11 0 11 -8 0 -9 -7 -16 -15 -16 -8 0 -15 -8 -14 -17 0 -10 3 -13 5 -7 3 7
14 10 24 7 31 -8 24 -22 -10 -21 -39 1 -45 -6 -25 -26 21 -20 45 -21 45 -1 0
8 7 15 16 15 10 0 14 -6 10 -17 -3 -10 -8 -30 -11 -45 -6 -24 -9 -26 -33 -17
-31 12 -54 5 -46 -15 3 -8 1 -24 -6 -35 -9 -18 -7 -23 17 -33 15 -7 31 -17 35
-23 5 -6 8 -4 8 4 0 8 3 11 6 8 4 -4 1 -13 -6 -22 -10 -12 -10 -18 0 -30 9
-10 9 -15 1 -15 -6 0 -11 5 -11 10 0 6 -6 10 -14 10 -8 0 -16 5 -18 11 -2 6
-21 12 -43 13 -37 1 -39 -1 -51 -39 -6 -22 -9 -45 -7 -51 4 -11 48 -27 106
-39 64 -13 17 -20 -112 -17 -98 3 -146 0 -162 -9 -13 -7 -38 -15 -55 -19 -48
-11 -33 12 18 30 34 12 44 21 49 45 4 17 19 84 34 150 31 143 26 119 65 285
18 74 36 155 41 180 21 97 50 226 55 243 4 12 0 17 -16 17 -16 0 -20 -4 -16
-16 7 -18 -24 -154 -35 -154 -4 0 -10 -7 -13 -16 -4 -9 -2 -13 5 -8 15 9 0
-38 -15 -48 -22 -15 -24 -7 -10 45 17 64 17 64 2 49 -6 -6 -12 -20 -13 -29 -1
-10 -9 -42 -18 -70 -9 -29 -12 -53 -7 -53 5 0 11 9 15 19 8 26 35 36 35 13 -1
-50 -30 -84 -43 -49 -6 17 -16 5 -27 -32 -9 -33 4 -54 15 -22 3 11 13 22 22
25 18 7 16 -16 -16 -129 -11 -38 -17 -73 -14 -78 3 -4 -4 -11 -16 -14 -21 -5
-29 -29 -11 -35 6 -2 5 -20 -2 -48 -5 -25 -12 -54 -14 -65 -8 -49 -34 -130
-43 -133 -5 -2 -7 -12 -4 -22 4 -15 0 -20 -16 -20 -18 0 -20 4 -15 28 3 15 8
39 11 55 3 15 9 27 14 27 5 0 7 11 5 25 -3 13 0 27 5 30 5 4 9 15 9 26 0 10 3
19 8 19 4 0 7 13 7 30 0 24 -3 29 -17 24 -21 -6 -21 -10 -4 46 15 50 16 54 16
74 0 8 7 17 16 20 11 4 14 2 11 -6 -20 -48 -20 -51 -7 -46 7 2 14 11 16 19 1
7 7 34 13 59 13 57 13 60 0 60 -6 0 -9 -6 -6 -12 6 -18 -10 -58 -23 -58 -7 0
-9 8 -4 23 4 12 9 31 10 42 7 38 35 140 43 155 4 8 5 24 0 35 -7 19 -8 19 -8
-2 -1 -12 -5 -24 -11 -28 -5 -3 -7 -12 -3 -20 3 -10 -2 -15 -16 -15 -18 0 -20
-3 -11 -19 13 -25 13 -27 -6 -45 -22 -22 -37 -20 -25 3 16 29 -12 48 -50 34
-37 -14 -38 1 -2 24 29 19 51 38 94 79 14 14 32 24 39 22 10 -2 16 13 22 51 5
30 6 56 4 59 -6 5 -172 -125 -296 -232 -14 -12 -32 -20 -39 -18 -9 3 -11 0 -6
-8 6 -10 2 -12 -13 -8 -12 4 -22 2 -22 -3 0 -5 -37 -46 -83 -92 -88 -88 -130
-140 -120 -151 3 -3 2 -6 -4 -6 -10 0 -60 -40 -116 -93 -16 -15 -44 -31 -61
-34 -17 -3 -47 -20 -66 -37 -19 -17 -44 -38 -56 -46 -12 -8 -27 -32 -33 -53
-10 -29 -24 -44 -64 -67 -33 -19 -55 -26 -61 -20 -15 15 -26 12 -26 -5 0 -8
-5 -15 -11 -15 -14 0 -69 -39 -69 -49 0 -4 10 -13 22 -20 20 -10 18 -11 -17
-5 -30 4 -51 0 -87 -18 -47 -23 -48 -24 -48 -72 0 -39 3 -47 15 -42 9 3 23 1
33 -4 20 -11 203 -40 254 -40 l34 0 33 120 c19 66 35 119 37 117 2 -2 -15 -75
-37 -164 l-41 -160 -118 -59 c-107 -54 -118 -62 -124 -92 -6 -28 -10 -31 -31
-26 -21 5 -25 1 -39 -49 -13 -45 -16 -108 -15 -349 0 -308 4 -348 52 -528 14
-52 30 -131 37 -175 17 -124 17 -122 52 -86 17 17 35 31 42 31 6 0 32 -19 58
-43 121 -110 179 -158 217 -178 23 -11 51 -33 62 -48 11 -14 34 -33 50 -41 46
-24 192 -150 225 -195 20 -25 33 -56 36 -85 3 -25 16 -62 28 -84 l23 -38 14
26 c7 14 17 26 21 26 15 -1 72 -107 72 -135 0 -16 8 -40 18 -52 20 -26 131
-83 160 -83 12 0 23 -4 27 -10 3 -5 11 -7 18 -4 16 6 87 -23 87 -35 0 -19 62
-32 163 -36 59 -2 115 -8 124 -13 10 -5 43 -12 73 -16 91 -12 149 -27 165 -43
8 -8 15 -10 15 -5 0 16 91 49 270 97 157 42 201 53 303 75 70 16 101 27 110
41 15 23 29 25 20 2 -5 -12 -2 -15 8 -11 8 3 32 11 54 18 78 25 95 33 95 43 0
6 -26 7 -77 2 -43 -4 -104 -8 -135 -9 -45 -1 -61 -6 -78 -24 -27 -29 -53 -39
-160 -63 -47 -11 -101 -24 -120 -29 -83 -21 -169 -39 -222 -45 -57 -7 -58 -7
-58 19 0 42 33 55 154 61 59 3 117 10 129 17 12 7 59 15 105 18 45 3 82 9 81
14 -1 12 22 26 46 26 11 0 33 7 49 15 15 8 45 15 65 15 20 1 47 7 61 15 14 8
43 15 65 15 22 1 77 9 123 19 68 15 84 16 93 5 8 -10 16 -11 30 -3 28 15 231
57 384 80 157 23 159 24 190 55 l25 25 10 -26 c13 -33 13 -36 -2 -66 -7 -16
-26 -30 -52 -38 -74 -23 -471 -121 -496 -123 -14 0 -56 -11 -95 -24 -38 -12
-86 -26 -105 -29 -41 -8 -136 -34 -165 -46 -11 -4 -56 -19 -100 -33 -44 -14
-87 -27 -95 -31 -20 -7 78 3 108 11 19 6 22 3 22 -24 0 -17 5 -34 11 -37 16
-11 20 0 11 26 -11 29 -5 49 14 49 18 0 12 -54 -13 -112 -26 -63 -1 -85 61
-53 16 9 31 13 34 11 2 -3 13 -1 23 5 22 11 25 42 6 58 -16 13 -27 5 -27 -21
0 -10 -4 -18 -10 -18 -5 0 -10 7 -10 15 0 8 -4 15 -10 15 -22 0 -8 29 20 41
16 8 31 22 32 33 4 27 28 32 35 8 4 -17 11 -20 41 -15 44 7 53 18 45 55 -3 17
-1 28 5 28 6 0 12 -15 14 -32 3 -38 23 -36 23 2 0 14 4 31 8 38 15 23 24 3 17
-38 -7 -40 0 -49 27 -32 9 6 10 17 4 39 -6 21 -5 35 2 42 20 20 27 12 27 -29
0 -40 13 -53 24 -24 3 9 6 24 6 35 0 28 19 23 26 -6 9 -35 22 -31 26 8 l3 32
75 6 c41 3 93 13 115 22 22 9 103 27 179 41 76 14 152 33 169 41 17 8 48 15
69 15 36 0 38 -2 28 -20 -6 -11 -21 -20 -35 -20 -13 0 -27 -4 -30 -10 -4 -6 7
-10 27 -10 18 0 39 -4 47 -9 19 -12 1 -35 -45 -57 -22 -11 -37 -27 -44 -49
-10 -29 -18 -36 -65 -49 -29 -9 -59 -16 -67 -16 -8 0 -18 -4 -24 -10 -5 -5
-20 -7 -33 -3 -17 4 -19 8 -9 14 9 6 7 9 -9 9 -13 0 -23 3 -23 6 0 3 10 14 23
25 l22 18 -58 1 c-32 0 -73 -6 -92 -14 -29 -13 -35 -13 -46 0 -14 18 -64 18
-80 1 -7 -7 -25 -11 -41 -9 -17 3 -28 0 -28 -8 0 -7 -8 -9 -20 -5 -15 5 -20 2
-20 -13 0 -28 11 -34 30 -17 15 14 18 14 30 0 9 -11 32 -15 86 -15 74 0 163
-14 199 -31 11 -5 29 -8 40 -7 21 1 136 -19 142 -26 2 -2 25 3 50 10 29 9 93
14 169 14 133 0 140 3 129 58 -6 34 25 45 63 22 18 -11 32 -25 32 -31 0 -6 17
-51 38 -100 l37 -89 393 0 c218 0 400 4 410 9 9 5 42 19 72 31 60 24 84 45
124 109 15 23 67 83 117 133 78 80 89 96 90 127 0 20 3 30 6 24 2 -7 11 -13
19 -13 16 0 19 -16 4 -25 -6 -4 -5 -16 2 -33 6 -15 10 -37 10 -49 -2 -35 17
-37 29 -4 6 17 14 31 18 31 4 0 16 8 27 19 11 10 31 24 45 31 14 8 19 15 11
18 -24 8 -1 21 28 15 19 -3 30 -1 30 5 0 7 29 11 83 11 95 0 117 6 117 32 0
16 8 19 49 19 27 0 61 -4 75 -9 17 -7 26 -7 28 1 3 7 10 4 20 -6 9 -9 22 -16
28 -16 6 0 21 -9 33 -21 12 -11 43 -32 69 -45 62 -31 77 -56 92 -151 9 -52 16
-72 21 -60 4 9 13 17 21 17 8 0 14 7 14 15 0 8 5 14 11 12 23 -5 33 30 21 70
-18 58 -27 67 -71 69 -33 1 -55 13 -115 60 -41 33 -100 77 -131 99 -32 22 -90
71 -130 110 -106 103 -143 135 -155 135 -5 0 -10 5 -10 10 0 6 -5 10 -10 10
-6 0 -23 11 -38 25 -41 38 -19 30 40 -15 29 -23 66 -43 81 -47 15 -3 32 -14
38 -25 6 -11 25 -26 43 -33 44 -19 112 -85 108 -106 -4 -25 74 -70 102 -60 47
18 94 21 108 9 7 -7 40 -33 73 -57 33 -25 62 -48 65 -51 3 -4 17 -10 31 -13
14 -4 52 -30 84 -59 31 -29 62 -54 69 -54 6 -1 16 -3 21 -4 35 -8 73 6 107 38
21 20 38 42 38 49 0 6 11 22 24 35 13 13 40 38 60 57 20 19 35 36 32 38 -2 2
9 17 23 32 26 28 29 29 82 19 42 -7 61 -17 86 -43 28 -31 34 -33 64 -25 17 5
36 7 40 4 5 -3 24 9 41 25 18 17 37 31 42 31 4 0 34 22 65 48 55 47 184 132
201 132 4 0 31 18 59 40 28 22 54 40 59 40 5 0 28 18 53 40 24 22 50 40 57 40
20 0 14 82 -9 136 -12 26 -22 65 -22 85 0 27 -3 36 -13 32 -9 -3 -14 2 -14 15
0 11 -4 22 -9 24 -6 1 -11 15 -13 29 -2 15 -10 34 -17 42 -7 9 -10 25 -7 35 4
11 0 24 -9 32 -8 7 -15 21 -15 32 0 10 -7 21 -15 24 -8 4 -13 9 -10 13 5 10
-16 71 -36 102 -21 31 -89 176 -89 189 0 6 10 10 23 10 12 0 45 9 72 19 28 10
68 21 90 22 l40 4 30 -62 c54 -110 56 -116 44 -124 -8 -4 -4 -11 10 -19 17 -9
22 -19 19 -42 -2 -20 2 -33 11 -36 8 -3 11 0 7 7 -4 6 -2 11 4 11 6 0 8 -15 4
-42 -4 -29 -2 -38 4 -29 13 18 25 -2 17 -28 -4 -13 2 -25 21 -40 20 -15 22
-21 10 -21 -15 0 -15 -3 -2 -23 7 -12 17 -35 20 -51 6 -23 9 -27 17 -15 7 11
9 9 9 -8 0 -16 6 -23 20 -23 11 0 20 -4 20 -10 0 -5 -7 -10 -16 -10 -9 0 -14
-7 -12 -17 2 -10 11 -17 20 -15 9 1 18 -4 21 -11 3 -7 24 -19 47 -27 37 -12
47 -12 96 5 l54 18 -5 40 c-6 38 -5 39 17 33 66 -18 98 -19 104 -2 9 24 2 28
-57 28 -29 -1 -61 4 -71 9 -23 13 -65 78 -70 110 -1 13 -14 29 -28 36 -41 20
-31 38 19 35 39 -3 43 -2 32 12 -7 8 -29 16 -48 18 -29 2 -40 10 -54 35 -10
18 -16 39 -13 46 2 7 -4 22 -16 32 -11 10 -20 24 -20 32 0 7 -4 13 -9 13 -16
0 -24 42 -10 51 10 6 6 11 -14 18 -26 10 -54 57 -42 69 3 4 20 -1 38 -10 18
-9 43 -20 57 -23 45 -13 73 -35 60 -50 -8 -10 -3 -18 24 -34 55 -34 58 -91 5
-91 -31 0 -39 -14 -13 -24 9 -3 33 -6 55 -6 32 0 39 -3 39 -19 0 -11 5 -23 11
-26 6 -4 7 -19 4 -36 -5 -23 -3 -29 10 -29 12 0 16 -7 13 -27 -3 -23 1 -28 29
-34 39 -8 60 -23 68 -50 20 -61 25 9 25 319 0 243 -3 341 -12 350 -8 8 -8 15
0 24 8 11 7 17 -7 25 -10 6 -21 22 -23 35 -3 13 -9 31 -13 41 -6 14 -2 17 24
17 19 0 31 5 31 13 0 9 -11 12 -34 9 -31 -4 -35 -1 -45 31 -27 80 -18 97 48
97 17 0 31 5 31 10 0 6 -26 10 -59 10 l-59 0 -15 44 c-15 42 -14 44 5 49 27 8
45 -1 51 -24 8 -29 37 -24 37 7 0 17 6 28 20 31 11 3 20 11 20 18 0 8 -25 15
-77 20 -134 12 -138 41 -13 86 130 46 121 58 -30 39 -83 -11 -90 -8 -108 48
-17 51 6 68 106 76 53 5 88 3 101 -4 21 -11 21 -9 21 110 0 111 -2 121 -17
117 -10 -3 -40 -10 -68 -16 -27 -7 -131 -32 -230 -56 -99 -25 -192 -45 -206
-45 -26 0 -54 21 -43 32 3 3 -31 4 -76 2 -44 -3 -88 0 -98 5 -15 9 -15 10 3
11 12 0 131 27 265 60 135 33 296 72 357 88 l113 27 0 55 c0 88 -7 102 -44 94
-17 -3 -34 -11 -37 -16 -3 -5 -26 -6 -50 -3 -28 4 -39 3 -31 -3 10 -6 -4 -13
-47 -21 -66 -13 -95 -4 -105 32 -5 21 -26 14 -26 -9 0 -8 -5 -14 -11 -14 -8 0
-8 -5 1 -15 10 -12 10 -15 -2 -15 -8 0 -41 -13 -73 -30 -62 -31 -99 -40 -77
-18 7 7 12 21 12 32 0 10 3 16 7 13 7 -8 33 11 33 25 0 6 -7 8 -15 4 -8 -3
-15 -1 -15 4 0 6 5 10 10 10 6 0 10 7 10 15 0 8 4 15 9 15 9 0 6 27 -6 60 -10
26 -10 51 -1 56 16 10 8 22 -13 17 -11 -3 -25 -17 -30 -32 -14 -36 -50 -105
-58 -111 -8 -6 -41 -107 -41 -126 0 -8 -4 -14 -10 -14 -5 0 -9 36 -9 80 0 74
2 82 25 96 28 19 30 40 9 72 -17 23 -11 33 88 135 17 18 27 39 27 58 0 17 7
37 16 46 10 11 12 19 5 26 -12 12 -94 -21 -85 -34 7 -12 -9 -11 -21 0 -6 5
-27 14 -49 20 l-38 10 7 -32 c12 -57 15 -185 5 -209 -9 -20 -10 -19 -5 10 3
23 1 31 -7 26 -8 -5 -9 -2 -5 9 5 13 1 17 -17 17 -13 0 -31 11 -42 24 -16 22
-42 27 -29 6 3 -5 1 -11 -5 -15 -5 -3 -10 3 -10 14 0 15 -6 21 -21 21 -35 0
-54 29 -55 84 0 28 -6 80 -13 116 -17 89 -21 115 -26 184 -2 32 -11 69 -20 82
-14 22 -12 28 8 25 16 -2 6 49 -12 59 -40 21 -54 13 -48 -27 3 -21 8 -46 12
-55 9 -23 -17 -25 -35 -3 -16 19 -34 19 -27 0 4 -8 2 -17 -3 -20 -5 -3 -21 34
-36 82 -32 107 -56 133 -120 133 -24 0 -44 3 -44 6 0 4 29 34 65 68 91 86 87
91 -74 90 -157 -1 -191 -7 -220 -38 -21 -22 -22 -28 -11 -60 21 -65 46 -107
76 -127 16 -10 24 -19 17 -19 -7 0 -10 -6 -8 -12 3 -7 7 -33 8 -58 3 -29 8
-44 16 -42 8 1 11 -6 9 -20 -2 -13 5 -32 14 -42 16 -17 23 -44 19 -68 0 -5 3
-8 9 -8 5 0 10 -8 10 -17 0 -9 7 -25 17 -35 9 -11 11 -18 5 -18 -7 0 -12 -4
-12 -10 0 -5 7 -10 16 -10 10 0 14 -6 10 -15 -3 -8 1 -20 8 -27 24 -25 37 -59
30 -80 -4 -14 -2 -18 5 -14 6 4 11 0 11 -10 0 -10 6 -25 14 -33 8 -9 17 -29
20 -45 3 -16 12 -36 21 -46 8 -9 15 -22 15 -29 0 -9 7 -11 23 -6 36 11 124 18
150 11 18 -4 26 -14 30 -38 8 -51 33 -154 40 -165 3 -5 8 -20 11 -34 2 -13 9
-46 16 -73 12 -55 3 -70 -38 -63 -29 5 -99 -18 -83 -27 23 -14 10 -26 -28 -26
-22 0 -88 -9 -147 -21 -156 -30 -151 -32 -192 80 -39 107 -38 111 41 132 33 9
37 13 31 32 -3 12 -10 26 -15 32 -5 5 -9 18 -9 30 0 11 -7 34 -16 50 -9 17
-27 63 -40 103 -13 41 -31 87 -39 103 -9 16 -12 29 -9 29 4 0 -1 8 -10 19 -9
10 -16 22 -15 27 2 9 -10 40 -50 129 -10 22 -21 52 -25 68 -3 15 -11 27 -17
27 -6 0 -8 9 -4 20 4 13 1 22 -9 26 -8 3 -12 12 -10 19 3 7 1 16 -5 19 -6 4
-8 13 -4 21 3 8 -1 15 -8 15 -7 0 -9 3 -6 7 4 3 -1 16 -12 27 -10 12 -21 39
-24 61 -3 22 -10 41 -16 43 -6 2 -11 10 -11 18 0 8 -7 17 -16 21 -8 3 -13 12
-9 20 4 12 0 14 -17 9 -81 -24 -81 -24 -110 56 -33 88 -31 92 68 119 109 30
169 22 209 -27 l20 -25 43 32 43 31 139 -7 c78 -4 140 -3 140 1 0 5 -11 27
-25 49 -13 22 -32 54 -41 71 -13 25 -25 33 -58 38 -43 7 -143 65 -237 138 -31
24 -71 54 -89 68 -90 68 -164 130 -255 214 -55 51 -105 95 -112 99 -6 4 -19
-6 -31 -26 -12 -17 -30 -44 -42 -59 l-21 -28 40 -16 c47 -18 61 -50 44 -95 -7
-17 -8 -54 -3 -97 8 -76 14 -92 35 -92 9 0 17 -15 20 -37 3 -21 11 -59 17 -86
11 -49 5 -83 -12 -72 -5 3 -10 28 -10 54 0 27 -6 53 -12 59 -23 18 -148 20
-148 1 0 -6 9 -13 20 -16 12 -3 19 -11 17 -17 -4 -12 -47 -13 -119 -2 -45 7
-48 9 -48 37 0 33 -5 35 -26 14 -14 -13 -14 -15 0 -15 9 0 16 -7 16 -16 0 -14
-7 -15 -42 -10 -24 4 -58 9 -76 11 -18 2 -39 9 -47 15 -11 9 -15 9 -15 1 0
-13 -36 -15 -44 -2 -3 5 -28 8 -56 8 -38 -1 -53 4 -63 17 -12 17 -14 17 -20 3
-9 -25 -37 -9 -37 22 l0 26 -13 -25 c-10 -20 -20 -25 -47 -23 -19 1 -40 9 -46
18 -10 13 -17 14 -33 6 -11 -6 -36 -11 -55 -11 -35 0 -36 1 -36 41 l0 41 48
-6 c26 -3 59 -6 74 -6 21 0 27 -5 30 -27 4 -36 26 -41 30 -6 2 18 8 27 18 25
33 -8 140 -6 140 2 0 4 29 5 65 1 36 -3 65 -2 65 2 0 10 -63 73 -73 73 -3 0
-4 -7 -1 -15 11 -27 -21 -16 -38 13 -27 44 -77 87 -88 76 -7 -7 4 -25 36 -58
69 -68 49 -65 -26 5 -43 40 -67 56 -74 49 -14 -14 -37 -13 -93 6 -79 25 -92
35 -130 98 -54 91 -94 121 -130 98 -9 -6 -1 -18 27 -41 39 -32 46 -57 13 -44
-11 4 -14 3 -9 -5 5 -8 0 -12 -12 -12 -11 0 -31 16 -46 39 -15 21 -39 44 -54
50 -15 7 -43 23 -62 36 -31 22 -40 23 -73 14 -20 -5 -37 -14 -37 -19 0 -6 -4
-10 -10 -10 -5 0 -10 17 -10 38 0 49 -29 105 -57 109 -12 1 -25 -2 -28 -7 -3
-6 -1 -10 4 -10 16 0 41 -68 41 -113 0 -49 -12 -42 -15 8 -1 20 -9 43 -17 52
-14 14 -17 13 -23 -7 -4 -12 -2 -27 4 -33 14 -14 14 -74 0 -83 -6 -3 -15 -1
-19 6 -5 9 -14 3 -31 -19 -19 -26 -29 -30 -61 -29 -25 1 -38 6 -38 15 0 8 -4
11 -10 8 -5 -3 -10 -20 -10 -36 l0 -30 -114 6 -115 5 6 -35 c3 -19 3 -35 0
-35 -15 0 -37 34 -37 56 0 14 -7 39 -16 55 -8 17 -14 38 -12 47 5 21 38 -37
38 -67 0 -17 3 -18 25 -8 27 13 35 33 10 23 -11 -4 -19 3 -25 22 -6 15 -16 38
-24 52 -20 37 -28 78 -16 85 6 3 0 17 -13 31 -13 14 -29 47 -36 74 -11 42 -10
52 4 74 16 24 47 37 44 19 -3 -21 2 -34 14 -30 7 2 11 16 9 34 -2 17 2 34 8
38 18 11 70 -15 70 -36 0 -20 24 -89 45 -129 7 -14 16 -38 19 -55 8 -35 33
-71 42 -62 4 4 -1 31 -11 62 -9 30 -14 62 -11 70 3 8 0 14 -7 12 -7 -1 -12 6
-12 15 0 9 -3 20 -7 23 -4 4 -2 15 4 25 9 13 7 29 -6 66 -19 54 -50 163 -67
237 l-11 47 -49 0 c-27 0 -49 -4 -49 -10 0 -5 -8 -10 -17 -10 -17 0 -123 -69
-123 -79 0 -3 7 -15 15 -26 13 -17 19 -18 45 -8 25 9 30 9 30 -3 0 -8 -5 -14
-12 -14 -8 0 -8 -3 -2 -9 5 -5 22 -7 37 -4 26 5 28 9 23 38 -6 29 -4 33 19 37
20 4 23 3 14 -8 -12 -15 -4 -34 16 -34 13 0 40 -59 30 -68 -11 -11 -60 -3 -70
12 -15 20 -26 21 -19 1 4 -8 2 -15 -4 -15 -5 0 -20 -11 -33 -25 -32 -33 -43
-31 -57 8 -6 17 -18 55 -27 82 -33 98 -50 135 -63 135 -9 0 -11 -7 -6 -22z
m-81 -694 c14 -9 29 -33 35 -55 8 -29 16 -39 31 -39 15 0 20 -6 17 -22 -2 -18
-10 -23 -33 -24 -36 -1 -180 -67 -189 -86 -5 -10 -7 -10 -12 0 -7 15 -34 15
-71 0 -15 -6 -31 -11 -35 -10 -12 3 -30 -27 -35 -60 -6 -43 -8 -44 -38 -24
-14 9 -26 14 -26 11 -1 -3 -3 -9 -4 -15 -1 -5 -3 -17 -4 -25 -1 -19 -25 -19
-41 0 -16 19 -30 10 -30 -21 0 -32 -18 -30 -58 7 -18 17 -36 29 -39 26 -3 -4
11 -36 31 -72 20 -36 35 -69 34 -73 -3 -7 46 -91 100 -173 17 -26 32 -51 32
-55 0 -3 13 -23 29 -43 17 -21 35 -49 42 -63 6 -15 21 -29 33 -33 15 -5 0 -10
-52 -19 -40 -7 -78 -18 -85 -25 -10 -11 -6 -12 23 -5 52 12 164 12 173 0 5 -7
11 -6 18 4 9 13 10 13 5 -2 -3 -12 2 -18 17 -20 12 -2 22 -10 22 -18 1 -8 6
-14 12 -13 6 1 37 -22 68 -52 31 -30 62 -55 68 -55 5 0 7 3 3 8 -3 4 -50 51
-104 105 -53 53 -91 97 -84 97 7 0 70 -56 139 -125 70 -69 122 -125 116 -125
-13 0 -12 -32 2 -42 6 -5 6 -8 -1 -8 -6 0 -29 18 -50 40 -22 22 -43 40 -47 40
-10 0 29 -44 157 -179 46 -49 56 -65 45 -72 -27 -17 -48 -9 -73 28 l-25 36
-12 -27 c-15 -32 -39 -31 -55 2 -6 13 -17 29 -23 35 -17 17 -13 27 12 37 l22
9 -22 0 c-12 1 -25 6 -28 11 -4 6 -10 8 -15 5 -5 -3 -11 4 -15 15 -3 11 -13
20 -21 20 -8 0 -12 -5 -9 -11 4 -6 -4 -5 -16 3 -13 7 -25 13 -27 14 -1 1 1 9
4 19 7 17 8 17 21 -1 12 -16 13 -16 13 -1 0 10 -7 20 -15 24 -9 3 -22 18 -31
34 -11 23 -21 29 -47 29 -23 0 -28 -3 -17 -9 8 -6 18 -7 24 -4 5 4 7 -1 3 -11
-4 -9 -3 -14 2 -11 5 3 12 1 15 -4 7 -10 -60 -25 -74 -16 -6 3 -10 0 -10 -7 0
-11 -2 -10 -9 0 -6 10 -10 8 -14 -8 -5 -20 33 -97 70 -141 11 -13 10 -19 -10
-36 -55 -50 -60 -49 -108 32 -24 41 -47 75 -50 75 -19 0 -58 -43 -53 -58 5
-14 4 -15 -5 -2 -8 11 -3 22 19 45 17 17 30 34 30 38 0 10 -23 4 -32 -8 -5 -6
-8 -6 -8 2 0 7 7 16 15 21 14 7 13 11 -4 26 -18 16 -23 17 -38 5 -17 -13 -17
-13 0 7 9 11 17 25 17 31 0 25 37 20 55 -8 11 -15 26 -27 35 -26 14 1 13 8 -9
46 -14 26 -27 48 -30 51 -4 3 -12 17 -20 32 -12 23 -16 25 -37 16 -30 -14 -30
-28 -3 -57 12 -12 18 -25 15 -28 -6 -7 -42 31 -49 50 -3 9 -9 8 -21 -2 -9 -8
-19 -11 -22 -8 -8 8 28 56 42 57 13 0 51 40 38 40 -5 0 -29 -13 -54 -30 -54
-36 -67 -29 -21 12 32 28 33 32 20 53 -50 79 -303 490 -342 558 -27 45 -55 89
-62 97 -7 8 -16 27 -20 41 -5 22 -2 28 22 37 49 18 91 22 125 10 34 -11 69
-41 72 -61 1 -7 18 -42 39 -79 36 -65 57 -90 57 -69 0 5 -6 12 -12 15 -7 3 -4
4 7 1 11 -2 44 9 74 25 30 17 60 30 68 30 7 0 13 4 13 9 0 9 51 25 66 21 4 -1
10 3 13 8 8 13 103 62 119 62 10 0 12 8 7 29 -6 27 -2 31 44 58 56 31 66 47
25 37 -19 -5 -25 -4 -20 5 4 6 12 11 17 11 5 0 19 9 31 20 26 24 70 26 103 4z
m1015 -173 c0 -5 -7 -11 -15 -15 -53 -20 39 -66 139 -69 l66 -2 0 -35 c0 -63
-1 -63 -156 -46 -76 9 -158 17 -181 19 -24 2 -46 6 -50 10 -3 4 -14 0 -24 -9
-16 -14 -18 -14 -23 3 -7 24 17 116 32 121 7 2 12 -1 12 -8 0 -7 7 -6 21 4 15
10 28 12 45 6 15 -6 26 -5 30 1 14 23 104 40 104 20z m-708 -221 c20 -17 42
-30 49 -30 22 0 -4 -18 -31 -22 -14 -1 -43 -20 -65 -40 -45 -43 -84 -53 -65
-17 9 17 7 31 -15 76 -24 52 -27 92 -6 78 5 -3 12 -1 16 5 8 13 70 -13 117
-50z m1146 -45 c-3 -14 -1 -28 3 -31 5 -3 9 7 9 21 0 14 4 24 9 21 4 -3 6 -18
3 -32 -4 -24 -2 -26 17 -21 12 3 27 -1 35 -8 7 -8 17 -11 20 -7 11 10 75 12
81 1 4 -5 18 -9 32 -9 16 0 27 -7 30 -19 4 -17 8 -18 61 -5 32 7 119 25 195
39 158 30 161 29 179 -43 l11 -46 27 57 c24 53 28 56 41 41 12 -15 12 -17 0
-9 -11 6 -13 4 -7 -11 4 -10 11 -38 15 -61 8 -40 6 -43 -31 -79 -25 -24 -37
-42 -33 -53 3 -10 -1 -8 -12 5 -17 21 -21 21 -83 9 -36 -8 -128 -25 -205 -40
-77 -14 -173 -33 -214 -43 -69 -15 -74 -15 -86 1 -13 18 -71 21 -81 5 -3 -4
-18 -8 -34 -8 -16 0 -32 -4 -35 -10 -3 -5 -23 -10 -43 -10 -20 0 -58 -7 -84
-15 -27 -8 -48 -12 -48 -9 0 3 -6 2 -12 -3 -14 -8 -14 -8 -78 -17 -25 -4 -121
-22 -215 -40 -332 -65 -455 -84 -455 -70 0 16 58 43 79 37 26 -7 28 20 5 65
-19 39 -23 40 -16 6 4 -20 1 -25 -9 -22 -8 2 -15 16 -17 30 -2 20 -7 25 -23
21 -10 -3 -19 -3 -19 0 0 10 135 47 166 46 26 -1 25 -2 -16 -17 -42 -16 -43
-17 -17 -20 15 -2 54 6 87 17 33 11 84 24 115 27 30 4 55 10 55 14 0 4 17 4
38 -1 49 -11 54 -11 46 3 -5 8 -2 9 10 5 9 -4 33 0 53 8 19 8 49 15 66 15 16
0 46 4 66 10 20 5 88 21 151 35 152 35 151 35 145 45 -3 4 5 6 17 2 16 -4 19
-2 13 8 -6 10 -2 11 19 6 17 -4 25 -3 22 3 -4 5 28 17 71 27 l78 18 -112 11
c-61 5 -115 13 -119 18 -4 4 0 7 10 7 11 0 14 4 10 12 -12 18 -11 62 1 75 15
18 18 16 13 -12z m-901 -47 c18 -18 33 -38 33 -45 0 -7 6 -13 14 -13 8 0 35
-18 60 -39 29 -25 59 -42 85 -46 38 -6 41 -9 41 -38 -1 -41 -21 -69 -41 -56
-8 5 -39 9 -69 9 -30 0 -106 7 -169 14 -110 14 -116 14 -142 -5 -36 -25 -39
-24 -39 11 0 23 5 30 19 30 15 0 20 10 26 57 11 87 9 85 81 77 54 -5 64 -4 64
9 0 9 -4 19 -10 22 -14 9 -12 45 2 45 7 0 27 -14 45 -32z m-609 -30 c7 -7 12
-20 12 -30 0 -11 7 -18 20 -18 28 0 25 -14 -5 -28 -28 -13 -35 -39 -7 -27 43
19 59 16 92 -13 34 -32 36 -57 3 -65 -10 -3 1 -3 24 -1 30 2 48 -2 65 -16 13
-11 17 -19 10 -20 -25 0 -1 -20 24 -20 15 0 23 -4 19 -10 -4 -6 14 -34 39 -62
50 -57 54 -66 31 -74 -24 -10 -6 -25 22 -18 20 5 30 1 49 -22 31 -39 30 -44
-12 -44 -23 0 -33 -4 -28 -11 3 -6 14 -9 24 -6 10 2 24 -3 32 -12 13 -15 12
-19 -7 -33 -21 -16 -23 -16 -33 8 -13 27 -27 31 -35 10 -8 -19 -65 -49 -78
-40 -6 3 -8 12 -5 20 3 8 0 11 -8 8 -8 -3 -24 9 -37 28 -13 18 -27 36 -33 40
-11 7 8 59 21 57 5 0 28 -25 53 -54 25 -29 53 -54 62 -54 12 -1 0 15 -32 47
-28 27 -50 53 -50 59 0 5 -11 16 -25 23 -14 7 -25 19 -25 26 0 7 -8 19 -18 26
-18 14 -56 68 -57 81 0 4 -11 13 -25 20 -14 7 -26 23 -28 35 -2 12 -10 22 -18
22 -8 0 -14 6 -14 13 0 6 -14 20 -31 29 -23 14 -29 23 -24 38 5 14 2 20 -9 20
-17 0 -56 34 -56 48 0 12 40 30 66 31 11 1 25 -4 32 -11z m-1355 -105 c-2 -7
2 -25 8 -40 10 -27 13 -181 4 -233 -2 -14 -7 -40 -10 -58 -2 -19 -8 -38 -11
-43 -3 -6 2 -17 12 -24 14 -11 16 -17 7 -23 -7 -4 -13 -35 -14 -70 -1 -35 -6
-65 -12 -69 -23 -14 -30 25 -34 194 -5 235 -5 268 3 331 6 47 9 53 28 50 11
-2 20 -9 19 -15z m-89 -115 c-2 -18 -3 -125 -4 -238 l-2 -205 -27 -13 c-14 -7
-18 -10 -9 -8 10 3 20 1 23 -4 4 -6 -2 -11 -12 -11 -17 -1 -17 -2 0 -6 13 -4
17 -15 17 -56 0 -34 -3 -47 -9 -38 -5 7 -14 10 -21 6 -9 -6 -9 -9 0 -15 8 -5
7 -9 -4 -13 -14 -6 -16 5 -16 79 0 75 2 85 18 82 11 -2 17 3 16 15 -1 9 2 17
7 17 5 0 9 5 9 11 0 6 -9 9 -20 6 -20 -5 -20 0 -20 194 0 187 1 200 20 219 26
26 37 20 34 -22z m3907 -75 c5 -15 6 -29 2 -33 -20 -18 -133 -74 -138 -68 -3
3 -8 21 -11 40 -15 88 116 142 147 61z m-4477 1 c9 -8 16 -27 16 -41 0 -23 -3
-25 -34 -19 -29 6 -35 3 -41 -14 -9 -29 2 -38 19 -15 14 19 36 13 36 -11 0
-17 16 -19 26 -2 5 8 10 6 15 -8 12 -31 11 -48 -3 -36 -7 5 -33 12 -58 16 -40
5 -42 4 -13 -4 48 -15 55 -35 10 -27 -21 3 -37 2 -37 -2 0 -5 20 -12 45 -15
38 -6 45 -11 45 -29 0 -16 -3 -18 -9 -9 -13 21 -78 32 -92 16 -9 -12 -7 -14
12 -12 15 2 24 -2 24 -12 0 -9 11 -16 27 -18 23 -3 28 -10 38 -50 6 -26 12
-55 13 -64 1 -19 17 -25 17 -7 0 6 7 9 16 7 14 -2 17 -17 16 -83 -1 -85 -8
-183 -21 -277 -4 -32 -4 -63 0 -70 4 -7 3 -18 -3 -25 -6 -7 -8 -33 -6 -58 3
-25 2 -47 -2 -50 -4 -3 -10 -21 -12 -40 -3 -27 0 -36 14 -41 21 -6 23 -19 6
-30 -6 -4 -17 1 -24 10 -10 15 -18 16 -51 7 -22 -6 -67 -12 -101 -14 -52 -3
-60 -1 -52 12 4 9 11 39 15 68 9 68 34 80 29 15 l-3 -47 11 47 c10 44 14 47
49 53 21 4 43 4 49 0 6 -4 10 4 10 18 0 21 -6 25 -40 31 -27 4 -38 10 -34 20
4 9 -4 13 -28 12 -27 -1 -33 3 -33 19 0 13 7 20 20 21 68 3 141 19 152 33 14
18 16 66 4 96 -7 18 -8 17 -14 -6 -10 -40 -39 -67 -62 -59 -11 4 -37 5 -57 2
-31 -4 -38 -2 -38 13 0 13 -6 16 -25 13 -14 -3 -25 -1 -25 3 0 5 4 9 9 9 4 0
11 25 15 55 3 30 13 80 21 112 8 32 16 75 17 96 1 23 6 37 15 37 15 0 17 16 3
25 -6 4 -8 10 -5 14 2 5 5 44 6 87 0 44 6 108 11 142 9 56 14 66 42 83 37 23
31 22 50 3z m5053 -91 c8 -32 19 -78 24 -103 6 -25 13 -52 17 -60 3 -8 6 -22
7 -30 0 -8 7 -28 15 -43 12 -25 12 -30 -1 -38 -11 -7 -11 -9 4 -9 29 0 20 -30
-10 -31 -28 -2 -28 -2 -3 -6 14 -3 31 -10 38 -15 17 -15 15 -47 -4 -55 -13 -5
-12 -9 9 -27 14 -12 28 -30 31 -42 6 -19 1 -22 -45 -27 -29 -4 -56 -4 -60 -1
-16 10 -10 63 9 73 14 9 13 10 -10 11 -42 0 -33 19 12 26 55 9 52 30 -3 26
-43 -4 -43 -3 -56 37 -15 51 -9 61 37 62 l37 1 -35 8 c-19 5 -38 6 -42 4 -4
-3 -12 4 -17 15 -9 15 -6 22 12 34 l22 16 -22 0 c-27 1 -38 21 -51 91 -11 60
-6 70 36 70 12 0 22 6 22 14 0 11 -11 14 -42 13 -40 -2 -43 0 -46 26 -2 19 1
27 12 27 9 0 16 -4 16 -10 0 -17 37 -11 44 7 10 26 26 2 43 -64z m-861 -85
c-2 -29 2 -62 8 -73 13 -24 15 -65 3 -65 -4 0 -5 -5 -1 -12 4 -7 11 -28 15
-48 5 -25 7 -12 8 49 1 73 3 82 16 71 8 -7 15 -19 15 -26 0 -8 4 -14 10 -14 5
0 14 -18 20 -40 6 -21 14 -42 19 -44 11 -7 22 -59 26 -118 3 -48 -14 -69 -39
-49 -6 5 -20 11 -31 15 -19 5 -21 2 -17 -27 3 -24 13 -38 38 -55 19 -12 34
-28 34 -36 0 -8 7 -26 15 -42 19 -37 11 -43 -18 -12 -13 13 -38 30 -56 36 -42
15 -42 15 -35 -3 4 -8 10 -12 16 -9 10 7 59 -42 50 -50 -9 -10 -62 -6 -62 4 0
6 -7 10 -15 10 -22 0 -19 -40 3 -41 27 -2 -28 -17 -65 -18 -32 -1 -41 8 -25
23 4 4 8 20 9 34 1 15 5 38 9 51 7 23 6 24 -29 18 -21 -3 -37 -2 -37 4 0 8 15
13 33 10 4 0 8 18 8 41 1 24 4 33 6 21 4 -19 8 -21 24 -13 24 13 25 58 2 67
-9 3 -33 2 -55 -4 -21 -6 -38 -6 -38 -2 0 5 8 9 18 9 9 1 28 7 42 15 22 13 23
14 5 15 -16 0 -17 2 -5 10 21 13 7 22 -38 24 -38 2 -41 0 -52 -37 l-11 -38
-19 24 c-26 32 -48 116 -34 125 16 10 36 126 28 158 -5 21 -4 25 6 19 10 -6
12 -3 8 13 -5 18 0 24 30 33 21 6 64 15 97 19 33 4 61 8 62 8 2 1 1 -22 -1
-50z m351 -23 c-4 -8 -14 -18 -23 -22 -9 -3 -28 -17 -43 -31 l-26 -25 25 7
c14 4 41 9 60 12 35 6 35 5 56 -50 l22 -55 -75 -35 c-71 -34 -93 -37 -93 -15
0 5 23 21 50 37 45 24 50 30 44 55 -4 18 -1 27 7 27 7 0 10 2 7 5 -3 3 -34 -1
-69 -9 -66 -15 -79 -14 -79 8 0 28 119 131 133 117 5 -5 7 -17 4 -26z m-588
-17 c-5 -18 -9 -46 -9 -63 0 -16 -6 -41 -13 -55 -14 -26 -16 -174 -4 -187 4
-3 7 8 7 25 0 22 5 32 15 32 12 0 15 -10 13 -45 -2 -25 -7 -45 -13 -45 -5 0
-4 -4 3 -8 9 -7 8 -13 -8 -27 -11 -10 -20 -29 -20 -42 0 -20 -4 -23 -34 -20
-25 1 -32 5 -25 14 7 8 2 11 -18 10 -15 -1 -62 0 -103 1 l-75 3 39 21 c31 16
52 19 95 15 l56 -4 2 53 c0 30 -3 54 -8 54 -6 0 -9 -6 -8 -12 3 -29 -2 -59 -9
-54 -11 7 -2 76 9 76 6 0 6 7 1 18 -5 9 -6 47 -2 84 4 37 5 78 3 92 -3 15 2
31 15 44 11 11 18 23 15 26 -13 12 12 26 47 26 l39 0 -10 -32z m449 -152 c18
-28 32 -54 32 -59 0 -16 33 -36 58 -37 13 0 41 17 66 40 24 22 48 40 55 40 19
0 12 -32 -11 -58 l-23 -24 35 4 c47 4 52 -22 8 -40 -18 -7 -52 -22 -76 -33
-51 -23 -48 -23 -56 -4 -4 11 3 20 22 27 l27 12 -35 4 c-34 3 -54 22 -114 107
-13 18 -14 18 -10 -10 4 -23 -2 -17 -22 25 -35 72 -64 157 -56 164 3 4 20 -20
37 -51 17 -32 46 -80 63 -107z m-1308 -86 c-19 -12 0 -33 32 -35 12 -1 23 -6
25 -12 4 -12 -43 -27 -58 -18 -5 4 -8 1 -7 -6 2 -8 -10 -16 -27 -19 -16 -3
-42 -13 -57 -24 -18 -12 -36 -16 -53 -12 -18 5 -23 3 -19 -8 3 -8 -3 -16 -15
-19 -12 -3 -21 -1 -21 4 0 5 -4 9 -10 9 -5 0 -10 -7 -10 -15 0 -21 -38 -38
-71 -31 -21 4 -29 1 -34 -13 -8 -27 -62 -48 -86 -33 -32 20 -35 1 -13 -83 4
-16 3 -17 -5 -5 -6 8 -11 10 -11 4 0 -7 -12 -15 -27 -19 -15 -3 -45 -15 -67
-26 -22 -10 -44 -19 -50 -19 -5 0 -17 -7 -27 -16 -17 -15 -20 -15 -45 5 -15
12 -33 21 -40 21 -7 0 -15 9 -19 19 -3 10 -15 21 -25 24 -20 5 -27 41 -12 63
11 17 109 66 175 88 44 15 60 17 69 8 17 -17 36 -15 66 6 59 39 337 145 361
137 11 -3 25 0 32 8 19 19 53 36 59 31 2 -3 -2 -9 -10 -14z m1554 -116 l-29
-25 36 6 c28 4 38 2 43 -10 4 -12 -8 -22 -51 -41 -31 -14 -68 -27 -82 -30 -24
-5 -27 -1 -40 41 -16 55 -6 72 46 79 17 2 44 13 59 25 l29 22 9 -21 c8 -18 4
-26 -20 -46z m-3099 -16 c14 -13 42 -36 62 -53 20 -16 61 -52 90 -80 30 -27
62 -54 70 -60 14 -11 14 -13 -2 -19 -14 -5 -15 -9 -4 -22 9 -11 22 -13 48 -9
31 5 40 2 61 -20 21 -22 22 -28 10 -36 -11 -7 -8 -8 11 -3 32 7 48 -12 19 -21
-32 -10 -24 -27 10 -20 35 8 59 -3 39 -17 -11 -8 -10 -9 4 -4 11 3 29 -5 50
-24 l32 -29 -27 -1 c-42 0 -33 -20 10 -21 20 -1 29 -3 20 -6 -10 -2 -18 -8
-18 -13 0 -4 -9 -6 -20 -3 -16 4 -20 0 -20 -21 0 -31 -26 -36 -35 -6 -4 11
-11 18 -16 15 -11 -7 -61 44 -54 56 3 4 0 11 -6 15 -8 4 -9 3 -5 -4 4 -7 2
-12 -3 -12 -6 0 -11 10 -11 23 0 14 -3 18 -8 10 -6 -9 -12 -8 -24 6 -12 14
-13 22 -5 31 9 10 6 11 -14 6 -18 -4 -31 0 -43 12 -9 10 -13 22 -9 25 3 4 -1
7 -11 7 -11 0 -16 7 -14 18 5 28 -35 26 -62 -3 -13 -14 -28 -25 -33 -25 -20 0
-113 95 -132 136 -11 22 -26 49 -34 58 -16 19 -10 98 9 121 17 21 35 19 65 -7z
m775 -27 c-32 -17 -34 -22 -31 -60 2 -28 -4 -52 -19 -75 -23 -38 -84 -96 -101
-96 -6 0 -30 -9 -54 -20 -69 -31 -125 -11 -125 44 0 29 44 102 59 98 7 -1 10
2 7 7 -7 11 41 49 93 76 19 10 56 18 81 20 26 1 56 7 66 13 10 6 28 11 39 11
15 0 11 -5 -15 -18z m-1570 -105 c22 -11 26 -15 10 -11 -65 17 -178 17 -234 1
-32 -10 -56 -20 -52 -23 3 -3 20 1 38 8 20 8 67 14 118 13 70 0 95 -5 143 -26
53 -25 57 -29 57 -62 0 -19 -6 -36 -12 -39 -10 -3 -10 -9 0 -27 18 -30 12 -33
-43 -19 -99 25 -303 -12 -347 -63 -17 -19 -18 -19 -19 -2 -4 74 4 152 17 173
9 13 11 20 4 16 -9 -6 -9 -2 0 14 32 60 230 89 320 47z m375 -125 c3 -6 49
-40 103 -77 53 -37 100 -72 104 -78 5 -7 8 -6 8 4 0 9 8 3 19 -13 15 -23 20
-25 24 -13 4 9 2 16 -3 16 -6 0 -10 6 -10 14 0 8 -3 16 -7 18 -5 2 -21 21 -37
42 -31 41 -29 41 40 -6 23 -15 51 -28 62 -28 12 0 36 -16 55 -35 19 -19 39
-35 46 -35 7 0 10 -4 7 -9 -4 -5 0 -11 6 -14 8 -3 -7 -24 -39 -54 -29 -27 -53
-53 -53 -57 0 -5 28 -35 62 -67 35 -32 60 -60 57 -63 -3 -4 -35 21 -71 54 -37
33 -70 60 -75 60 -5 0 -20 -11 -32 -24 l-22 -23 -33 31 c-18 18 -35 40 -39 50
-4 11 -15 16 -29 14 -11 -2 -23 3 -26 11 -3 9 0 11 9 6 8 -5 5 2 -6 14 -11 13
-27 20 -37 18 -10 -3 -18 0 -19 6 -1 13 -129 124 -154 133 -24 10 -18 27 23
72 39 42 56 50 67 33z m-1995 -86 c-18 -22 -3 -35 41 -35 27 0 39 -4 39 -14 0
-19 -10 -25 -49 -28 -22 -2 -31 -7 -31 -19 0 -32 -12 -49 -51 -71 -21 -12 -39
-25 -39 -30 0 -4 -12 -8 -26 -8 -14 0 -46 -14 -71 -32 -39 -29 -42 -34 -28
-44 23 -17 15 -48 -13 -52 -12 -2 -49 6 -82 17 -37 13 -72 19 -92 15 -32 -5
-32 -5 -13 11 35 29 85 47 116 40 31 -7 51 2 98 44 13 11 28 21 33 21 5 0 7 4
4 9 -3 4 -17 6 -32 3 -45 -8 -25 28 38 71 44 30 61 37 71 29 7 -6 23 -9 35 -5
21 5 22 7 7 23 -15 16 -13 20 15 44 35 29 49 34 30 11z m4850 -93 c0 -4 16
-14 35 -21 19 -7 40 -18 47 -24 7 -7 33 -23 58 -36 25 -13 46 -25 48 -27 2 -1
-4 -14 -13 -28 -17 -25 -45 -36 -45 -17 0 11 -78 56 -113 65 -37 9 -25 40 12
32 22 -5 20 -3 -8 12 -26 13 -35 14 -38 5 -7 -20 -37 -15 -50 7 -14 21 -3 33
20 24 8 -3 18 -1 22 5 7 13 25 15 25 3z m-3732 -136 c35 -13 42 -13 53 0 13
16 55 19 63 5 3 -5 18 -12 33 -15 16 -4 42 -13 58 -21 17 -7 38 -16 49 -19 12
-4 17 -13 13 -26 -4 -16 -2 -17 12 -8 26 16 153 -40 145 -64 -7 -25 43 -45 70
-28 28 17 99 -15 90 -42 -4 -13 0 -18 15 -18 12 0 21 5 21 10 0 6 5 10 10 10
6 0 10 -11 10 -25 0 -19 5 -25 23 -25 13 0 28 5 34 11 9 9 25 6 65 -13 29 -13
70 -32 91 -41 20 -9 37 -23 37 -30 0 -15 41 -37 69 -37 21 0 49 46 35 59 -5 4
-40 20 -79 36 -38 15 -90 36 -115 46 -69 28 -254 111 -360 162 -52 25 -112 52
-133 61 -21 9 -36 20 -32 26 3 6 9 9 13 6 17 -10 221 -89 250 -98 18 -5 128
-52 245 -104 116 -52 220 -94 229 -94 32 0 19 16 -34 41 -32 15 -45 25 -34 27
9 2 22 -1 29 -6 7 -6 29 -14 49 -20 28 -8 41 -7 56 4 16 11 27 12 49 3 15 -6
30 -10 32 -9 2 1 7 -2 10 -7 7 -11 139 -66 159 -66 6 0 12 -4 12 -9 0 -4 3 -7
8 -6 4 1 32 -10 62 -24 93 -43 144 -65 169 -73 34 -10 22 -52 -34 -126 -42
-53 -70 -71 -88 -53 -6 6 -97 32 -256 74 -18 4 -38 13 -44 19 -6 6 -20 11 -30
11 -11 0 -53 10 -93 22 -63 19 -74 26 -76 47 -3 25 -9 28 -153 82 -27 10 -81
30 -118 45 -66 25 -69 25 -83 7 -15 -17 -15 -17 -11 4 4 17 -2 24 -27 33 -17
6 -47 18 -66 27 -19 8 -36 11 -37 6 -2 -4 -8 -15 -13 -23 -14 -22 -23 -5 -10
19 10 19 8 21 -18 21 -15 0 -33 -5 -40 -12 -9 -9 -12 -8 -12 4 0 11 -17 22
-50 33 -27 9 -52 21 -55 26 -4 5 -13 9 -22 9 -18 0 -44 11 -214 89 -25 12 -50
21 -55 21 -22 1 -57 38 -50 55 5 13 9 15 19 6 8 -6 32 -17 55 -25z m4039 -22
c44 -5 53 -11 53 -33 0 -9 15 -28 33 -41 17 -13 36 -29 40 -37 4 -7 19 -13 32
-13 13 0 28 -6 32 -13 4 -7 26 -21 48 -29 127 -51 155 -85 113 -133 -26 -30
-58 -32 -83 -5 -9 10 -20 18 -24 18 -10 -3 -126 54 -129 64 -2 4 -9 8 -16 8
-7 0 -57 23 -112 52 -54 28 -109 56 -121 62 -30 14 -29 26 8 86 l31 50 29 -16
c17 -8 46 -17 66 -20z m1656 -4 c38 -7 85 -10 107 -7 38 5 60 -6 60 -29 0 -6
-21 -15 -47 -19 -26 -4 -74 -20 -106 -37 -33 -16 -65 -27 -73 -24 -24 9 -16
42 14 56 l27 13 -38 11 c-38 12 -60 33 -50 48 2 5 12 7 21 4 10 -2 48 -10 85
-16z m-5829 -193 c17 -14 70 -42 116 -63 47 -21 87 -41 90 -44 3 -3 19 -11 35
-19 17 -7 38 -17 47 -22 10 -5 24 -9 31 -9 21 0 51 -36 37 -45 -6 -4 -17 -4
-25 -1 -8 3 -17 1 -20 -4 -4 -6 -1 -10 5 -10 7 0 9 -13 4 -37 -4 -21 -7 -44
-7 -50 0 -7 -3 -11 -6 -7 -3 3 -4 21 -2 40 2 24 -2 36 -14 40 -13 6 -14 9 -3
16 9 6 3 8 -17 6 -32 -3 -42 -20 -44 -75 -1 -33 -15 -45 -24 -20 -3 9 -8 8
-23 -3 -18 -14 -18 -14 -5 3 11 14 12 25 2 57 -6 22 -15 40 -19 40 -15 -1 -41
-27 -34 -34 4 -4 -1 -12 -11 -17 -9 -6 -17 -16 -17 -23 0 -8 -7 -19 -15 -26
-12 -10 -15 -7 -20 17 -19 95 -44 106 -61 28 -12 -52 -21 -47 -26 15 -3 29 -7
35 -29 38 -25 3 -27 -1 -35 -45 l-8 -48 -6 50 c-4 36 -10 51 -22 53 -17 3 -24
-11 -31 -65 -5 -35 -15 -38 -28 -9 -15 32 -29 34 -29 4 0 -12 -3 -19 -6 -16
-3 3 -5 24 -6 46 0 25 -6 43 -14 46 -18 7 -34 -24 -34 -63 0 -26 -4 -31 -22
-31 -17 0 -19 3 -9 9 10 6 10 13 3 28 -8 15 -8 23 1 32 20 20 -30 52 -60 38
-37 -17 -54 5 -46 61 3 26 10 48 14 50 4 2 5 10 3 17 -6 14 5 18 69 28 21 3
30 0 36 -14 6 -17 8 -16 24 11 18 29 36 38 51 23 3 -4 -5 -17 -19 -28 l-25
-22 30 -1 c24 0 30 4 31 21 1 21 1 21 7 2 6 -16 16 -21 49 -21 36 -1 40 1 27
13 -8 8 -22 12 -33 8 -14 -4 -23 0 -30 13 -15 29 1 38 75 40 57 2 71 -1 98
-21z m3917 -76 c13 -10 34 -21 47 -25 12 -4 22 -11 22 -16 0 -5 47 -37 105
-71 58 -34 105 -66 105 -71 0 -4 7 -8 15 -8 8 0 15 -4 15 -10 0 -5 5 -10 11
-10 6 0 38 -18 71 -40 33 -22 64 -40 69 -40 5 0 10 -3 10 -7 10 -67 9 -74 -17
-83 -36 -14 -37 -14 -32 25 3 23 -1 36 -10 40 -7 3 -10 10 -7 16 5 7 -1 10
-16 8 -13 -2 -30 0 -36 4 -8 5 -13 3 -13 -4 0 -7 -10 -2 -22 11 -21 22 -22 22
-37 4 -16 -19 -67 -21 -55 -2 4 6 -2 6 -15 -1 -14 -8 -21 -8 -21 -1 0 5 -8 10
-17 11 -11 0 -13 3 -5 6 24 10 11 18 -29 19 -22 1 -46 7 -52 14 -9 10 -7 11
13 6 21 -6 22 -5 8 4 -13 8 -23 8 -38 0 -15 -8 -20 -8 -18 1 2 6 -9 15 -23 19
-14 4 -47 19 -72 34 -26 14 -54 26 -62 26 -21 0 -18 30 5 65 12 17 28 45 36
63 19 37 32 40 65 13z m1047 -167 c23 -7 12 -24 -15 -25 -25 -1 -25 -2 7 -9
19 -5 49 -13 65 -19 27 -10 26 -11 -17 -6 -37 4 -46 2 -42 -9 7 -19 47 -28 92
-21 35 5 35 5 12 -7 l-25 -12 31 -3 c17 -2 51 3 75 12 24 9 60 21 79 27 19 5
41 15 47 20 7 6 45 16 85 24 40 7 84 15 98 19 53 11 -101 -54 -220 -94 -69
-23 -139 -49 -156 -58 -23 -12 -43 -14 -80 -8 -27 4 -78 8 -114 8 -55 1 -61 2
-37 11 33 12 35 33 5 46 -16 6 -18 9 -7 9 9 1 27 9 40 19 l22 19 -44 7 -44 8
35 13 c19 8 46 14 60 15 23 2 22 3 -7 11 -18 5 -33 11 -33 14 0 4 65 -4 88
-11z m-1820 -26 c38 -38 -17 -107 -126 -160 -79 -39 -169 -46 -203 -17 -23 19
-24 29 -5 29 8 0 24 15 35 34 23 36 69 72 79 61 4 -4 -1 -11 -11 -16 -22 -13
-45 -59 -40 -81 3 -11 14 -18 29 -18 16 0 23 4 18 11 -4 8 0 9 15 4 11 -3 29
-2 38 4 17 10 17 10 0 11 -12 0 -6 10 22 35 46 42 70 95 43 95 -15 0 -15 2 -2
10 21 14 94 12 108 -2z m742 -19 c46 -24 49 -28 52 -63 2 -24 18 -38 18 -16 0
15 63 11 195 -14 110 -20 120 -24 123 -45 6 -42 -27 -87 -81 -109 -35 -15 -55
-19 -66 -12 -14 8 -13 11 7 16 12 3 22 10 22 15 0 15 -39 30 -65 23 -20 -5
-24 -3 -19 10 8 20 -24 22 -40 2 -12 -15 -146 -28 -166 -16 -6 4 -19 22 -29
40 -19 36 -58 54 -98 44 -15 -4 -25 -1 -29 9 -7 20 3 32 96 123 19 19 32 18
80 -7z m-3520 -40 c0 -4 -6 -12 -12 -16 -7 -4 -23 -28 -36 -53 l-23 -44 21
-28 c24 -33 27 -63 4 -54 -21 8 -40 -4 -23 -15 7 -4 10 -11 6 -16 -8 -8 -67
49 -67 66 0 12 -39 2 -70 -19 -14 -10 -36 -21 -48 -25 -26 -8 69 92 147 155
24 19 51 42 59 52 15 16 42 14 42 -3z m5231 -144 c35 -73 31 -89 -22 -100 -16
-4 -31 -11 -34 -16 -4 -5 -14 -9 -24 -9 -9 0 -22 -5 -29 -12 -14 -14 -80 -38
-105 -38 -10 0 -22 10 -28 23 -6 12 -19 38 -30 57 -21 38 -25 70 -9 70 6 0 19
9 30 20 11 11 28 20 38 20 10 0 28 7 40 16 13 9 25 14 28 11 3 -2 24 1 47 9
23 7 47 13 54 13 7 1 27 -28 44 -64z m-2200 46 c-12 -8 -11 -13 10 -30 13 -11
29 -20 35 -21 6 0 24 -11 40 -25 40 -35 130 -95 143 -95 5 0 16 -8 23 -18 13
-18 65 -54 71 -50 1 2 18 -12 37 -30 19 -17 43 -35 53 -38 20 -6 36 -19 86
-66 28 -28 55 -36 65 -19 3 5 -9 18 -27 30 -20 13 -26 21 -15 21 9 0 30 -11
46 -25 17 -14 35 -25 41 -25 6 0 11 -4 11 -10 0 -5 15 -16 33 -24 60 -27 72
-42 58 -72 -10 -22 -9 -28 6 -40 10 -7 23 -14 28 -14 6 0 27 -8 48 -19 32 -16
35 -20 22 -31 -13 -11 -23 -9 -55 6 -22 10 -40 23 -40 28 0 4 -8 5 -17 1 -10
-4 -28 -7 -40 -6 -13 0 -23 -2 -23 -6 0 -7 55 -59 90 -85 23 -17 20 -38 -7
-38 -9 0 -34 13 -57 30 -153 112 -182 134 -191 144 -5 6 -22 17 -37 25 -14 7
-40 26 -58 42 -17 16 -34 29 -38 29 -4 0 -20 11 -37 25 -16 14 -25 25 -20 24
30 -4 35 1 23 21 -7 11 -19 18 -26 15 -7 -3 -11 -1 -8 4 3 4 -6 14 -19 21 -14
7 -25 18 -25 24 0 6 -5 4 -11 -4 -9 -13 -10 -12 -5 3 4 13 1 17 -11 15 -10 -2
-18 3 -18 10 0 7 -10 18 -21 25 -47 26 -140 96 -164 122 -19 21 -8 16 43 -19
38 -25 75 -53 83 -60 7 -8 30 -24 51 -37 21 -13 43 -28 48 -35 14 -16 58 -44
68 -44 5 0 6 7 3 16 -3 9 -2 12 5 9 5 -4 7 -15 4 -25 -4 -13 1 -22 14 -29 32
-18 46 -12 22 8 -13 12 -18 22 -11 26 5 3 10 2 10 -3 0 -10 90 -72 103 -72 4
0 7 6 7 13 0 8 -34 38 -75 67 -41 29 -75 56 -75 60 0 4 -10 12 -22 18 -13 7
-43 28 -68 47 -25 19 -61 44 -80 55 -40 24 -97 64 -121 86 -15 14 -18 14 -27
-2 -6 -12 -11 -13 -16 -5 -9 14 19 61 37 61 8 0 7 -3 -2 -9z m-5181 -26 c-11
-13 -10 -19 4 -34 13 -14 14 -24 7 -42 -6 -13 -15 -43 -21 -67 -6 -23 -19 -47
-29 -54 -12 -7 -17 -19 -13 -32 3 -17 -2 -14 -28 14 l-33 35 16 46 c10 26 17
54 17 63 0 9 13 25 29 34 17 9 35 28 41 41 6 13 13 21 17 18 3 -4 0 -13 -7
-22z m6443 -202 c-1 -6 11 -16 27 -22 17 -5 30 -14 30 -19 0 -8 18 -13 108
-26 40 -6 44 -23 6 -29 -10 -1 -23 -5 -29 -8 -37 -22 -259 -30 -278 -10 -9 10
-8 15 5 25 16 12 16 14 0 29 -15 16 -15 17 0 17 25 0 33 21 13 32 -14 9 -15
12 -4 19 20 13 124 7 122 -8z m-3134 -240 c5 -21 12 -81 15 -133 7 -108 23
-264 30 -298 3 -13 0 -32 -6 -42 -9 -14 -9 -48 0 -142 14 -141 15 -312 2 -263
-12 43 -47 317 -60 465 -6 69 -15 157 -20 195 -5 39 -12 100 -16 138 -3 37
-11 70 -17 74 -7 4 -8 0 -4 -11 4 -10 10 -93 13 -185 5 -134 4 -164 -6 -154
-13 12 -24 90 -39 263 -7 86 0 116 25 106 7 -3 18 2 24 10 23 27 49 17 59 -23z
m131 -38 c0 -19 4 -35 8 -35 4 0 14 -33 20 -74 7 -40 16 -76 19 -80 12 -11 14
-96 2 -96 -15 0 -2 -70 16 -85 7 -5 15 -21 18 -35 2 -14 8 -32 11 -41 4 -10 1
-23 -8 -32 -20 -20 -20 -61 -1 -81 20 -19 19 -21 -5 -23 -17 -2 -20 2 -14 19
4 14 2 18 -5 14 -17 -11 -25 22 -12 50 6 14 7 23 2 20 -8 -6 -31 74 -31 109 0
7 -5 26 -12 42 -7 15 -13 61 -13 101 -1 41 -6 77 -13 84 -7 7 -12 23 -11 38 0
22 1 22 8 6 8 -22 24 -7 17 16 -11 33 -15 118 -6 118 5 0 10 -16 10 -35z
m-1006 -168 c98 -84 154 -113 120 -62 -9 14 -13 25 -9 25 23 0 155 -124 155
-146 0 -3 -9 -2 -21 1 -18 6 -19 4 -8 -12 14 -22 88 -83 101 -83 5 0 6 9 3 20
-5 14 -2 20 9 20 22 0 20 -9 -8 -51 -15 -21 -45 -46 -73 -59 l-47 -22 -21 24
c-11 13 -30 30 -42 39 -48 34 -133 114 -133 125 0 7 -9 16 -20 19 -11 3 -20
12 -20 20 0 7 -8 16 -17 19 -22 9 -1 30 29 31 37 0 30 21 -27 81 -30 32 -55
60 -55 61 0 14 33 -6 84 -50z m2877 -447 c13 -10 20 -19 14 -20 -5 0 1 -7 14
-16 27 -19 51 -5 26 16 -19 16 -19 30 0 30 8 0 19 -9 25 -20 8 -15 17 -19 31
-15 15 5 17 3 12 -11 -5 -13 -2 -16 8 -12 10 4 55 -24 118 -73 57 -43 109 -79
117 -79 7 0 17 -6 21 -14 9 -16 127 -96 142 -96 6 0 14 -6 18 -13 4 -6 34 -29
65 -50 69 -45 80 -71 48 -122 -34 -55 -55 -61 -98 -32 -20 14 -52 28 -70 32
-30 6 -33 9 -27 36 6 25 2 31 -25 47 -18 9 -47 27 -66 39 -26 17 -39 20 -64
13 -29 -8 -42 2 -20 15 19 12 11 38 -10 32 -14 -3 -21 1 -26 16 -9 28 -33 46
-62 47 -15 0 -26 9 -32 25 -9 23 -14 25 -44 19 -30 -5 -34 -3 -32 13 3 13 10
17 30 15 25 -3 27 0 21 20 -9 31 -42 58 -72 58 -24 0 -143 84 -143 101 0 4 6
10 13 12 25 10 45 7 68 -13z"/>
<path d="M5290 4054 c0 -13 -6 -15 -27 -10 -41 10 -77 8 -188 -13 -55 -10
-134 -24 -175 -31 -41 -6 -83 -16 -93 -21 -9 -5 -37 -11 -62 -14 -40 -3 -45
-1 -45 16 0 11 -4 17 -10 14 -5 -3 -10 -17 -10 -31 0 -13 -4 -24 -10 -24 -5 0
-10 -9 -10 -20 0 -11 6 -20 14 -20 12 0 222 43 391 81 22 5 103 22 180 38 85
18 125 30 103 30 -21 1 -38 6 -38 11 0 6 -4 10 -10 10 -5 0 -10 -7 -10 -16z"/>
<path d="M4425 5219 c22 -70 42 -92 93 -104 17 -3 42 -17 56 -30 22 -21 29
-22 71 -13 32 7 60 7 88 0 54 -14 60 -6 11 14 -21 8 -100 45 -174 82 -74 37
-139 69 -144 71 -4 2 -5 -7 -1 -20z"/>
<path d="M5271 5098 c-13 -35 -29 -66 -35 -70 -6 -4 4 -6 22 -3 32 4 33 3 27
-25 -5 -22 -2 -30 13 -34 10 -4 24 -18 31 -32 6 -14 16 -22 21 -19 6 3 7 -1 4
-9 -4 -10 -1 -16 7 -17 19 -2 22 -1 42 6 12 5 17 2 17 -9 0 -9 7 -16 15 -16 7
0 19 -8 24 -17 6 -10 11 -15 11 -11 0 4 -13 30 -30 58 -16 28 -30 53 -30 56 0
3 -7 20 -15 37 -8 18 -21 52 -28 77 -8 25 -18 44 -24 43 -6 -1 -16 9 -23 22
-7 14 -16 25 -19 25 -3 0 -17 -28 -30 -62z"/>
<path d="M6418 4086 c-30 -10 -38 -26 -14 -26 8 0 17 -16 21 -37 4 -21 11 -44
17 -50 6 -7 7 -13 2 -13 -5 0 -3 -4 4 -9 12 -7 45 -84 175 -406 20 -49 41 -98
47 -107 5 -10 10 -24 10 -32 0 -7 17 -56 39 -107 21 -52 44 -116 52 -142 10
-36 19 -49 37 -54 40 -10 45 9 19 78 -25 67 -71 182 -93 234 -7 17 -28 68 -47
115 -19 47 -39 96 -45 110 -6 14 -48 117 -92 230 -45 113 -87 210 -93 216 -9
8 -20 8 -39 0z"/>
<path d="M935 3664 c-16 -8 -48 -35 -70 -60 -22 -26 -53 -61 -68 -78 -64 -70
-147 -175 -147 -186 0 -6 -4 -9 -8 -6 -5 3 -15 -6 -22 -19 -11 -20 -11 -27 0
-40 11 -13 20 -7 71 42 32 32 56 59 54 62 -3 2 -11 -2 -20 -9 -19 -16 -20 -3
0 16 8 9 20 12 26 8 8 -4 9 -3 5 4 -4 7 -2 12 4 12 6 0 13 8 17 18 3 9 40 51
82 93 84 83 114 123 109 144 -3 12 -8 12 -33 -1z"/>
<path d="M7757 3383 c-4 -3 -7 -14 -7 -24 0 -13 9 -19 33 -21 24 -2 33 -8 35
-24 3 -21 52 -42 52 -23 0 15 27 10 41 -7 8 -9 21 -13 35 -10 18 5 27 0 38
-21 15 -28 15 -28 16 23 0 49 -1 51 -24 47 -17 -4 -27 1 -35 15 -8 16 -25 21
-81 27 -38 4 -73 11 -76 16 -6 11 -18 12 -27 2z"/>
<path d="M585 560 c-3 -5 -3 -15 1 -22 7 -11 21 -71 44 -182 6 -28 16 -54 23
-59 9 -7 9 -10 0 -14 -17 -6 -17 -24 -1 -20 7 1 20 -13 28 -30 8 -18 21 -33
28 -33 6 0 12 -5 12 -12 0 -6 7 -19 16 -29 14 -16 21 -36 23 -67 1 -7 10 -20
21 -29 11 -10 20 -28 20 -40 0 -20 5 -23 36 -23 l35 0 -6 43 c-4 23 -10 76
-15 117 -11 101 -32 200 -42 200 -4 0 -8 8 -8 18 0 20 -97 116 -135 134 -14 6
-25 17 -25 24 0 7 -9 18 -19 24 -24 12 -28 13 -36 0z"/>
<path d="M1073 223 c-7 -3 -13 -15 -13 -27 0 -17 10 -28 40 -41 22 -10 40 -24
40 -30 0 -7 7 -15 15 -19 8 -3 15 -11 15 -18 1 -18 36 -58 51 -58 7 0 20 -7
30 -16 10 -9 30 -14 46 -12 l28 3 -22 23 c-13 12 -23 29 -23 38 0 9 -12 29
-27 44 -22 23 -30 27 -46 19 -26 -15 -34 -3 -8 13 30 18 26 28 -9 22 -38 -8
-62 10 -54 41 5 19 1 22 -23 22 -15 0 -34 -1 -40 -4z"/>
</g>
</svg>
