<?xml version="1.0" standalone="no"?>
<!DOCTYPE svg PUBLIC "-//W3C//DTD SVG 20010904//EN"
 "http://www.w3.org/TR/2001/REC-SVG-20010904/DTD/svg10.dtd">
<svg version="1.0" xmlns="http://www.w3.org/2000/svg"
 width="251.000000pt" height="201.000000pt" viewBox="0 0 251.000000 201.000000"
 preserveAspectRatio="xMidYMid meet">
<metadata>
Created by potrace 1.15, written by Peter Selinger 2001-2017
</metadata>
<g transform="translate(0.000000,201.000000) scale(0.100000,-0.100000)"
fill="#000000" stroke="none">
<path d="M1645 1580 c-3 -5 0 -12 6 -16 9 -5 7 -11 -6 -21 -12 -8 -14 -13 -5
-13 9 0 8 -6 -5 -20 -10 -11 -26 -20 -35 -20 -9 0 -26 -10 -37 -22 -12 -13
-46 -41 -77 -63 -32 -21 -67 -55 -78 -75 -12 -19 -28 -39 -35 -43 -7 -4 -13
-17 -13 -27 0 -10 -4 -22 -10 -25 -19 -12 -10 -21 34 -34 50 -14 50 -14 146
50 34 22 103 61 155 85 78 38 96 51 121 89 15 25 35 47 43 50 17 6 95 75 89
80 -2 1 -29 10 -60 19 -60 17 -224 21 -233 6z"/>
<path d="M2413 1508 c4 -12 2 -15 -8 -11 -9 3 -17 -2 -21 -13 -3 -11 -24 -57
-47 -104 -23 -47 -41 -87 -42 -90 0 -3 -10 -23 -23 -44 -17 -28 -26 -36 -31
-27 -10 16 -45 0 -71 -31 -14 -18 -16 -17 -35 12 -29 43 -39 37 -31 -17 19
-126 19 -132 -4 -68 -12 33 -23 61 -25 63 -2 2 -14 -2 -27 -9 -12 -7 -29 -14
-36 -15 -30 -5 -42 -27 -37 -63 5 -34 4 -35 -6 -8 l-11 27 -35 -36 c-31 -32
-34 -39 -24 -61 10 -22 9 -23 -10 -13 -11 7 -22 10 -24 8 -1 -2 -17 -38 -35
-81 -32 -77 -34 -114 -5 -103 47 18 -31 -34 -98 -66 -52 -24 -266 -93 -347
-111 -58 -13 -68 -13 -95 0 -56 29 -165 126 -165 148 0 6 -14 26 -30 45 -20
22 -27 27 -20 13 9 -19 8 -22 -5 -17 -8 4 -15 11 -15 17 0 6 -3 8 -6 5 -3 -4
0 -16 6 -28 8 -15 8 -20 1 -16 -7 5 -11 -2 -11 -19 0 -14 -7 -28 -15 -31 -8
-4 -15 -15 -15 -26 0 -28 -18 -58 -35 -58 -24 0 -19 -62 5 -78 14 -9 20 -23
20 -50 0 -62 22 -155 42 -176 10 -11 18 -24 18 -29 0 -6 14 -23 30 -39 17 -15
30 -35 30 -43 0 -8 6 -15 14 -15 8 0 27 -11 43 -23 15 -13 52 -32 81 -42 35
-13 52 -24 52 -36 0 -9 7 -20 16 -23 47 -18 234 4 419 50 130 33 359 112 415
145 108 62 140 79 149 79 6 0 11 5 11 10 0 11 41 30 75 35 11 1 41 8 68 15
l47 12 0 494 c0 427 -2 494 -15 494 -8 0 -31 15 -52 33 -22 19 -34 25 -30 15z"/>
<path d="M1954 1475 c-3 -8 -18 -15 -33 -16 -14 0 -20 -3 -13 -6 6 -2 12 -9
12 -14 0 -6 -4 -8 -8 -5 -14 8 -52 -23 -52 -42 0 -25 135 -90 158 -75 31 19
38 59 18 100 -12 25 -14 39 -7 41 13 4 15 32 2 32 -5 0 -11 -9 -14 -20 -4 -14
-13 -20 -34 -19 -28 1 -28 1 -3 8 l25 7 -23 13 c-19 10 -23 9 -28 -4z"/>
<path d="M1107 1190 c-19 -16 -39 -30 -43 -30 -14 -1 -60 -40 -47 -40 7 0 34
-23 62 -51 58 -58 57 -59 87 59 16 64 16 74 4 82 -22 14 -26 13 -63 -20z"/>
<path d="M73 1126 c-5 -8 -19 -19 -33 -25 -25 -10 -24 -10 7 -10 17 -1 35 4
38 9 12 19 43 -8 40 -35 -1 -14 6 -37 17 -50 11 -14 16 -30 12 -36 -6 -10 -15
-10 -96 8 -23 4 -28 2 -28 -15 0 -11 -7 -25 -15 -32 -13 -11 -15 -60 -15 -334
l0 -321 33 -22 c18 -13 55 -30 83 -39 27 -9 62 -29 77 -45 17 -18 38 -29 55
-29 31 0 215 46 241 59 9 5 23 33 30 63 37 147 184 353 289 407 38 19 38 20
49 103 6 46 10 84 8 86 -1 2 -27 -8 -58 -22 -30 -13 -70 -27 -88 -31 -19 -3
-50 -12 -69 -19 -19 -8 -53 -19 -75 -24 -22 -6 -72 -21 -112 -33 -85 -26 -105
-19 -101 39 2 36 -27 72 -61 72 -21 1 -54 27 -75 62 -19 30 -14 48 27 92 41
45 46 54 40 75 -7 29 -34 34 -83 17 -46 -16 -90 -7 -90 18 0 7 -7 17 -16 20
-21 8 -22 8 -31 -8z"/>
<path d="M842 240 c-34 -49 -62 -50 -74 -2 -7 24 -13 32 -24 28 -9 -3 -18 -6
-20 -6 -3 0 -2 -4 1 -10 3 -6 -1 -7 -9 -4 -9 3 -16 1 -16 -5 0 -7 -10 -25 -22
-41 -12 -16 -18 -33 -15 -37 4 -4 40 1 80 10 84 19 284 38 344 32 24 -2 45 0
47 4 8 12 -107 65 -141 66 -18 0 -33 -3 -33 -7 0 -5 -18 -8 -41 -8 -24 0 -38
4 -34 10 3 6 1 10 -5 10 -5 0 -23 -18 -38 -40z"/>
</g>
</svg>
