<?xml version="1.0" standalone="no"?>
<!DOCTYPE svg PUBLIC "-//W3C//DTD SVG 20010904//EN"
 "http://www.w3.org/TR/2001/REC-SVG-20010904/DTD/svg10.dtd">
<svg version="1.0" xmlns="http://www.w3.org/2000/svg"
 width="250.000000pt" height="203.000000pt" viewBox="0 0 250.000000 203.000000"
 preserveAspectRatio="xMidYMid meet">
<metadata>
Created by potrace 1.15, written by Peter Selinger 2001-2017
</metadata>
<g transform="translate(0.000000,203.000000) scale(0.100000,-0.100000)"
fill="#000000" stroke="none">
<path d="M0 1590 c1 -334 4 -439 13 -433 9 5 9 3 0 -8 -9 -11 -12 -67 -10
-200 2 -187 4 -208 22 -221 6 -4 2 -8 -7 -8 -15 0 -18 -9 -18 -49 0 -28 5 -51
11 -53 9 -3 9 -9 1 -25 -9 -16 -9 -23 1 -26 9 -4 9 -6 0 -6 -17 -1 -17 -103
-1 -119 8 -8 9 -12 1 -12 -17 0 -17 -181 0 -192 9 -6 9 -8 0 -8 -9 0 -13 -21
-13 -70 0 -55 3 -71 18 -79 16 -9 16 -10 -1 -16 -11 -5 -17 -18 -17 -39 0 -21
3 -27 9 -17 7 11 9 11 14 0 4 -11 8 -10 23 3 13 13 17 30 15 60 -1 24 -6 47
-11 52 -5 5 -6 15 -3 22 3 8 0 20 -6 28 -6 7 -8 16 -4 19 9 9 23 9 22 0 -4
-22 2 -43 10 -38 5 3 11 -2 13 -12 3 -15 4 -15 21 1 9 10 17 14 17 10 0 -5
-10 -18 -22 -29 -21 -18 -36 -61 -18 -50 4 2 15 -4 25 -15 21 -23 41 -26 48
-7 4 7 6 8 6 1 1 -18 -26 -37 -34 -24 -9 15 -25 12 -25 -5 0 -8 -5 -15 -11
-15 -5 0 -7 6 -3 13 5 8 2 8 -9 -2 -9 -7 -17 -15 -17 -17 0 -2 29 -3 65 -2 56
2 65 5 65 21 0 12 -4 16 -13 11 -9 -5 -9 -4 0 6 6 7 10 18 9 24 -2 6 -1 7 2 3
2 -4 10 -3 16 3 10 8 10 18 2 45 -9 29 -15 34 -34 30 -18 -3 -22 0 -18 11 3 7
0 14 -7 14 -15 0 -41 28 -50 55 -7 19 -7 19 9 0 8 -11 18 -25 22 -30 4 -6 19
-16 34 -22 25 -11 28 -11 28 7 0 22 7 25 30 10 13 -8 12 -10 -2 -10 -24 0 -23
-18 4 -60 12 -21 23 -30 25 -22 3 7 0 19 -6 26 -6 7 -8 16 -4 19 10 11 43 8
43 -3 0 -5 -7 -7 -15 -4 -11 5 -13 -1 -8 -30 5 -31 3 -35 -10 -30 -22 8 -49
-21 -45 -48 2 -17 10 -23 36 -25 34 -3 43 10 15 22 -17 6 -17 7 1 17 14 8 21
7 27 -3 8 -12 11 -12 19 1 6 9 10 10 10 3 0 -6 -7 -19 -16 -27 -12 -13 -12
-16 -2 -16 8 0 19 5 26 12 9 9 12 9 12 0 0 -19 61 -14 77 6 14 16 14 16 9 -1
-5 -17 2 -18 84 -16 71 2 90 6 93 18 4 13 5 13 6 -1 1 -14 10 -18 35 -18 19 0
37 6 39 13 4 9 6 9 6 0 1 -18 568 -18 574 0 4 9 7 9 18 0 20 -19 39 -16 49 9
l9 23 0 -23 c1 -22 4 -22 94 -21 50 0 98 6 105 11 8 7 12 7 12 -1 0 -6 11 -11
25 -11 16 0 23 4 19 14 -8 20 19 26 36 8 13 -14 12 -15 -3 -9 -9 3 -17 2 -17
-3 0 -6 36 -10 83 -10 l84 0 1 43 c1 23 7 44 12 45 14 5 2 22 -16 22 -10 0
-12 -5 -8 -13 6 -9 4 -9 -8 1 -13 10 -17 10 -22 -3 -3 -9 -2 -13 4 -10 18 11
11 -32 -7 -46 -15 -11 -16 -11 -5 1 20 23 14 28 -24 20 -24 -6 -43 -5 -55 3
-23 14 -25 27 -4 27 8 0 15 -4 15 -8 0 -4 13 -8 29 -7 18 0 27 4 24 12 -3 8
-14 11 -29 7 -19 -5 -26 -1 -34 21 -14 36 -7 42 10 11 12 -23 49 -30 67 -13 7
7 -11 11 -37 7 -12 -1 -12 1 -3 10 13 14 66 23 58 10 -3 -5 -1 -11 5 -15 6 -3
10 4 10 17 0 15 9 27 26 35 22 10 24 10 14 -3 -7 -8 -9 -14 -4 -14 5 0 2 -5
-6 -10 -20 -13 -2 -44 29 -48 28 -4 27 -21 -4 -54 -14 -15 -25 -32 -25 -37 0
-7 83 -10 248 -9 234 1 247 2 252 20 5 19 6 19 27 -1 23 -22 63 -28 63 -11 0
6 -9 10 -21 10 -11 0 -17 5 -14 10 3 5 0 10 -8 10 -7 0 -14 7 -14 15 0 8 4 15
9 15 4 0 8 -5 8 -11 0 -5 5 -7 10 -4 6 4 10 3 9 -2 -3 -20 2 -25 15 -14 11 9
20 10 35 1 12 -6 21 -13 21 -16 0 -3 -4 -3 -9 0 -5 4 -12 0 -14 -6 -4 -10 -6
-10 -6 0 -1 6 -5 12 -11 12 -5 0 -7 -7 -4 -15 9 -22 64 -20 61 2 -1 10 3 18 8
18 6 0 9 -8 8 -17 -2 -12 4 -18 17 -18 14 0 20 7 20 23 0 12 3 33 7 47 6 25 6
25 -15 6 -12 -11 -25 -16 -29 -12 -5 4 0 12 10 17 9 6 17 18 17 27 0 10 5 23
12 30 9 9 9 12 -2 13 -8 1 -19 2 -25 4 -5 1 -16 3 -22 3 -22 3 -14 19 8 18 39
-2 47 49 48 277 1 132 -3 207 -9 207 -5 0 -10 -4 -10 -9 0 -5 -10 -11 -22 -13
-13 -2 -22 -9 -20 -16 1 -6 -2 -12 -8 -12 -5 0 -10 6 -10 13 0 6 -8 -4 -18
-23 -13 -27 -18 -31 -20 -16 -2 10 2 22 10 27 7 5 9 9 5 9 -4 0 -3 9 3 20 6
11 7 20 3 20 -5 0 -14 -14 -20 -31 -7 -17 -17 -28 -22 -24 -7 4 -9 -5 -5 -27
3 -18 2 -29 -3 -23 -11 13 -63 14 -63 0 0 -5 -4 -3 -10 5 -5 9 -5 19 2 27 6 7
7 13 2 13 -5 0 -3 4 5 9 7 5 29 8 47 7 37 -1 42 5 19 24 -8 7 -15 8 -15 2 0
-5 -13 -12 -29 -15 -16 -3 -36 -13 -44 -22 -9 -8 -20 -15 -26 -15 -6 0 -11 -4
-11 -10 0 -5 -6 -8 -12 -6 -7 1 -10 1 -5 -1 4 -3 5 -9 2 -13 -3 -5 0 -12 6
-16 7 -4 9 -3 6 3 -4 6 0 16 8 23 12 10 18 8 35 -11 23 -28 25 -37 8 -36 -7 0
-26 -1 -43 -2 -27 -1 -28 -3 -13 -15 16 -12 15 -13 -13 -14 -17 0 -41 -7 -53
-16 -30 -19 -86 -19 -79 1 4 10 9 11 19 2 8 -7 16 -10 18 -8 2 2 -14 22 -37
44 -22 22 -38 33 -35 25 7 -19 -13 -38 -32 -32 -13 5 -13 3 -1 -11 18 -22 31
-22 31 1 0 14 2 15 10 2 13 -20 13 -50 -1 -50 -6 0 -9 7 -6 14 4 9 1 13 -6 11
-20 -7 -48 21 -41 39 4 10 12 15 19 12 15 -5 29 39 19 56 -4 6 -1 9 7 6 8 -3
13 -11 11 -17 -3 -14 22 -41 37 -41 5 0 12 -9 16 -19 9 -29 31 -32 57 -10 22
20 22 20 1 10 -12 -6 -24 -7 -27 -2 -8 13 41 20 53 8 8 -8 11 -4 11 11 0 12
-5 22 -11 22 -5 0 -8 4 -5 9 3 5 -1 12 -10 15 -8 3 -12 2 -9 -4 3 -6 2 -10 -4
-10 -6 0 -9 16 -7 37 3 29 8 37 24 38 12 1 19 -2 17 -6 -3 -4 2 -10 11 -13 8
-3 12 -2 9 3 -3 5 -1 12 5 16 5 3 10 1 10 -4 0 -18 20 -12 43 12 12 13 29 21
38 20 15 -4 39 34 39 61 0 16 27 29 35 16 3 -4 0 -10 -7 -12 -9 -3 -9 -6 0
-12 7 -4 12 -2 12 5 0 8 5 7 18 -2 15 -12 16 -12 5 2 -17 21 -5 32 14 14 8 -8
11 -20 7 -27 -6 -10 -3 -9 9 0 9 8 20 11 25 8 6 -3 14 0 20 7 8 10 5 13 -16
15 -14 1 -31 7 -37 13 -7 8 0 10 28 5 l37 -7 0 76 c0 52 -4 75 -12 75 -9 0 -9
3 0 12 8 8 8 17 1 31 -8 14 -8 18 0 13 14 -9 14 9 0 36 -8 15 -8 19 0 14 8 -5
11 136 11 508 l0 516 -1250 0 -1251 0 1 -440z m1442 283 c21 -36 34 -151 24
-206 -4 -20 -18 -50 -32 -67 -27 -32 -50 -40 -40 -14 10 25 -57 176 -96 218
-20 22 -23 36 -8 36 15 0 58 -48 76 -84 8 -17 23 -42 34 -56 30 -40 39 -16 31
84 -5 66 -11 91 -24 101 -22 16 -22 27 0 23 9 -2 25 -17 35 -35z m169 -18 c50
-44 65 -72 84 -155 9 -41 22 -95 29 -120 7 -25 9 -56 5 -70 -6 -23 -7 -22 -27
21 -29 66 -39 67 -47 7 -8 -66 -34 -145 -57 -177 -10 -13 -18 -34 -18 -47 0
-13 -4 -24 -10 -24 -5 0 -10 5 -10 10 0 6 -9 10 -21 10 -18 0 -20 5 -17 43 2
33 7 42 21 41 14 -2 17 7 17 45 1 58 22 140 39 151 19 11 26 131 11 186 -7 25
-28 62 -47 81 -18 20 -33 37 -33 39 0 10 53 -16 81 -41z m-781 -49 c0 -35 4
-46 19 -51 12 -3 21 -19 25 -40 9 -44 -34 -135 -64 -135 -10 0 -23 -6 -27 -13
-11 -19 -73 -31 -73 -14 0 18 57 59 65 47 12 -20 23 -9 27 25 2 19 0 35 -4 35
-15 0 -9 97 7 110 11 9 14 22 9 46 -4 22 -2 34 5 34 6 0 11 -18 11 -44z m120
17 c0 -10 14 -36 30 -57 39 -51 72 -140 64 -172 -7 -29 -34 -32 -41 -4 -6 24
-16 25 -37 5 -22 -22 -26 -19 -24 18 3 28 0 32 -19 29 -27 -4 -31 22 -8 52 11
15 12 23 3 33 -8 10 -8 17 0 25 7 7 12 29 12 50 0 21 5 38 10 38 6 0 10 -8 10
-17z m1070 -76 c20 -17 62 -48 94 -67 32 -19 72 -50 89 -67 36 -37 43 -39 68
-17 14 12 22 13 39 4 11 -6 30 -8 40 -5 12 4 20 2 20 -5 0 -7 -9 -14 -20 -17
-26 -7 -25 -16 2 -28 12 -6 23 -16 26 -22 15 -47 -111 1 -218 84 -36 27 -81
55 -100 62 -38 13 -110 77 -110 98 0 23 34 14 70 -20z m-1834 -186 c23 4 35
-4 59 -38 14 -21 25 -43 25 -50 0 -18 -28 -16 -46 2 -33 32 -45 11 -18 -30 12
-18 25 -25 48 -25 42 0 54 -10 57 -45 4 -53 0 -63 -33 -79 -30 -15 -32 -15
-50 4 -10 11 -22 20 -26 20 -4 0 -13 12 -20 28 -11 24 -11 28 8 41 21 14 27
41 10 41 -6 0 -24 10 -40 22 -36 26 -41 59 -9 55 27 -3 35 16 14 36 -20 20
-21 44 -1 28 8 -6 18 -11 22 -10z m237 -149 c12 -13 15 -28 11 -53 -4 -25 0
-50 16 -83 15 -33 19 -57 15 -79 l-6 -32 21 25 22 25 -6 -25 c-3 -14 -6 -40
-6 -57 0 -21 -5 -33 -14 -33 -7 0 -16 -9 -19 -20 -3 -11 -10 -20 -17 -20 -6 0
-8 6 -5 13 4 6 -2 3 -12 -8 -10 -12 -27 -19 -38 -17 -17 4 -18 3 -5 -14 14
-16 13 -17 -7 -12 -25 7 -36 -13 -33 -60 3 -47 0 -48 -19 -7 -12 24 -17 51
-14 67 5 24 9 27 30 22 l25 -7 -6 134 c-10 226 -11 221 14 241 28 22 33 22 53
0z m947 -330 c0 -15 2 -15 10 -2 9 13 11 13 19 1 10 -15 4 -41 -9 -41 -4 0
-10 -6 -13 -14 -6 -16 66 16 96 42 21 19 23 9 1 -13 -9 -8 -13 -23 -10 -31 5
-14 9 -14 23 -3 14 12 15 11 8 -11 -7 -23 -7 -24 10 -10 11 9 16 10 11 3 -4
-9 -1 -13 9 -13 10 0 15 -6 12 -13 -8 -20 51 -43 74 -28 23 14 29 14 29 0 0
-5 -3 -8 -8 -5 -4 2 -15 -1 -24 -8 -14 -10 -10 -12 24 -13 22 -1 38 1 35 4 -3
3 0 12 8 19 17 18 31 18 16 1 -8 -11 -5 -19 14 -35 14 -12 28 -22 30 -22 3 0
15 -9 27 -20 19 -17 19 -20 4 -20 -14 0 -15 -2 -4 -14 7 -8 15 -13 18 -12 3 2
13 -5 23 -16 18 -19 9 -26 -10 -7 -18 18 -38 5 -41 -25 -1 -16 2 -25 8 -21 6
3 10 1 10 -4 0 -6 -4 -11 -10 -11 -5 0 -8 -21 -6 -47 2 -27 2 -51 0 -55 -3 -4
-27 1 -55 12 -54 22 -73 25 -49 10 11 -7 11 -10 2 -10 -7 0 -10 -4 -7 -10 3
-6 -4 -10 -17 -10 -21 1 -21 2 -5 11 15 9 16 13 5 27 -8 10 -9 13 -1 9 6 -4
14 -3 18 3 3 5 18 10 33 10 15 0 23 4 17 8 -15 11 -14 39 1 39 7 0 11 -4 8 -9
-3 -4 1 -8 9 -8 23 0 15 -30 -10 -36 -29 -8 -22 -21 12 -21 22 0 25 4 26 36 0
20 2 49 3 64 1 16 -1 30 -5 33 -4 2 -3 18 1 36 10 33 5 52 -11 43 -5 -4 -9 -1
-9 5 0 6 -5 8 -12 4 -6 -4 -8 -3 -5 3 4 6 0 17 -9 24 -13 11 -14 9 -9 -17 6
-27 5 -28 -9 -10 -8 10 -20 15 -27 10 -8 -4 -10 -3 -5 5 9 13 -73 9 -96 -5 -7
-5 -29 -9 -48 -11 -28 -1 -38 3 -46 21 -9 18 -7 25 5 34 14 9 13 11 -9 20 -27
11 -44 6 -34 -9 3 -5 15 -7 27 -4 19 5 20 4 5 -5 -9 -6 -15 -17 -12 -25 11
-27 -5 -16 -21 15 -9 17 -13 35 -10 40 4 6 -1 7 -11 3 -14 -5 -16 -3 -11 13 7
18 6 18 -7 1 -8 -10 -17 -17 -21 -15 -5 2 -13 -5 -19 -15 -8 -13 -8 -20 2 -26
10 -6 5 -12 -20 -20 -26 -9 -30 -14 -18 -21 13 -8 13 -10 -2 -10 -11 0 -15 -5
-12 -15 4 -8 1 -15 -6 -15 -6 0 -8 5 -4 12 5 8 2 9 -9 5 -14 -5 -15 -3 -5 13
7 10 10 21 8 23 -10 9 -134 -8 -137 -19 -3 -9 13 -8 57 1 34 7 63 9 66 4 3 -5
-1 -10 -8 -11 -7 0 -24 -3 -38 -5 -14 -1 -47 -6 -75 -9 -27 -3 -52 -8 -55 -11
-3 -3 12 -4 32 -1 21 2 35 1 30 -3 -6 -6 -102 -18 -102 -12 0 19 18 33 43 33
30 0 30 1 14 17 -14 15 -21 15 -37 5 -31 -19 -45 -14 -25 8 10 11 15 23 12 26
-4 4 -9 0 -13 -9 -3 -9 -16 -23 -30 -31 -21 -15 -23 -15 -17 1 5 13 2 15 -15
11 -14 -4 -22 -2 -22 7 0 7 -8 23 -19 36 -44 57 -33 94 13 44 19 -21 25 -23
30 -10 3 8 10 15 16 15 16 0 12 -37 -5 -44 -22 -8 -18 -26 5 -26 13 0 22 9 26
28 4 15 12 33 18 41 8 11 8 13 -1 7 -9 -5 -11 -2 -7 9 4 8 1 22 -6 30 -12 14
-6 35 10 35 4 0 6 -9 3 -20 -3 -11 0 -20 6 -20 6 0 11 -9 11 -20 0 -11 5 -20
10 -20 6 0 10 7 10 15 0 8 5 15 10 15 6 0 10 -6 9 -12 -1 -24 -14 -43 -28 -43
-8 0 -16 -6 -18 -12 -6 -18 13 -16 42 3 22 14 26 14 49 -3 14 -10 26 -24 26
-30 0 -14 40 -18 40 -5 0 4 19 7 43 7 40 -2 43 0 44 24 1 14 -1 20 -4 14 -2
-7 -9 -13 -15 -13 -6 0 -3 9 7 20 10 11 22 17 28 13 6 -4 8 2 5 15 -4 12 -3
20 2 17 4 -3 10 2 14 10 3 8 1 15 -4 15 -11 0 -14 33 -3 43 3 4 15 -1 26 -10
19 -18 20 -17 13 10 -4 19 -3 26 4 22 5 -3 10 -14 10 -23z m-527 -193 c-14 -5
-14 -8 5 -27 12 -12 22 -28 22 -34 0 -8 3 -9 8 -3 4 6 16 15 27 21 28 15 48
-5 30 -29 -6 -9 -14 -14 -17 -11 -3 2 -8 -1 -11 -8 -6 -18 70 -22 93 -6 12 10
13 10 3 -1 -9 -10 -3 -25 25 -65 20 -28 27 -43 16 -34 -11 9 -31 21 -44 27
-20 8 -21 10 -6 10 18 1 18 2 1 21 -22 24 -45 26 -45 4 0 -8 3 -13 8 -11 4 3
7 -5 7 -18 0 -13 -2 -22 -5 -20 -4 2 -6 -12 -6 -30 0 -27 3 -32 13 -23 7 6 13
17 13 24 0 8 5 14 11 14 7 0 6 -9 -4 -24 -15 -22 -14 -25 34 -72 44 -43 52
-47 69 -36 11 7 20 8 20 3 0 -6 -4 -13 -10 -16 -5 -3 -10 -16 -10 -28 0 -12
-5 -29 -11 -37 -8 -11 -9 -6 -5 23 2 20 1 37 -3 37 -4 0 -29 22 -56 49 -27 27
-55 48 -64 46 -19 -2 -40 16 -34 31 2 7 0 15 -6 19 -16 9 -13 25 3 19 8 -3 17
-1 21 5 4 7 -1 8 -12 4 -10 -3 -15 -3 -11 2 4 4 3 14 -3 21 -7 8 -7 14 1 19 5
3 10 1 10 -5 0 -6 5 -8 11 -4 22 13 -8 26 -32 13 -22 -11 -23 -11 -10 4 9 12
10 17 2 17 -8 0 -9 5 -1 19 13 25 13 42 -1 19 -13 -24 -29 -23 -29 2 0 11 -5
20 -11 20 -7 0 -8 -7 -4 -17 15 -37 11 -48 -17 -46 -16 1 -28 -2 -28 -7 0 -6
5 -10 10 -10 6 0 10 -5 10 -10 0 -6 -11 -3 -25 6 -19 12 -28 14 -38 5 -8 -6
-17 -8 -21 -4 -4 4 -4 -1 0 -12 5 -16 4 -18 -6 -8 -7 6 -20 9 -29 6 -11 -4
-10 -1 4 10 11 9 28 17 39 17 14 0 16 3 7 13 -6 8 -8 17 -4 21 4 4 -1 4 -11 0
-15 -6 -17 -4 -11 16 5 17 4 21 -5 15 -9 -6 -11 -4 -6 4 6 9 12 9 25 -3 23
-21 48 -20 60 2 10 16 10 16 11 -2 0 -24 13 -13 17 15 2 16 -1 20 -12 15 -8
-3 -15 -4 -15 -2 0 3 -3 13 -6 23 -5 15 -4 15 5 3 9 -13 11 -11 11 7 0 19 3
20 25 10 20 -10 21 -13 8 -18z m-188 -457 c-4 -11 1 -13 21 -8 17 5 23 3 19
-4 -3 -5 0 -10 9 -10 8 0 17 5 19 10 3 6 4 5 3 -2 -2 -7 -14 -12 -27 -11 -13
1 -31 -1 -39 -3 -12 -4 -12 -6 0 -14 11 -7 8 -11 -13 -21 -34 -15 -35 -31 -2
-23 14 3 25 2 25 -3 0 -6 -14 -9 -30 -8 -17 1 -34 -3 -37 -8 -4 -6 17 -7 58
-3 69 8 105 26 52 26 -18 0 -34 4 -37 9 -9 13 26 23 38 11 5 -5 24 -11 41 -11
17 -1 22 -3 12 -6 -10 -2 -16 -12 -15 -20 2 -10 -6 -17 -21 -20 -30 -4 -41
-13 -18 -13 9 0 17 -5 17 -12 0 -6 9 -3 20 7 11 10 20 24 20 32 0 8 5 11 10 8
6 -3 10 1 10 9 0 9 5 16 11 16 5 0 7 -6 3 -12 -4 -7 7 3 25 22 17 19 31 31 30
25 -1 -5 0 -12 1 -15 7 -19 7 -39 -1 -34 -5 3 -9 13 -10 22 0 12 -4 9 -12 -8
-6 -14 -16 -28 -21 -32 -5 -3 -9 -20 -9 -37 0 -16 -4 -28 -9 -25 -4 3 -8 11
-8 18 0 27 -33 11 -75 -36 -42 -47 -65 -55 -65 -22 0 8 5 14 11 14 6 0 8 -7 5
-16 -6 -14 -4 -15 9 -4 11 9 12 15 5 20 -7 5 -6 11 4 19 10 9 15 9 18 0 2 -7
8 -6 16 4 10 12 8 15 -13 19 -14 3 -25 1 -26 -6 0 -6 -17 -24 -37 -41 -20 -16
-33 -24 -28 -18 5 9 0 12 -18 11 -20 -2 -25 -7 -20 -20 3 -10 1 -18 -4 -18
-14 0 -25 34 -13 38 22 7 10 33 -18 43 -26 9 -29 15 -26 41 5 37 11 44 27 30
10 -8 13 -4 14 14 2 20 -2 24 -18 18 -14 -4 -18 -2 -14 5 4 6 12 11 17 11 6 0
20 11 32 25 16 19 26 22 37 15 13 -8 12 -10 -3 -10 -18 0 -41 -44 -34 -64 7
-20 -13 -48 -27 -37 -9 7 -12 3 -13 -17 -1 -15 1 -21 4 -14 3 9 10 7 24 -9 16
-19 19 -19 19 -5 0 9 4 15 9 12 5 -3 14 1 21 9 11 13 8 14 -21 8 l-33 -6 21
29 c11 16 19 39 17 52 -2 12 1 22 6 22 6 0 10 -8 11 -17 0 -14 2 -15 6 -3 3 8
12 19 20 23 12 8 12 11 -1 26 -14 15 -13 17 5 17 13 0 18 -5 14 -14z"/>
</g>
</svg>
