<?xml version="1.0" standalone="no"?>
<!DOCTYPE svg PUBLIC "-//W3C//DTD SVG 20010904//EN"
 "http://www.w3.org/TR/2001/REC-SVG-20010904/DTD/svg10.dtd">
<svg version="1.0" xmlns="http://www.w3.org/2000/svg"
 width="696.000000pt" height="464.000000pt" viewBox="0 0 696.000000 464.000000"
 preserveAspectRatio="xMidYMid meet">
<metadata>
Created by potrace 1.15, written by Peter Selinger 2001-2017
</metadata>
<g transform="translate(0.000000,464.000000) scale(0.100000,-0.100000)"
fill="#000000" stroke="none">
<path d="M627 4619 c7 -25 -17 -56 -29 -37 -5 8 -7 2 -6 -17 2 -34 -7 -55 -25
-55 -7 0 -34 -23 -61 -51 -43 -44 -48 -52 -33 -60 11 -7 23 -6 35 0 16 10 16
10 -1 11 -33 0 -14 34 30 55 31 15 48 31 62 62 19 39 46 63 70 63 6 0 11 -4
11 -10 0 -5 -6 -10 -13 -10 -7 0 -13 -8 -14 -19 -2 -28 -32 -95 -40 -88 -3 4
-16 -5 -29 -18 -13 -14 -28 -25 -35 -25 -6 0 -9 -8 -6 -20 3 -11 1 -18 -4 -14
-5 3 -9 -1 -9 -9 0 -9 -26 -23 -65 -36 -37 -12 -77 -29 -91 -37 -13 -9 -27
-14 -30 -12 -13 14 14 41 70 68 49 24 56 30 34 30 -15 0 -48 -11 -73 -24 -44
-24 -47 -24 -75 -8 -17 9 -28 23 -25 30 2 6 0 12 -5 12 -22 0 -8 -30 20 -45
17 -9 30 -22 30 -30 0 -17 -34 -37 -45 -27 -5 4 -5 2 -2 -4 8 -14 -79 -78 -98
-71 -7 3 -16 -1 -19 -9 -3 -8 -15 -14 -26 -14 -11 0 -20 -4 -20 -10 0 -5 -5
-10 -11 -10 -6 0 -22 -9 -36 -20 -14 -11 -34 -20 -44 -20 -16 0 -19 -8 -19
-50 0 -40 3 -48 15 -44 8 4 15 1 15 -5 0 -7 10 -5 26 6 24 15 25 17 8 24 -14
6 -15 8 -3 8 21 1 69 24 69 34 0 4 4 7 9 7 4 0 6 -11 3 -25 -3 -19 -10 -25
-26 -23 -16 2 -20 -2 -18 -19 4 -26 -14 -39 -32 -24 -10 9 -15 8 -19 -3 -3 -7
-1 -18 3 -22 6 -6 -3 -18 -20 -29 -30 -20 -42 -65 -17 -65 7 0 18 -9 25 -20 7
-12 17 -18 21 -15 5 3 8 -2 7 -11 -4 -25 -46 -46 -46 -23 0 5 6 7 13 3 9 -6 9
-4 -1 7 -6 7 -12 21 -12 32 0 10 -5 15 -10 12 -6 -4 -7 -12 -1 -23 5 -9 6 -25
2 -36 -5 -12 -9 -78 -9 -147 -2 -108 1 -129 15 -140 11 -9 14 -10 10 -2 -5 7
1 21 13 33 25 25 29 25 27 0 -1 -11 -7 -20 -14 -20 -7 0 -13 -4 -13 -10 0 -5
4 -10 8 -10 5 0 9 -7 9 -16 0 -12 -8 -15 -29 -12 l-28 5 0 -367 0 -367 62 -11
63 -10 -62 5 -63 5 0 -115 c0 -123 3 -130 50 -117 14 3 115 5 225 3 110 -1
208 -3 218 -3 9 0 17 -4 17 -10 0 -5 -10 -10 -22 -10 -17 0 -19 -3 -9 -9 10
-7 10 -10 1 -13 -7 -2 3 -4 23 -4 24 0 32 3 24 9 -8 6 -7 7 5 3 10 -3 20 -1
23 5 4 5 1 8 -6 7 -6 -2 -14 3 -17 11 -4 11 4 13 39 6 24 -4 53 -7 64 -7 15 1
16 -1 6 -8 -8 -4 -20 -6 -28 -3 -7 3 -13 1 -13 -5 0 -5 15 -10 34 -10 28 0 33
3 29 17 -5 13 -3 14 8 4 19 -19 34 -16 18 4 -13 15 -11 16 11 10 14 -4 33 -7
43 -7 15 0 15 -3 5 -20 -7 -11 -17 -20 -22 -20 -4 0 -3 7 4 15 16 20 5 19 -27
-2 -24 -16 -24 -17 -7 -25 12 -5 1 -6 -26 -3 -37 5 -56 0 -104 -25 -50 -25
-55 -30 -32 -30 15 0 39 9 53 20 15 12 39 19 57 18 46 -2 52 -9 20 -23 -29
-12 -29 -12 19 -16 48 -4 62 3 30 16 -16 6 -16 8 6 26 15 12 31 17 46 13 13
-3 37 2 56 12 19 10 38 17 42 16 5 -1 6 2 2 8 -8 13 -35 13 -35 0 0 -5 -7 -7
-16 -3 -9 3 -20 0 -24 -7 -10 -16 -31 -4 -24 14 7 19 185 23 182 4 -2 -7 -7
-16 -13 -20 -6 -5 -5 -8 2 -8 7 0 18 9 25 20 15 24 41 26 58 5 8 -10 9 -15 2
-15 -6 0 -9 -6 -6 -14 4 -10 -2 -13 -23 -10 -19 2 -16 0 9 -7 21 -6 38 -15 38
-20 0 -5 9 -9 20 -9 11 0 20 -7 20 -15 0 -8 -5 -15 -11 -15 -6 0 -8 -7 -5 -16
5 -13 -1 -14 -37 -9 -38 6 -45 4 -70 -24 -26 -29 -56 -44 -41 -20 4 7 1 10 -6
7 -7 -2 -15 -14 -17 -26 -2 -20 2 -22 36 -22 22 0 43 -5 47 -12 5 -8 0 -9 -15
-5 -18 4 -20 3 -10 -9 9 -11 7 -14 -14 -14 -14 0 -29 5 -32 10 -3 6 -1 10 6
10 7 0 10 3 6 6 -3 3 -13 1 -23 -4 -16 -9 -16 -10 2 -20 29 -16 86 -17 112 -3
28 15 41 7 25 -17 -6 -10 -24 -17 -44 -18 -19 0 -38 -2 -44 -3 -5 -2 -21 -2
-35 -1 -18 1 -22 -1 -14 -9 16 -17 254 -2 254 16 0 7 5 13 10 13 20 0 9 21
-15 30 -14 5 -28 18 -32 27 -4 10 -11 22 -17 26 -7 6 -4 7 6 3 10 -3 20 -1 23
4 4 6 14 5 26 -3 13 -8 22 -9 27 -2 11 16 33 17 51 2 17 -16 47 -15 64 2 15
15 27 14 21 -3 -9 -22 22 -26 45 -5 12 11 21 24 21 28 0 22 -95 30 -103 9 -2
-7 -8 -9 -13 -5 -5 4 -2 12 5 16 9 6 10 11 2 15 -6 4 -11 16 -11 27 0 10 -7
19 -15 19 -8 0 -15 -4 -15 -10 0 -11 -30 -13 -55 -4 -13 6 -14 9 -3 16 10 7 9
8 -4 4 -10 -3 -18 -1 -18 4 0 6 -12 10 -27 9 -16 0 -41 3 -58 8 -25 8 -30 15
-32 41 l-1 33 59 -2 c41 -1 57 -5 50 -12 -8 -8 -6 -16 6 -29 21 -23 29 -23 29
1 0 11 -4 17 -8 15 -4 -3 -8 2 -8 10 0 9 8 14 20 13 13 -1 19 -6 15 -16 -4
-11 -3 -12 10 -1 21 17 135 14 147 -4 5 -8 8 -8 8 0 0 10 14 13 85 16 42 1
109 -12 116 -24 4 -6 15 0 27 13 20 21 29 22 149 21 81 -1 129 -6 134 -13 5
-8 8 -8 13 0 5 7 48 11 122 10 104 0 114 -2 102 -16 -11 -14 -10 -14 13 0 14
10 28 15 31 11 3 -3 23 -7 44 -10 21 -3 43 -9 48 -14 5 -5 18 -5 32 0 15 6 26
5 30 -1 4 -7 10 -6 19 1 8 6 40 11 72 11 32 0 63 5 69 10 8 7 14 6 18 0 4 -6
13 -8 20 -5 8 3 17 1 21 -5 3 -6 20 -11 37 -11 17 0 40 -7 50 -17 11 -9 18
-11 18 -5 0 8 19 12 51 12 31 0 48 -4 44 -10 -3 -5 -1 -10 4 -10 11 0 15 13
12 39 -2 7 2 10 8 6 6 -3 11 -15 11 -26 0 -11 7 -19 18 -20 9 0 46 -2 81 -5
46 -4 66 -2 73 8 7 10 11 9 19 -5 10 -17 12 -17 28 2 24 28 71 28 71 1 0 -13
7 -20 20 -20 18 0 19 3 10 20 -6 11 -7 20 -3 19 4 -1 52 -1 105 0 96 1 97 1
92 25 -2 13 -1 33 3 43 7 18 11 18 38 7 17 -7 24 -13 18 -14 -9 0 -10 -7 -3
-24 10 -28 -9 -62 -31 -54 -9 4 -15 -1 -15 -11 0 -12 11 -17 46 -18 36 -2 49
2 65 21 19 23 23 23 90 14 39 -5 126 -8 195 -6 l125 3 -2 -27 -2 -28 114 0
c98 0 115 -2 124 -17 9 -17 10 -17 16 -1 6 15 17 16 81 11 71 -5 74 -4 74 16
0 19 5 21 70 21 68 0 70 -1 70 -25 0 -23 3 -25 51 -25 31 0 48 -4 44 -10 -3
-6 4 -10 17 -10 18 0 20 2 8 10 -13 8 -12 10 3 10 11 0 17 8 17 22 l0 22 23
-22 c19 -20 20 -24 7 -33 -12 -8 -9 -9 10 -5 14 3 52 6 85 6 52 0 62 3 70 22
10 21 15 21 165 19 85 -2 175 -5 200 -6 25 -2 203 -6 395 -10 193 -4 388 -9
435 -11 47 -2 90 -4 95 -4 95 -3 310 11 315 21 4 6 13 8 19 5 16 -10 14 14 -9
86 -11 34 -20 66 -20 71 0 4 15 7 33 6 l32 -1 -27 -9 -26 -10 21 -60 c12 -32
27 -59 34 -59 30 0 66 27 93 72 16 26 33 48 36 48 4 0 1 -7 -6 -15 -6 -8 -14
-33 -16 -55 -2 -22 -9 -50 -15 -61 -15 -30 2 -44 38 -33 15 5 54 9 85 9 31 0
52 3 45 7 -14 9 -18 48 -5 48 5 0 6 -9 3 -20 -7 -23 10 -28 19 -5 8 22 26 18
26 -5 0 -17 2 -19 14 -8 7 7 12 18 9 24 -2 6 2 18 10 25 25 26 38 59 31 81 -6
20 -5 21 10 6 19 -20 21 -52 3 -70 -8 -7 -12 -18 -10 -25 2 -6 -1 -14 -6 -18
-24 -14 -8 -23 63 -34 66 -11 115 -9 169 6 16 4 17 31 17 388 l0 384 -22 4
-23 4 23 2 22 1 0 347 c0 307 -2 345 -15 327 -8 -10 -15 -26 -15 -34 0 -12 -3
-11 -11 3 -9 15 -6 23 15 42 26 24 26 26 26 168 0 90 -4 147 -11 154 -8 8 -8
13 0 17 7 5 11 74 11 206 l0 200 -580 0 c-542 -1 -580 -2 -581 -18 0 -10 -3
-12 -6 -5 -3 10 -10 10 -25 2 -18 -9 -20 -9 -15 4 5 14 -25 16 -278 17 -276 0
-284 0 -290 -20 -3 -11 -18 -34 -32 -50 -18 -22 -24 -39 -21 -60 3 -19 0 -31
-9 -35 -8 -2 -11 -9 -8 -15 3 -5 0 -10 -8 -10 -22 0 -29 -41 -10 -62 8 -10 20
-15 24 -12 5 3 9 0 9 -5 0 -6 6 -11 14 -11 8 0 17 -4 20 -9 3 -4 -5 -7 -19 -6
-17 2 -22 -1 -18 -11 3 -8 9 -12 13 -9 5 3 11 1 15 -5 3 -5 1 -10 -5 -10 -6 0
-8 -5 -5 -11 4 -6 13 -8 21 -5 8 3 14 -1 14 -10 0 -8 5 -12 10 -9 6 3 10 16
10 28 0 16 3 18 12 9 8 -8 8 -15 0 -25 -7 -8 -9 -16 -6 -20 3 -3 -4 -10 -15
-17 -12 -6 -19 -15 -16 -20 3 -4 -9 -12 -27 -15 -18 -4 -39 -11 -48 -15 -8 -4
-34 -15 -57 -24 -24 -9 -60 -23 -80 -31 -63 -24 -98 -36 -102 -35 -2 1 -8 -5
-13 -13 -5 -9 -17 -14 -30 -12 -12 3 -26 1 -32 -4 -6 -4 -56 -23 -111 -41 -55
-18 -109 -37 -120 -41 -11 -5 -49 -18 -85 -30 -36 -12 -82 -30 -103 -41 -21
-11 -44 -17 -50 -15 -7 2 -1 9 13 15 14 6 47 20 74 32 34 14 46 24 39 31 -11
11 -78 29 -176 49 -32 6 -56 14 -53 17 3 4 1 13 -6 20 -9 11 -9 16 1 22 7 4
13 24 14 45 1 24 6 35 15 31 6 -2 12 2 12 9 0 8 6 17 13 19 7 3 3 6 -8 8 -11
1 -24 3 -30 4 -5 2 -16 3 -23 4 -7 0 -11 5 -7 10 7 13 -43 51 -60 45 -7 -3
-16 -12 -19 -20 -3 -8 -12 -11 -22 -7 -9 3 -20 0 -25 -8 -7 -11 -9 -11 -9 4 0
9 5 17 11 17 6 0 8 9 4 20 -4 12 -2 26 3 33 5 7 8 35 7 62 -2 55 2 75 16 75 6
0 5 -9 -1 -20 -9 -16 -8 -20 5 -20 9 0 14 -4 11 -9 -3 -5 6 -8 19 -8 14 0 28
4 32 10 3 5 2 7 -4 4 -6 -4 -18 -1 -27 6 -14 10 -12 12 16 14 18 2 34 7 36 13
2 5 8 10 14 10 7 0 7 -4 1 -12 -6 -7 -10 -21 -10 -32 0 -15 2 -16 11 -4 16 21
45 11 39 -13 -5 -17 -1 -19 20 -17 36 5 46 18 19 25 -24 6 -27 19 -12 43 14
22 46 -1 42 -31 -2 -19 0 -21 8 -9 7 11 10 11 10 2 0 -7 4 -11 8 -8 16 9 82
-53 76 -72 -5 -16 -5 -15 6 1 6 9 20 17 30 17 11 0 20 5 20 11 0 6 -7 8 -16 5
-8 -3 -12 -2 -9 4 3 6 2 10 -4 10 -5 0 -12 -6 -15 -12 -3 -7 -3 -1 -1 14 3 27
-18 47 -30 28 -10 -16 -25 -12 -25 6 0 13 7 15 31 10 20 -4 38 -1 48 6 14 12
14 11 2 -4 -11 -15 -11 -18 0 -18 19 0 49 20 31 20 -7 0 -10 5 -7 10 11 18 32
11 39 -12 5 -18 8 -20 15 -9 6 9 11 10 15 2 4 -6 12 -11 17 -11 6 0 7 5 3 11
-3 6 -1 15 5 19 8 5 4 12 -14 24 -14 9 -23 22 -19 28 5 7 3 8 -7 2 -22 -13
-79 -12 -79 3 0 22 30 29 88 22 31 -4 66 -10 77 -13 11 -4 7 0 -10 8 -16 8
-49 15 -73 16 -29 0 -42 4 -40 12 2 6 10 14 18 16 7 3 10 0 6 -7 -4 -6 -2 -11
4 -11 6 0 15 10 21 23 8 19 16 22 45 19 23 -3 34 -10 35 -21 0 -12 2 -12 9 4
8 19 9 19 9 -2 1 -18 7 -23 29 -24 23 -2 24 -2 5 -6 -35 -7 -27 -19 11 -19 26
0 33 4 29 16 -4 13 -4 13 6 0 6 -8 11 -11 11 -6 0 5 7 3 15 -4 11 -9 12 -17 5
-30 -15 -27 -12 -32 9 -20 29 15 40 12 38 -9 -1 -12 -7 -17 -19 -13 -16 4 -17
1 -7 -27 6 -17 15 -31 21 -31 5 0 6 5 3 11 -4 6 1 18 11 28 15 14 24 16 42 8
12 -6 22 -14 22 -19 0 -4 7 -8 15 -8 16 0 16 25 2 60 -12 30 -12 55 1 53 18
-4 15 14 -8 37 -25 25 -25 40 0 40 11 0 20 -3 20 -7 0 -5 11 -13 25 -19 19 -9
27 -9 36 2 6 8 8 14 5 14 -4 0 0 7 8 16 29 29 19 39 -44 42 -64 3 -92 -4 -69
-19 18 -11 4 -23 -17 -15 -9 3 -14 13 -10 21 4 12 -26 14 -221 13 l-227 -1 26
-22 c14 -12 29 -32 33 -44 3 -12 10 -19 15 -16 4 3 11 -2 14 -11 9 -24 -27
-49 -63 -45 -7 2 -10 -2 -7 -7 3 -6 -1 -13 -10 -16 -23 -9 -26 -8 -18 7 5 8 2
7 -9 -2 -15 -12 -19 -12 -30 3 -12 16 -14 16 -26 2 -17 -20 -27 -20 -35 0 -3
8 -2 12 4 9 6 -3 10 -1 10 4 0 6 -6 11 -12 12 -45 3 -61 7 -68 19 -4 7 -19 13
-34 13 -29 0 -30 1 -16 28 6 11 21 19 35 19 13 0 26 4 30 10 3 5 11 8 18 6 7
-1 8 -1 4 2 -4 2 -3 10 4 18 10 12 1 14 -51 14 -54 0 -61 -2 -50 -15 10 -12 4
-22 -32 -60 -39 -41 -48 -45 -100 -49 -32 -3 -60 0 -64 5 -3 5 -9 7 -13 4 -7
-4 -7 20 -1 50 6 27 -2 43 -25 47 -14 3 -25 1 -25 -3 0 -5 5 -9 10 -9 6 0 10
-4 10 -10 0 -21 -19 -9 -28 18 -6 15 -11 21 -11 15 -1 -9 -8 -10 -25 -4 -21 9
-23 7 -22 -20 1 -33 1 -33 27 -19 21 12 26 1 7 -18 -19 -19 -48 4 -48 38 l0
30 -686 -1 c-640 0 -685 -1 -679 -17 4 -9 8 -23 8 -30 0 -7 7 -10 15 -7 12 4
12 3 3 -9 -7 -8 -21 -12 -34 -8 -12 3 -16 7 -10 9 14 5 2 55 -14 60 -6 2 -13
-4 -16 -14 -4 -16 -5 -17 -6 -1 -1 15 -11 18 -73 17 -40 -1 -79 -6 -87 -13
-12 -8 -13 -8 -7 2 5 8 0 12 -13 12 -12 0 -21 -4 -21 -10 0 -5 5 -10 11 -10 5
0 7 -5 3 -12 -5 -8 -13 -5 -25 10 -16 20 -26 22 -134 22 -67 0 -114 -4 -111
-9 3 -5 15 -7 26 -4 13 3 20 0 20 -8 0 -11 2 -11 10 1 7 11 10 11 10 2 0 -7 5
-10 10 -7 6 3 10 1 10 -4 0 -6 -7 -11 -15 -11 -8 0 -15 -7 -15 -15 0 -12 5
-13 27 -4 15 6 30 15 33 20 4 5 20 13 38 18 25 8 30 6 25 -5 -3 -8 1 -14 11
-14 9 0 16 -5 16 -11 0 -8 -12 -10 -36 -6 -25 4 -34 3 -31 -6 3 -7 10 -11 16
-10 6 2 11 -2 11 -7 0 -6 -15 -8 -37 -5 -21 3 -53 7 -71 9 -17 1 -35 6 -39 9
-7 7 -33 -11 -33 -22 0 -4 14 -6 30 -3 19 3 30 0 30 -7 0 -7 5 -9 10 -6 6 3
10 2 10 -4 0 -7 8 -7 26 -1 48 19 59 9 14 -13 -24 -11 -52 -29 -62 -39 -26
-26 -45 -22 -20 5 15 16 18 27 12 37 -8 13 -10 12 -10 -3 0 -11 -6 -17 -17
-15 -11 2 -19 -5 -21 -17 -5 -27 -22 -44 -22 -21 0 10 -4 14 -12 10 -6 -4 -8
-3 -5 3 9 14 -18 35 -40 31 -9 -2 -20 -13 -23 -25 -4 -17 -9 -20 -20 -13 -13
9 -13 11 0 21 13 9 12 10 -3 5 -10 -3 -20 -6 -22 -6 -2 0 2 -11 8 -25 9 -20
17 -24 35 -20 12 3 22 1 22 -5 0 -5 -5 -10 -11 -10 -5 0 -7 -5 -3 -12 5 -8 2
-9 -11 -5 -21 9 -46 -9 -39 -28 3 -7 -4 -23 -16 -35 -29 -29 -38 -18 -10 12
l21 23 -28 6 c-15 4 -20 7 -10 8 24 1 42 21 42 45 0 27 -55 42 -71 21 -10 -14
-12 -14 -18 2 -6 13 -9 14 -15 4 -5 -7 -12 -13 -17 -13 -5 0 -8 -5 -6 -10 2
-6 -4 -8 -13 -5 -8 4 -16 1 -16 -6 -2 -24 3 -52 12 -63 16 -19 -3 -24 -33 -8
-17 9 -27 11 -24 6 3 -6 1 -12 -6 -15 -7 -2 -2 -2 12 0 14 3 22 1 18 -3 -4 -4
-3 -13 4 -21 6 -7 8 -17 4 -20 -4 -4 -11 -1 -15 6 -10 16 -45 1 -55 -24 -3 -8
-12 -15 -21 -15 -8 0 -15 -4 -15 -9 0 -15 53 -8 68 9 12 13 13 12 9 -8 -3 -12
-1 -20 4 -16 15 9 10 -13 -6 -26 -8 -7 -15 -17 -15 -23 0 -6 12 0 27 14 14 13
23 19 19 12 -4 -8 7 -16 34 -23 22 -6 38 -15 35 -20 -8 -13 -35 -13 -35 0 0
10 -42 8 -70 -2 -8 -4 -22 -9 -30 -12 -8 -3 10 -3 40 0 47 4 51 3 30 -7 -14
-6 -38 -14 -54 -18 -49 -11 -57 -91 -9 -91 10 0 11 -4 3 -19 -18 -34 -12 -41
23 -29 36 12 64 38 76 70 l8 22 5 -22 c4 -12 2 -20 -3 -16 -5 3 -9 -2 -9 -11
0 -21 -19 -39 -45 -43 -11 -2 -22 -6 -24 -8 -11 -10 -6 -50 8 -65 8 -10 16
-28 18 -39 3 -21 2 -21 -25 -5 -23 14 -27 23 -24 46 3 19 0 29 -8 29 -8 0 -11
-9 -8 -24 l5 -23 -54 23 c-68 31 -69 22 0 -10 55 -27 119 -76 98 -76 -19 0 -2
-20 17 -21 9 0 33 -21 52 -47 28 -38 35 -59 40 -109 3 -35 3 -63 -1 -63 -15 0
-137 101 -154 126 -21 34 -85 96 -85 83 0 -5 18 -26 40 -46 23 -20 39 -41 38
-47 -4 -12 68 -86 76 -79 7 8 77 -68 71 -78 -4 -5 1 -9 9 -9 9 0 16 -5 16 -11
0 -5 -4 -8 -9 -5 -5 3 -8 -6 -8 -19 0 -16 5 -25 14 -25 13 0 13 -2 2 -17 -10
-12 -10 -14 -1 -9 7 4 15 1 18 -8 3 -9 10 -13 15 -10 5 3 9 -2 9 -10 0 -21
-10 -20 -26 2 -11 14 -15 15 -23 3 -19 -29 11 -62 35 -38 12 11 21 8 28 -9 3
-8 2 -13 -3 -10 -5 3 -12 -1 -15 -10 -3 -9 -11 -12 -18 -8 -8 5 -9 2 -5 -9 13
-35 -3 -15 -22 26 -11 23 -23 41 -27 39 -4 -2 -11 5 -15 16 -5 14 -3 22 7 26
8 3 14 13 13 23 0 11 -3 13 -6 5 -2 -6 -9 -10 -14 -6 -5 3 -12 -1 -15 -10 -3
-8 -14 -13 -25 -11 -16 3 -19 0 -14 -15 3 -10 1 -21 -5 -25 -5 -3 -10 0 -11 7
0 7 -1 29 -2 48 -1 19 -6 36 -12 37 -5 1 -12 10 -16 19 -5 15 -7 13 -11 -8 -3
-15 -1 -25 3 -22 5 3 9 4 10 2 9 -40 6 -96 -5 -112 -18 -23 -36 -13 -36 20 0
21 -2 23 -14 12 -9 -8 -11 -17 -5 -22 16 -17 10 -29 -8 -15 -17 13 -17 13 0
-7 9 -11 17 -26 17 -32 0 -7 9 -12 20 -12 11 0 20 7 20 15 0 8 5 16 10 16 6 1
16 2 23 3 6 0 12 6 12 11 0 6 5 18 11 28 10 17 13 16 43 -12 37 -34 59 -91 35
-91 -7 0 -16 11 -20 24 l-6 24 -23 -24 c-13 -13 -29 -24 -36 -24 -6 0 -9 -7
-5 -15 7 -19 2 -19 -35 0 -38 20 -53 11 -33 -21 9 -13 12 -24 8 -24 -5 0 -2
-5 6 -10 8 -5 10 -10 4 -10 -7 0 -9 -11 -6 -25 2 -14 7 -23 10 -20 10 10 10
49 0 69 -7 13 -7 17 2 14 6 -2 11 -7 11 -11 0 -3 4 -21 9 -38 5 -17 5 -38 1
-47 -26 -52 -33 -71 -27 -80 3 -5 -1 -15 -9 -22 -12 -10 -15 -9 -15 8 0 15 -5
20 -15 16 -8 -4 -12 -10 -9 -15 3 -5 -2 -6 -11 -3 -9 4 -14 13 -11 20 4 11 -1
11 -25 -2 -23 -11 -29 -12 -24 -2 17 29 38 46 50 42 7 -3 16 0 21 7 4 8 3 10
-4 5 -8 -5 -10 -2 -6 8 7 19 0 20 -27 6 -11 -6 -19 -7 -19 -1 0 5 -10 7 -22 3
l-22 -5 22 -10 c12 -6 22 -14 22 -19 0 -11 -17 -10 -25 1 -3 6 -14 9 -25 8
-10 -1 -16 -5 -14 -9 3 -5 10 -6 15 -3 5 4 9 1 9 -6 0 -7 -9 -9 -22 -6 -14 4
-26 0 -34 -11 -12 -15 -13 -15 -14 -1 0 20 38 61 51 54 5 -4 9 -2 9 4 0 5 3
16 6 25 3 9 1 16 -5 16 -6 0 -11 -7 -11 -15 0 -9 -9 -15 -25 -15 -18 0 -23 4
-19 18 2 9 -1 7 -7 -5 -7 -13 -17 -23 -22 -23 -6 0 -2 -7 9 -15 10 -8 14 -15
7 -15 -7 0 -10 -7 -7 -15 4 -8 2 -15 -2 -16 -5 0 -17 -2 -26 -4 -11 -2 -18 3
-18 13 0 8 -3 12 -6 9 -9 -9 -44 11 -44 25 0 6 6 6 16 -3 13 -10 17 -10 24 1
6 9 4 17 -3 22 -9 6 -8 8 3 8 11 1 10 4 -4 15 -27 21 -54 19 -68 -4 -9 -15
-15 -17 -25 -9 -10 8 -13 6 -13 -7 0 -13 6 -16 25 -11 24 6 37 -8 14 -16 -8
-3 -6 -10 5 -20 22 -22 20 -27 -6 -20 -16 4 -20 2 -16 -9 4 -10 -1 -15 -13
-15 -11 0 -19 4 -19 8 0 4 -7 8 -15 8 -8 0 -15 -7 -15 -15 0 -8 9 -15 20 -15
11 0 20 -5 20 -10 0 -6 -12 -8 -27 -5 -26 5 -26 5 -5 -4 12 -6 22 -12 22 -14
0 -7 -45 -2 -51 7 -4 4 -9 4 -13 -2 -3 -6 8 -15 24 -21 17 -5 30 -12 30 -15 0
-3 -7 -3 -15 0 -8 4 -15 1 -15 -6 0 -18 -29 -42 -43 -37 -9 4 -9 6 1 6 17 1
15 21 -3 21 -19 0 -20 35 -2 52 15 13 11 48 -5 48 -6 0 -8 -7 -4 -15 7 -18
-40 -21 -64 -4 -13 9 -13 10 2 6 9 -3 19 1 22 9 3 9 10 12 16 9 18 -11 36 9
35 40 0 23 5 31 22 33 12 2 21 9 19 15 -1 7 -1 9 1 5 7 -13 43 -9 44 5 0 6 2
22 3 35 2 12 -1 22 -6 22 -5 0 -6 6 -2 13 5 9 4 9 -6 0 -9 -8 -27 -7 -75 6
-37 11 -69 14 -77 10 -9 -6 -9 -9 -1 -9 6 0 24 -5 40 -12 15 -6 30 -12 33 -12
3 -1 11 -5 18 -9 19 -13 14 -26 -8 -20 -11 3 -20 1 -20 -4 0 -14 -41 -13 -63
2 -10 7 -26 11 -33 8 -8 -3 -14 0 -14 7 0 6 4 9 9 6 12 -8 19 13 13 41 -3 15
-11 23 -24 23 -15 0 -19 5 -15 20 4 16 2 18 -12 10 -11 -6 -22 -5 -29 0 -9 7
-9 7 -2 -2 19 -23 10 -28 -20 -13 -34 18 -38 30 -12 44 9 6 12 11 5 11 -6 0
-15 -4 -18 -10 -10 -16 -19 -12 -32 15 -9 21 -9 25 5 26 14 0 12 3 -5 16 -30
20 -29 54 2 83 21 20 28 22 50 12 15 -7 25 -8 25 -2 0 6 -4 10 -10 10 -5 0
-10 5 -10 10 0 6 9 10 19 10 25 0 33 12 19 30 -8 12 -9 12 -4 -2 3 -10 1 -18
-4 -18 -6 0 -10 5 -10 11 0 5 -4 8 -9 4 -15 -9 -24 16 -11 28 10 9 11 9 5 -2
-5 -9 -4 -12 2 -8 14 9 23 57 11 57 -5 0 -6 5 -3 10 12 20 -12 9 -35 -15 -29
-30 -44 -32 -37 -4 4 15 2 19 -9 15 -12 -4 -12 -2 -4 14 9 16 8 18 -6 13 -13
-5 -15 -3 -10 8 4 8 -1 4 -11 -8 -25 -29 -78 -40 -87 -18 -3 9 -3 21 0 27 4 6
-2 8 -16 3 -16 -5 -21 -4 -18 6 3 8 13 14 24 14 14 0 18 -6 17 -22 -2 -13 1
-23 6 -23 5 0 8 13 7 30 -1 17 4 32 11 35 12 4 12 7 1 19 -7 8 -17 13 -23 13
-5 -1 -9 4 -7 11 2 9 -4 11 -18 7 -11 -4 -20 -2 -20 4 0 12 0 12 50 16 19 2
27 1 17 -2 -24 -6 -16 -27 11 -31 30 -5 40 25 16 43 -13 9 -24 10 -36 4 -10
-5 -19 -7 -19 -4 -1 3 -3 10 -4 15 -1 6 -3 12 -4 15 0 3 -16 -9 -33 -27 -30
-30 -33 -31 -36 -13 -7 34 -22 47 -39 33 -12 -10 -11 -13 6 -22 11 -6 21 -15
23 -21 2 -5 11 -9 22 -7 13 1 16 -2 12 -14 -3 -8 -6 -18 -6 -20 0 -3 -9 0 -21
6 -11 7 -23 9 -26 6 -4 -3 -13 3 -20 14 -13 18 -16 19 -29 5 -9 -8 -23 -15
-32 -15 -12 0 -13 -3 -4 -12 20 -20 13 -27 -19 -18 -23 7 -31 6 -36 -6 -6 -17
-25 -19 -22 -1 3 25 -1 38 -11 32 -6 -4 -17 -1 -25 5 -8 7 -15 9 -15 5 0 -4
-6 -2 -14 4 -11 9 -20 10 -35 1 -12 -6 -21 -7 -21 -1 0 5 -9 7 -20 4 -14 -4
-23 2 -30 19 -7 13 -27 33 -46 43 -19 10 -34 21 -34 25 0 3 15 14 34 23 33 15
36 15 58 -3 15 -13 18 -19 9 -20 -18 0 27 -40 45 -40 7 0 18 -8 24 -17 9 -15
10 -12 8 16 -2 23 2 36 11 39 10 3 12 -1 9 -16 -4 -12 0 -26 8 -33 8 -6 14
-18 14 -25 0 -8 5 -14 10 -14 6 0 10 5 10 11 0 7 11 9 30 6 17 -4 30 -2 30 3
0 6 -4 10 -9 10 -5 0 -12 7 -15 16 -3 9 -2 12 5 9 5 -4 17 -1 26 7 14 11 15
10 8 -12 -7 -24 -7 -24 8 -5 9 11 19 16 23 12 5 -4 3 -12 -4 -16 -10 -6 -10
-11 3 -21 12 -10 15 -10 15 4 0 20 25 48 34 39 3 -4 6 -2 6 4 0 19 -25 34 -37
22 -8 -8 -16 -3 -29 16 -17 25 -17 28 -1 37 10 5 16 18 14 31 -2 12 -2 17 0
11 2 -7 13 -10 24 -7 19 5 19 5 3 -30 -10 -20 -21 -34 -26 -31 -4 3 -5 -2 -1
-12 5 -15 7 -15 15 0 5 9 13 14 19 11 5 -4 9 3 9 14 0 13 7 21 16 21 13 0 14
3 5 13 -8 10 -7 17 2 27 8 8 8 11 0 6 -15 -8 -45 3 -37 15 3 5 0 9 -5 9 -6 0
-11 7 -11 15 0 13 -4 14 -21 4 -12 -6 -34 -8 -50 -5 -23 4 -27 3 -22 -12 3 -9
10 -23 16 -29 7 -9 5 -13 -7 -13 -9 0 -16 6 -16 13 0 8 -4 7 -11 -3 -8 -12 -9
-10 -4 8 4 13 2 22 -4 22 -12 0 -15 36 -3 43 4 3 16 1 26 -3 24 -8 57 17 49
36 -7 18 -28 18 -43 -1 -9 -11 -16 -12 -25 -5 -9 8 -15 8 -20 0 -3 -5 -3 -10
1 -10 4 0 -1 -7 -12 -15 -11 -8 -14 -15 -6 -15 19 0 14 -17 -7 -23 -20 -5 -49
20 -70 61 -16 29 0 28 34 -4 28 -26 28 -26 20 -2 -4 13 -8 33 -9 46 -1 26 -16
30 -16 4 0 -13 -7 -18 -22 -18 -17 1 -24 -5 -26 -21 -4 -25 -30 -30 -62 -13
-13 7 -21 7 -25 0 -3 -5 -11 -10 -17 -10 -6 0 -3 9 8 21 14 16 26 19 51 14 26
-5 32 -3 27 9 -3 8 -12 17 -20 20 -27 10 -15 28 16 24 24 -4 30 -1 30 14 0 15
5 17 28 12 37 -9 42 -13 42 -29 0 -9 6 -12 15 -9 8 4 23 3 33 -1 9 -5 27 -9
40 -10 12 -1 28 -10 36 -20 12 -17 13 -17 19 0 5 12 1 18 -12 22 -13 3 -18 10
-14 21 5 11 3 13 -8 6 -21 -13 -47 -15 -54 -4 -3 6 3 10 14 10 20 0 20 1 4 18
-22 23 -33 19 -33 -11 0 -21 -1 -21 -24 6 -15 18 -29 25 -40 21 -9 -3 -16 -1
-16 5 0 6 14 11 30 11 22 0 30 5 30 18 0 14 8 18 33 18 17 0 35 -5 39 -11 7
-9 13 16 9 38 -2 11 27 9 34 -3 3 -5 11 -10 18 -10 6 0 2 7 -9 15 -10 8 -14
15 -8 15 6 0 24 10 38 21 22 17 25 24 14 31 -9 6 -6 7 9 3 22 -6 41 9 23 20
-17 11 17 62 50 73 16 6 30 15 30 21 0 5 10 13 21 16 16 5 18 9 9 15 -22 14 5
84 43 114 30 24 31 26 9 26 -13 0 -21 -4 -18 -9 3 -5 -1 -11 -9 -15 -8 -3 -15
-1 -15 3 0 5 -10 7 -22 3 -17 -4 -20 -2 -15 11 3 8 0 18 -7 20 -10 4 -12 -1
-9 -14z m4678 -744 c-16 -7 -34 -11 -38 -8 -4 3 -13 0 -20 -5 -7 -5 -49 -20
-94 -32 -74 -20 -105 -38 -70 -41 6 -1 -4 -5 -23 -10 -19 -5 -47 -6 -61 -3
-16 3 -157 -33 -375 -96 -346 -99 -448 -122 -354 -79 25 11 72 27 105 34 33 7
83 22 110 33 28 11 82 29 120 40 39 11 102 30 140 41 39 12 78 21 88 21 9 0
25 5 35 10 20 12 233 70 277 76 17 2 41 8 55 13 30 12 65 18 105 19 l30 0 -30
-13z m1481 -87 c-3 -18 -3 -27 0 -20 10 21 21 13 16 -13 -2 -14 -9 -22 -15
-18 -6 4 -8 0 -4 -10 3 -9 1 -20 -5 -23 -8 -5 -6 -9 5 -13 11 -4 14 -10 7 -21
-12 -19 -22 -7 -22 25 0 23 -2 24 -14 8 -16 -21 -18 -47 -4 -38 6 3 10 2 10
-4 0 -5 -5 -11 -10 -13 -13 -4 -20 -97 -8 -104 4 -3 8 6 8 19 0 17 5 24 17 23
10 0 19 8 21 19 4 16 2 17 -11 7 -10 -9 -17 -10 -22 -2 -3 5 1 10 9 10 9 0 16
8 16 18 1 16 1 16 11 -1 6 -11 9 -31 6 -45 -3 -14 -1 -37 4 -50 6 -15 5 -21
-1 -17 -6 3 -10 -1 -10 -11 0 -13 -3 -14 -14 -5 -19 16 -29 -1 -20 -34 4 -16
2 -25 -6 -25 -7 0 -10 -8 -7 -19 3 -12 -3 -27 -14 -37 -10 -9 -19 -12 -19 -6
0 6 5 14 10 17 6 3 10 11 10 17 0 7 -6 6 -15 -2 -13 -11 -15 -8 -15 14 0 15 4
25 9 22 4 -3 7 6 5 19 -1 15 4 29 14 35 10 5 12 10 6 10 -16 0 -24 46 -11 59
8 8 6 11 -5 11 -14 0 -14 4 -2 40 21 61 33 121 23 114 -5 -3 -9 -1 -9 5 0 5 6
14 14 18 7 4 18 18 25 31 17 31 24 27 17 -10z m-4901 -101 c0 -7 8 -11 18 -9
21 4 23 -24 2 -32 -22 -8 -18 -25 4 -19 20 5 41 -29 21 -35 -7 -3 -8 -8 -1
-16 6 -7 6 -17 0 -26 -8 -13 -10 -13 -19 0 -8 13 -10 12 -10 -3 0 -10 7 -20
15 -23 8 -4 13 -9 11 -13 -2 -3 3 -13 12 -21 14 -13 15 -12 8 5 -12 33 -12 40
4 40 10 0 14 -8 12 -24 -1 -14 3 -28 10 -33 10 -6 10 -8 0 -8 -10 0 -10 -4 0
-20 7 -11 21 -19 30 -18 9 2 17 0 18 -4 2 -36 -1 -48 -11 -42 -12 7 -31 -15
-23 -28 3 -4 11 -8 17 -8 7 0 6 4 -3 10 -8 5 -10 10 -4 10 14 0 40 -30 28 -31
-37 -3 -71 -12 -81 -21 -10 -8 -13 -7 -13 3 -1 9 -9 4 -21 -11 l-20 -24 22 -8
c25 -9 49 6 49 31 0 14 2 14 10 1 5 -8 6 -16 1 -18 -4 -1 -6 -14 -3 -27 3 -19
0 -25 -12 -25 -10 0 -15 4 -11 9 3 6 -7 8 -22 7 -16 -2 -34 1 -41 7 -9 7 -11
6 -6 -8 5 -13 4 -16 -4 -11 -7 4 -12 15 -12 25 0 28 41 121 51 115 5 -3 6 3 2
12 -4 12 -3 15 5 10 7 -4 12 -17 12 -29 1 -20 2 -20 11 -4 8 13 6 21 -5 33
-10 10 -14 24 -10 39 7 28 -12 68 -28 59 -6 -4 -8 -3 -5 3 15 24 -24 21 -39
-2 -16 -25 -44 -34 -44 -15 0 5 7 7 15 4 8 -4 15 -1 15 5 0 6 -7 11 -15 11 -8
0 -16 3 -16 8 -1 4 -3 16 -4 27 -2 11 -7 31 -13 45 -8 20 -4 32 22 67 37 50
71 64 71 30z m3435 -7 c0 -16 -4 -30 -10 -30 -5 0 -10 -7 -10 -15 0 -8 -17
-18 -42 -25 -24 -6 -73 -20 -110 -32 -54 -18 -65 -25 -56 -36 9 -10 9 -15 -1
-21 -10 -7 -10 -9 1 -13 9 -4 14 -26 16 -69 2 -69 3 -72 23 -64 21 8 40 53 25
59 -7 3 -5 10 7 19 9 8 17 22 17 31 0 9 7 16 15 16 9 0 15 -6 14 -12 -1 -7 -1
-32 0 -56 1 -40 3 -43 23 -36 30 9 47 33 48 67 0 20 5 27 20 27 16 0 20 -7 20
-35 0 -31 3 -35 25 -35 13 0 33 10 44 21 15 16 27 20 46 15 34 -9 65 -36 65
-58 0 -9 6 -21 14 -25 7 -4 16 -17 20 -29 8 -25 -20 -40 -95 -50 -38 -5 -53
-3 -60 7 -5 9 -9 9 -9 2 0 -17 -42 -3 -63 21 -15 18 -16 18 -11 2 6 -16 3 -17
-25 -11 -17 4 -70 12 -116 19 -84 13 -85 12 -85 -8 0 -21 -54 -66 -79 -66 -9
0 -11 -8 -7 -24 6 -23 3 -25 -51 -31 -101 -12 -116 -14 -236 -30 -65 -8 -124
-12 -130 -9 -7 4 -8 3 -4 -2 5 -5 43 -13 85 -19 l76 -10 2 -50 c3 -77 -2 -86
-42 -81 -18 3 -36 1 -39 -4 -8 -13 6 -40 19 -34 6 3 3 -1 -7 -9 -11 -9 -17
-25 -15 -37 l3 -22 28 22 c15 12 31 19 35 15 4 -4 1 -10 -5 -12 -25 -9 -12
-21 30 -28 l42 -7 -30 -14 c-16 -8 -50 -13 -74 -12 -31 2 -47 -3 -56 -15 -15
-21 -31 -22 -39 -1 -11 28 -6 49 13 61 10 6 22 26 26 45 4 18 9 39 10 46 2 6
-3 12 -10 12 -18 0 -24 21 -13 43 7 13 4 19 -14 26 -13 5 -26 7 -30 5 -4 -3
-15 7 -24 21 -15 23 -63 38 -49 15 3 -5 0 -10 -8 -10 -8 0 -18 7 -21 16 -3 8
-10 13 -15 10 -4 -3 -18 2 -29 12 -17 15 -18 19 -6 28 8 5 16 22 18 37 2 16 8
32 13 35 6 4 13 18 14 32 4 23 1 25 -32 22 -33 -3 -39 0 -53 29 -9 18 -14 34
-11 37 2 3 7 -3 11 -12 3 -9 10 -13 15 -10 5 3 7 9 5 13 -3 4 1 8 9 8 8 0 15
-6 15 -13 0 -14 44 -27 48 -14 6 16 22 12 22 -5 0 -8 -6 -15 -12 -16 -10 0
-10 -2 0 -6 6 -2 12 -16 12 -29 0 -22 4 -25 28 -22 22 2 28 8 30 36 2 17 7 32
13 32 7 0 14 -44 11 -71 -1 -4 7 -5 18 -2 11 3 18 9 15 13 -3 4 2 13 10 20 8
7 15 25 15 40 0 24 6 30 47 44 63 22 63 22 63 -24 0 -33 3 -40 19 -40 20 0 28
15 37 67 3 15 7 30 10 35 9 15 25 -3 23 -25 -3 -46 2 -67 15 -67 15 0 46 52
46 77 0 7 7 13 15 13 10 0 15 -11 15 -35 0 -27 4 -35 18 -35 22 0 44 35 53 85
6 35 7 31 8 -27 1 -43 -3 -68 -10 -68 -6 0 -3 -7 6 -16 15 -16 18 -16 33 0 10
10 12 16 4 16 -15 0 -17 141 -1 157 8 8 6 19 -5 41 -9 18 -14 45 -12 64 3 18
5 36 5 39 1 4 17 10 37 13 19 4 42 10 50 13 10 4 14 -3 14 -26 0 -17 2 -31 4
-31 1 0 17 5 34 11 22 8 32 18 34 37 4 35 28 41 28 7 0 -25 2 -26 33 -20 45
10 47 12 47 46 0 19 5 29 15 29 10 0 15 -10 15 -30z m-334 -125 c-5 -19 -16
-23 -93 -35 -48 -7 -101 -18 -117 -25 -17 -7 -40 -15 -50 -19 -15 -5 -17 -9
-8 -18 7 -7 12 -21 12 -33 0 -17 -11 -25 -52 -38 -57 -18 -76 -13 -40 10 26
18 28 32 7 59 -10 14 -17 16 -22 7 -5 -6 -47 -19 -93 -28 -47 -9 -97 -19 -112
-22 -19 -3 -28 -1 -28 7 0 7 -6 10 -14 7 -8 -3 -17 -3 -21 1 -4 4 -12 7 -17 7
-6 0 -13 6 -15 13 -6 17 12 15 57 -8 25 -13 40 -16 40 -9 0 6 9 9 19 6 16 -4
20 1 23 26 3 35 28 50 28 17 0 -30 42 -24 50 8 7 30 24 33 28 5 2 -13 7 -23
12 -23 24 0 40 15 40 36 0 26 19 39 73 49 33 7 37 5 37 -14 0 -36 54 -25 61
13 5 27 29 33 29 7 0 -13 6 -21 18 -21 26 0 40 12 47 43 9 34 25 35 25 2 0
-18 5 -25 19 -25 37 0 51 12 52 44 l2 31 4 -29 c3 -15 2 -38 -1 -51z m1481
-22 c-3 -21 -13 -74 -21 -117 -9 -44 -13 -97 -10 -117 4 -26 1 -44 -9 -60 -10
-13 -14 -35 -12 -53 4 -28 4 -29 -4 -6 l-9 25 -1 -25 c-1 -19 -3 -22 -11 -10
-7 12 -12 12 -29 -4 -17 -16 -21 -31 -21 -88 0 -74 1 -74 -65 -57 -59 15 -72
33 -77 101 -3 62 1 68 52 68 21 0 38 11 64 42 20 23 36 44 37 47 0 3 1 42 2
86 2 87 19 135 64 180 38 38 56 33 50 -12z m-2787 -183 c0 -5 7 -7 15 -4 8 4
15 1 15 -5 0 -6 -6 -11 -14 -11 -14 0 -20 -19 -30 -95 -4 -37 -3 -35 11 13 9
28 20 52 24 52 5 0 19 -10 31 -22 20 -20 21 -23 6 -26 -28 -5 -44 -176 -17
-193 19 -12 67 -11 71 1 2 6 25 2 58 -10 52 -19 56 -19 68 -3 6 9 12 22 12 27
0 14 -20 44 -20 31 -1 -19 -20 20 -20 41 0 12 -19 42 -42 68 -24 26 -43 51
-44 54 -3 24 -21 46 -45 56 -24 10 -8 12 94 9 67 -2 145 -8 172 -13 28 -5 79
-12 115 -15 36 -3 89 -11 119 -17 41 -7 55 -7 61 2 4 7 13 9 20 5 9 -6 9 -10
-1 -17 -10 -7 -6 -8 14 -5 15 2 27 0 27 -4 0 -5 5 -8 11 -7 6 2 14 -3 17 -11
4 -11 -2 -13 -29 -7 -92 20 -227 36 -341 42 -104 6 -128 5 -128 -6 0 -23 84
-240 93 -240 5 0 6 4 2 9 -7 13 10 22 28 15 9 -3 13 -12 10 -19 -4 -11 10 -15
59 -17 l63 -3 3 -37 c2 -25 8 -38 18 -38 8 0 14 -10 14 -25 0 -14 -3 -24 -7
-24 -5 1 -24 0 -43 -1 l-35 -2 35 -13 c19 -7 45 -14 57 -14 25 -1 25 -21 -1
-47 -20 -19 -34 -22 -127 -23 -50 -1 -57 -4 -68 -27 -11 -25 -12 -25 -36 -10
-71 47 -135 -17 -138 -138 l-2 -61 -100 -5 c-69 -3 -104 -1 -112 7 -7 6 -13
32 -13 57 0 34 -4 46 -15 46 -10 0 -15 10 -15 30 l0 30 -100 0 -99 0 6 -30 c7
-39 -13 -40 -22 -1 -5 22 -14 31 -35 36 -43 9 -67 -2 -79 -35 -5 -17 -12 -30
-15 -30 -3 0 -1 12 4 26 6 14 10 27 10 30 0 2 -20 4 -45 4 -37 0 -45 -3 -45
-19 0 -10 -7 -22 -16 -25 -14 -5 -15 5 -9 95 5 79 4 104 -7 110 -10 7 -10 9 0
9 6 0 12 6 12 14 0 17 -32 15 -38 -2 -2 -8 -12 -5 -29 8 -14 11 -34 20 -45 20
-11 0 -18 5 -15 13 3 8 22 12 55 11 42 -1 50 1 45 15 -4 13 -3 13 5 2 7 -9 19
-11 37 -7 15 4 25 10 21 13 -3 3 -1 12 5 19 5 7 11 37 12 67 2 47 4 54 17 44
24 -19 29 -30 21 -45 -11 -20 -1 -62 14 -62 8 0 16 -10 18 -22 4 -20 4 -19 6
5 0 15 6 27 11 27 13 0 13 -50 0 -70 -5 -8 -10 -10 -10 -4 0 15 -46 6 -61 -12
-7 -8 -9 -18 -5 -22 22 -21 404 7 390 29 -3 5 0 9 5 9 13 0 15 47 2 54 -5 3
-12 -1 -15 -10 -3 -8 -10 -12 -16 -9 -5 3 -10 1 -10 -6 0 -7 -3 -10 -6 -7 -3
4 3 19 13 34 28 44 42 90 68 224 14 69 25 126 25 128 0 7 20 0 20 -8z m1494
-49 c63 -42 88 -158 47 -224 -19 -31 -26 -35 -57 -32 -41 4 -118 63 -146 113
-10 18 -17 32 -15 33 1 0 13 2 26 3 30 4 51 31 51 67 0 15 3 34 6 43 8 22 53
20 88 -3z m-2891 -148 c-16 -6 -5 -33 13 -33 9 0 14 -12 14 -37 0 -26 3 -34 9
-24 7 11 10 9 14 -10 3 -17 5 -12 6 14 0 23 -3 36 -9 32 -5 -3 -10 -1 -10 4 0
14 21 14 55 1 14 -5 23 -15 20 -20 -3 -6 1 -17 9 -26 9 -9 14 -20 11 -25 -4
-5 2 -6 11 -2 14 5 16 3 11 -11 -4 -10 -7 -22 -7 -28 0 -6 -12 -8 -27 -5 -31
6 -55 -1 -47 -14 3 -5 0 -9 -5 -9 -6 0 -12 10 -12 23 -1 18 -2 18 -6 4 -3 -11
-11 -16 -19 -13 -8 3 -14 0 -14 -5 0 -7 -9 -9 -21 -6 -15 4 -23 0 -26 -14 -10
-37 -25 -18 -21 28 2 32 -1 48 -9 48 -6 0 -14 3 -18 6 -9 10 22 79 35 79 6 0
9 4 6 8 -7 12 34 56 43 46 3 -4 1 -9 -6 -11z m4282 -303 c8 0 15 -9 15 -19 0
-15 -9 -20 -42 -24 -61 -7 -297 -2 -333 7 -35 9 -45 16 -22 16 10 0 17 5 17
10 0 6 5 10 10 10 6 0 10 -7 10 -16 0 -12 7 -14 28 -10 15 4 66 8 114 10 94 4
108 9 107 34 0 14 -2 13 -9 -3 -8 -19 -9 -19 -9 2 -1 12 -4 28 -7 37 -3 9 -1
16 4 16 6 0 12 -8 14 -17 2 -10 2 44 0 120 -3 112 -2 136 9 132 11 -4 13 -36
10 -160 -3 -152 -3 -155 18 -155 20 0 21 5 23 128 l2 127 6 -125 6 -125 2 143
c1 93 -1 141 -8 137 -5 -3 -10 1 -10 10 0 9 5 13 10 10 6 -3 11 2 12 12 1 10
4 -55 5 -144 3 -136 6 -163 18 -163z m-935 285 c11 -29 10 -29 160 -10 63 7
135 16 160 19 l45 6 -50 -16 c-27 -8 -63 -16 -80 -17 -16 0 -33 -5 -36 -9 -3
-4 -44 -16 -92 -26 -88 -18 -135 -40 -62 -29 22 4 65 9 95 13 30 3 60 11 67
16 7 5 17 7 22 4 5 -4 12 -2 15 3 7 11 115 38 160 40 10 1 16 6 13 14 -3 8 3
14 15 14 17 2 19 -2 12 -25 -4 -15 -12 -61 -19 -102 -10 -62 -13 -70 -19 -48
-4 15 -5 32 -1 37 3 6 1 11 -5 11 -6 0 -14 -8 -17 -17 -4 -10 -15 -24 -25 -31
-22 -16 -23 -32 -3 -32 8 0 15 5 15 10 0 6 5 10 10 10 16 0 11 -27 -6 -34 -9
-3 -32 -6 -52 -7 -29 0 -33 -2 -17 -8 11 -5 23 -7 28 -4 4 2 7 -6 8 -19 1 -23
1 -23 9 2 7 23 8 23 9 3 1 -13 -10 -30 -29 -43 -22 -16 -28 -17 -24 -6 7 18
-21 23 -31 6 -3 -5 0 -10 7 -10 10 0 10 -2 -1 -9 -11 -7 -7 -10 15 -13 16 -2
-16 -7 -71 -11 -144 -11 -374 -37 -415 -46 -34 -9 -34 -9 14 -10 80 -2 49 -8
-69 -15 -82 -4 -113 -9 -121 -21 -10 -14 -13 -13 -25 2 -9 11 -10 14 -1 9 21
-13 13 12 -10 28 -12 9 -18 19 -14 23 4 4 10 3 14 -2 4 -6 15 -11 25 -11 14
-2 17 7 17 52 0 30 5 54 10 54 6 0 10 -25 10 -55 0 -30 5 -55 10 -55 6 0 10
20 10 45 0 57 18 59 22 3 2 -32 7 -42 18 -39 8 2 20 4 27 4 8 0 11 42 12 140
2 137 6 162 26 162 6 1 43 4 84 9 58 7 75 5 82 -5 7 -12 9 -11 9 1 0 13 1 13
10 0 8 -13 10 -12 11 5 1 11 0 30 -1 43 -2 29 8 28 20 -3z m-724 -230 c-9 -13
-16 -33 -16 -43 0 -10 -11 -24 -25 -30 -20 -9 -25 -19 -25 -46 0 -19 5 -38 10
-41 6 -3 10 0 10 7 0 10 2 10 8 0 7 -10 15 -9 41 4 18 9 34 14 35 13 12 -15
-11 -84 -39 -116 -28 -33 -34 -36 -49 -24 -9 7 -16 20 -16 27 0 8 -7 14 -16
14 -13 0 -15 11 -14 58 3 74 3 74 -18 63 -17 -9 -18 -6 -14 47 5 65 8 70 24
54 20 -20 42 -12 73 27 23 30 32 35 38 24 5 -9 3 -23 -7 -38z m1822 -270 c-1
-19 -4 -32 -7 -30 -2 3 -15 -5 -28 -17 -18 -17 -21 -24 -11 -37 10 -13 10 -14
-2 -4 -9 8 -19 9 -32 2 -10 -6 -18 -6 -18 0 0 18 -34 22 -47 5 -15 -21 -17
-38 -3 -29 6 4 7 -1 3 -11 -6 -15 -8 -15 -24 5 l-18 22 -20 -23 -21 -22 0 23
c0 12 4 20 9 16 5 -3 12 -1 16 5 3 5 15 10 26 10 16 0 19 7 19 46 0 27 4 43
10 39 6 -3 10 -2 10 2 0 12 58 30 103 32 37 1 38 0 35 -34z"/>
<path d="M1874 2436 c3 -13 9 -31 12 -40 4 -11 -9 -22 -53 -42 -32 -14 -52
-29 -45 -31 8 -3 25 0 38 7 19 11 26 11 39 0 14 -11 16 -11 13 1 -4 20 42 18
72 -4 l25 -18 -24 3 c-16 2 -24 -3 -26 -14 -2 -10 3 -18 10 -18 7 0 21 -3 31
-7 11 -4 15 -3 11 4 -4 7 8 12 33 15 22 2 40 0 40 -4 0 -5 7 -8 16 -8 8 0 12
-5 9 -11 -4 -6 -1 -10 6 -8 8 1 27 1 42 0 31 -1 28 -21 -4 -21 -10 0 -19 -7
-19 -15 0 -8 -7 -15 -16 -15 -9 0 -14 -6 -11 -12 4 -15 45 -11 65 5 10 8 10
12 1 18 -20 12 25 20 67 12 65 -14 149 -10 166 7 14 14 14 18 -3 39 -14 17
-22 21 -32 13 -13 -11 -42 -11 -53 1 -4 4 -13 2 -19 -3 -7 -6 -20 -8 -28 -4
-15 5 -15 9 0 37 16 32 16 32 -5 14 -26 -24 -105 -29 -134 -9 -11 8 -34 17
-51 18 -33 4 -82 32 -73 41 9 9 -67 73 -88 73 -14 0 -17 -5 -12 -24z"/>
<path d="M1586 2414 c-9 -8 -16 -11 -16 -5 0 6 -7 11 -15 11 -8 0 -15 -6 -15
-14 0 -8 -10 -17 -22 -19 -21 -4 -21 -4 3 -6 14 0 34 -8 45 -16 19 -14 19 -14
-3 -15 -31 0 -53 -10 -53 -24 0 -13 75 -13 193 0 l69 7 -28 24 c-15 12 -35 23
-45 23 -10 0 -21 5 -24 10 -3 6 3 10 14 10 12 0 21 5 21 11 0 7 -7 8 -17 4
-10 -4 -26 -10 -36 -13 -15 -4 -16 -7 -5 -14 10 -8 10 -9 -2 -6 -8 3 -19 14
-25 26 -12 26 -18 27 -39 6z"/>
<path d="M2428 2396 c-11 -8 -15 -20 -11 -34 5 -19 1 -22 -28 -22 -27 0 -31
-3 -19 -11 12 -9 11 -10 -8 -6 -12 3 -20 2 -17 -3 3 -4 16 -10 30 -12 18 -4
25 -1 25 11 1 14 2 14 11 -1 5 -10 19 -18 29 -18 23 0 24 4 10 31 -9 16 -7 19
11 19 14 0 19 -5 16 -14 -4 -10 5 -16 30 -21 20 -3 51 -15 70 -25 l34 -18 -22
-16 c-20 -14 -24 -13 -47 5 -14 10 -27 17 -29 15 -9 -9 42 -67 57 -64 22 5 82
100 68 109 -6 4 -7 12 -4 18 4 6 1 11 -8 11 -10 0 -13 -7 -11 -21 3 -17 2 -19
-10 -9 -8 7 -21 10 -29 7 -17 -7 -76 13 -76 25 0 4 5 8 10 8 6 0 10 7 10 16 0
11 -5 14 -16 10 -9 -3 -18 -6 -20 -6 -3 0 -2 -4 1 -10 3 -5 -1 -10 -9 -10 -9
0 -16 8 -16 19 0 26 -11 32 -32 17z"/>
<path d="M2824 2376 c-3 -14 -11 -26 -18 -27 -6 0 -2 -4 9 -8 12 -5 23 -4 27
3 5 7 8 5 8 -6 0 -9 9 -20 20 -23 23 -7 25 -18 6 -34 -10 -8 -22 -7 -49 4 -23
9 -38 11 -42 5 -4 -7 -13 -6 -27 1 -16 9 -19 18 -15 45 3 18 1 36 -4 39 -5 4
-9 -3 -9 -15 0 -12 -4 -19 -8 -16 -12 7 -52 -22 -52 -38 0 -15 27 -29 40 -21
16 10 20 -13 6 -28 -8 -8 -12 -17 -9 -21 11 -11 -7 -6 -38 9 -28 15 -30 15
-54 -12 -13 -15 -25 -32 -25 -36 0 -5 -4 -6 -9 -3 -5 4 -20 1 -33 -4 -22 -10
-22 -10 5 -5 15 3 27 1 27 -5 0 -5 10 -10 21 -10 19 0 21 -4 15 -37 -6 -36 -6
-37 9 -18 9 11 14 28 11 38 -4 15 4 17 59 17 36 0 65 -5 67 -11 2 -5 24 -13
48 -16 l45 -7 -54 -16 c-66 -19 -84 -45 -25 -37 22 3 54 9 73 13 28 5 37 2 57
-19 20 -22 22 -30 14 -52 -13 -33 7 -42 46 -22 l27 14 -36 36 c-41 39 -45 52
-21 65 27 15 8 52 -26 52 -16 0 -30 4 -32 10 -1 5 -29 11 -61 11 -40 1 -65 7
-80 20 l-22 18 23 1 c12 0 31 9 42 20 11 11 32 20 48 20 l27 -1 -35 -20 -35
-20 30 7 c17 3 51 5 78 5 37 -1 47 2 47 15 0 11 -5 14 -17 10 -15 -6 -15 -4 2
14 10 11 26 20 36 20 10 0 21 5 25 12 5 8 2 9 -10 5 -20 -8 -32 15 -19 36 6
11 14 12 33 5 20 -7 22 -11 10 -18 -12 -8 -10 -10 8 -10 25 0 29 21 8 39 -8 7
-41 14 -73 16 -32 1 -70 6 -85 10 -24 6 -28 3 -34 -19z"/>
<path d="M5509 2371 c7 -11 17 -21 24 -21 8 0 7 -3 -2 -9 -12 -8 -12 -12 2
-25 8 -9 23 -16 32 -16 11 0 15 -5 11 -16 -3 -8 -2 -12 4 -9 6 3 10 2 10 -3 0
-18 -13 -21 -39 -9 -31 15 -106 16 -106 2 0 -5 11 -10 25 -10 14 0 35 -6 48
-13 14 -8 22 -9 22 -2 0 8 6 8 20 0 24 -13 26 -30 3 -30 -9 0 -13 -3 -9 -7 12
-12 256 -10 256 2 -1 28 -14 56 -25 51 -8 -3 -11 2 -8 15 4 13 0 19 -12 19
-11 0 -15 -5 -11 -15 4 -11 -2 -15 -22 -14 -17 1 -20 3 -9 6 9 2 17 9 17 14 0
8 -25 13 -72 13 -9 0 -15 3 -12 8 3 4 -3 11 -13 15 -23 8 -53 33 -53 45 0 14
20 9 38 -9 16 -16 17 -15 20 1 5 26 -1 28 -79 34 -70 4 -71 4 -60 -17z"/>
<path d="M6464 2354 c-4 -14 -3 -29 2 -33 5 -5 70 -11 145 -15 l136 -6 -2 27
c-1 16 -3 30 -3 33 -1 3 -58 5 -127 4 -69 0 -125 4 -125 8 0 19 -20 6 -26 -18z"/>
<path d="M6197 2296 c-31 -29 -73 -38 -113 -24 -25 9 -41 7 -85 -10 -31 -11
-67 -18 -82 -15 -14 3 -34 2 -44 -1 -15 -6 -15 -8 -3 -16 8 -6 20 -10 25 -10
6 0 3 5 -5 10 -12 8 -9 10 14 10 21 0 27 -4 22 -15 -3 -8 2 -22 11 -31 14 -13
14 -17 2 -24 -7 -5 -10 -12 -6 -17 5 -4 12 -1 16 6 5 7 17 11 27 8 11 -3 42
-8 69 -11 38 -5 46 -3 32 4 -9 6 -22 8 -27 5 -6 -3 -10 -1 -10 4 0 6 8 11 18
11 10 0 22 3 26 7 7 7 26 10 94 15 26 1 42 7 42 15 0 7 7 13 15 13 8 0 15 3
15 8 0 4 -18 6 -40 6 -48 -2 -51 8 -10 33 17 9 30 23 30 30 0 18 -3 17 -33
-11z"/>
<path d="M4675 2280 c-4 -8 2 -20 11 -27 24 -18 11 -27 -23 -17 -15 4 -35 8
-43 9 -8 0 -14 8 -14 18 1 11 -5 17 -18 17 -10 0 -16 -5 -13 -10 3 -6 -1 -13
-9 -16 -9 -3 -13 -10 -10 -15 3 -5 -10 -9 -30 -9 -19 0 -36 -6 -39 -12 -3 -9
-9 -7 -20 7 -12 15 -18 17 -27 8 -9 -8 -9 -18 2 -40 15 -31 63 -43 95 -23 14
8 12 9 -12 3 -27 -6 -29 -5 -16 10 7 10 19 17 26 17 8 0 16 6 18 13 4 9 6 9 6
-1 1 -10 6 -10 21 -2 29 16 85 9 85 -10 0 -8 -7 -15 -15 -16 -34 -2 -40 -5
-40 -15 0 -6 7 -9 15 -5 8 3 15 2 15 -2 0 -12 52 -32 82 -32 l28 0 -20 -20
c-11 -11 -24 -20 -30 -20 -14 0 -13 -15 3 -28 14 -12 67 -4 67 9 0 5 5 9 11 9
5 0 7 -5 3 -11 -5 -9 1 -10 20 -5 49 12 24 -22 -28 -38 -17 -6 -17 -7 4 -24
22 -18 23 -18 46 3 13 12 24 27 24 34 0 6 11 11 25 11 25 0 33 -14 15 -25 -6
-4 -8 -11 -4 -16 3 -5 17 -1 33 10 15 11 40 23 55 27 18 4 24 9 16 14 -21 13
50 40 105 40 29 0 66 -7 84 -16 17 -9 38 -13 46 -10 27 10 15 -8 -18 -29 -24
-16 -32 -28 -32 -50 0 -27 4 -31 43 -39 23 -6 42 -15 42 -20 -1 -25 -21 -40
-54 -40 -20 0 -38 -6 -41 -13 -3 -11 -9 -11 -25 -3 -16 9 -20 8 -20 -5 0 -28
1 -30 14 -27 7 1 19 -5 26 -13 9 -11 32 -15 81 -15 61 0 69 2 69 19 0 11 6 22
13 25 8 3 7 8 -5 16 -11 7 -18 23 -18 43 0 18 -5 38 -11 44 -8 8 -8 17 1 33 9
17 9 25 -4 39 -24 26 -20 29 28 24 26 -3 46 -1 50 6 4 7 -1 11 -13 11 -11 0
-23 5 -27 11 -3 6 -17 9 -29 7 -15 -3 -22 -1 -19 7 3 8 -5 10 -27 7 -29 -4
-32 -3 -26 18 7 26 -15 49 -47 50 -18 0 -18 -1 -2 -19 28 -31 12 -42 -36 -25
-52 18 -132 18 -147 0 -9 -11 -7 -15 11 -19 39 -11 14 -16 -27 -7 -42 10 -155
-5 -155 -21 0 -5 -7 -6 -15 -3 -8 4 -15 15 -15 25 0 16 7 19 41 19 l42 0 -37
25 c-20 14 -47 25 -59 26 -21 0 -21 1 -2 9 14 6 16 9 5 10 -8 2 -18 2 -22 1
-5 0 -18 9 -30 21 -12 12 -15 19 -6 16 8 -4 15 0 15 8 0 7 -7 16 -15 19 -10 4
-11 9 -4 18 8 9 4 12 -14 12 -13 0 -26 -7 -29 -15z"/>
<path d="M3303 2230 c-13 -5 -23 -16 -23 -24 0 -10 -6 -13 -17 -10 -11 4 -14
2 -8 -3 18 -15 35 -52 26 -57 -5 -3 -22 1 -37 9 -16 8 -48 15 -71 15 -24 0
-43 5 -43 10 0 6 -13 10 -29 10 -16 0 -31 5 -33 11 -2 7 -8 6 -16 -3 -9 -11
-9 -18 1 -31 9 -13 34 -18 102 -22 49 -3 91 -8 93 -10 8 -7 -48 -25 -87 -28
-61 -5 -107 -27 -118 -58 -9 -22 -8 -31 3 -40 8 -6 14 -17 14 -25 0 -7 8 -18
18 -24 16 -10 16 -10 0 -20 -22 -13 -23 -30 -3 -30 8 0 15 -4 15 -10 0 -5 -7
-10 -15 -10 -21 0 -19 -33 4 -47 17 -11 21 -8 36 25 10 20 27 45 39 54 20 17
21 18 1 18 -27 1 -60 26 -45 35 6 4 8 15 5 26 -6 17 -1 19 34 19 l41 0 -32 29
c-18 16 -29 33 -25 38 5 4 47 7 94 6 80 -3 84 -2 78 17 -6 18 -2 19 39 18 41
-2 44 -4 31 -18 -13 -14 -8 -17 45 -28 33 -7 60 -16 60 -21 0 -13 -80 -72 -90
-66 -5 3 -23 -1 -39 -10 -17 -8 -43 -15 -59 -15 -15 0 -37 -7 -48 -15 -10 -8
-27 -15 -37 -15 -10 0 -16 -4 -12 -9 3 -5 1 -12 -5 -16 -23 -14 -7 -25 40 -25
45 0 52 3 60 25 12 31 27 32 56 4 22 -21 24 -21 49 -5 33 22 56 9 25 -14 -18
-13 -20 -21 -12 -36 6 -10 13 -27 16 -36 4 -15 10 -16 36 -7 38 14 48 29 26
41 -9 5 -16 18 -16 28 0 11 -4 20 -10 20 -5 0 -10 6 -10 14 0 8 -16 20 -35 27
-19 7 -35 17 -35 21 0 11 42 10 59 -1 10 -6 27 -4 50 5 20 9 53 18 73 20 l38
5 -7 -33 c-3 -18 -13 -38 -22 -45 -14 -11 -14 -12 4 -12 11 0 29 6 39 14 26
20 66 19 66 0 0 -12 7 -15 33 -10 17 3 63 10 101 15 78 12 113 27 98 42 -11
11 -128 15 -157 5 -28 -10 -46 5 -49 42 -2 25 1 30 13 25 62 -27 260 -49 278
-31 15 16 -32 36 -69 30 -38 -6 -48 3 -26 25 8 8 1 11 -31 9 -39 -1 -42 -3
-36 -25 5 -21 -1 -18 -47 22 -29 25 -60 46 -69 46 -19 0 -42 24 -32 33 3 4 -3
7 -15 7 -12 0 -22 5 -22 10 0 6 -5 10 -11 10 -7 0 -17 7 -24 16 -9 13 -16 14
-31 6 -10 -6 -14 -12 -9 -13 6 -1 -10 -5 -35 -8 -58 -8 -122 -2 -114 11 3 5
-17 8 -50 7 -65 -3 -80 5 -43 22 45 21 17 38 -30 19z"/>
<path d="M246 2215 c-3 -9 -2 -13 4 -10 16 10 12 -28 -6 -53 -11 -16 -25 -22
-54 -22 -21 0 -42 -4 -45 -10 -3 -5 -20 -10 -36 -10 -18 0 -28 -4 -24 -10 3
-5 18 -10 33 -10 25 0 25 -1 6 -15 -18 -14 -18 -14 6 -15 15 0 30 4 35 9 6 6
31 6 64 -1 40 -7 67 -6 100 3 24 7 66 13 93 13 28 1 50 6 53 14 2 6 14 12 25
12 11 0 20 5 20 12 0 6 7 20 17 30 15 17 13 18 -55 18 -57 0 -72 3 -72 15 0 9
10 15 28 16 15 1 -2 5 -38 10 -36 4 -84 11 -106 14 -33 5 -43 2 -48 -10z"/>
<path d="M1828 2186 c-10 -10 -18 -22 -18 -28 0 -5 -13 -22 -30 -38 -27 -25
-28 -30 -18 -57 10 -26 8 -33 -8 -51 -11 -12 -37 -27 -59 -34 -21 -7 -40 -19
-43 -25 -6 -19 59 -16 86 3 12 8 28 14 35 11 7 -2 -3 -13 -22 -25 -24 -14 -29
-21 -17 -24 13 -2 10 -9 -14 -33 -48 -49 -58 -55 -92 -55 -18 0 -57 -9 -85
-20 -53 -20 -103 -15 -103 10 0 22 2 25 17 22 9 -2 13 2 11 10 -3 8 -24 14
-52 16 -31 2 -46 7 -43 15 2 7 18 11 39 9 47 -4 54 10 17 32 -19 11 -37 15
-52 10 -21 -8 -20 -8 8 -15 l30 -7 -32 -1 c-18 0 -36 -8 -41 -16 -5 -9 -15
-13 -24 -10 -18 7 -32 50 -23 66 4 5 -1 12 -9 15 -9 3 -13 10 -10 16 3 5 13 6
23 3 9 -4 34 -9 55 -11 35 -5 38 -4 26 11 -12 14 -11 16 13 10 51 -13 50 7 -3
36 -29 16 -56 26 -61 23 -14 -8 -102 25 -126 48 -17 16 -35 21 -70 20 -34 0
-54 5 -68 18 -11 10 -39 21 -63 24 -37 4 -44 2 -51 -17 -10 -26 -9 -43 2 -39
4 1 22 -5 40 -15 l32 -17 -55 -8 c-30 -4 -77 -14 -105 -20 l-50 -13 70 -5 c64
-5 70 -7 67 -26 -3 -23 27 -34 97 -34 50 0 81 -10 81 -25 0 -7 16 -15 38 -18
85 -12 97 -19 98 -59 1 -30 -3 -38 -20 -40 -14 -2 -20 -9 -18 -20 2 -14 -4
-18 -26 -18 -16 0 -32 -3 -35 -7 -11 -10 75 -55 95 -50 26 7 23 -20 -3 -28
-32 -10 -86 3 -146 37 -30 17 -56 28 -59 25 -3 -3 6 -25 20 -50 25 -42 33 -77
20 -89 -3 -4 -19 -2 -37 3 -36 10 -45 5 -31 -19 7 -10 29 -19 55 -22 41 -5 44
-7 44 -34 0 -24 -6 -31 -35 -42 -19 -7 -52 -13 -72 -13 -20 -1 -60 -6 -88 -12
-39 -8 -54 -17 -65 -38 -7 -15 -21 -33 -29 -40 -24 -20 -19 -31 12 -31 16 0
37 -6 47 -14 18 -13 18 -14 -3 -25 -12 -6 -22 -21 -22 -32 0 -25 -27 -36 -52
-20 -22 14 -39 6 -32 -14 7 -18 61 -30 77 -17 22 18 101 28 180 24 20 -2 27
-7 27 -22 0 -27 29 -40 114 -49 71 -8 105 -20 136 -47 20 -17 103 -35 113 -25
5 5 -6 11 -23 14 -23 5 -35 15 -45 42 -20 46 -19 54 8 64 20 8 23 15 19 45 -3
29 1 40 26 63 38 35 54 111 28 132 -9 8 -16 26 -16 42 0 26 4 29 30 29 45 0
85 24 104 63 8 19 31 46 50 61 30 22 39 25 63 15 25 -9 31 -7 55 22 l27 32 83
-6 c78 -5 120 -18 208 -66 22 -12 14 -24 -27 -39 -46 -15 -51 -21 -33 -32 38
-24 115 -5 154 39 23 26 33 27 38 4 2 -11 13 -18 28 -18 14 0 25 -6 25 -13 0
-7 6 -16 13 -21 11 -6 11 -10 0 -18 -15 -12 -62 -29 -101 -37 -37 -9 -24 -26
19 -26 20 0 42 -6 49 -13 8 -8 46 -16 87 -20 76 -5 197 -39 166 -45 -26 -5
-22 -21 8 -34 18 -8 31 -9 42 -2 28 18 24 31 -22 58 -74 43 -106 75 -106 105
0 37 -5 40 -45 31 -25 -6 -38 -4 -46 6 -9 11 -8 14 5 14 9 0 16 4 16 9 0 5 12
11 27 13 l28 3 -29 26 c-28 26 -28 27 -8 38 11 6 33 11 47 11 30 0 73 22 121
60 68 54 80 62 101 70 30 12 26 64 -5 68 -24 4 -112 -41 -138 -70 -16 -16 -19
-17 -34 -3 -13 12 -23 13 -44 5 -30 -11 -48 -5 -102 37 -17 12 -36 23 -42 23
-7 0 -12 5 -12 11 0 7 11 9 31 5 26 -5 30 -3 24 13 -6 21 -2 25 38 35 20 5 27
3 27 -8 0 -25 21 -29 41 -7 18 20 22 20 54 6 19 -7 35 -10 35 -6 0 5 -24 19
-54 32 -55 23 -64 39 -23 39 46 0 48 14 6 60 -22 25 -44 44 -49 43 -14 -4 -61
-4 -105 0 -44 4 -89 -16 -60 -26 8 -4 15 -10 14 -14 -4 -24 3 -33 24 -29 13 2
21 10 21 20 -1 9 5 16 13 16 9 0 13 6 10 14 -4 10 -1 13 9 9 8 -3 13 -11 11
-18 -3 -6 9 -20 26 -30 l30 -18 -41 -20 c-23 -10 -42 -24 -42 -29 0 -5 -9 -6
-20 -3 -12 4 -20 2 -20 -5 0 -7 -6 -8 -19 0 -11 5 -35 10 -53 11 -29 0 -31 2
-13 10 22 11 50 48 42 55 -2 3 -15 -4 -28 -15 -21 -16 -25 -17 -34 -4 -15 20
-86 9 -117 -18 l-23 -18 25 -1 c14 0 36 -9 50 -20 24 -19 24 -20 4 -20 -12 0
-39 -6 -60 -14 -57 -19 -171 -2 -180 28 -4 12 -15 33 -25 48 -11 14 -19 29
-19 32 0 12 88 6 93 -6 3 -10 9 -10 25 -1 18 11 20 10 16 -2 -5 -12 2 -15 29
-15 46 0 57 16 17 25 -43 9 -45 22 -6 35 36 11 101 5 123 -12 8 -6 24 -5 47 3
28 10 33 16 26 29 -7 13 -20 16 -69 12 -44 -3 -61 -1 -61 8 0 14 -35 10 -94
-13 -36 -13 -41 -13 -57 2 -9 9 -18 25 -20 35 -4 19 -5 19 -21 2z"/>
<path d="M4441 2133 c-17 -7 -29 -17 -27 -22 3 -5 -1 -11 -9 -15 -8 -3 -17 -2
-19 3 -7 10 -148 4 -206 -10 -25 -5 -52 -16 -60 -23 -8 -7 -23 -16 -33 -19
-28 -10 -15 -29 29 -43 45 -14 45 -14 -21 -21 -27 -2 -57 -9 -67 -14 -15 -8
-15 -12 -1 -39 11 -23 20 -29 34 -25 20 7 23 -3 13 -42 -4 -13 -14 -23 -25
-23 -10 0 -22 -6 -26 -14 -8 -13 -149 -46 -198 -46 -14 0 -33 -8 -43 -17 -10
-10 -27 -23 -38 -29 -17 -10 -16 -12 13 -28 20 -10 30 -21 27 -30 -5 -14 50
-86 66 -86 5 0 22 11 38 24 19 17 36 23 50 19 26 -6 26 -10 10 -46 l-13 -27
-115 6 c-63 3 -122 8 -130 11 -8 2 -49 7 -90 10 -79 5 -96 12 -87 36 3 10 14
13 31 10 14 -3 26 -1 26 5 0 5 14 15 31 21 32 11 31 31 -1 31 -10 0 -22 5 -25
10 -3 6 -26 10 -51 10 -41 0 -44 -2 -34 -19 16 -31 12 -38 -21 -33 -24 4 -30
2 -24 -8 8 -14 7 -13 -47 14 -34 18 -63 57 -51 70 4 3 17 6 29 6 28 0 41 34
23 57 -17 19 -110 12 -163 -14 -48 -22 -46 -37 4 -29 43 7 51 -2 23 -26 -35
-28 -99 -47 -186 -53 -109 -8 -113 -9 -121 -45 -3 -19 -21 -40 -50 -62 -43
-31 -59 -58 -35 -58 7 0 9 -9 5 -23 -5 -21 -3 -23 24 -19 16 2 42 0 58 -6 20
-7 35 -6 48 1 10 6 63 14 116 17 83 5 101 9 122 29 13 13 29 20 35 17 19 -12
106 -24 116 -17 5 5 35 11 65 15 79 10 100 13 142 21 26 5 43 3 54 -6 9 -7 25
-14 37 -16 11 -2 25 -7 31 -12 12 -9 120 -24 174 -24 21 0 32 -5 32 -15 0 -10
-7 -13 -22 -9 -25 7 -103 -50 -120 -89 -14 -31 4 -54 44 -54 16 0 27 -4 24 -9
-8 -12 12 -26 55 -40 20 -6 62 -32 94 -56 32 -25 64 -45 71 -45 28 0 13 -18
-18 -23 -18 -3 -49 -9 -68 -13 l-35 -7 20 22 19 22 -49 -3 c-45 -3 -50 -5 -47
-25 5 -33 -23 -29 -56 8 -26 29 -29 30 -55 16 -15 -8 -38 -26 -52 -41 -27 -29
-59 -29 -120 -2 -16 7 -59 16 -94 20 -60 6 -63 5 -58 -14 4 -16 -4 -27 -32
-45 -95 -63 -267 -101 -259 -57 2 12 28 25 83 43 94 31 102 45 54 105 l-31 39
53 5 c79 8 74 27 -8 32 -62 3 -70 1 -89 -21 -11 -13 -28 -46 -38 -73 -13 -38
-25 -53 -49 -63 -39 -16 -50 -12 -68 27 -8 17 -25 40 -39 50 -21 15 -102 39
-135 39 -31 0 -161 -36 -285 -80 -25 -8 -61 -17 -80 -19 -19 -1 -63 -10 -98
-18 -34 -8 -71 -12 -82 -9 -10 3 -21 1 -25 -5 -3 -5 -2 -10 3 -10 5 0 7 -13 4
-29 -2 -16 1 -32 7 -35 18 -11 13 -51 -9 -71 -11 -10 -20 -24 -20 -32 0 -38
113 14 129 60 7 19 17 27 34 27 18 0 36 14 63 50 36 48 65 62 79 40 4 -6 21
-17 38 -24 l32 -13 -28 -8 c-21 -5 -35 -22 -59 -69 -17 -33 -32 -77 -33 -96
-1 -19 -2 -57 -3 -83 -2 -34 -7 -49 -19 -54 -9 -4 -19 -1 -21 5 -2 7 -11 12
-21 12 -9 0 -22 5 -28 11 -6 6 -22 17 -35 23 -16 8 -23 20 -23 41 0 40 -22 43
-89 11 -40 -19 -57 -33 -64 -56 -6 -16 -17 -31 -24 -31 -7 -1 14 -5 47 -9 63
-7 85 0 68 22 -16 19 3 60 24 56 25 -5 28 -33 8 -74 -10 -22 -22 -34 -33 -32
-9 2 -16 -2 -15 -8 1 -6 -12 -11 -29 -12 -32 -1 -54 -20 -39 -35 14 -14 0 -47
-20 -47 -11 0 -20 -7 -20 -15 -1 -8 -2 -20 -3 -26 -1 -13 88 -49 121 -49 12 0
24 -4 28 -9 8 -15 -29 -31 -69 -31 -33 0 -34 -1 -26 -27 19 -62 35 -93 51 -98
9 -3 42 4 72 15 41 16 64 32 89 65 46 62 85 79 140 64 54 -16 522 -19 536 -4
6 6 13 29 17 53 l7 42 -34 -2 c-31 -3 -33 -1 -33 27 0 28 3 30 44 36 50 7 89
42 71 65 -21 24 30 74 75 74 21 0 19 12 -10 66 -30 56 -25 67 13 32 15 -15 38
-28 52 -30 14 -1 29 -13 34 -24 25 -56 213 -59 271 -4 16 15 31 21 45 17 14
-4 32 4 53 22 61 52 95 71 128 71 24 0 39 7 54 26 13 17 38 29 74 37 53 12 53
12 70 67 10 30 23 65 29 77 16 29 81 46 149 41 41 -4 53 -1 53 9 0 8 13 19 28
26 33 14 33 13 -13 112 -35 75 -48 91 -80 97 -27 5 -33 38 -7 38 24 0 46 52
30 68 -6 6 -7 15 -4 21 12 18 43 12 49 -9 11 -41 99 -14 118 36 10 28 73 59
111 55 15 -1 48 5 74 14 30 10 62 14 85 10 42 -7 50 0 38 32 -5 15 -14 20 -28
16 -16 -4 -21 -1 -21 15 0 27 -23 31 -126 20 -49 -4 -120 -11 -159 -14 -82 -7
-97 -14 -34 -15 24 0 53 -4 63 -8 18 -7 18 -8 -5 -14 -13 -4 -36 -7 -51 -7
-31 0 -37 -17 -10 -27 27 -11 55 -41 47 -52 -10 -17 -55 -13 -55 4 0 8 -11 17
-24 21 -24 6 -46 41 -46 72 0 39 -119 209 -128 183 -2 -6 -15 -11 -28 -11 -17
0 -24 6 -24 19 0 10 -7 24 -15 31 -21 17 -3 30 43 30 29 0 32 3 27 20 -6 20 9
28 20 10 19 -31 27 5 10 44 -5 12 -3 21 6 27 21 13 27 11 34 -13 11 -34 54
-76 86 -83 15 -4 33 -13 40 -21 6 -8 18 -14 25 -14 8 0 14 -7 14 -15 0 -8 5
-15 11 -15 6 0 3 -7 -5 -16 -24 -23 -19 -34 15 -34 17 0 62 -9 100 -21 38 -12
76 -19 83 -16 8 3 20 -1 26 -9 7 -8 17 -14 23 -14 5 0 3 8 -6 18 -14 16 -23
42 -14 42 1 0 27 -10 57 -21 30 -12 70 -22 88 -24 48 -3 61 -21 20 -29 -25 -5
-29 -9 -18 -16 8 -5 18 -6 23 -3 5 3 17 -4 27 -15 10 -11 24 -22 31 -24 6 -2
12 -16 12 -30 0 -20 6 -28 24 -33 13 -3 21 -10 18 -15 -7 -11 28 -14 38 -4 3
4 -1 17 -10 30 -14 22 -14 24 4 24 11 0 41 -7 67 -16 51 -17 48 -34 -6 -34
-16 0 -28 -4 -28 -9 0 -12 37 -24 50 -16 5 3 15 1 22 -5 7 -6 22 -17 32 -24
15 -10 21 -28 24 -78 l4 -64 -46 -18 c-54 -21 -58 -32 -13 -42 17 -4 34 -8 37
-9 3 -1 19 -5 35 -9 61 -15 62 -16 42 -31 -12 -8 -48 -14 -95 -14 -92 -2 -144
-12 -150 -30 -3 -10 15 -12 84 -10 70 3 89 0 92 -11 11 -32 40 -37 122 -19 28
6 50 16 50 23 0 14 69 66 86 66 6 0 20 10 32 23 l21 23 -25 27 c-20 22 -34 27
-72 27 -55 0 -126 30 -141 58 -9 17 -6 21 22 27 18 4 37 7 42 5 6 -1 32 -3 58
-5 35 -2 50 1 54 11 3 8 14 14 24 14 27 0 14 25 -26 50 -18 11 -46 20 -62 20
-32 0 -63 26 -63 53 0 9 -3 17 -7 18 -24 2 -61 9 -83 14 -14 3 -41 8 -60 11
-19 4 -42 12 -50 20 -9 7 -31 20 -50 28 -33 14 -34 16 -12 22 30 9 28 16 -15
37 -24 12 -38 15 -43 8 -8 -13 -110 -11 -127 2 -7 5 -13 18 -13 29 0 15 5 19
20 15 50 -13 -10 36 -90 74 -25 12 -53 28 -62 37 -30 26 -20 3 17 -41 54 -63
42 -84 -28 -53 -119 52 -140 58 -164 47 -35 -16 -50 -14 -56 9 -4 14 4 27 25
43 l30 24 -39 24 c-32 20 -35 24 -17 27 11 1 40 -6 65 -16 42 -18 46 -18 65
-3 33 27 35 46 6 68 -36 26 -81 32 -121 16z"/>
<path d="M514 2005 c15 -11 16 -15 5 -18 -64 -18 -98 -33 -120 -54 l-26 -24
-17 26 c-12 18 -13 25 -4 26 23 2 -36 17 -69 18 -41 1 -89 -19 -71 -31 7 -4
33 -8 58 -8 54 0 69 -8 72 -40 3 -21 -2 -26 -27 -28 -49 -6 -52 -21 -7 -28 23
-3 40 -12 39 -18 -1 -7 24 -13 68 -16 65 -5 70 -7 79 -33 7 -20 7 -34 -2 -48
-7 -11 -15 -40 -17 -65 -6 -60 -10 -64 -56 -64 -21 0 -39 -4 -39 -10 0 -5 18
-10 40 -10 32 0 40 -4 40 -19 0 -10 -7 -24 -15 -31 -8 -7 -15 -18 -15 -24 0
-14 59 -38 73 -29 5 3 24 7 41 9 17 2 52 9 79 15 40 9 51 8 72 -5 28 -19 49
-20 75 -6 17 9 18 14 8 35 -6 14 -26 35 -45 46 -18 11 -37 29 -43 38 -12 24
-5 57 11 52 20 -5 45 -4 119 4 74 9 115 24 63 25 -17 0 -35 5 -38 10 -4 7 -24
8 -53 4 -63 -9 -49 3 18 16 67 13 85 26 65 47 -8 8 -16 29 -16 46 -1 18 -3 48
-5 67 -3 25 1 39 13 47 9 7 13 16 10 20 -4 4 -13 1 -19 -5 -7 -7 -29 -12 -50
-12 -21 0 -38 -4 -38 -10 0 -5 -7 -10 -15 -10 -8 0 -15 7 -15 16 0 10 -6 13
-18 10 -22 -7 -132 40 -132 56 0 6 -9 8 -20 5 -11 -3 -18 -2 -15 3 6 9 -19 20
-43 20 -15 -1 -15 -2 2 -15z"/>
<path d="M5689 2013 c-2 -27 -9 -46 -20 -60 -20 -23 -20 -43 0 -64 19 -21 51
-17 51 7 0 17 33 35 47 26 5 -4 10 -21 10 -38 0 -30 -2 -31 -41 -30 -28 1 -51
-6 -73 -21 -17 -13 -37 -23 -45 -23 -7 0 4 11 26 24 43 26 38 37 -17 31 -22
-2 -35 1 -34 8 1 6 -7 13 -18 15 -11 2 -17 1 -13 -3 4 -5 3 -14 -3 -22 -9 -10
-8 -13 2 -13 11 0 11 -2 -1 -10 -8 -5 -36 -7 -61 -4 -41 5 -49 3 -78 -23 l-32
-30 43 -16 c54 -21 94 -22 102 -2 7 20 32 19 40 0 5 -13 10 -14 28 -4 19 10
63 12 203 5 28 -1 69 -3 91 -4 37 -2 42 -5 47 -29 6 -31 -11 -52 -68 -81 -37
-20 -38 -22 -17 -28 12 -3 22 -10 22 -15 0 -5 11 -9 25 -9 17 0 29 8 37 25 13
29 23 32 32 9 11 -28 6 -67 -10 -85 -15 -16 -12 -18 40 -24 31 -4 76 -4 101
-1 48 8 56 2 28 -20 -17 -12 -16 -13 7 -14 14 0 31 -9 38 -20 7 -12 23 -20 41
-20 33 0 114 34 104 43 -3 4 44 7 105 7 61 0 114 4 117 10 3 5 20 7 37 3 24
-5 30 -3 26 8 -3 8 -21 17 -42 20 -20 3 -42 11 -49 18 -14 14 0 14 41 0 25 -9
38 -7 63 5 18 9 38 16 46 16 7 0 13 7 13 15 0 14 22 21 45 15 6 -2 44 -5 85
-6 41 -2 91 -5 110 -6 33 -3 35 -1 38 28 3 28 0 32 -29 38 -48 9 -77 7 -82 -6
-3 -10 -17 -8 -58 6 -55 20 -209 37 -209 24 0 -5 -7 -8 -15 -8 -9 0 -18 -8
-22 -17 -3 -10 -17 -30 -31 -45 l-25 -27 -36 18 c-20 10 -59 22 -88 26 -29 4
-62 15 -74 26 -23 20 -41 17 -21 -3 17 -17 15 -26 -5 -30 -19 -4 88 -42 150
-53 37 -7 46 -18 26 -30 -6 -4 -59 -8 -119 -10 -81 -2 -110 1 -114 11 -3 7
-42 37 -88 67 -89 58 -102 70 -112 105 -6 18 -4 22 14 22 12 0 18 5 15 10 -3
6 -15 10 -25 10 -24 0 -73 47 -57 54 7 2 0 5 -14 5 -15 1 -31 7 -37 14 -8 10
-2 12 29 9 29 -3 39 -9 39 -21 0 -40 45 -55 59 -18 11 28 -10 55 -47 59 -36 4
-41 28 -5 28 29 1 63 20 63 36 0 19 -41 35 -75 28 -23 -4 -35 -2 -35 5 0 13
-58 51 -77 51 -10 0 -8 -14 6 -50 19 -49 19 -50 0 -50 -11 0 -22 8 -26 18 -7
20 -53 72 -65 72 -4 0 -8 -7 -8 -15 0 -16 -3 -15 -45 23 -15 14 -25 15 -26 5z"/>
<path d="M92 1962 c5 -18 -1 -22 -43 -32 l-49 -12 0 -179 c0 -170 1 -179 19
-179 11 0 33 14 49 30 25 24 39 30 76 30 24 0 47 4 51 9 3 5 -26 36 -65 67
-38 32 -70 62 -70 67 0 4 -5 5 -10 2 -15 -9 -40 13 -40 35 0 9 9 25 20 35 11
10 19 25 18 34 -4 22 65 39 86 21 22 -17 20 -29 -6 -40 -24 -9 -22 -10 27 -14
34 -3 75 19 75 41 0 7 -13 22 -30 31 -16 9 -30 22 -30 27 0 6 -15 17 -32 25
-18 7 -37 16 -42 18 -5 3 -7 -5 -4 -16z"/>
<path d="M6630 1955 c-14 -8 -33 -14 -42 -15 -10 0 -22 -9 -28 -19 -14 -27
-13 -31 11 -31 11 0 44 -11 73 -25 30 -14 72 -26 95 -28 45 -2 53 -17 20 -38
-18 -13 -11 -14 63 -11 86 4 111 13 101 38 -5 15 -37 14 -75 -1 -11 -4 -31 1
-50 13 -18 11 -50 23 -71 26 -36 7 -38 9 -32 34 8 34 12 37 27 25 13 -11 26
-14 135 -37 l61 -13 -3 26 c-2 14 -4 28 -5 31 -2 3 -2 9 -1 13 1 5 -3 6 -8 3
-5 -4 -16 1 -25 9 -9 9 -17 11 -21 5 -4 -7 -13 -6 -26 1 -15 7 -24 7 -33 0 -8
-6 -20 -9 -27 -7 -43 14 -116 14 -139 1z"/>
<path d="M6146 1867 c-12 -45 -6 -67 18 -77 27 -10 96 -75 96 -90 0 -6 11 -10
25 -10 16 0 25 -6 25 -15 0 -17 65 -22 75 -5 4 6 -5 10 -19 10 -21 0 -26 5
-26 24 0 26 16 36 70 43 19 2 51 10 70 18 19 7 44 16 55 20 13 5 15 9 8 12
-19 7 -16 20 7 26 11 3 20 11 20 17 0 9 -3 10 -13 1 -10 -7 -17 -7 -24 0 -8 8
-17 7 -32 -1 -39 -20 -115 -40 -182 -46 -55 -6 -67 -4 -72 10 -4 9 -13 16 -21
16 -8 0 -27 15 -44 34 -29 33 -30 34 -36 13z"/>
<path d="M5160 1758 c0 -5 14 -11 30 -15 17 -3 33 -10 36 -14 3 -5 20 -9 39
-9 19 0 64 -7 101 -16 37 -8 78 -13 90 -10 14 4 24 1 27 -9 6 -14 35 -13 106
1 36 8 10 27 -41 30 -24 2 -70 13 -103 25 -53 19 -67 20 -121 10 -47 -8 -72
-8 -112 3 -29 7 -52 9 -52 4z"/>
<path d="M5602 1648 c-22 -18 -47 -37 -56 -43 -10 -6 -20 -31 -25 -62 -8 -51
-7 -52 20 -62 18 -6 31 -6 34 0 9 14 19 11 45 -11 34 -30 56 -25 77 18 10 20
22 37 27 37 11 0 47 -124 40 -137 -7 -12 -84 -10 -84 2 0 12 -56 12 -85 0
l-20 -8 20 -7 c11 -4 29 -10 40 -15 18 -8 19 -9 1 -9 -12 -1 -16 -6 -12 -16 3
-8 8 -21 12 -29 7 -18 -48 -29 -82 -16 -50 19 -126 12 -187 -19 -33 -16 -69
-38 -81 -50 -11 -11 -42 -29 -68 -41 -26 -11 -50 -29 -53 -41 -4 -11 -25 -31
-47 -46 l-41 -25 -19 23 c-15 20 -19 22 -28 9 -5 -8 -10 -21 -10 -27 0 -7 -11
-20 -26 -29 -18 -12 -24 -24 -22 -43 3 -24 7 -26 72 -33 52 -5 87 -16 145 -46
67 -35 89 -41 181 -50 133 -13 349 -10 374 4 16 10 8 15 -60 37 -43 15 -102
31 -131 37 -90 19 -114 78 -26 65 33 -5 51 -2 70 10 27 18 41 17 133 -9 30 -9
69 -16 86 -16 17 0 62 -11 98 -25 79 -30 97 -31 126 -7 l22 17 -21 19 c-41 37
-21 57 34 36 33 -13 65 3 65 31 0 12 5 19 13 16 6 -2 11 -14 10 -26 -2 -16 3
-21 22 -21 13 0 27 -5 30 -10 4 -6 17 -3 35 10 30 21 85 27 95 10 11 -17 45
-12 38 6 -3 8 -12 13 -20 10 -9 -4 -17 1 -20 11 -2 10 -22 29 -44 43 -40 25
-47 38 -28 57 16 16 -28 28 -46 13 -20 -17 -58 -5 -99 30 -18 17 -38 30 -44
30 -5 0 -29 9 -53 19 -47 21 -122 21 -242 0 -60 -10 -82 -6 -73 16 2 7 -3 23
-11 35 l-16 23 49 -8 c27 -5 106 -8 175 -7 100 2 129 -1 138 -12 9 -11 25 -13
60 -9 30 3 77 -2 131 -15 50 -12 112 -19 150 -18 36 2 71 1 77 -2 17 -5 -29
-42 -52 -42 -14 0 -15 -3 -5 -14 6 -8 17 -13 23 -11 7 2 36 6 66 10 48 5 53 4
42 -9 -14 -16 -7 -36 11 -36 7 0 21 9 32 19 18 17 27 18 71 10 28 -5 84 -10
125 -10 41 -1 97 -8 124 -15 27 -8 51 -14 53 -14 2 0 3 24 3 53 0 47 -3 55
-24 65 -13 6 -42 8 -65 5 -28 -4 -48 -1 -65 10 -13 9 -33 13 -45 10 -11 -3
-21 -1 -21 5 0 5 -21 13 -47 17 -27 4 -52 10 -58 15 -5 4 -32 11 -59 15 -35 5
-50 12 -53 25 -7 27 -34 33 -114 25 -55 -6 -74 -4 -93 8 -35 24 -111 27 -104
5 6 -18 87 -38 155 -38 67 0 80 -8 63 -41 -9 -16 -17 -20 -38 -14 -26 6 -215
20 -378 28 -45 3 -86 7 -92 11 -6 3 -13 2 -17 -3 -4 -8 -57 -9 -106 -2 -12 2
-18 44 -8 62 5 11 38 27 79 39 101 30 103 46 8 57 -58 7 -106 46 -86 71 7 8 7
17 -2 27 -9 11 -9 15 -1 15 7 0 9 5 6 10 -3 6 -14 10 -24 10 -10 0 -24 7 -31
15 -8 9 -29 15 -55 15 -34 0 -52 -7 -83 -32z"/>
<path d="M6795 1559 c-16 -5 -59 -11 -95 -13 -36 -3 -66 -5 -67 -5 -1 -1 8
-12 21 -26 14 -15 34 -25 51 -25 16 0 55 -7 88 -17 46 -13 64 -14 78 -5 11 7
20 8 24 2 8 -13 35 -1 35 16 0 8 -6 14 -14 14 -23 0 -45 28 -39 50 4 17 1 20
-23 19 -16 0 -42 -5 -59 -10z"/>
<path d="M1850 1430 c-25 -15 98 -88 152 -90 10 0 26 -17 38 -40 17 -33 25
-40 50 -40 23 0 33 -6 42 -25 12 -27 25 -27 78 0 14 7 44 16 65 20 70 13 245
76 245 88 0 1 -39 3 -88 4 -48 1 -130 9 -182 18 -52 9 -129 20 -170 26 -84 11
-140 22 -186 37 -17 5 -37 6 -44 2z"/>
<path d="M4516 1404 c-12 -30 -7 -42 15 -37 24 7 39 -11 39 -45 0 -12 6 -24
13 -26 6 -2 35 -11 64 -20 102 -34 133 -5 51 48 -30 19 -60 41 -68 51 -33 40
-103 58 -114 29z"/>
<path d="M2657 1396 c-26 -7 -55 -20 -65 -28 -9 -8 -25 -18 -35 -21 -39 -14
-11 -32 49 -32 51 0 59 -2 56 -17 -2 -11 3 -18 13 -18 8 0 15 7 15 16 0 13 7
15 35 11 40 -7 54 7 31 32 -9 10 -13 20 -10 24 11 11 -7 47 -24 46 -9 0 -38
-6 -65 -13z"/>
<path d="M4720 1210 c-36 -4 -57 -7 -48 -8 9 -1 30 -13 46 -27 17 -14 43 -25
58 -25 16 0 51 -7 78 -15 68 -21 173 -20 194 1 15 15 14 18 -3 30 -10 8 -42
14 -70 14 -27 0 -75 9 -105 20 -30 11 -62 19 -70 18 -8 -1 -44 -4 -80 -8z"/>
<path d="M4470 1186 c-11 -31 -26 -40 -70 -43 -22 -2 -39 3 -47 13 -10 14 -18
14 -83 -2 -40 -9 -74 -23 -77 -30 -2 -7 16 -32 41 -55 47 -44 54 -65 35 -101
-17 -32 -4 -31 27 2 34 36 41 37 71 8 21 -20 25 -20 65 -7 24 7 60 26 81 41
21 15 61 34 88 43 52 18 68 41 21 32 -15 -3 -34 -2 -42 3 -16 10 -14 11 55 30
63 16 69 24 31 38 -19 7 -36 21 -39 32 -4 18 -14 20 -76 20 -66 0 -72 -2 -81
-24z"/>
<path d="M445 1125 c-49 -41 -116 -88 -147 -105 -32 -17 -58 -32 -58 -34 0 -2
42 -1 93 0 109 4 297 31 314 46 7 6 49 9 99 7 74 -3 88 -1 98 13 9 15 6 23
-17 45 l-27 27 -52 -26 -52 -27 -31 23 c-16 13 -42 26 -57 30 -19 4 -32 17
-42 41 -8 19 -19 35 -23 35 -4 0 -48 -34 -98 -75z"/>
<path d="M762 1170 l-23 -30 43 0 c23 0 61 -9 84 -20 34 -17 194 -53 201 -46
1 1 -4 20 -11 41 -13 37 -19 42 -82 63 -64 23 -70 23 -101 8 -30 -14 -34 -14
-39 -1 -10 25 -49 17 -72 -15z"/>
<path d="M1665 1138 c-22 -24 -49 -48 -60 -54 -19 -10 -18 -12 10 -26 17 -8
45 -18 62 -21 52 -10 126 -47 148 -74 23 -27 77 -42 162 -43 61 0 72 11 42 41
-21 21 -21 22 -3 32 10 6 54 13 97 15 70 4 79 7 87 27 5 14 20 25 39 28 36 8
41 25 9 31 -78 16 -99 16 -120 1 -27 -18 -52 -19 -77 -3 -25 15 -103 -22 -119
-57 -15 -32 -31 -32 -57 0 -13 16 -41 30 -80 40 -68 17 -80 27 -92 73 l-8 33
-40 -43z"/>
<path d="M4730 1035 c-13 -14 -46 -32 -73 -40 -27 -8 -67 -30 -88 -50 -22 -19
-47 -35 -58 -35 -25 0 -38 -17 -46 -61 -7 -38 3 -54 39 -60 27 -5 16 -24 -14
-24 -22 0 -26 -6 -34 -48 -8 -42 -7 -51 12 -77 36 -48 21 -75 -24 -45 -14 9
-27 15 -29 13 -2 -2 -17 -33 -33 -68 -33 -74 -61 -103 -147 -154 -53 -32 -68
-36 -128 -36 -66 0 -69 -1 -109 -41 -36 -35 -46 -40 -72 -35 -17 3 -60 9 -96
13 -57 5 -63 4 -53 -9 16 -18 7 -28 -25 -28 -13 0 -47 -6 -75 -14 -29 -8 -81
-17 -117 -20 -54 -5 -71 -3 -97 14 -20 12 -33 28 -33 40 0 16 -7 20 -32 20
-40 0 -54 9 -60 35 -5 27 -42 22 -85 -11 -45 -34 -43 -47 8 -39 28 5 44 3 49
-5 13 -21 0 -82 -29 -140 -16 -30 -31 -72 -35 -92 l-7 -38 89 0 c96 0 102 3
102 54 0 12 15 37 34 55 28 27 42 33 78 33 75 0 222 -20 226 -31 7 -20 31 -11
53 20 l22 32 116 -8 c149 -10 150 -10 182 15 16 11 41 20 57 20 15 0 37 7 48
15 10 8 35 15 54 15 23 0 49 11 74 30 50 38 103 41 108 8 4 -33 34 -35 42 -4
7 28 23 34 32 12 10 -25 34 -26 67 -3 18 12 35 26 39 32 5 6 18 5 39 -2 18 -7
36 -10 40 -7 17 10 9 24 -17 34 -24 10 -26 14 -21 52 7 53 39 81 85 74 18 -3
46 1 62 8 21 8 47 10 87 4 73 -11 79 -11 191 -1 51 5 117 6 145 3 49 -5 52 -7
52 -33 0 -32 18 -47 47 -39 11 3 32 -4 49 -17 16 -12 43 -24 60 -28 28 -5 30
-9 25 -36 -7 -32 8 -49 66 -74 23 -10 31 -9 49 6 28 22 16 46 -40 86 -23 15
-41 31 -41 35 0 4 -11 19 -25 33 -22 21 -32 24 -65 20 -31 -4 -47 0 -75 18
-19 13 -35 29 -35 35 0 25 30 36 75 30 l45 -7 0 30 c0 17 5 31 11 31 16 0 6
45 -11 46 -8 1 -23 2 -32 2 -9 1 -25 15 -34 31 -17 29 -59 47 -70 29 -7 -10
-43 -1 -64 17 -24 20 -120 58 -127 51 -4 -4 6 -18 22 -31 29 -24 29 -25 11
-40 -24 -18 -50 -19 -79 -4 -12 7 -35 11 -52 11 -16 -1 -59 6 -94 14 -47 12
-85 14 -147 9 -98 -8 -183 1 -191 21 -10 27 75 87 142 98 63 11 128 37 148 59
11 13 17 33 16 51 -2 17 3 41 10 54 7 13 11 33 9 45 -3 19 -11 23 -63 28 -33
4 -71 9 -85 13 -20 6 -31 1 -50 -19z"/>
<path d="M1055 1035 c-5 -2 -22 -6 -37 -9 -32 -7 -38 -36 -12 -57 12 -10 22
-10 48 -1 44 16 77 15 105 -4 l23 -16 -43 -29 c-24 -16 -68 -34 -99 -40 -30
-6 -87 -28 -126 -50 -39 -21 -106 -47 -150 -58 -86 -20 -230 -67 -309 -100
-27 -11 -70 -26 -95 -32 -40 -10 -43 -12 -22 -20 43 -16 15 -63 -58 -95 -24
-11 -44 -30 -58 -58 -13 -22 -48 -60 -79 -83 -62 -48 -61 -49 29 -28 93 22
165 49 191 73 39 36 102 55 160 49 46 -6 59 -3 120 29 38 19 101 42 140 50
149 30 162 42 102 88 -59 45 -48 51 87 51 115 0 126 2 173 27 68 37 143 61
170 54 13 -3 38 -21 56 -39 54 -54 124 -83 164 -68 17 7 15 11 -23 35 -24 15
-47 37 -52 49 -21 50 -68 103 -105 120 -80 36 -90 43 -93 65 -4 29 -43 54
-125 80 -37 12 -68 22 -70 21 -1 0 -6 -2 -12 -4z"/>
<path d="M345 935 c-16 -8 -45 -14 -62 -15 -18 0 -63 -12 -100 -27 -38 -14
-93 -29 -123 -32 l-55 -6 -3 -67 c-2 -55 0 -68 12 -68 9 0 13 -6 10 -14 -3 -7
2 -16 10 -19 15 -6 128 22 266 65 69 22 75 26 78 53 5 37 18 46 58 39 26 -5
38 0 68 26 20 18 33 36 30 41 -3 5 -32 9 -65 9 -44 0 -61 4 -65 15 -7 18 -19
18 -59 0z"/>
<path d="M4170 879 c-19 -5 -64 -10 -100 -12 -64 -2 -66 -3 -120 -57 -30 -30
-73 -76 -94 -102 -22 -27 -48 -48 -58 -48 -28 0 -30 -18 -21 -132 9 -121 25
-135 53 -49 23 70 44 89 122 110 69 19 158 79 178 120 6 14 15 47 21 75 7 37
17 57 42 77 34 30 32 32 -23 18z"/>
<path d="M6620 879 c0 -4 5 -9 12 -11 6 -2 9 -12 5 -21 -8 -22 -65 -23 -96 -1
-30 21 -130 14 -169 -13 -38 -26 -226 -25 -292 1 -82 33 -161 50 -178 39 -15
-9 -40 -45 -58 -80 -11 -22 4 -43 31 -43 14 0 25 -4 25 -9 0 -12 -126 -25
-142 -14 -11 7 -36 9 -132 13 -10 1 -32 -12 -48 -29 -27 -27 -28 -30 -11 -39
10 -5 34 -13 53 -17 87 -18 119 -63 80 -113 -20 -25 -20 -27 -4 -39 29 -21 41
-16 74 32 17 25 44 52 60 60 17 9 30 19 30 24 0 5 11 11 25 13 29 6 28 7 15
-26 -11 -30 0 -41 36 -32 30 8 31 30 2 51 -30 21 -17 43 45 74 46 23 48 23 68
5 17 -15 24 -16 39 -6 27 17 119 15 154 -3 19 -10 33 -12 40 -6 14 12 161 31
239 31 36 0 67 -6 82 -16 22 -15 26 -15 40 0 15 14 19 14 47 0 16 -8 35 -13
42 -11 12 5 68 -4 115 -19 21 -6 22 -5 12 14 -13 25 -62 42 -161 56 -58 9 -76
15 -78 29 -3 14 4 17 33 17 19 0 52 -7 72 -15 19 -8 63 -15 96 -15 l60 0 -41
30 c-23 17 -42 32 -42 35 0 3 18 2 40 -1 47 -8 53 7 10 23 -20 7 -41 8 -61 3
-33 -10 -55 -5 -82 19 -19 16 -87 24 -87 10z"/>
<path d="M6385 660 c-3 -5 -4 -10 0 -10 17 0 -19 -40 -50 -54 -28 -14 -35 -23
-35 -46 0 -38 12 -44 55 -26 20 9 39 15 43 15 20 -3 34 4 62 31 33 32 38 50
15 50 -8 0 -15 4 -15 9 0 29 -61 54 -75 31z"/>
<path d="M1642 573 c-13 -3 -27 -15 -32 -29 -6 -15 -18 -24 -32 -25 -13 0 -62
-4 -109 -8 -72 -6 -92 -12 -131 -39 -25 -17 -79 -40 -119 -51 -41 -11 -101
-29 -134 -41 -91 -32 -201 -60 -234 -60 -38 0 -179 -33 -253 -60 -32 -11 -65
-20 -75 -20 -10 0 -58 -11 -108 -25 -165 -45 -318 -84 -393 -100 -19 -5 -22
-11 -22 -60 l0 -55 128 0 c108 0 134 3 167 20 22 11 44 20 50 20 19 0 123 60
128 74 3 7 17 16 32 18 19 4 29 0 36 -15 10 -17 19 -19 80 -15 58 5 73 10 97
33 31 31 55 42 127 56 27 6 72 19 99 30 62 26 94 19 103 -21 3 -17 9 -30 12
-30 4 0 26 18 50 40 23 22 47 40 53 40 5 0 23 -9 39 -21 27 -19 33 -20 61 -8
50 20 119 13 143 -16 24 -29 135 -57 237 -60 56 -2 72 -7 98 -29 17 -14 44
-29 58 -32 15 -3 39 -12 54 -20 14 -8 40 -15 56 -17 17 -1 42 -12 56 -24 21
-19 38 -23 92 -23 36 0 63 4 60 8 -3 5 -37 27 -76 51 -56 33 -89 45 -150 55
-75 12 -130 36 -130 56 0 6 -10 10 -23 10 -12 0 -45 12 -72 27 -46 25 -59 28
-157 28 -104 0 -107 1 -137 29 -17 17 -31 38 -31 48 0 15 9 18 58 18 32 0 84
7 116 15 32 8 97 22 144 30 48 8 98 19 112 24 28 11 247 46 350 57 82 8 106
19 89 41 -11 12 -32 14 -136 8 -110 -7 -123 -6 -123 9 0 10 8 16 23 16 31 0
65 25 52 38 -6 6 -32 7 -70 1 -50 -8 -222 -4 -275 5 -8 2 -25 1 -38 -1z"/>
<path d="M6873 459 c-6 -6 -42 -13 -80 -16 -83 -6 -118 -25 -103 -53 6 -11 7
-20 3 -20 -4 0 -2 -5 3 -10 7 -7 55 -8 137 -4 l127 7 0 47 c0 45 -2 48 -31 54
-41 8 -43 8 -56 -5z"/>
<path d="M2277 293 c-18 -17 -5 -33 28 -33 34 0 75 -27 75 -50 0 -5 14 -29 31
-53 17 -24 33 -62 36 -86 7 -54 28 -48 28 9 0 45 6 51 67 64 30 7 63 48 55 69
-2 7 -43 21 -91 31 -51 12 -93 27 -102 38 -13 13 -31 18 -69 18 -28 0 -55 -3
-58 -7z"/>
<path d="M6914 127 c-90 -52 -80 -50 -220 -43 -73 4 -148 11 -166 17 -51 14
-106 11 -188 -12 -152 -42 -175 -44 -253 -24 -40 10 -81 24 -92 32 -21 14 -75
18 -75 5 0 -4 17 -16 38 -27 20 -11 51 -32 67 -47 33 -30 55 -34 84 -16 13 8
38 8 92 1 40 -5 228 -11 416 -12 l343 -2 0 70 c0 75 -5 82 -46 58z"/>
</g>
</svg>
