<?xml version="1.0" standalone="no"?>
<!DOCTYPE svg PUBLIC "-//W3C//DTD SVG 20010904//EN"
 "http://www.w3.org/TR/2001/REC-SVG-20010904/DTD/svg10.dtd">
<svg version="1.0" xmlns="http://www.w3.org/2000/svg"
 width="312.000000pt" height="162.000000pt" viewBox="0 0 312.000000 162.000000"
 preserveAspectRatio="xMidYMid meet">
<metadata>
Created by potrace 1.15, written by Peter Selinger 2001-2017
</metadata>
<g transform="translate(0.000000,162.000000) scale(0.100000,-0.100000)"
fill="#000000" stroke="none">
<path d="M0 1576 c0 -40 3 -46 30 -58 16 -7 30 -17 30 -21 0 -5 4 -6 10 -2 5
3 36 -5 70 -19 33 -14 60 -22 60 -19 0 3 -13 22 -30 43 -16 21 -30 43 -30 50
0 6 -15 24 -32 41 -24 21 -42 29 -70 29 l-38 0 0 -44z"/>
<path d="M266 1588 c-20 -40 -20 -87 0 -138 14 -36 18 -39 29 -24 9 13 20 15
46 10 65 -14 142 -16 155 -5 7 6 16 23 19 39 4 16 10 29 13 29 20 -3 18 4 -8
33 -16 17 -28 34 -26 36 3 2 -5 15 -17 28 -19 23 -28 25 -94 23 -63 -2 -73 -4
-73 -20 0 -10 -5 -21 -10 -24 -7 -4 -9 2 -4 19 9 37 -11 33 -30 -6z"/>
<path d="M736 1611 c-4 -5 0 -12 6 -14 8 -3 5 -6 -5 -6 -11 -1 -17 -7 -14 -13
2 -7 -2 -26 -10 -41 -8 -15 -11 -32 -8 -37 7 -12 -16 -61 -26 -54 -5 3 -9 -1
-9 -9 0 -8 -7 -18 -16 -21 -9 -3 -14 -13 -11 -21 4 -9 1 -12 -9 -8 -8 3 -25
-6 -40 -22 -21 -23 -28 -25 -35 -14 -7 11 -9 11 -9 -3 0 -11 -8 -18 -20 -18
-11 0 -28 -8 -38 -17 -9 -10 -28 -24 -42 -31 -14 -7 -44 -24 -67 -37 -32 -18
-43 -21 -43 -10 0 8 -5 17 -12 21 -8 5 -9 2 -5 -10 4 -11 3 -15 -4 -11 -6 4
-8 13 -5 20 5 15 -15 65 -26 65 -5 0 -8 6 -8 14 0 8 -9 18 -21 21 -16 5 -18 9
-8 21 6 8 10 16 8 18 -8 8 -115 49 -186 71 l-73 23 0 -53 c0 -53 0 -54 28 -47
57 15 77 9 80 -23 2 -16 9 -33 15 -37 8 -5 6 -8 -4 -8 -9 0 -20 -11 -23 -24
-7 -28 2 -58 15 -51 11 7 32 -32 24 -45 -3 -6 -1 -10 4 -10 10 0 15 14 12 33
-2 13 30 20 40 10 7 -7 2 -19 -15 -36 -24 -24 -34 -47 -21 -47 3 0 22 8 43 19
49 24 69 18 46 -16 -9 -14 -11 -22 -5 -19 6 4 9 1 5 -7 -9 -24 -77 -54 -121
-53 -35 1 -43 -2 -43 -16 0 -12 8 -18 24 -18 13 0 29 -7 36 -16 11 -13 10 -16
-8 -21 -13 -3 -26 -19 -32 -39 -11 -32 -13 -33 -33 -19 -12 8 -24 15 -28 15
-8 0 -7 -32 1 -40 3 -3 11 -15 18 -27 15 -28 1 -30 -23 -3 -10 11 -22 20 -27
20 -13 0 -9 -33 7 -54 8 -11 15 -30 15 -44 0 -13 4 -20 10 -17 6 3 10 -1 10
-9 0 -8 -4 -17 -9 -20 -9 -6 -23 30 -26 67 -1 10 -5 20 -9 24 -3 3 -5 -128 -5
-293 1 -164 5 -283 9 -264 l7 35 2 -33 c1 -26 5 -33 18 -30 10 2 23 14 30 28
7 14 13 20 13 14 0 -6 12 -10 28 -8 15 2 19 1 10 -2 -10 -3 -18 -12 -18 -20 0
-12 4 -12 20 -2 10 7 22 9 26 5 10 -10 -28 -38 -43 -32 -7 2 -15 0 -19 -6 -3
-6 -22 -9 -43 -7 l-36 3 -3 -123 -3 -122 51 0 c27 0 49 3 47 8 -1 4 2 8 7 9 5
1 12 7 17 14 4 8 11 11 14 7 3 -3 -1 -13 -10 -22 -15 -15 -9 -16 74 -16 l91 0
-6 43 c-7 47 -19 67 -40 67 -8 0 -14 5 -14 11 0 7 10 9 24 7 19 -4 25 1 36 31
7 20 15 30 17 24 3 -7 13 -13 24 -13 18 0 42 -37 33 -52 -8 -13 -46 5 -54 26
-8 20 -9 20 -11 -4 -1 -14 -3 -38 -4 -55 -1 -16 0 -42 3 -57 4 -26 8 -28 50
-28 l45 0 -6 32 c-3 18 -8 42 -12 53 -6 16 -5 17 4 5 6 -8 16 -32 21 -52 6
-21 15 -38 20 -38 18 0 10 30 -31 111 -22 45 -45 93 -50 108 -8 22 -4 20 25
-14 20 -22 33 -45 31 -52 -4 -13 19 -36 27 -27 9 8 50 -54 44 -65 -8 -12 14
-61 26 -61 17 0 38 28 33 43 -3 7 1 20 10 27 16 13 20 3 15 -48 -1 -21 2 -23
42 -20 42 3 43 4 48 43 3 23 11 41 19 43 9 2 11 -3 7 -14 -4 -11 0 -18 14 -21
15 -4 18 -11 14 -29 -5 -20 -2 -24 15 -24 12 0 21 5 21 10 0 6 8 10 18 10 14
0 15 -2 2 -10 -10 -7 16 -10 83 -10 l97 0 -6 26 -7 27 34 -18 c19 -10 42 -22
51 -26 10 -5 46 -9 82 -9 63 0 64 0 70 31 10 50 7 76 -9 89 -10 8 -15 29 -14
59 1 62 9 84 42 120 15 17 27 36 27 41 0 7 7 7 21 0 12 -7 18 -18 15 -26 -3
-8 -2 -13 2 -10 4 3 14 -4 21 -16 7 -11 9 -18 4 -15 -5 3 -15 -8 -22 -24 -14
-31 -31 -30 -31 1 0 10 -4 22 -10 25 -15 9 -12 -9 10 -74 10 -31 19 -66 19
-77 0 -10 4 -35 8 -54 l9 -35 19 28 c21 33 35 21 35 -30 l0 -33 135 0 c77 0
135 4 135 9 0 23 -21 62 -30 56 -10 -6 -4 42 11 82 9 25 60 61 99 69 37 8 38
51 1 57 l-26 4 28 2 c30 1 35 12 12 31 -18 15 -35 9 -162 -51 -107 -51 -113
-54 -113 -41 0 10 55 42 105 62 50 19 55 40 15 63 -17 10 -42 29 -57 43 -14
13 -30 24 -35 24 -6 0 -21 9 -35 20 -33 26 -56 26 -48 1 7 -22 -19 -49 -30
-31 -5 7 -11 5 -20 -7 -17 -22 -7 -34 45 -58 37 -17 59 -42 25 -29 -8 4 -15 1
-15 -5 0 -6 -6 -8 -14 -5 -8 3 -13 11 -10 18 3 7 -11 21 -31 31 -32 18 -46 35
-27 35 4 0 7 19 8 43 1 29 9 54 24 75 28 38 46 41 54 8 7 -27 91 -86 124 -86
11 0 24 -4 27 -10 4 -6 -1 -7 -12 -4 -15 5 -16 4 -3 -5 28 -20 48 -13 42 16
-4 24 -3 25 19 20 13 -4 28 -7 32 -7 5 0 6 -4 2 -9 -13 -22 12 -15 39 11 22
22 25 28 12 28 -10 0 -15 3 -13 8 3 4 -4 23 -14 42 -11 19 -19 28 -19 20 0
-11 -3 -11 -8 -3 -4 6 -25 18 -47 26 -22 8 -65 25 -95 37 -77 31 -149 25 -218
-18 -32 -19 -58 -29 -69 -25 -13 5 -15 3 -10 -12 5 -10 -1 -35 -13 -61 -12
-23 -24 -59 -27 -79 -6 -35 -5 -36 20 -24 19 8 26 21 31 53 12 78 26 108 48
103 14 -4 18 -2 14 9 -3 8 -2 12 3 9 6 -3 15 3 21 12 8 13 9 -1 4 -57 -7 -77
-25 -113 -65 -125 -9 -3 -22 -19 -29 -35 -6 -16 -21 -37 -32 -46 -16 -16 -21
-16 -29 -4 -7 11 -8 8 -4 -11 4 -17 2 -26 -7 -27 -7 -1 -26 -4 -43 -7 -16 -3
-35 -2 -42 3 -18 11 -4 52 17 52 30 0 50 11 50 29 0 14 2 14 10 1 8 -12 10
-13 10 -1 0 8 -6 22 -14 30 -17 20 -30 91 -16 91 6 0 10 5 10 10 0 6 11 28 25
51 14 22 23 44 20 49 -4 6 0 10 8 10 8 0 22 9 32 20 16 18 17 23 5 46 -24 44
-123 136 -169 156 -25 12 -76 22 -122 25 -67 5 -79 4 -79 -10 0 -14 -30 -24
-107 -33 -12 -1 -35 -5 -52 -9 l-30 -6 21 -37 c11 -20 25 -40 31 -43 10 -7
-44 -112 -64 -125 -16 -10 -23 4 -10 20 10 12 8 19 -9 36 -14 14 -19 28 -15
41 6 18 4 20 -15 14 -17 -6 -21 -4 -15 6 6 10 2 9 -11 -2 -18 -15 -54 -15 -54
0 0 15 32 51 45 51 8 0 16 4 20 10 3 5 -15 7 -47 4 -51 -4 -52 -4 -24 10 21 9
25 15 15 20 -8 3 -2 4 14 2 15 -2 27 0 27 5 0 4 21 11 48 15 26 4 74 13 107
20 l60 14 -52 -5 c-32 -3 -53 -2 -53 4 0 11 53 20 145 24 33 2 10 4 -51 5 -76
1 -127 -3 -163 -14 -29 -8 -64 -14 -79 -12 -18 2 -2 9 50 22 101 24 151 27
279 15 84 -7 116 -14 153 -35 45 -25 65 -19 26 9 -18 13 -19 16 -5 27 13 10
22 8 57 -15 40 -27 56 -33 89 -34 9 -1 20 -8 23 -17 5 -13 2 -15 -13 -11 -12
3 -22 -1 -25 -10 -9 -23 -8 -28 17 -53 12 -13 34 -41 48 -62 22 -33 27 -36 33
-22 5 13 -5 29 -34 57 -22 22 -40 43 -40 48 0 13 18 20 25 9 10 -16 25 -12 25
7 0 16 1 16 16 1 15 -15 18 -15 37 3 15 14 23 16 28 7 5 -8 16 -1 34 20 15 18
32 29 37 25 8 -4 9 6 5 30 -3 21 -2 37 3 37 5 0 12 15 15 33 4 17 12 38 17 45
6 6 7 12 2 12 -10 1 67 39 78 40 5 0 8 -15 8 -32 0 -18 2 -49 4 -68 1 -19 4
-44 5 -55 1 -17 3 -17 11 -5 13 21 31 20 58 -4 13 -12 22 -31 22 -50 0 -17 9
-42 20 -56 11 -14 20 -28 20 -31 0 -3 -20 -19 -44 -34 l-45 -28 19 -27 c10
-14 30 -32 43 -39 23 -12 29 -11 52 7 26 21 38 21 83 -1 22 -10 31 -47 12 -47
-5 0 -10 5 -10 10 0 6 -12 9 -27 9 -25 -2 -25 -2 -5 -6 17 -3 23 -11 21 -26
-2 -12 1 -38 6 -57 5 -19 9 -41 9 -49 1 -8 7 -16 14 -19 9 -3 13 3 11 19 -3
29 25 123 46 156 9 13 23 22 33 22 15 -1 15 -2 -1 -6 -31 -8 -13 -28 28 -31
21 -2 48 -10 59 -18 23 -16 50 -19 41 -4 -3 5 9 4 27 -3 l33 -12 -28 -3 c-27
-3 -27 -4 -7 -20 21 -18 30 -82 16 -115 -6 -13 -3 -17 11 -17 47 0 92 -87 78
-150 -6 -28 -10 -30 -50 -30 -38 0 -47 4 -71 35 -21 28 -25 43 -22 80 3 44 2
46 -21 40 -19 -5 -29 -1 -42 16 l-17 23 -21 -24 c-20 -24 -33 -57 -45 -112 -4
-16 -15 -30 -29 -34 -21 -7 -21 -7 -2 -15 11 -4 14 -8 6 -8 -11 -1 -11 -4 2
-19 9 -10 14 -27 11 -39 -5 -18 -10 -20 -33 -13 -29 8 -72 -12 -52 -25 6 -3
11 -2 11 4 0 7 8 7 23 2 23 -9 25 -37 5 -74 -9 -17 -7 -18 21 -12 18 4 31 3
31 -3 0 -6 49 -11 120 -11 66 -1 120 2 120 6 0 4 -7 17 -15 27 -27 36 -18 52
13 23 15 -15 36 -27 45 -27 10 0 20 -7 23 -15 9 -22 70 -20 83 2 10 17 12 17
24 1 12 -15 35 -17 175 -17 l162 0 40 42 c24 25 38 49 36 60 -2 9 0 17 5 17 5
0 9 -6 9 -12 0 -9 4 -8 10 2 8 12 10 10 10 -10 0 -15 -6 -32 -12 -38 -10 -10
-8 -14 11 -19 16 -4 19 -8 10 -14 -8 -4 -16 -4 -19 1 -3 5 -23 0 -45 -10 l-40
-18 104 -1 c86 -1 102 1 98 13 -4 11 0 13 15 11 12 -3 24 -8 27 -13 3 -5 21
-9 39 -10 29 -1 32 2 32 28 0 16 5 32 10 35 6 4 8 11 4 16 -3 6 -15 4 -30 -5
-26 -18 -134 -22 -134 -6 0 6 7 10 15 10 9 0 19 10 24 23 12 30 37 51 45 38 4
-6 -2 -16 -14 -23 -24 -15 -26 -28 -5 -28 9 0 20 11 25 25 5 14 16 25 23 25 7
0 24 -11 37 -25 13 -14 31 -25 40 -25 9 0 22 -6 29 -13 11 -9 13 -9 7 1 -4 6
-3 12 3 12 18 0 41 -12 41 -22 0 -5 -4 -6 -10 -3 -5 3 -10 1 -10 -4 0 -6 9
-11 21 -11 11 0 18 4 15 8 -3 5 22 5 55 0 34 -6 63 -8 65 -5 12 12 -11 37 -35
37 -15 0 -36 6 -46 14 -17 12 -17 15 -4 29 9 8 36 22 60 30 41 14 44 17 42 49
-1 18 -5 49 -8 69 -4 23 -3 39 4 43 6 4 11 35 11 71 0 64 -11 82 -43 69 -8 -3
-20 2 -27 11 -14 17 0 21 16 5 7 -7 11 -6 11 6 0 9 -11 27 -23 39 l-23 23 -53
-40 c-57 -43 -143 -88 -168 -87 -8 0 -1 6 15 13 17 7 28 14 26 17 -12 13 46
142 60 133 5 -3 20 13 34 36 14 22 30 40 35 40 6 0 10 5 10 11 0 6 -6 9 -14 6
-7 -3 -19 0 -26 6 -9 9 -11 8 -8 -7 1 -10 -2 -21 -8 -23 -11 -4 -69 105 -60
114 3 3 -4 19 -16 35 -11 17 -22 47 -24 68 -2 34 0 38 22 36 24 -1 34 -21 13
-28 -7 -2 -2 -24 13 -61 l23 -57 71 0 c39 0 74 3 78 7 6 7 28 13 53 15 9 1 11
31 8 112 -2 61 -6 120 -8 131 -3 11 -6 30 -6 43 -1 13 -5 21 -10 18 -5 -3 -11
3 -14 14 -3 11 -1 23 4 26 14 9 1 22 -43 45 l-41 21 6 -24 c4 -12 7 -41 7 -63
0 -55 13 -74 39 -58 15 9 22 10 27 1 4 -7 3 -8 -4 -4 -21 13 -14 -54 9 -93
l22 -36 -32 38 c-33 38 -92 80 -62 43 12 -14 12 -16 -3 -10 -12 5 -18 -1 -22
-25 -7 -35 -26 -42 -24 -8 5 54 1 58 -26 30 -14 -14 -28 -22 -32 -19 -3 4 0
11 7 16 8 4 11 15 8 23 -3 9 0 18 7 20 9 4 12 15 8 32 -2 15 0 30 7 34 8 6 7
18 -5 47 -9 23 -11 34 -4 27 19 -18 42 6 23 25 -7 7 -13 23 -13 35 0 12 -12
30 -25 40 -14 10 -25 13 -25 7 0 -5 4 -10 9 -10 13 0 19 -56 7 -77 -5 -10 -18
-25 -28 -34 -10 -9 -18 -21 -18 -27 0 -10 -53 -20 -82 -14 -28 5 -41 63 -25
111 12 35 13 47 1 78 -9 25 -13 82 -12 168 l1 130 7 -110 c7 -118 28 -228 42
-219 4 3 8 1 8 -4 0 -5 10 -9 23 -8 13 1 21 -4 19 -12 -1 -8 2 -11 8 -7 8 5 6
13 -6 26 -18 20 -12 55 8 43 7 -4 3 4 -9 18 -30 32 -29 39 12 65 26 16 35 18
35 8 0 -7 13 -16 30 -20 16 -4 33 -11 36 -17 4 -5 16 0 31 13 20 20 26 21 34
9 7 -11 8 -7 3 14 -5 21 -4 27 5 22 6 -4 11 -2 11 5 0 8 4 8 15 -1 24 -20 17
-4 -10 26 -19 20 -25 37 -23 58 3 28 6 31 33 28 17 -2 38 -11 48 -19 16 -15
17 -13 17 38 0 39 -3 50 -10 39 -8 -13 -11 -11 -16 8 l-6 22 -260 0 c-173 0
-257 -3 -253 -10 4 -6 11 -8 16 -5 5 4 9 1 9 -6 0 -8 4 -8 15 1 12 10 15 10
15 -3 0 -8 8 -14 17 -13 12 1 18 -7 19 -21 1 -12 -2 -20 -7 -17 -4 2 -5 12 -2
21 4 11 2 14 -8 10 -70 -28 -89 -30 -110 -11 -12 10 -24 17 -28 14 -3 -3 -10
5 -16 18 -9 20 -16 22 -87 22 -75 0 -78 -1 -84 -25 -3 -14 -4 -37 -1 -50 2
-14 1 -28 -3 -30 -13 -8 -33 24 -39 63 -4 24 -12 38 -24 40 -12 3 -15 -1 -11
-15 5 -17 5 -17 -9 0 -23 28 -27 20 -10 -29 8 -25 13 -47 10 -50 -6 -6 -37 60
-37 80 0 13 -14 16 -85 16 -77 0 -102 -8 -75 -25 5 -3 -2 -22 -16 -43 -30 -44
-39 -53 -31 -29 4 11 1 17 -8 17 -15 0 -21 31 -8 44 4 3 8 13 9 21 2 12 -10
15 -51 15 -51 0 -53 -1 -69 -37 -15 -36 -16 -18 -1 19 6 15 -7 17 -135 17
-134 1 -141 0 -135 -18 4 -13 0 -20 -16 -24 -26 -7 -69 11 -69 30 0 7 -7 13
-16 13 -12 0 -15 -7 -12 -29 l4 -29 -42 29 c-52 36 -59 36 -80 3 -15 -22 -15
-27 -3 -35 11 -7 11 -9 -3 -9 -10 0 -18 -4 -18 -10 0 -9 41 -13 127 -14 12 0
19 -5 16 -10 -4 -5 13 -7 42 -3 26 4 71 7 99 8 69 1 32 17 -44 19 -40 1 -49 4
-35 10 41 16 168 -17 195 -51 10 -12 20 -16 29 -10 11 7 3 17 -34 40 -27 17
-47 32 -44 32 2 1 16 2 31 3 19 1 24 -1 18 -9 -7 -8 0 -19 20 -34 17 -12 28
-26 25 -31 -3 -4 -2 -10 2 -13 5 -2 2 -2 -6 0 -12 3 -11 0 2 -15 9 -10 17 -24
17 -31 0 -6 6 -14 14 -17 13 -5 33 -58 28 -76 -1 -5 2 -8 7 -8 23 0 17 -33
-15 -77 -19 -26 -34 -56 -34 -65 0 -9 -4 -19 -9 -22 -5 -4 -7 2 -4 13 7 27
-10 33 -43 16 -16 -8 -36 -15 -44 -15 -9 0 -20 -4 -26 -10 -21 -21 -12 33 12
71 13 21 21 39 17 39 -5 0 -1 6 8 13 9 7 18 19 22 27 3 8 5 0 4 -17 -1 -18 -4
-33 -8 -33 -8 0 -31 -51 -25 -57 15 -15 96 54 96 82 0 5 -5 3 -10 -5 -8 -13
-10 -13 -10 1 0 9 3 19 7 22 3 4 8 23 10 42 4 39 -18 49 -36 18 -9 -15 -10
-12 -11 14 0 54 -34 68 -161 68 -66 0 -105 -4 -101 -10 10 -16 11 -105 1 -105
-5 0 -9 15 -9 33 0 55 -11 77 -39 83 -61 14 -91 26 -115 50 -14 14 -29 23 -35
20 -5 -3 -15 7 -22 23 -7 16 -17 27 -21 25 -5 -3 -6 -10 -2 -15 8 -14 -63 -41
-100 -37 l-31 4 42 12 c30 9 41 17 37 27 -4 8 -2 15 4 15 5 0 13 7 16 16 3 8
2 12 -4 9 -6 -3 -10 -1 -10 6 0 7 -10 3 -24 -10 -16 -15 -26 -19 -31 -11 -4 6
-14 9 -22 5 -13 -5 -14 -3 -3 11 12 14 10 15 -21 12 -26 -2 -33 -7 -31 -20 4
-24 -15 -23 -28 2 -6 11 -18 20 -26 20 -8 0 -12 -4 -9 -10 4 -7 -3 -7 -20 0
-37 14 -55 12 -55 -5 0 -8 -4 -15 -10 -15 -5 0 -10 7 -10 15 0 12 -16 15 -84
15 -47 0 -87 -4 -90 -9z m361 -151 c-3 -14 0 -18 14 -17 11 1 19 7 19 15 0 7
6 12 13 10 7 -3 13 -24 13 -51 1 -28 -2 -44 -8 -41 -5 3 -8 -2 -6 -12 2 -11
-2 -18 -9 -16 -16 3 -16 -1 2 -44 18 -44 57 -92 71 -87 5 2 8 22 7 46 -2 32
-1 37 6 22 5 -11 10 -32 10 -47 1 -29 18 -37 38 -17 9 9 11 7 7 -8 -5 -17 4
-25 48 -46 40 -18 56 -21 67 -13 11 8 13 8 8 0 -4 -7 0 -15 9 -18 9 -4 13 -2
8 5 -4 7 2 7 16 -1 14 -8 43 -10 74 -7 28 2 60 2 71 -2 81 -25 68 -57 -15 -35
-30 8 -84 14 -119 14 -57 0 -69 -3 -94 -27 -29 -27 -29 -15 1 19 13 15 11 19
-19 38 -19 11 -40 18 -46 15 -7 -2 -13 0 -13 4 0 10 -25 22 -55 26 -11 2 -32
6 -47 10 -18 5 -28 3 -28 -4 0 -6 4 -11 9 -11 13 0 41 -64 41 -95 0 -23 -2
-25 -14 -16 -19 16 -66 -13 -66 -40 0 -11 -4 -19 -9 -19 -4 0 -6 11 -3 25 2
14 0 25 -7 25 -6 0 -8 -8 -4 -17 3 -10 3 -15 -1 -11 -4 3 -9 12 -10 20 -6 29
-19 48 -32 48 -8 0 -14 -2 -14 -4 0 -10 31 -74 49 -101 17 -24 21 -26 27 -12
3 9 10 14 15 11 5 -3 9 0 9 5 0 6 5 11 11 11 6 0 -1 -14 -16 -31 -14 -18 -24
-38 -21 -45 3 -8 -1 -14 -8 -14 -7 0 -23 25 -36 55 -13 30 -28 55 -34 55 -15
0 -14 62 2 79 7 7 12 17 10 21 -2 4 -19 41 -38 83 -30 64 -39 74 -59 73 -13 0
-26 5 -29 13 -4 11 2 13 28 7 32 -6 33 -5 16 13 -9 10 -35 21 -56 25 -44 7
-47 11 -25 32 9 9 15 11 15 4 0 -6 5 -8 10 -5 6 3 10 1 10 -6 0 -18 82 -2 101
21 9 10 20 16 23 12 4 -3 4 1 0 11 -5 13 -1 17 16 17 12 0 18 4 15 11 -4 6
-14 8 -22 5 -8 -3 -11 -1 -8 4 3 6 1 10 -5 10 -6 0 -8 5 -4 11 5 8 9 8 14 -1
5 -8 9 -4 13 10 5 19 8 20 27 10 14 -8 20 -18 17 -30z m-304 -27 c-3 -10 -19
-35 -36 -55 l-29 -38 49 0 c26 0 55 -5 63 -10 8 -5 12 -10 8 -10 -3 0 7 -14
23 -31 29 -31 38 -59 19 -59 -5 0 -10 -7 -10 -15 0 -8 5 -15 10 -15 6 0 10 6
10 13 0 6 14 -13 31 -43 17 -30 42 -66 56 -79 16 -15 22 -29 18 -40 -4 -9 -10
-24 -12 -33 -4 -13 -12 -16 -29 -12 -17 4 -37 -2 -63 -19 -44 -30 -98 -47 -87
-28 4 6 1 11 -9 11 -9 0 -14 4 -10 9 9 15 -30 22 -59 12 -17 -7 -26 -7 -26 -1
0 6 -6 10 -13 10 -8 0 -22 18 -32 41 -16 33 -17 47 -8 80 6 22 7 42 3 44 -4 3
-4 24 1 47 11 58 11 58 -6 52 -8 -4 -15 -13 -15 -22 0 -8 -25 -41 -55 -73 -45
-47 -54 -53 -51 -34 3 14 17 40 31 59 15 19 24 39 21 44 -3 6 1 15 10 22 8 7
12 20 9 29 -4 12 -2 12 9 -2 12 -16 16 -12 45 48 23 46 38 66 56 71 13 3 31
14 41 25 22 24 46 25 37 2z m1122 -235 c34 -15 36 -67 3 -69 -22 -1 -22 -1 2
-8 17 -4 32 -21 44 -49 11 -23 25 -42 31 -42 6 0 21 -9 33 -20 12 -12 23 -16
27 -10 3 6 -5 14 -18 19 -13 5 -31 21 -40 35 -16 24 -16 28 -2 50 9 13 26 27
38 30 31 7 133 -8 151 -23 13 -11 19 -11 31 -1 8 7 23 9 32 5 17 -6 17 -7 -2
-21 -19 -14 -19 -14 5 -12 22 3 25 0 22 -27 -2 -16 -10 -43 -18 -58 -12 -25
-11 -28 1 -23 8 3 14 0 12 -6 -1 -7 8 -13 20 -14 12 -1 28 -4 37 -7 9 -4 16
-1 16 6 0 8 4 7 10 -3 5 -8 11 -12 15 -9 8 8 75 -57 75 -73 0 -10 -3 -9 -10 2
-6 10 -10 11 -10 3 0 -7 -7 -13 -16 -13 -8 0 -12 4 -9 10 4 6 -1 7 -10 3 -10
-3 -20 -2 -24 4 -9 13 -121 42 -121 31 0 -5 -5 -6 -10 -3 -6 4 -8 11 -4 16 3
5 0 16 -6 24 -10 12 -10 15 1 15 10 1 9 4 -3 11 -40 23 -128 -15 -128 -56 0
-18 -5 -25 -20 -25 -11 0 -20 -2 -20 -5 0 -16 32 -65 47 -74 10 -5 14 -13 10
-18 -5 -4 -15 1 -23 12 -8 11 -21 28 -29 38 -8 9 -15 24 -15 33 0 8 -4 12 -10
9 -5 -3 -18 0 -28 7 -27 19 -109 92 -94 84 6 -4 12 -3 12 3 0 15 -15 21 -30
11 -12 -7 -3 -22 45 -72 33 -34 68 -68 77 -76 12 -9 16 -23 14 -45 -3 -18 -5
-38 -5 -44 -1 -7 -6 -13 -12 -13 -5 0 -8 4 -5 9 4 5 -3 7 -15 4 -19 -5 -20 -4
-8 15 12 19 10 24 -11 47 -13 14 -30 23 -36 21 -7 -3 -18 3 -26 11 -11 15 -11
16 5 10 11 -4 4 10 -20 38 -39 47 -53 55 -53 30 0 -8 -10 -19 -21 -26 -17 -8
-24 -8 -36 3 -17 18 -8 68 13 68 22 0 18 11 -35 100 -42 70 -48 85 -36 96 26
26 42 15 60 -43 17 -52 84 -145 85 -116 0 7 -8 17 -17 22 -10 5 -26 23 -35 39
-15 26 -16 31 -4 42 11 8 20 8 34 1 29 -16 42 5 35 56 -6 47 -5 48 32 31z
m631 -124 c106 -49 110 -51 102 -59 -5 -5 -13 -3 -93 29 -36 15 -38 15 -20 1
25 -20 21 -56 -12 -106 -27 -40 -30 -64 -18 -116 7 -31 6 -33 -18 -33 -14 0
-28 7 -31 16 -18 47 5 142 41 163 15 9 13 10 -13 6 -30 -5 -33 -2 -48 37 -13
32 -14 43 -5 52 9 8 10 8 5 -1 -5 -9 2 -13 21 -14 17 -1 21 -3 11 -6 -25 -6
-23 -23 2 -18 11 2 22 -1 26 -7 10 -15 23 10 16 34 -2 10 -24 28 -48 40 -24
11 -44 22 -44 24 0 12 38 -1 126 -42z m-877 -20 c-7 -16 -14 -50 -16 -75 -4
-44 -2 -49 29 -72 18 -14 51 -30 73 -36 22 -6 46 -15 53 -20 20 -12 10 -46
-14 -49 -12 -2 -27 -15 -33 -29 -11 -24 -9 -28 21 -53 l33 -28 -27 5 c-16 3
-28 10 -28 17 0 6 -5 4 -11 -4 -9 -12 -10 -11 -6 7 5 24 -14 38 -31 21 -7 -7
-16 -7 -29 1 -17 10 -17 11 5 17 24 7 28 24 12 55 -9 15 -7 19 7 19 17 1 16 2
-1 15 -11 8 -14 15 -8 15 7 0 12 5 12 10 0 6 -6 10 -14 10 -8 0 -24 12 -36 28
-17 21 -21 36 -17 67 4 41 -8 65 -30 58 -7 -3 -10 -10 -7 -18 5 -13 -64 -44
-96 -43 -8 0 -24 -3 -34 -7 -16 -7 -18 -5 -14 19 4 18 0 29 -11 35 -12 7 -8
11 19 15 19 4 44 6 55 6 78 1 106 9 127 36 25 31 34 20 17 -22z m-1304 -221
c22 -17 22 -19 7 -48 -10 -16 -20 -31 -24 -33 -4 -2 -12 -28 -19 -58 -8 -34
-17 -54 -26 -54 -10 0 -12 -6 -8 -21 13 -41 46 -108 55 -114 6 -4 8 -11 5 -16
-4 -5 -1 -9 4 -9 6 0 11 -7 11 -16 0 -8 4 -12 10 -9 6 3 10 -1 10 -9 0 -8 9
-21 19 -28 12 -9 17 -19 12 -27 -4 -7 -6 -23 -3 -36 3 -19 -1 -25 -20 -30 -28
-7 -93 18 -106 42 -9 15 -11 15 -26 1 -9 -9 -16 -22 -16 -28 0 -6 -4 -8 -10
-5 -5 3 -10 24 -10 45 0 21 -4 41 -9 44 -5 3 -7 15 -4 26 4 16 2 19 -11 14 -9
-3 -16 -10 -16 -16 0 -5 -4 -6 -10 -3 -5 3 -10 21 -11 38 0 27 -2 29 -9 12 -9
-19 -9 -19 -16 3 -3 12 -10 22 -14 22 -10 0 -1 78 12 102 5 10 20 21 34 24 25
6 26 9 23 75 -5 93 19 120 98 110 6 -1 14 3 18 9 9 14 23 12 50 -7z m1875 -83
c0 -4 7 -10 14 -13 10 -4 13 -1 9 9 -3 9 2 14 16 14 12 0 21 -5 21 -11 0 -5
-4 -7 -10 -4 -5 3 -10 1 -10 -4 0 -6 9 -11 20 -11 11 0 20 6 20 13 0 8 7 14
15 14 18 0 19 -9 3 -26 -8 -9 -8 -11 -2 -8 7 4 15 0 18 -9 3 -8 10 -13 15 -10
23 14 15 -31 -8 -51 l-26 -22 30 -1 c17 -1 38 -3 48 -5 9 -2 17 2 17 8 0 5 2
8 5 5 9 -8 -23 -63 -51 -87 -21 -18 -28 -20 -35 -10 -5 8 -9 10 -9 5 0 -10
-30 21 -75 78 -22 28 -35 36 -52 33 -26 -5 -27 -3 -13 24 7 12 7 25 1 36 -11
21 7 53 26 46 7 -3 13 -9 13 -13z m-1215 -41 c15 -15 20 -33 20 -74 0 -38 4
-54 12 -51 12 5 12 0 -6 -62 -11 -39 -34 -63 -47 -49 -8 7 33 84 48 90 9 4 8
6 -3 6 -8 1 -31 -19 -49 -44 -36 -47 -58 -59 -106 -53 -20 2 -33 14 -51 45
-12 23 -24 51 -26 62 -5 36 -13 32 -27 -11 -13 -44 -27 -81 -40 -108 -10 -20
-40 -25 -40 -7 0 9 -4 17 -9 19 -5 2 -12 24 -16 50 -7 43 -5 48 20 64 15 10
39 18 54 19 19 0 27 6 29 22 3 21 61 73 81 73 6 0 28 9 49 20 42 23 76 20 107
-11z m1530 -277 c-1 -2 16 -24 39 -48 39 -44 60 -92 47 -111 -13 -19 -43 -22
-71 -8 -36 18 -40 19 -40 2 0 -17 -68 -21 -86 -6 -9 7 -15 5 -22 -8 -5 -10 -8
-23 -6 -28 3 -6 -5 -29 -16 -50 -18 -36 -19 -37 -17 -12 1 15 5 27 9 27 4 0 8
5 8 11 0 5 -5 7 -11 3 -8 -4 -8 -1 0 14 6 12 10 25 9 29 -6 23 36 111 86 179
6 7 24 12 42 11 18 -1 31 -3 29 -5z m-253 -40 c-21 -16 -22 -21 -13 -62 6 -25
11 -64 11 -87 0 -37 3 -43 25 -49 13 -3 29 -12 36 -20 14 -18 11 -17 -41 1
-53 19 -92 19 -152 0 -38 -11 -48 -11 -48 -1 0 17 24 48 35 46 26 -6 38 4 55
44 11 24 21 53 23 65 2 13 8 26 13 29 6 4 13 15 17 24 3 9 16 18 29 21 13 2
25 5 28 5 3 1 -5 -6 -18 -16z m-765 -210 c13 -8 3 -19 -108 -121 -40 -36 -79
-36 -79 -1 0 11 -8 24 -19 29 -10 6 -21 19 -23 29 -4 14 1 18 26 20 16 2 38
10 48 19 11 10 18 12 18 4 0 -13 41 -6 80 15 29 15 40 17 57 6z"/>
<path d="M1420 814 c0 -32 -58 -90 -73 -75 -6 6 -30 11 -54 11 -43 0 -44 -1
-67 -52 -13 -29 -22 -54 -22 -55 1 -1 19 3 39 9 41 12 50 39 20 57 -16 9 -16
12 -3 21 18 12 51 3 67 -18 10 -12 9 -18 -5 -28 -15 -12 -12 -14 23 -15 22 -1
52 -3 67 -4 16 -1 29 4 33 13 5 12 9 12 27 -4 15 -14 22 -16 25 -6 3 7 12 19
20 27 17 17 11 45 -9 45 -9 0 -9 3 2 10 12 8 12 10 -2 15 -9 4 -15 12 -12 18
6 18 -7 31 -43 44 -31 11 -33 10 -33 -13z"/>
<path d="M3035 749 c-22 -4 -60 -5 -84 -2 l-43 6 17 -26 c20 -31 59 -46 108
-41 20 3 37 0 37 -5 0 -23 -56 -114 -74 -121 -25 -10 -125 -100 -111 -100 10
0 43 21 75 47 54 44 94 73 101 73 5 0 8 3 7 8 -3 9 33 64 39 58 3 -2 -3 -16
-12 -30 -16 -24 -16 -28 -1 -51 9 -14 18 -25 20 -25 2 0 4 44 3 97 0 78 -3
100 -16 110 -9 7 -18 12 -21 12 -3 -1 -23 -5 -45 -10z"/>
</g>
</svg>
