<?xml version="1.0" standalone="no"?>
<!DOCTYPE svg PUBLIC "-//W3C//DTD SVG 20010904//EN"
 "http://www.w3.org/TR/2001/REC-SVG-20010904/DTD/svg10.dtd">
<svg version="1.0" xmlns="http://www.w3.org/2000/svg"
 width="798.000000pt" height="449.000000pt" viewBox="0 0 798.000000 449.000000"
 preserveAspectRatio="xMidYMid meet">
<metadata>
Created by potrace 1.15, written by Peter Selinger 2001-2017
</metadata>
<g transform="translate(0.000000,449.000000) scale(0.100000,-0.100000)"
fill="#000000" stroke="none">
<path d="M1740 4473 c0 -8 -10 -17 -22 -22 -17 -6 -8 -10 41 -15 39 -5 67 -3
75 3 19 16 126 -20 126 -42 0 -6 -3 -7 -6 -4 -4 3 -15 2 -26 -4 -14 -7 -29 -7
-51 0 -35 13 -97 4 -94 -13 1 -6 -4 -10 -10 -8 -7 1 -13 -7 -13 -18 0 -15 7
-20 24 -20 14 0 28 5 32 11 4 8 9 7 15 -2 14 -23 11 -26 -18 -21 -22 3 -25 2
-17 -8 17 -17 49 -8 49 15 0 21 28 32 83 34 25 1 34 -4 41 -22 13 -33 38 -51
58 -41 10 4 22 8 27 8 11 1 17 36 9 50 -4 5 -10 1 -14 -10 -7 -18 -8 -17 -8 3
-1 12 -6 25 -11 28 -6 4 -8 11 -5 16 8 12 55 12 55 -1 0 -7 6 -7 19 0 11 5 33
10 50 10 22 0 29 4 25 15 -3 8 -2 20 2 27 4 7 9 20 9 29 1 15 -18 17 -182 17
-113 1 -181 -3 -178 -9 4 -5 2 -9 -4 -9 -5 0 -13 5 -16 10 -9 15 -65 8 -65 -7z"/>
<path d="M2520 4442 c-8 -3 -23 -13 -33 -23 -19 -17 -18 -18 17 -49 29 -26 34
-35 26 -51 -9 -16 -14 -17 -30 -6 -11 6 -20 20 -20 29 0 13 -8 18 -25 18 -21
0 -24 -3 -16 -17 23 -42 38 -54 69 -55 34 -1 39 -7 21 -25 -7 -7 -7 -13 -1
-17 6 -4 22 5 36 19 14 14 34 25 44 25 11 0 23 7 26 16 8 22 8 24 -8 18 -7 -3
-21 7 -31 23 -16 24 -16 26 -2 14 10 -8 20 -11 23 -8 10 9 -6 28 -33 38 -16 6
-23 14 -19 24 6 17 -9 21 -19 5 -3 -5 -11 -10 -17 -10 -6 0 -6 6 2 15 15 18
11 24 -10 17z"/>
<path d="M1255 4433 c-24 -6 -46 -34 -40 -50 2 -7 0 -15 -5 -18 -4 -3 -5 -17
-1 -33 7 -24 11 -27 47 -24 22 2 59 -4 83 -14 33 -13 47 -14 67 -5 14 6 38 11
54 11 17 0 30 5 30 10 0 6 8 10 18 9 10 0 12 -3 5 -6 -20 -8 -15 -23 8 -23 14
0 19 5 17 18 -3 12 -13 17 -36 16 -17 -1 -30 1 -29 5 3 11 -53 91 -63 91 -6 0
-4 -15 4 -35 16 -39 5 -46 -21 -15 -10 11 -23 20 -30 20 -6 0 -16 6 -20 14 -9
14 -47 37 -60 35 -4 -1 -17 -4 -28 -6z"/>
<path d="M5224 4389 c-17 -28 -22 -72 -11 -90 9 -15 9 -21 0 -27 -11 -7 -19
-43 -30 -139 -5 -43 -19 -53 -40 -32 -15 15 -50 2 -63 -22 -9 -15 -7 -19 7
-19 15 0 16 -2 3 -10 -11 -7 -4 -10 26 -10 28 0 46 6 59 20 12 13 31 20 57 20
35 0 38 2 38 28 0 16 3 32 8 36 4 4 7 11 8 14 8 48 19 72 33 72 14 0 14 2 1
10 -13 9 -13 10 0 10 8 0 21 9 28 20 7 11 19 20 26 20 16 0 31 34 21 50 -3 5
-14 10 -24 10 -9 0 -45 11 -79 24 -36 14 -64 20 -68 15z"/>
<path d="M3954 4370 c-20 -12 -36 -15 -45 -9 -21 13 -29 11 -29 -10 0 -11 9
-23 20 -26 49 -15 5 -45 -66 -45 -42 0 -26 -16 41 -39 35 -13 74 -31 86 -42
12 -10 26 -16 31 -13 4 3 7 2 6 -3 -2 -4 10 -25 26 -46 24 -31 29 -48 27 -80
-1 -23 -7 -44 -13 -48 -19 -12 8 -18 43 -10 19 5 47 12 62 15 22 5 27 11 22
26 -4 13 -2 20 7 20 22 1 -53 30 -77 30 -19 0 -22 4 -19 23 2 12 2 16 -2 10
-9 -21 -26 -15 -19 6 4 14 0 21 -15 26 -45 14 -12 64 45 67 22 2 46 8 52 15
13 12 35 -2 88 -55 17 -17 30 -21 49 -16 24 6 24 7 10 29 -14 22 -14 25 10 40
14 10 35 15 46 12 11 -3 20 -1 20 4 0 5 11 7 25 3 18 -4 27 -1 31 11 4 10 1
21 -6 25 -10 6 -11 12 -3 22 9 11 -2 13 -60 15 -40 0 -64 -1 -54 -4 9 -2 17
-11 17 -20 0 -8 -6 -13 -13 -10 -7 3 -23 -1 -36 -7 -18 -10 -29 -10 -56 3 -18
9 -35 23 -38 32 -2 9 -22 22 -43 29 -22 7 -42 17 -45 23 -12 18 -92 16 -125
-3z"/>
<path d="M6427 4341 c-3 -13 -17 -21 -46 -26 -24 -4 -45 -13 -48 -21 -5 -13
-8 -13 -23 1 -15 14 -58 17 -70 5 -22 -22 -48 -27 -78 -14 -18 7 -39 11 -46 8
-8 -3 -21 4 -29 16 -16 23 -21 20 -30 -20 -6 -24 -3 -26 46 -37 33 -8 68 -9
95 -4 69 13 118 -5 107 -40 -9 -29 10 -23 26 8 11 20 11 27 2 30 -21 7 -15 22
17 38 36 19 66 19 77 1 4 -7 23 -15 41 -18 27 -4 33 -1 38 18 7 29 1 39 -38
58 -38 20 -35 20 -41 -3z"/>
<path d="M3577 4290 c-18 -21 -16 -23 19 -21 26 2 59 -39 84 -107 18 -46 19
-47 64 -48 26 -1 53 -7 60 -13 15 -13 13 -15 60 45 30 37 28 66 -5 75 -39 11
-45 10 -74 -16 -20 -20 -25 -32 -21 -50 10 -40 -2 -29 -13 12 -6 20 -7 40 -3
43 4 3 13 13 21 22 12 16 10 19 -15 28 -19 8 -36 8 -57 1 -23 -9 -35 -7 -58 6
-16 10 -29 23 -29 30 0 19 -13 16 -33 -7z"/>
<path d="M991 4286 c-7 -8 -10 -19 -7 -24 3 -6 -11 -27 -32 -49 -41 -42 -41
-51 0 -94 23 -24 114 -15 129 12 11 22 11 22 -30 8 -17 -6 -39 -8 -48 -4 -14
5 -8 10 24 25 43 19 59 38 64 80 3 18 -2 27 -21 36 -48 23 -67 25 -79 10z"/>
<path d="M1213 4239 c-18 -5 -33 -16 -33 -24 0 -9 -10 -15 -22 -15 -17 -1 -12
-5 15 -15 41 -14 58 -25 39 -25 -23 0 -12 -18 17 -28 20 -7 32 -7 40 1 9 9 14
8 20 -2 6 -9 18 -11 36 -7 22 6 32 1 63 -32 54 -56 182 -119 218 -105 16 6 19
49 4 58 -5 3 -10 -1 -10 -9 0 -9 -5 -16 -11 -16 -5 0 -7 -4 -4 -10 9 -14 -10
-12 -51 5 -20 8 -33 19 -29 25 8 13 -14 35 -44 45 -17 5 -20 10 -12 18 6 6 11
20 11 31 0 10 -3 16 -7 13 -10 -11 -42 23 -36 39 3 8 -1 14 -10 14 -8 0 -20 7
-27 15 -7 8 -15 13 -19 10 -4 -2 -25 2 -47 10 -45 16 -57 17 -101 4z"/>
<path d="M3082 4061 c1 -28 6 -41 16 -41 8 0 12 -6 9 -15 -4 -8 -2 -17 4 -21
6 -4 6 -11 -2 -21 -10 -12 -10 -19 0 -35 17 -27 11 -30 -22 -13 -16 8 -29 10
-32 4 -4 -5 4 -13 17 -18 23 -10 22 -10 -4 -10 -34 -1 -38 -28 -5 -34 21 -4
21 -4 1 -6 -13 0 -24 -10 -27 -21 -3 -11 -12 -20 -21 -20 -18 0 -22 25 -6 35
6 3 10 11 10 17 0 6 -9 3 -20 -7 -19 -17 -21 -17 -40 0 -17 16 -20 16 -20 2 0
-9 5 -19 10 -22 6 -3 10 -13 10 -21 0 -10 -13 -14 -42 -15 -24 0 -36 -3 -28
-6 8 -4 22 -14 31 -25 9 -10 21 -18 27 -18 6 0 26 -13 44 -30 18 -16 38 -30
44 -30 6 0 19 -10 30 -22 l19 -21 -35 7 c-19 3 -43 15 -55 25 -11 10 -36 21
-56 25 -20 4 -56 20 -80 36 -24 16 -51 27 -61 24 -9 -2 -19 0 -23 6 -3 5 -15
10 -26 10 -12 0 -19 7 -19 20 0 11 0 23 0 28 -1 4 16 9 37 12 32 4 38 8 35 27
-2 16 1 21 10 18 9 -4 14 7 16 36 2 33 0 40 -10 31 -7 -5 -30 -13 -50 -17 -47
-9 -60 -25 -62 -74 0 -27 -4 -37 -13 -34 -9 4 -13 -5 -13 -25 0 -18 -6 -32
-16 -36 -9 -3 -14 -13 -11 -20 8 -19 -52 -40 -115 -40 -50 0 -58 -6 -34 -25
11 -9 25 -9 57 -1 27 8 71 9 115 5 66 -6 72 -5 71 12 -2 16 5 18 48 14 28 -1
52 -7 55 -11 3 -5 14 -8 24 -7 10 1 20 -4 22 -11 1 -7 0 -8 -3 -2 -3 8 -9 7
-19 -1 -17 -14 -2 -39 23 -39 8 0 11 -5 8 -10 -4 -6 -15 -8 -26 -5 -10 4 -19
2 -19 -4 0 -5 -8 -12 -19 -16 -22 -7 -53 4 -46 16 3 4 12 6 20 2 20 -7 19 16
0 37 -19 21 -55 16 -84 -11 -11 -10 -24 -19 -30 -19 -5 0 -11 -7 -15 -15 -8
-21 21 -19 32 2 9 16 11 16 27 0 30 -30 55 -39 96 -32 21 4 39 11 39 16 0 5
26 9 58 9 66 1 142 14 151 26 3 5 11 9 16 10 6 0 23 4 38 8 31 9 63 -8 40 -22
-6 -4 -10 -20 -9 -35 2 -15 -2 -27 -7 -27 -8 0 -8 -3 0 -11 14 -14 -9 -60 -34
-71 -13 -5 -9 -7 12 -6 17 1 35 -1 42 -5 7 -4 16 -1 21 8 8 15 10 15 21 1 16
-19 6 -55 -11 -38 -16 16 -38 3 -38 -25 0 -26 -17 -64 -33 -75 -22 -14 15 -38
57 -38 l41 1 -31 17 c-26 14 -30 21 -23 39 7 20 14 22 88 20 44 0 83 1 85 4 3
3 2 19 -3 35 -7 25 -6 30 9 30 10 0 16 -6 13 -13 -3 -7 0 -13 6 -13 6 0 11 5
11 12 0 7 14 27 32 45 35 37 19 47 -19 11 -23 -21 -34 -13 -11 10 6 6 9 15 5
19 -4 3 -22 -8 -40 -25 -40 -38 -47 -40 -47 -7 0 17 4 23 14 19 8 -3 17 -1 20
4 3 6 -1 12 -9 16 -18 7 -20 37 -3 54 10 10 10 15 -2 22 -22 14 -54 12 -86 -5
-37 -19 -47 -3 -26 41 8 19 13 37 9 40 -3 4 -24 6 -46 6 -31 -1 -39 3 -34 14
3 9 19 14 43 14 21 0 40 5 42 12 4 10 14 9 47 -1 29 -8 47 -9 53 -3 6 6 16 8
23 5 9 -3 12 2 8 16 -3 13 -10 18 -21 14 -10 -4 -13 -2 -8 5 4 7 -10 11 -46
10 -64 -1 -98 -12 -98 -33 0 -8 -5 -15 -11 -15 -5 0 -7 5 -3 12 5 8 2 9 -11 4
-27 -10 -55 2 -49 22 4 10 3 13 -3 6 -4 -6 -29 -16 -55 -22 -57 -14 -58 -15
-58 -2 0 6 8 10 18 10 9 0 28 6 42 13 20 10 24 19 22 45 -3 25 0 32 13 32 14
0 16 -6 11 -31 -5 -27 -4 -29 10 -15 20 20 41 22 25 2 -7 -8 -8 -16 -4 -19 15
-9 103 10 120 26 10 8 32 21 48 27 26 10 28 13 13 21 -10 6 -18 17 -18 24 0
15 -5 17 -50 19 -26 1 -27 3 -29 62 -1 22 -5 33 -12 29 -6 -4 -8 -13 -5 -21 7
-19 -23 -31 -34 -14 -14 22 19 62 47 57 20 -4 23 0 23 30 0 32 -2 34 -28 32
-15 -2 -32 0 -37 3 -6 3 -31 9 -57 13 l-48 7 2 -41z"/>
<path d="M3720 4070 c-11 -7 -8 -10 13 -15 37 -10 35 -29 -2 -22 -22 5 -30 2
-33 -11 -9 -32 9 -62 36 -62 20 0 24 4 19 18 -4 11 3 8 22 -11 25 -24 30 -26
44 -13 11 10 21 12 32 6 12 -7 21 -4 34 10 18 20 18 21 -1 35 -10 8 -25 12
-32 10 -10 -4 -12 2 -7 18 4 14 3 18 -3 9 -10 -15 -57 -1 -64 19 -5 15 -39 21
-58 9z"/>
<path d="M151 4054 c-14 -7 -54 -16 -88 -20 l-64 -6 3 -57 3 -56 46 -3 c34 -2
49 2 60 14 11 13 11 18 2 21 -7 3 -13 12 -13 20 0 10 6 13 16 9 9 -3 20 -6 25
-6 4 0 6 -6 3 -14 -11 -28 27 -24 95 9 39 19 71 40 71 46 0 8 14 9 45 5 25 -4
45 -5 45 -2 0 16 -43 46 -72 51 -39 7 -88 -24 -88 -56 0 -12 -7 -19 -19 -19
-11 0 -21 -6 -23 -12 -3 -8 -9 -5 -16 9 -8 15 -9 30 -2 47 11 31 3 37 -29 20z"/>
<path d="M4560 3900 c-12 -7 -12 -12 -2 -22 6 -6 12 -29 12 -50 0 -31 -4 -38
-20 -38 -11 0 -20 7 -20 15 0 8 -4 15 -10 15 -5 0 -10 9 -10 20 0 13 5 17 14
14 11 -4 13 0 9 15 -3 12 -7 21 -9 21 -9 0 -64 -54 -59 -58 3 -3 0 -11 -7 -19
-9 -11 -5 -16 21 -26 34 -12 43 -32 11 -23 -11 3 -28 8 -39 11 -21 6 -49 -21
-35 -35 5 -4 39 -24 76 -43 l67 -34 -5 33 c-5 36 14 55 46 47 14 -4 18 1 17
24 -1 15 -6 31 -12 35 -5 4 -6 10 -2 15 5 4 12 1 17 -7 16 -26 35 3 20 30 -9
16 -15 19 -23 11 -18 -18 -49 17 -36 40 11 21 3 24 -21 9z"/>
<path d="M7338 3896 c-10 -7 -16 -15 -13 -18 3 -2 -12 -4 -33 -4 -20 1 -42 7
-47 14 -14 17 -42 6 -48 -20 -5 -16 -11 -19 -31 -14 -19 5 -24 3 -20 -8 6 -16
-12 -31 -21 -17 -3 6 -13 7 -22 4 -12 -5 -14 -3 -8 7 6 10 2 12 -16 7 -13 -4
-27 -7 -31 -7 -5 0 -8 -6 -8 -14 0 -8 -6 -17 -12 -19 -16 -7 28 -45 57 -49 11
-2 19 -8 18 -14 -3 -14 116 -29 127 -17 3 4 13 27 20 51 13 43 27 51 48 30 9
-9 12 -6 12 14 0 33 32 42 96 28 36 -8 49 -8 55 1 13 21 0 34 -34 34 -20 0
-31 5 -29 13 3 16 -38 15 -60 -2z"/>
<path d="M1060 3699 c0 -5 -6 -9 -14 -9 -19 0 -37 -25 -31 -42 4 -9 28 -28 55
-42 l50 -27 24 24 c32 32 78 27 164 -19 71 -38 72 -39 72 -21 0 19 -71 127
-84 127 -6 0 -26 -9 -44 -20 -45 -28 -73 -25 -96 8 -14 22 -26 28 -57 28 -21
1 -39 -2 -39 -7z"/>
<path d="M4210 3691 c-5 -11 -10 -32 -10 -46 0 -21 4 -25 18 -21 13 4 19 1 19
-9 0 -9 -6 -14 -12 -11 -7 2 -25 -7 -40 -20 -21 -18 -40 -24 -73 -24 l-46 0
22 -20 c11 -11 27 -17 35 -14 8 3 18 1 22 -5 3 -6 -1 -11 -9 -11 -10 0 -16 -9
-16 -25 0 -20 5 -25 24 -25 13 0 33 -3 43 -6 16 -6 15 -5 -2 9 -23 17 -28 74
-8 95 16 17 18 16 57 -23 37 -37 63 -44 72 -21 3 8 11 14 17 12 7 -1 9 -1 5 1
-17 10 -8 43 12 43 24 0 25 8 4 32 -14 14 -14 20 -4 33 10 12 9 15 -6 16 -11
1 -27 1 -36 0 -9 -1 -19 7 -23 19 -3 11 -13 20 -21 20 -8 0 -14 5 -14 10 0 17
-19 11 -30 -9z"/>
<path d="M5050 3610 c-19 -11 -40 -23 -46 -28 -6 -5 -22 -9 -37 -9 -23 0 -24
1 -11 14 19 20 18 21 -17 19 -37 -2 -59 -28 -59 -70 0 -23 3 -27 12 -18 20 20
33 14 51 -23 18 -39 32 -43 65 -19 24 16 29 53 10 72 -6 6 -10 14 -7 16 4 4
55 9 76 7 18 -2 64 -50 97 -104 17 -26 33 -47 37 -47 12 0 27 56 22 83 -6 30
3 33 31 12 27 -21 86 -20 86 1 0 11 -6 13 -19 9 -22 -7 -51 18 -51 45 0 10 -4
21 -8 24 -17 10 -62 14 -62 5 0 -5 -7 -9 -15 -9 -8 0 -15 4 -15 9 0 5 -16 8
-35 7 -24 -2 -35 1 -35 10 0 19 -28 17 -70 -6z"/>
<path d="M4655 3559 c-22 -4 -53 -10 -70 -14 -16 -4 -39 -8 -50 -10 -11 -2
-32 -8 -48 -14 -26 -10 -27 -13 -25 -73 2 -41 8 -67 18 -76 13 -10 12 -11 -5
-7 -17 5 -16 4 2 -6 13 -7 25 -20 28 -30 4 -11 14 -19 23 -19 21 0 4 -17 -23
-22 -32 -5 -25 -33 8 -31 17 1 27 -3 27 -11 0 -8 20 -19 45 -25 35 -9 45 -16
45 -32 0 -11 4 -18 9 -15 5 4 7 -2 5 -11 -3 -12 3 -22 18 -28 13 -6 22 -18 22
-28 -3 -30 40 -17 44 13 2 14 8 29 13 34 15 16 54 12 74 -6 18 -18 18 -18 -2
-18 -11 0 -26 -6 -33 -14 -6 -8 -21 -16 -33 -18 -14 -2 -22 -10 -22 -23 0 -11
-4 -26 -9 -33 -4 -7 -5 -16 -2 -19 3 -4 6 -1 6 5 0 7 7 12 15 12 8 0 15 -7 15
-16 0 -13 5 -12 26 5 15 12 33 21 40 21 8 0 38 -25 68 -55 49 -51 76 -67 76
-47 0 4 -6 14 -12 21 -11 11 -10 12 0 7 7 -4 19 -3 27 4 9 7 15 8 20 0 3 -5
-1 -10 -10 -10 -12 0 -13 -4 -7 -17 5 -10 7 -24 5 -30 -3 -7 5 -25 16 -39 12
-15 21 -35 21 -45 0 -10 5 -30 12 -46 6 -15 11 -31 10 -35 -1 -5 8 -8 20 -8
13 0 32 -7 42 -15 24 -18 56 -19 57 -2 1 6 0 24 -1 39 -1 14 6 40 14 56 8 16
16 47 18 68 1 24 10 46 23 57 17 16 18 18 2 13 -15 -5 -17 -2 -12 17 4 12 12
27 19 32 13 12 6 69 -9 69 -5 1 -11 -11 -13 -26 -2 -16 -8 -28 -13 -28 -6 0
-17 -6 -25 -14 -32 -32 -158 -28 -139 5 4 5 10 7 15 4 5 -3 11 -1 15 5 3 5 1
10 -5 10 -7 0 -9 8 -5 20 6 20 -9 28 -20 10 -10 -17 -25 -11 -25 10 0 11 8 28
18 38 10 10 21 26 25 35 5 15 3 16 -13 7 -27 -14 -70 4 -70 30 0 24 -25 27
-34 4 -6 -15 -10 -14 -32 7 -22 21 -24 21 -18 4 4 -12 3 -17 -2 -12 -5 5 -14
23 -20 40 -9 28 -16 32 -52 35 -46 3 -82 -11 -82 -33 0 -9 -6 -12 -15 -9 -8 4
-12 10 -9 15 3 5 -7 9 -21 9 -14 0 -24 -4 -21 -9 3 -5 -1 -11 -9 -14 -9 -4
-12 -1 -8 9 4 10 0 12 -13 7 -17 -6 -17 -5 -6 10 8 8 20 13 27 11 8 -3 24 1
37 10 12 9 18 16 13 16 -6 0 -3 5 5 10 13 9 13 10 0 10 -8 0 -30 -4 -49 -10
-25 -7 -40 -6 -62 6 -16 8 -29 16 -29 18 0 3 36 16 80 31 127 42 165 101 112
174 -23 31 -48 39 -97 30z"/>
<path d="M1276 3492 c5 -26 1 -32 -50 -62 -30 -19 -57 -39 -60 -46 -2 -6 22
-33 55 -58 47 -37 63 -44 77 -37 16 10 16 10 -1 11 -10 0 -15 5 -12 10 10 15
35 12 42 -6 4 -10 -4 -24 -23 -39 l-28 -23 42 2 c31 0 41 4 37 14 -3 8 0 10 7
6 8 -5 9 -2 5 9 -5 12 1 19 21 23 15 4 36 13 47 20 19 14 19 14 -3 14 -18 0
-23 5 -20 22 2 17 -4 23 -29 30 -33 9 -57 37 -87 101 -20 44 -28 48 -20 9z"/>
<path d="M3731 3423 c-1 -7 -12 -13 -25 -13 -24 0 -88 -51 -85 -67 1 -4 -3
-21 -9 -36 -17 -41 -15 -47 18 -47 19 0 33 7 40 20 6 11 19 20 29 20 32 0 30
11 -7 45 -32 29 -35 34 -19 41 11 4 22 1 30 -10 13 -18 54 -23 102 -12 17 4
37 2 45 -3 12 -8 12 -12 -3 -29 -18 -20 -16 -38 11 -79 8 -13 18 -20 23 -17 5
3 3 14 -3 24 -7 11 -9 23 -4 27 4 4 12 0 17 -10 12 -21 39 -23 39 -2 0 8 -4
15 -10 15 -5 0 -10 6 -10 13 0 7 -20 34 -45 60 -45 46 -60 50 -93 24 -14 -11
-14 -11 -29 23 -7 14 -12 19 -12 13z"/>
<path d="M175 3360 c-16 -31 -29 -37 -40 -20 -3 6 -16 10 -28 10 l-22 -1 21
-18 c16 -13 20 -25 17 -45 -4 -18 -10 -25 -19 -22 -16 6 -18 -3 -6 -21 12 -19
104 -19 216 -1 14 2 21 -4 25 -20 6 -23 7 -23 27 -5 11 10 24 30 27 44 6 22 2
27 -32 42 -21 9 -42 17 -47 17 -5 0 -24 13 -41 29 -20 18 -34 25 -37 17 -3 -7
-10 -5 -19 7 -19 23 -24 22 -42 -13z"/>
<path d="M5430 3275 c0 -9 -6 -18 -14 -21 -8 -3 -17 -15 -20 -27 -8 -31 -48
-47 -93 -36 -30 6 -45 4 -71 -11 -18 -11 -41 -20 -50 -20 -12 0 -13 -3 -5 -8
18 -11 112 -6 128 8 12 10 16 9 21 -4 3 -9 12 -16 20 -16 13 0 34 -30 34 -49
0 -6 -4 -11 -10 -11 -5 0 -10 6 -10 14 0 19 -27 46 -46 46 -8 0 -14 -5 -14
-12 0 -6 3 -8 7 -5 3 4 11 -1 18 -10 13 -18 9 -53 -7 -53 -6 0 -8 7 -4 15 4
10 -1 15 -14 15 -15 0 -20 -7 -20 -27 0 -26 3 -28 40 -28 22 0 40 3 40 8 0 4
-5 7 -12 7 -6 0 -9 2 -6 5 9 10 58 -7 52 -17 -3 -5 3 -12 14 -15 30 -7 42
-101 14 -111 -7 -2 -10 2 -6 12 15 39 -36 5 -63 -42 -18 -30 -17 -32 11 -32
16 0 31 -11 45 -32 18 -30 19 -34 3 -39 -14 -5 -14 -7 6 -18 25 -13 21 -34 -5
-24 -11 4 -14 3 -9 -5 5 -8 2 -10 -8 -6 -19 7 -22 -16 -4 -34 9 -9 8 -12 -5
-12 -26 0 -39 -34 -22 -56 8 -11 15 -27 15 -36 0 -34 17 -18 23 21 3 22 12 50
21 63 l16 22 1 -29 c0 -17 2 -42 4 -57 4 -30 -20 -62 -37 -51 -6 3 -21 -6 -34
-22 l-22 -28 -45 32 c-25 17 -48 31 -52 31 -4 0 -13 7 -22 16 -21 21 -58 14
-59 -11 -1 -11 -5 -39 -9 -62 -7 -42 -7 -42 28 -48 37 -7 61 0 52 15 -3 5 2
16 11 25 10 10 19 12 23 7 3 -6 19 -14 34 -17 15 -4 30 -11 33 -16 14 -23 65
3 56 29 -6 18 35 15 42 -3 4 -10 17 -14 41 -13 33 3 34 4 15 18 -15 12 -19 26
-18 68 1 54 7 62 64 99 17 10 17 11 -3 6 -26 -6 -31 12 -6 21 13 5 14 9 4 19
-10 9 -16 7 -28 -10 -9 -13 -22 -23 -29 -23 -20 0 -17 37 4 49 16 9 16 10 0
16 -21 8 -26 79 -5 73 6 -3 13 -14 15 -26 3 -22 32 -32 32 -11 0 6 6 9 13 6 7
-3 19 4 26 14 9 16 9 23 -3 34 -8 8 -19 15 -24 15 -6 0 -13 7 -16 16 -4 9 -9
14 -13 11 -3 -4 0 -13 6 -21 7 -8 10 -24 6 -35 -6 -20 -8 -19 -32 9 l-25 30
19 39 c15 30 23 37 34 30 12 -7 12 -9 -1 -9 -8 0 -1 -7 15 -16 21 -11 45 -14
77 -10 l47 5 21 -43 c11 -24 29 -51 40 -61 18 -16 19 -16 34 18 8 20 12 45 9
56 -3 13 -1 21 6 21 7 0 9 5 6 10 -4 6 -1 17 5 25 12 15 11 16 -12 19 -6 0
-13 7 -16 15 -3 8 0 11 6 7 17 -11 22 9 9 38 -11 24 -17 26 -72 26 -49 0 -64
-4 -79 -21 -14 -17 -15 -23 -5 -30 7 -4 10 -11 6 -16 -5 -4 -12 -1 -16 6 -7
11 -13 10 -32 -2 -28 -19 -65 -16 -61 4 2 8 10 29 18 47 19 41 12 66 -17 59
-12 -3 -27 -3 -35 0 -15 5 -19 35 -6 47 9 9 10 76 0 76 -3 0 -8 -6 -11 -12 -3
-7 -3 11 -2 40 3 40 1 52 -11 52 -8 0 -14 -7 -14 -15z"/>
<path d="M4027 3229 c5 -17 3 -21 -8 -17 -56 21 -73 18 -51 -7 19 -21 37 -104
37 -165 l0 -65 75 3 c75 3 75 4 113 48 21 24 46 44 55 44 14 0 15 2 2 9 -8 6
-18 7 -23 4 -5 -3 -22 8 -38 23 -19 18 -42 29 -62 30 -18 1 -35 2 -39 3 -9 2
3 41 13 41 18 0 8 19 -13 25 -13 4 -33 16 -45 27 l-22 20 6 -23z"/>
<path d="M2262 3208 c2 -7 10 -16 18 -20 16 -7 18 -7 -63 -13 -21 -1 -40 -5
-44 -8 -16 -16 5 -147 23 -147 2 0 37 13 77 29 41 16 90 33 110 36 33 6 37 10
37 38 0 42 -21 97 -37 97 -7 0 -13 -9 -13 -20 0 -24 -37 -28 -54 -6 -16 20
-57 31 -54 14z"/>
<path d="M6145 3180 c-3 -5 -1 -19 5 -30 9 -16 8 -18 -5 -14 -8 4 -15 13 -15
21 0 8 -6 13 -12 10 -17 -6 -14 -67 4 -78 7 -5 24 -9 37 -9 30 0 19 -14 -11
-15 -15 0 -24 -9 -29 -27 l-7 -28 81 -2 c151 -4 209 -3 220 4 7 5 0 8 -15 8
-19 0 -28 5 -28 16 0 11 -5 14 -16 10 -11 -4 -15 -2 -11 7 3 8 -3 21 -14 30
-16 14 -19 15 -19 2 0 -8 -4 -15 -10 -15 -5 0 -10 5 -10 11 0 7 -13 9 -37 5
-32 -5 -26 0 42 35 73 38 78 42 60 55 -24 18 -59 18 -95 -1 -20 -10 -31 -12
-36 -4 -3 6 -15 9 -25 6 -10 -3 -22 -1 -25 4 -7 12 -21 11 -29 -1z"/>
<path d="M860 3159 c0 -14 -41 -21 -56 -8 -16 13 -40 -3 -76 -54 l-20 -27 43
-69 42 -68 38 21 c35 19 55 49 28 44 -6 -2 -14 3 -17 11 -3 10 0 12 12 8 12
-5 25 2 41 21 27 32 24 42 -14 42 -32 0 -90 39 -59 40 9 0 20 -4 23 -10 3 -5
33 -10 66 -10 63 0 71 9 49 51 -9 15 -20 19 -55 17 -25 0 -45 -5 -45 -9z"/>
<path d="M1880 3164 c-21 -6 -66 -77 -51 -82 16 -5 14 -32 -3 -32 -7 0 -19 7
-26 15 -7 9 -22 14 -34 13 -13 -2 -20 2 -18 10 1 6 -2 12 -8 12 -5 0 -10 -7
-10 -15 0 -8 -8 -15 -19 -15 -23 0 -47 -25 -31 -35 5 -3 10 -11 10 -16 0 -6
-4 -7 -10 -4 -5 3 -10 -1 -10 -10 0 -14 6 -16 27 -10 27 6 27 6 9 -14 -18 -19
-17 -20 61 -14 l78 6 -25 -22 -25 -21 30 6 c17 4 39 11 49 17 11 5 47 17 80
27 60 16 60 17 73 66 11 44 11 50 -5 62 -15 11 -18 10 -23 -10 l-5 -23 -13 25
c-31 59 -58 75 -101 64z"/>
<path d="M2511 3049 c-26 -16 -31 -23 -20 -29 7 -5 10 -12 6 -16 -11 -11 -47
-15 -47 -6 0 4 -12 7 -27 6 -29 -1 -32 -12 -17 -48 5 -14 4 -17 -6 -11 -8 5
-11 3 -8 -6 6 -19 44 -27 98 -22 100 9 130 15 130 24 0 6 -8 8 -19 4 -10 -3
-38 -1 -62 4 -36 8 -45 7 -56 -7 -12 -16 -12 -16 -13 0 0 31 30 51 72 45 41
-6 56 7 44 38 -3 8 -5 18 -5 21 1 7 -22 24 -31 24 -3 0 -20 -9 -39 -21z"/>
<path d="M3204 2990 c-75 -57 -83 -65 -74 -74 4 -4 6 -14 4 -20 -3 -7 10 -16
28 -21 44 -13 87 -77 88 -130 l0 -40 57 -1 c32 0 69 -4 81 -9 21 -7 23 -6 15
11 -6 10 -21 42 -34 69 -13 28 -26 52 -29 55 -3 3 -16 19 -28 37 -20 29 -25
31 -54 22 -17 -5 -33 -7 -36 -5 -2 2 4 32 12 67 9 34 15 64 13 66 -2 2 -21
-10 -43 -27z"/>
<path d="M6308 2966 c-12 -9 -18 -27 -18 -54 0 -39 2 -42 38 -51 20 -6 52 -11
71 -11 28 0 33 3 28 20 -7 26 19 27 28 1 6 -19 33 -31 73 -31 26 0 27 13 9 85
l-13 50 -100 2 c-69 2 -104 -2 -116 -11z"/>
<path d="M3670 2740 c0 -5 5 -10 11 -10 5 0 7 -5 4 -10 -4 -7 -14 -5 -28 5
-12 8 -25 15 -29 15 -9 0 1 -53 13 -64 14 -15 11 -37 -8 -58 -9 -11 -11 -18
-5 -18 7 0 12 -7 12 -16 0 -8 -4 -13 -9 -10 -5 4 -7 -3 -4 -14 3 -12 -1 -22
-11 -26 -21 -8 -20 -24 2 -24 10 0 27 19 42 47 17 31 38 53 64 67 l39 19 -23
19 c-22 18 -22 18 -1 18 28 0 27 18 -1 22 -15 2 -24 11 -26 26 -3 22 -42 33
-42 12z"/>
<path d="M856 2676 c-6 -26 -26 -36 -26 -13 -1 22 -50 -67 -50 -90 0 -13 -4
-23 -10 -23 -5 0 -10 -6 -10 -14 0 -8 -8 -17 -17 -21 -17 -6 -17 -7 0 -19 14
-11 24 -10 61 9 25 12 58 27 75 33 22 8 29 15 25 26 -7 17 16 22 31 7 15 -13
72 -23 78 -14 3 5 -14 15 -38 22 -33 10 -48 21 -59 44 -9 18 -24 43 -34 56
l-19 24 -7 -27z"/>
<path d="M7805 2590 c-3 -5 -3 -10 1 -10 4 0 -1 -6 -12 -14 -10 -8 -16 -18
-12 -22 4 -4 3 -13 -2 -19 -7 -8 -6 -23 4 -46 8 -19 12 -46 9 -62 -4 -21 -1
-27 13 -28 11 -1 33 -3 50 -4 17 -2 50 -13 72 -24 23 -12 44 -21 47 -21 3 0 5
37 4 82 -2 78 -4 85 -33 113 -32 31 -66 35 -94 13 -18 -15 -26 -3 -13 20 6 12
11 23 11 26 0 10 -39 6 -45 -4z"/>
<path d="M3516 2546 c3 -9 2 -16 -4 -16 -6 0 -12 5 -14 12 -2 6 -10 8 -17 4
-9 -6 -7 -12 8 -23 12 -8 25 -11 31 -8 6 3 7 -1 4 -9 -5 -12 -15 -14 -45 -10
l-39 7 -1 -49 c-1 -27 -1 -57 0 -66 1 -10 -2 -18 -6 -18 -19 0 -63 26 -63 36
0 13 -35 25 -45 16 -3 -4 4 -14 17 -24 l23 -18 -35 2 c-20 1 -41 -2 -48 -6 -7
-4 -12 -1 -12 8 0 20 -34 38 -55 30 -13 -5 -15 -2 -9 21 5 20 4 26 -5 21 -6
-4 -11 -2 -11 5 0 7 -2 10 -4 8 -3 -3 -1 -21 3 -40 7 -32 6 -36 -9 -32 -12 3
-16 11 -12 25 4 18 3 19 -17 9 -25 -14 -27 -30 -6 -57 11 -14 17 -16 23 -7 6
10 17 9 50 0 36 -11 48 -22 71 -63 16 -27 40 -60 54 -73 l25 -23 16 30 c9 17
16 39 16 50 0 25 42 59 82 68 27 5 38 15 61 61 28 55 28 77 2 66 -8 -3 -15 -1
-15 5 0 15 26 22 39 9 6 -6 11 -7 10 -1 0 5 -16 22 -35 38 -21 17 -32 22 -28
12z"/>
<path d="M173 2478 c1 -36 -5 -49 -30 -59 -16 -6 -54 -27 -85 -47 l-58 -37 0
-58 0 -59 39 31 c55 44 102 61 164 61 l54 0 2 50 c1 44 -1 50 -19 50 -13 0
-20 7 -20 18 0 10 -11 29 -24 41 -15 14 -24 18 -23 9z"/>
<path d="M7627 2473 c-3 -3 -3 -12 0 -21 5 -12 1 -14 -26 -9 -26 6 -32 4 -28
-7 7 -18 -18 -40 -37 -33 -10 4 -13 1 -9 -9 3 -10 0 -12 -10 -8 -9 3 -25 0
-37 -6 -25 -13 -20 -38 18 -87 16 -22 20 -33 11 -33 -7 0 -3 -7 9 -16 13 -9
21 -22 18 -30 -11 -28 40 -14 78 21 21 19 41 35 44 35 3 0 19 14 37 32 30 29
32 34 23 67 -16 56 -73 122 -91 104z"/>
<path d="M3659 2434 c-12 -11 -22 -13 -42 -5 -20 8 -31 6 -48 -8 -25 -20 -19
-56 11 -66 10 -3 21 -12 24 -20 3 -8 15 -15 26 -15 15 0 20 -7 20 -25 0 -18
-4 -23 -15 -19 -8 4 -15 2 -15 -2 0 -19 18 -35 50 -44 37 -11 63 2 53 26 -3 9
2 14 16 14 12 0 21 6 21 15 0 8 9 15 19 15 11 0 27 7 35 16 15 14 15 18 -1 45
-10 17 -30 36 -45 43 -26 13 -27 12 -39 -18 l-13 -31 -3 31 c-2 18 -12 39 -22
48 -15 14 -19 14 -32 0z"/>
<path d="M346 2389 c-35 -19 -38 -23 -32 -51 3 -18 1 -37 -5 -44 -8 -9 -8 -14
-1 -14 6 0 12 5 14 11 7 20 51 -10 45 -31 -3 -13 0 -16 13 -13 10 3 21 0 24
-6 9 -14 26 -14 26 -1 0 6 -7 10 -15 10 -8 0 -15 7 -15 15 0 9 9 15 23 15 13
0 28 5 35 12 6 6 15 8 19 4 4 -4 1 -11 -6 -15 -9 -6 -10 -11 -3 -15 6 -4 15 2
21 11 5 10 13 14 18 10 4 -5 -5 -20 -22 -33 l-30 -24 26 0 c34 0 99 27 99 41
0 6 10 9 23 7 17 -2 21 1 19 17 -5 27 -6 27 -36 14 -31 -15 -49 -2 -21 14 11
6 26 13 33 14 6 2 20 5 30 7 9 3 19 5 22 5 2 1 -2 7 -8 13 -10 10 -8 16 10 30
l23 18 -35 -1 c-42 0 -76 -26 -91 -68 -10 -28 -29 -43 -29 -23 0 4 -9 13 -21
20 -19 12 -20 11 -14 -7 5 -16 3 -20 -10 -15 -9 4 -14 13 -11 20 3 8 1 26 -4
40 -8 21 -13 24 -24 15 -10 -9 -15 -8 -20 4 -7 20 -23 18 -70 -6z"/>
<path d="M715 2401 c-3 -5 -1 -12 5 -16 5 -3 10 -11 10 -16 0 -6 -4 -7 -10 -4
-5 3 -10 -1 -10 -9 0 -8 7 -19 16 -24 21 -12 10 -32 -14 -26 -13 4 -17 -1 -17
-26 0 -42 20 -51 97 -43 34 4 55 9 46 11 -15 3 -16 7 -7 25 9 16 9 22 0 25 -6
2 -14 20 -17 41 -4 27 -14 41 -36 54 -33 19 -54 22 -63 8z"/>
<path d="M2668 2361 c-6 -10 -17 -17 -24 -14 -22 8 -29 -47 -13 -92 15 -39 14
-43 -8 -79 -13 -20 -30 -39 -38 -43 -19 -7 -19 -22 -1 -29 8 -3 36 11 62 31
43 33 53 37 91 32 42 -4 43 -4 43 24 0 18 -8 34 -20 41 -11 7 -20 17 -20 21 0
5 -6 15 -14 23 -8 8 -18 34 -22 59 -7 49 -17 56 -36 26z"/>
<path d="M6470 2338 c-1 -23 -54 -76 -83 -83 -29 -8 -40 11 -12 21 24 9 19 37
-5 31 -14 -4 -24 1 -32 16 -10 20 -13 19 -55 -28 -47 -53 -51 -78 -15 -83 40
-6 73 -29 91 -63 15 -28 25 -35 57 -37 22 -2 43 -8 49 -13 14 -14 28 -11 22 6
-4 8 -2 17 3 20 13 8 13 25 0 25 -5 0 -10 -7 -10 -15 0 -22 -18 -18 -25 5 -4
12 1 33 13 53 15 26 25 32 50 31 18 -1 32 2 32 7 0 5 -6 9 -14 9 -21 0 -30 20
-17 33 18 18 13 48 -9 54 -11 3 -20 9 -20 14 0 14 -20 10 -20 -3z"/>
<path d="M4709 2317 c-21 -16 -30 -45 -17 -53 7 -4 6 -9 -3 -14 -18 -12 5
-165 38 -247 14 -35 23 -66 20 -70 -6 -6 -37 21 -37 32 0 3 -7 22 -16 43 -14
33 -17 35 -24 17 -6 -16 -9 -10 -15 26 -6 40 -11 48 -40 59 -19 7 -36 19 -39
26 -3 8 -20 12 -44 11 l-39 -1 29 -55 c36 -68 32 -86 -14 -64 -18 9 -36 21
-40 27 -8 13 -68 16 -68 4 0 -16 -34 -7 -57 14 -13 12 -23 16 -23 9 0 -8 -5
-9 -19 -1 -27 14 -29 13 -24 -14 4 -17 -1 -28 -16 -38 -12 -7 -21 -18 -21 -24
0 -16 -26 -25 -47 -17 -12 5 -15 2 -10 -10 4 -11 1 -17 -8 -17 -8 0 -15 5 -15
10 0 6 -5 10 -11 10 -7 0 -8 -16 -3 -45 8 -54 0 -58 -21 -9 -8 21 -23 42 -32
49 -10 8 -14 20 -10 34 3 11 1 19 -4 15 -5 -3 -9 -11 -9 -19 0 -14 -30 -29
-39 -19 -3 4 0 9 7 11 14 5 17 23 3 23 -21 0 -18 -33 7 -70 21 -33 31 -41 49
-37 21 4 23 1 23 -39 l0 -43 82 2 c55 1 83 6 86 15 2 6 15 12 28 12 14 0 53
13 87 29 148 69 226 46 227 -66 0 -21 7 -46 14 -56 13 -17 16 -17 67 -1 44 15
59 15 98 5 70 -18 99 -33 112 -58 16 -30 49 -30 50 0 1 12 1 26 0 31 -1 5 2
12 7 15 5 3 30 24 56 45 46 40 59 60 31 50 -21 -8 -19 3 6 34 l20 26 -22 8
c-14 6 -20 14 -17 26 4 15 1 18 -18 14 -15 -3 -26 1 -30 11 -4 12 -11 14 -30
7 -13 -5 -31 -7 -39 -4 -15 6 -37 72 -37 113 0 14 -9 34 -19 45 -24 25 -24 42
0 67 10 11 21 33 23 48 3 23 -2 31 -33 49 -21 12 -48 21 -61 21 -13 -1 -31 2
-40 6 -16 6 -18 1 -18 -44 0 -28 -4 -51 -10 -51 -14 0 -23 45 -16 75 7 28 7
29 -15 12z"/>
<path d="M2153 2167 c1 -30 7 -55 12 -54 6 1 10 -7 10 -17 0 -11 -8 -20 -18
-22 -27 -4 -34 -14 -17 -24 8 -5 31 -7 51 -4 22 4 39 2 43 -5 4 -6 17 -11 30
-11 12 0 45 -11 72 -25 55 -28 65 -30 82 -13 28 28 -38 70 -78 48 -23 -13 -35
3 -15 20 23 19 18 43 -19 84 -19 20 -36 42 -38 47 -2 5 -12 3 -23 -5 -20 -15
-20 -15 3 -16 26 0 27 -8 7 -46 -8 -16 -15 -24 -15 -18 0 6 -14 15 -32 20 -35
10 -48 30 -23 36 12 2 11 8 -10 32 l-25 29 3 -56z"/>
<path d="M1290 2190 c-8 -5 -24 -10 -35 -10 -11 0 -26 -9 -33 -20 -7 -11 -22
-20 -33 -20 -17 0 -20 -5 -17 -23 5 -28 -33 -82 -53 -75 -10 3 -6 12 13 31 15
15 23 27 17 27 -5 0 -28 -19 -51 -41 l-42 -41 40 -15 c21 -7 53 -15 69 -17 17
-2 39 -6 51 -10 17 -5 37 10 107 79 83 83 86 87 69 105 -16 17 -63 40 -80 40
-4 0 -14 -5 -22 -10z"/>
<path d="M328 2120 c-2 -6 -35 -15 -73 -21 -38 -5 -72 -13 -75 -17 -12 -18
-56 -42 -75 -42 -31 0 -47 -19 -30 -37 9 -9 12 -24 8 -43 -8 -40 3 -78 25 -82
14 -4 94 42 112 63 3 3 16 9 30 12 43 11 97 59 103 92 3 17 7 37 10 45 2 8 2
12 0 8 -8 -14 -25 -8 -20 7 4 8 2 17 -3 20 -4 3 -10 0 -12 -5z"/>
<path d="M2775 2053 c-10 -16 -24 -31 -31 -36 -8 -4 -12 -24 -10 -52 2 -28 -2
-50 -11 -56 -16 -14 -17 -55 -3 -64 6 -4 18 -1 26 6 10 8 18 9 25 2 12 -12 -5
-27 -31 -28 -11 0 -15 -13 -15 -52 0 -29 2 -53 5 -53 18 1 33 22 35 49 2 17 8
37 14 45 18 22 98 37 177 34 64 -3 70 -5 66 -22 -4 -15 -1 -18 12 -13 14 6 16
3 11 -13 -8 -27 16 -27 33 0 10 17 10 20 -5 20 -15 0 -15 2 -4 9 8 5 16 22 18
37 2 15 8 35 14 45 5 10 9 28 9 41 -1 23 -1 23 -25 -5 -14 -15 -25 -39 -25
-51 0 -13 -7 -27 -16 -30 -23 -9 -29 0 -11 18 17 18 11 66 -9 66 -8 0 -14 -7
-14 -15 0 -9 -9 -15 -22 -15 -14 0 -48 28 -98 80 -42 44 -81 80 -87 80 -6 0
-19 -12 -28 -27z"/>
<path d="M6270 2034 c-9 -30 -20 -49 -32 -52 -10 -2 -18 -12 -18 -22 0 -14 -5
-17 -21 -13 -16 4 -20 2 -17 -8 3 -8 11 -14 19 -14 8 0 20 -8 28 -18 8 -11 21
-17 32 -14 11 3 19 2 19 -3 0 -11 59 -34 68 -26 3 4 1 10 -5 14 -10 6 -9 14 1
32 19 37 31 62 47 95 17 36 52 44 80 19 15 -14 19 -14 19 -3 0 37 -53 51 -105
27 -22 -10 -28 -8 -48 10 -36 34 -53 28 -67 -24z"/>
<path d="M5698 2062 c-10 -2 -18 -8 -18 -13 0 -5 -11 -9 -24 -9 -13 0 -26 -7
-30 -15 -3 -8 -12 -15 -20 -15 -8 0 -16 -6 -19 -12 -3 -10 -8 -8 -18 4 -21 25
-52 25 -79 0 -13 -12 -30 -22 -38 -22 -12 0 -12 -3 -2 -15 17 -20 30 -19 30 2
0 14 3 14 12 5 10 -10 10 -15 -2 -22 -13 -8 -12 -11 5 -25 11 -8 31 -22 45
-29 14 -8 34 -24 44 -35 20 -21 19 -22 -25 -63 -24 -23 -46 -40 -49 -39 -3 2
-13 7 -22 12 -12 6 -18 6 -18 -1 0 -5 7 -10 15 -10 8 0 15 -4 15 -10 0 -5 -4
-10 -9 -10 -5 0 -8 -8 -7 -17 1 -14 -6 -18 -26 -16 -19 1 -29 -4 -33 -18 -7
-20 -14 -23 -37 -14 -9 4 -13 17 -10 40 3 29 8 35 27 35 18 0 25 7 30 30 4 16
11 32 16 35 5 4 2 21 -6 42 -8 19 -13 38 -11 42 6 9 -68 0 -74 -9 -3 -4 -15
-11 -28 -14 -21 -7 -22 -5 -16 20 6 25 5 27 -20 22 -17 -4 -25 -1 -23 6 2 6
16 10 31 9 21 -1 26 3 26 22 0 13 3 32 6 42 3 10 2 14 -3 8 -4 -6 -21 -17 -36
-25 -16 -8 -36 -27 -45 -42 -24 -41 -42 -43 -69 -9 -25 31 -51 32 -75 3 -11
-13 -10 -14 2 -10 8 2 23 -6 34 -20 12 -15 26 -22 37 -19 13 4 19 0 19 -12 0
-25 -11 -33 -26 -20 -7 6 -23 9 -36 7 -22 -4 -22 -5 7 -18 51 -25 102 -91 96
-127 -2 -17 19 -27 32 -14 15 15 87 14 87 -1 0 -8 -16 -13 -45 -14 -25 -1 -51
-7 -59 -13 -11 -10 -17 -8 -25 6 -11 20 -14 13 -11 -31 2 -26 9 -35 93 -108
14 -13 24 -15 38 -7 11 5 19 14 19 20 0 5 10 14 23 19 21 9 21 10 -4 8 -19 -2
-36 7 -58 31 -17 18 -31 34 -31 35 0 0 14 2 31 3 21 2 29 -2 26 -10 -3 -9 8
-13 34 -14 32 -1 39 2 39 17 0 30 11 50 28 50 12 0 13 -3 4 -12 -14 -14 2 -38
24 -38 8 0 14 -10 14 -22 0 -20 -1 -21 -20 -3 -17 15 -20 16 -20 3 0 -22 36
-65 59 -71 30 -7 47 18 27 39 -19 18 -13 34 13 34 18 0 41 18 41 32 0 4 -9 8
-20 8 -11 0 -20 -5 -20 -12 0 -6 -3 -8 -6 -5 -4 4 1 18 10 31 8 14 13 32 10
40 -3 8 10 1 28 -17 27 -25 44 -33 82 -35 56 -3 92 -20 134 -62 31 -30 52 -39
52 -20 0 6 16 18 35 27 29 14 33 19 22 31 -10 13 -9 14 8 5 16 -9 25 -7 45 9
14 12 20 22 14 26 -18 12 -24 53 -8 59 32 12 11 63 -27 63 -16 0 -9 -18 9 -23
14 -3 12 -6 -10 -17 -22 -10 -30 -11 -43 0 -12 10 -18 10 -30 0 -12 -10 -15
-9 -15 5 0 12 -6 16 -20 12 -13 -3 -20 0 -20 9 0 7 -17 21 -37 29 -34 14 -40
14 -68 -1 -45 -24 -71 -16 -67 21 4 27 3 28 -13 15 -16 -14 -17 -13 -11 7 6
18 2 22 -23 28 -17 4 -34 11 -38 17 -4 8 0 9 12 5 9 -4 23 -3 29 1 15 12 66
21 63 12 -1 -5 1 -8 6 -9 4 -1 7 1 7 4 0 3 0 10 0 15 0 6 -9 10 -20 10 -16 0
-20 7 -20 30 0 17 4 30 9 30 5 0 18 8 27 18 17 16 18 16 10 -3 -5 -11 -9 -27
-11 -35 -1 -8 0 -10 2 -4 2 6 17 8 33 6 29 -4 41 10 20 23 -5 3 -13 18 -17 33
-6 19 -13 26 -25 24z"/>
<path d="M2185 1939 c-11 -4 -32 -8 -47 -8 -16 -1 -33 -10 -42 -23 -12 -17
-18 -20 -28 -10 -18 18 -28 15 -28 -8 0 -13 -7 -20 -19 -20 -10 0 -24 -6 -31
-14 -6 -8 -18 -12 -27 -9 -8 3 -18 0 -23 -7 -4 -6 -23 -15 -41 -20 -29 -6 -31
-8 -14 -14 18 -7 60 -25 76 -34 4 -1 9 7 12 19 4 15 11 20 23 15 9 -3 23 -1
31 5 7 7 17 9 20 5 4 -4 1 -11 -6 -15 -7 -5 -12 -13 -10 -19 2 -6 36 19 74 56
39 37 81 74 93 83 27 19 18 31 -13 18z"/>
<path d="M7830 1930 c-8 -5 -25 -10 -37 -10 -55 0 -67 -68 -20 -118 l22 -24
-37 7 c-48 9 -78 -1 -78 -27 0 -19 -1 -19 -24 -4 -29 19 -56 12 -56 -15 0 -26
40 -46 52 -26 15 28 74 2 65 -28 -2 -5 -16 -12 -30 -15 l-27 -5 44 -39 c42
-37 96 -57 96 -35 0 5 -6 9 -13 9 -14 0 -47 60 -47 84 0 20 31 43 68 51 18 4
37 15 42 26 6 10 18 19 26 19 8 0 12 5 9 10 -4 6 -11 8 -16 5 -17 -11 -9 8 8
21 13 9 22 9 30 2 18 -14 18 47 1 68 -47 57 -53 60 -78 44z"/>
<path d="M2240 1898 c0 -8 -17 -24 -37 -35 -34 -19 -92 -75 -132 -126 -12 -15
-11 -21 9 -42 13 -14 27 -25 32 -25 5 0 18 -8 29 -18 49 -47 61 -47 112 1 26
24 47 52 47 63 0 11 6 26 13 33 10 10 9 14 -5 22 -26 15 -22 39 13 70 l31 27
-37 17 c-19 10 -39 15 -42 11 -3 -3 -12 -1 -20 5 -10 9 -13 8 -13 -3z"/>
<path d="M4292 1645 c-39 -51 -42 -100 -11 -170 19 -43 23 -47 50 -43 29 5 40
-6 17 -16 -7 -3 -4 -5 7 -3 13 1 21 11 23 27 2 14 8 29 13 35 5 5 9 17 9 27 0
10 4 18 8 18 12 0 12 28 -1 75 -13 49 -21 61 -56 78 -26 13 -28 12 -59 -28z"/>
<path d="M6150 1681 c0 -13 49 -51 67 -51 12 0 14 -10 9 -47 -13 -105 -15 -98
27 -97 20 1 37 -3 37 -9 0 -6 5 -6 13 0 6 5 30 10 52 12 52 3 71 21 23 21
l-37 0 14 34 15 35 -34 -6 c-29 -5 -38 -1 -63 27 -61 69 -79 85 -100 88 -13 2
-23 -1 -23 -7z"/>
<path d="M4976 1668 c-83 -7 -128 -18 -77 -18 13 0 19 -4 16 -11 -4 -6 -20 -7
-38 -4 -30 7 -31 6 -16 -10 13 -13 14 -21 5 -41 -6 -13 -17 -24 -23 -24 -7 0
-13 -4 -13 -10 0 -5 5 -10 10 -10 14 0 12 -32 -3 -51 -7 -9 -24 -19 -39 -22
-30 -8 -29 -33 0 -41 41 -11 110 -15 141 -8 26 6 37 15 44 37 5 17 27 46 47
65 31 29 39 45 47 92 7 40 7 58 -1 61 -6 1 -51 -1 -100 -5z"/>
<path d="M1255 1660 c-26 -10 -55 -46 -47 -57 4 -4 -3 0 -15 10 -20 17 -23 17
-46 2 -14 -9 -28 -23 -31 -31 -7 -18 -85 -52 -134 -58 -20 -3 -39 -5 -41 -5
-2 -1 3 -9 10 -18 13 -15 11 -16 -18 -10 -25 5 -33 3 -33 -8 0 -21 -9 -19 -29
6 -16 20 -18 20 -33 5 -18 -17 -33 -22 -23 -7 3 5 1 12 -5 16 -6 3 -24 -7 -40
-23 -16 -17 -34 -32 -40 -34 -5 -2 -6 -9 -1 -16 6 -10 34 -14 90 -15 92 -1
109 -11 81 -47 -11 -14 -20 -19 -20 -12 0 7 -4 11 -10 7 -5 -3 -7 -12 -4 -19
4 -10 -9 -13 -58 -11 -38 1 -62 6 -61 13 1 5 -11 15 -27 21 -17 5 -30 17 -30
25 0 9 -3 16 -7 16 -5 0 -8 -24 -9 -52 -1 -103 -7 -120 -51 -168 -24 -25 -43
-48 -43 -52 0 -3 23 -9 50 -13 30 -4 49 -12 47 -18 -2 -6 5 -19 15 -29 14 -14
27 -17 52 -12 30 5 34 10 40 43 7 43 39 96 76 123 36 26 141 36 159 14 7 -9
20 -16 28 -16 12 0 13 6 8 28 -4 15 -7 35 -7 45 1 15 -1 16 -14 2 -20 -19 -27
-19 -17 0 18 32 116 105 155 116 51 13 119 -2 154 -34 29 -27 49 -112 21 -89
-8 7 -27 14 -41 16 -13 1 -32 9 -41 16 -24 20 -92 -16 -99 -54 -7 -34 1 -51
18 -37 14 12 45 -4 32 -16 -5 -4 -11 -2 -13 5 -6 15 -53 -26 -53 -45 0 -7 -7
-13 -15 -13 -8 0 -15 -7 -15 -15 0 -8 8 -15 18 -15 13 0 14 -2 3 -9 -11 -7
-11 -15 -1 -45 6 -20 9 -42 6 -49 -3 -7 -7 -3 -11 10 -4 13 -13 19 -20 16 -8
-2 -11 -11 -9 -18 5 -12 -42 -65 -58 -65 -5 0 -8 -4 -8 -10 0 -5 7 -10 15 -10
8 0 15 -4 15 -10 0 -5 -9 -10 -20 -10 -10 0 -24 -9 -30 -20 -6 -11 -7 -20 -3
-20 4 0 2 -5 -3 -10 -7 -7 -22 -6 -47 5 -33 14 -40 13 -74 -3 -21 -9 -43 -24
-50 -32 -17 -21 -16 -81 3 -108 14 -20 14 -22 -1 -22 -8 0 -22 17 -31 40 -16
39 -18 40 -53 34 -20 -3 -57 -16 -83 -27 l-46 -21 5 -51 c3 -27 0 -68 -6 -90
-9 -36 -16 -43 -57 -58 -33 -12 -51 -14 -64 -7 -10 6 -32 10 -49 10 -17 0 -31
5 -31 10 0 6 4 10 10 10 5 0 9 5 7 11 -1 6 15 17 35 24 32 12 37 11 42 -2 6
-14 10 -13 31 7 14 13 27 32 31 42 3 10 10 16 15 12 5 -3 7 -14 4 -25 -4 -10
-2 -19 4 -19 16 0 23 37 11 59 -5 11 -27 28 -48 38 -20 9 -41 23 -47 30 -10
12 -40 18 -82 15 -20 -2 -21 -5 -12 -34 16 -56 11 -88 -13 -97 -14 -5 -18 -10
-10 -15 13 -8 11 -11 -38 -51 -13 -11 -20 -15 -17 -8 4 6 2 15 -4 18 -7 5 -2
12 11 19 34 17 27 29 -27 48 -26 10 -49 18 -50 18 -9 0 0 -35 17 -65 11 -19
15 -35 10 -35 -6 0 -10 -18 -10 -40 0 -46 -14 -61 -126 -138 -38 -26 -75 -59
-82 -74 -9 -19 -25 -31 -52 -38 l-40 -11 0 -134 0 -135 245 0 c261 0 272 2
224 46 -12 10 -32 42 -46 69 -31 62 -32 63 -43 45 -11 -18 -50 -23 -77 -9 -13
7 -36 9 -60 4 -21 -3 -58 -7 -83 -8 -25 -1 -55 -8 -68 -15 -18 -11 -22 -10
-22 2 0 8 10 22 22 30 21 15 37 21 175 62 37 11 57 22 50 26 -9 6 -9 10 0 16
14 9 5 26 -19 35 -9 3 -19 21 -24 39 -4 20 -9 27 -12 18 -8 -22 -26 -37 -39
-33 -13 5 9 54 36 83 9 9 26 28 38 42 13 17 48 35 92 49 64 21 77 22 128 11
55 -11 56 -11 90 18 18 17 40 30 48 30 7 0 15 3 17 8 2 4 30 14 63 23 34 9 59
21 58 27 -4 16 22 15 47 0 15 -10 22 -10 32 0 9 9 8 12 -5 12 -9 0 -17 4 -17
9 0 5 13 9 28 9 15 -1 37 4 49 11 12 6 48 11 80 11 56 0 59 -2 93 -42 19 -23
49 -55 66 -72 18 -17 35 -47 39 -66 11 -53 15 -55 47 -16 17 21 39 36 51 37
16 0 10 5 -18 16 -22 9 -42 18 -45 20 -8 7 24 23 37 18 7 -2 15 0 18 5 4 6 2
10 -3 10 -12 0 -37 59 -28 67 3 4 16 2 29 -4 12 -6 30 -14 39 -17 19 -6 21
-45 3 -58 -6 -5 -5 -8 4 -8 11 0 11 -3 1 -15 -10 -12 -10 -15 4 -15 9 0 16 -4
16 -9 0 -4 17 -8 38 -7 34 1 37 3 36 29 -1 32 7 34 29 9 10 -11 28 -17 47 -16
16 1 45 -2 65 -6 27 -6 35 -5 35 6 0 8 7 14 15 14 8 0 15 -7 15 -14 0 -18 61
-66 84 -66 28 0 102 44 113 67 9 18 7 22 -11 28 -11 4 -33 6 -48 5 -15 -1 -41
8 -57 19 -17 12 -36 18 -46 15 -11 -5 -18 0 -22 15 -3 11 -12 21 -19 21 -8 0
-14 5 -14 11 0 6 9 9 20 6 11 -3 18 -1 15 4 -3 4 8 15 24 23 16 9 35 22 43 29
17 18 104 47 140 47 15 0 88 -18 160 -40 73 -22 136 -40 141 -40 16 0 6 18
-14 23 -12 3 -18 10 -15 15 3 6 -7 16 -23 23 -17 8 -33 24 -36 38 -3 13 -17
33 -31 43 -13 11 -22 23 -20 26 9 16 -31 155 -49 168 -14 10 -15 17 -7 27 14
16 6 27 -20 27 -19 0 -19 1 -1 28 20 29 20 77 0 65 -20 -12 -69 -13 -83 -2
-11 9 -10 14 9 29 29 23 56 36 90 44 21 5 27 3 27 -11 0 -12 9 -7 33 19 62 68
131 83 261 57 52 -11 59 -16 77 -50 23 -47 25 -79 3 -79 -11 0 -15 6 -11 20 7
27 -4 31 -26 10 -17 -16 -17 -19 -2 -34 9 -9 12 -16 6 -16 -5 0 -15 8 -20 18
-9 16 -12 15 -28 -8 -10 -14 -17 -28 -15 -32 1 -5 -4 -9 -11 -10 -6 0 -16 -2
-22 -3 -5 -2 -27 -3 -47 -4 -27 -1 -38 -6 -38 -16 0 -8 -7 -15 -15 -15 -8 0
-15 7 -15 15 0 8 -6 15 -14 15 -12 0 -12 -6 -3 -36 7 -24 7 -38 1 -42 -6 -4
-13 -15 -17 -24 -4 -11 -17 -18 -31 -18 -28 0 -39 -11 -31 -32 9 -22 148 -23
181 -2 33 22 210 26 223 5 12 -19 22 -10 58 48 21 32 27 51 20 54 -7 2 -9 8
-4 13 4 4 15 0 24 -9 13 -12 14 -19 5 -30 -7 -8 -9 -17 -5 -20 3 -4 -1 -7 -10
-7 -10 0 -14 -5 -11 -14 3 -8 -4 -24 -15 -35 -12 -12 -21 -31 -21 -43 0 -12 3
-18 7 -15 3 4 12 2 20 -5 10 -8 19 -6 37 11 12 11 26 18 30 14 4 -4 -3 -15
-16 -25 l-23 -18 22 0 c12 0 25 4 28 10 3 5 18 10 32 10 21 0 23 -2 13 -15 -7
-8 -27 -17 -46 -21 -19 -3 -34 -9 -34 -13 0 -7 55 -51 64 -51 2 0 14 16 26 35
12 20 39 44 61 55 46 24 49 24 49 5 0 -12 10 -15 39 -13 32 1 45 -4 67 -26 36
-35 88 -176 89 -240 1 -29 6 -51 13 -54 7 -2 12 -16 12 -32 0 -20 11 -37 36
-59 35 -31 38 -32 129 -30 51 1 99 -2 106 -6 7 -5 29 -12 48 -16 51 -10 181
-57 216 -77 17 -10 58 -27 93 -37 34 -11 62 -23 62 -27 0 -14 39 -47 80 -68
l41 -21 32 36 c36 41 117 100 117 85 0 -6 10 -10 23 -10 22 1 22 1 -2 14 -14
8 -32 11 -40 8 -14 -5 -14 -3 -2 11 7 9 25 18 40 18 18 1 20 3 8 6 -10 3 -16
10 -14 16 5 13 -17 39 -26 31 -2 -3 -21 6 -42 20 -29 20 -34 27 -21 32 21 8
20 22 -1 26 -13 3 -8 9 20 22 27 13 37 25 37 42 0 12 4 26 10 29 6 3 10 11 10
16 0 6 -7 3 -16 -5 -21 -22 -27 -20 -14 4 9 16 7 24 -5 36 -15 15 -17 15 -30
-2 -8 -11 -15 -22 -15 -26 0 -5 -7 -8 -16 -8 -12 0 -14 -7 -9 -32 l6 -33 -20
25 c-11 13 -18 27 -15 31 2 3 -6 15 -17 25 -16 15 -19 25 -13 63 4 25 10 53
15 62 5 9 11 33 13 53 4 34 3 36 -23 34 -36 -3 -62 13 -36 22 18 6 18 7 -2 27
-18 18 -19 22 -6 27 22 9 26 7 19 -10 -4 -11 -1 -14 11 -12 10 2 19 12 21 23
3 17 1 17 -7 5 -9 -12 -11 -11 -11 8 0 12 7 25 16 29 15 5 15 8 2 17 -8 6 -21
29 -30 51 -19 49 -40 60 -32 16 5 -21 3 -31 -6 -31 -7 0 -10 -7 -6 -16 3 -8 2
-12 -4 -9 -6 3 -8 18 -4 33 5 26 5 26 -10 8 -9 -11 -16 -27 -17 -35 0 -9 -7 5
-15 32 -11 36 -19 47 -36 47 -17 0 -20 4 -15 30 7 34 -7 40 -24 11 -7 -10 -19
-16 -28 -14 -9 2 -30 -3 -46 -11 -27 -14 -45 -13 -45 3 0 10 83 51 104 51 10
0 24 6 31 14 8 7 35 17 60 21 40 5 46 9 42 26 -3 10 -1 19 5 19 5 0 7 4 4 9
-3 5 13 21 37 36 23 16 55 37 70 47 l28 20 24 -26 c16 -17 22 -32 18 -48 -9
-35 -32 -56 -54 -51 -11 3 -19 0 -19 -7 0 -8 9 -11 25 -8 14 3 25 1 25 -3 0
-5 10 -9 23 -9 16 0 18 3 8 9 -10 7 -10 10 -1 16 7 4 16 1 21 -6 8 -11 12 -10
24 5 12 16 12 22 2 34 -10 13 -12 13 -15 -1 -4 -17 -14 -22 -25 -11 -8 9 15
44 29 44 7 0 14 -9 17 -20 6 -22 37 -28 37 -6 0 7 -7 27 -15 42 -8 16 -15 41
-15 56 0 15 -4 29 -9 33 -12 7 13 82 36 107 9 10 22 18 29 18 14 0 54 38 54
52 0 5 -15 1 -32 -8 -21 -10 -28 -11 -20 -3 6 7 12 21 12 31 0 9 8 21 17 27
14 8 15 12 4 25 -9 11 -10 16 -2 16 6 0 11 9 11 20 0 24 -13 26 -34 4 -18 -18
-21 -34 -6 -34 6 0 10 -4 10 -10 0 -5 -18 -10 -40 -10 -28 0 -40 -4 -40 -14 0
-9 -7 -12 -18 -9 -11 2 -34 -5 -53 -16 -22 -14 -28 -21 -16 -21 9 0 17 -3 17
-6 0 -8 -27 -34 -36 -34 -18 0 -32 -35 -22 -54 8 -15 7 -22 -8 -33 -10 -7 -26
-13 -37 -13 -13 0 -17 -5 -13 -15 6 -17 -29 -58 -58 -69 -19 -6 -19 -6 -3 12
17 18 23 42 11 42 -3 0 -26 -13 -50 -29 -26 -18 -46 -26 -50 -20 -3 6 2 16 12
24 14 10 16 17 8 24 -7 8 -27 0 -68 -29 -58 -41 -96 -51 -96 -26 0 20 -30 43
-38 29 -9 -14 -50 -18 -85 -8 -17 4 -38 3 -50 -3 -12 -6 -46 -16 -74 -22 -29
-7 -53 -16 -53 -21 0 -5 -7 -9 -17 -9 -9 0 -33 -19 -55 -42 -29 -32 -41 -39
-50 -30 -9 9 -9 12 0 12 11 0 42 60 42 81 0 24 -18 4 -29 -32 -10 -34 -15 -38
-27 -28 -10 8 -18 9 -25 2 -7 -7 -18 -7 -33 0 -22 11 -22 13 -10 44 20 46 18
53 -16 48 -37 -4 -50 -12 -46 -28 1 -7 1 -9 -1 -4 -10 16 -23 5 -23 -19 0 -19
-4 -25 -15 -20 -8 3 -15 1 -15 -5 0 -6 -4 -7 -10 -4 -5 3 -10 15 -10 25 0 35
-49 2 -202 -137 -53 -49 -78 -63 -78 -46 0 4 10 17 21 30 17 18 19 25 10 36
-16 20 1 59 33 76 35 19 33 31 -5 31 -16 0 -28 -4 -24 -9 3 -6 -4 -15 -15 -21
-11 -6 -20 -17 -20 -24 0 -8 -7 -17 -16 -20 -12 -4 -15 -2 -10 9 3 8 1 15 -5
15 -6 0 -13 -9 -16 -20 -3 -11 -16 -23 -30 -26 -28 -8 -29 -7 -38 27 -5 19 -1
32 13 45 31 31 19 94 -19 94 -10 0 -19 6 -19 14 0 15 -21 26 -48 26 -10 0 -30
14 -45 30 -29 30 -47 38 -47 20 0 -5 -20 -10 -44 -10 -26 0 -46 -5 -49 -12 -4
-10 -6 -10 -6 0 -1 6 -9 12 -19 12 -15 0 -18 6 -15 33 3 27 2 29 -7 14 -6 -9
-16 -15 -21 -12 -5 4 -6 11 -3 17 10 17 -56 1 -77 -18 -13 -11 -27 -13 -55 -8
l-38 7 27 -32 c34 -41 34 -59 0 -63 -23 -2 -27 -7 -25 -25 2 -13 -2 -23 -7
-23 -6 0 -11 -9 -11 -19 0 -25 -20 -38 -31 -20 -7 11 -12 12 -29 2 -27 -18
-27 -18 -35 25 -9 56 -18 67 -39 46 -17 -16 -17 -15 -11 29 5 32 4 47 -4 47
-6 0 -11 7 -11 16 0 15 -2 15 -25 0 -25 -16 -27 -16 -71 18 -25 19 -51 37 -57
39 -9 3 -9 15 1 50 15 58 16 89 3 68 -8 -12 -12 -12 -25 -2 -13 11 -22 10 -51
-3 -19 -9 -35 -22 -35 -27 0 -6 -6 -9 -12 -7 -18 6 -18 60 0 81 14 15 13 17
-5 17 -25 0 -49 -25 -33 -35 5 -3 9 -14 9 -23 -1 -15 -2 -15 -6 1 -7 25 -32
21 -45 -8 -6 -14 -15 -25 -19 -25 -4 0 -9 -6 -12 -12 -2 -7 -2 -3 0 10 4 23
-12 31 -21 10 -3 -9 -9 -7 -20 6 -14 18 -14 21 1 38 12 13 13 18 3 18 -7 0
-21 6 -29 14 -10 9 -23 11 -36 6z m450 -433 c28 -14 52 -21 53 -16 2 5 8 9 13
9 4 0 6 -7 3 -15 -4 -9 0 -15 9 -15 28 0 27 -28 -1 -35 -15 -3 -37 -15 -48
-26 -17 -16 -24 -18 -30 -8 -4 7 -3 14 4 17 7 2 12 8 12 14 0 6 -6 5 -15 -2
-20 -16 -32 -5 -16 14 15 18 -1 30 -28 21 -11 -3 -22 -1 -26 4 -4 7 -15 5 -31
-5 -33 -22 -46 -8 -15 17 22 18 22 19 2 19 -39 0 -90 32 -88 54 1 15 -3 21
-15 20 -10 -1 -18 4 -18 11 0 14 154 -37 235 -78z m-235 -5 c20 -21 53 -103
45 -111 -7 -7 -35 20 -35 34 0 7 -14 27 -30 45 -26 28 -35 32 -64 27 -38 -6
-116 -54 -116 -71 0 -6 -9 -17 -20 -24 -11 -7 -20 -22 -21 -35 -1 -21 -1 -21
-8 3 -5 18 -15 26 -34 28 -15 2 -25 7 -22 12 3 5 12 7 20 4 9 -4 19 6 29 30 8
20 21 36 28 36 10 0 10 2 0 9 -14 9 7 19 57 26 13 2 26 7 30 10 3 4 32 5 64 3
42 -3 62 -10 77 -26z m1780 16 c0 -5 7 -16 15 -24 13 -14 15 -14 15 0 0 22 14
20 59 -10 23 -15 42 -37 46 -52 4 -15 14 -35 22 -45 20 -22 9 -35 -13 -16 -13
11 -18 11 -21 2 -3 -7 -20 -13 -39 -13 -27 0 -34 -4 -34 -20 0 -23 13 -26 32
-6 19 18 55 29 62 17 3 -5 -1 -12 -10 -15 -8 -3 -13 -10 -10 -14 3 -5 -2 -21
-10 -37 -13 -25 -12 -29 3 -41 10 -8 30 -12 45 -9 15 2 43 -2 63 -10 19 -9 37
-14 39 -13 3 2 20 -11 38 -28 18 -17 56 -39 83 -49 48 -17 85 -46 85 -67 0 -6
-7 -8 -15 -4 -20 7 -19 -13 1 -35 13 -15 14 -26 3 -81 -14 -74 -35 -115 -62
-122 -17 -4 -18 -8 -8 -20 11 -13 8 -14 -26 -10 -38 4 -38 4 -11 -9 22 -10 25
-16 16 -25 -17 -17 -48 -15 -48 3 0 16 -12 20 -23 8 -4 -3 -3 -11 1 -17 5 -6
5 -24 1 -41 -3 -16 -7 -22 -8 -12 0 9 -6 17 -12 17 -6 0 -8 8 -4 19 6 21 -10
38 -20 21 -10 -17 -42 -11 -56 10 -9 13 -27 21 -51 23 -42 2 -50 20 -18 39 24
15 26 28 5 28 -8 0 -15 5 -15 10 0 6 8 10 17 10 9 0 13 3 10 6 -3 4 -2 15 4
26 9 17 7 18 -18 12 -15 -4 -43 -17 -62 -30 -31 -21 -37 -22 -61 -9 -15 8 -30
21 -34 30 -4 11 -13 14 -25 10 -14 -4 -21 0 -26 15 -5 16 -35 30 -35 16 0 -10
30 -60 41 -66 6 -4 8 -13 4 -20 -5 -8 -13 -6 -26 9 -23 25 -79 29 -79 6 0 -8
7 -15 15 -15 8 0 15 -4 15 -10 0 -5 -8 -10 -19 -10 -29 0 -34 40 -10 74 16 22
18 30 9 36 -7 5 -10 15 -6 25 6 17 7 17 26 0 18 -16 18 -16 13 5 -3 12 -11 24
-17 26 -20 8 -16 75 7 106 11 15 18 31 14 34 -8 9 -97 -18 -91 -28 3 -4 11 -5
19 -1 17 6 18 2 9 -21 -8 -20 -34 -21 -34 -2 0 18 -27 29 -33 13 -2 -7 -7 -9
-11 -6 -4 4 2 23 14 43 25 46 25 48 -2 44 -17 -2 -25 -13 -31 -41 -9 -38 -29
-45 -35 -13 -5 25 7 66 19 66 19 0 79 52 79 69 0 14 2 14 10 1 6 -10 10 -11
10 -2 0 6 6 12 13 12 8 0 22 9 32 20 10 11 22 20 27 20 5 0 18 9 29 19 23 21
23 21 -48 72 l-42 30 17 28 c11 21 28 32 57 38 53 12 115 13 115 1z m-1987
-229 l24 -44 54 2 c30 1 66 5 81 7 36 7 28 -13 -15 -38 -25 -15 -28 -20 -14
-23 21 -5 21 -12 1 -34 -14 -16 -12 -17 28 -23 50 -8 96 -18 190 -41 66 -17
66 -17 70 -55 3 -30 0 -40 -14 -43 -10 -3 -16 0 -15 7 1 6 -13 11 -35 11 -20
1 -40 3 -43 7 -4 3 -18 0 -33 -8 -14 -7 -31 -9 -36 -5 -6 5 -28 11 -49 14 -28
4 -40 2 -44 -9 -8 -23 -20 -16 -26 15 -7 34 -32 61 -56 61 -18 0 -36 -15 -71
-60 -15 -19 -19 -21 -20 -8 0 18 49 73 90 100 l25 17 -35 2 c-19 1 -42 1 -50
-1 -23 -2 -99 -40 -108 -53 -4 -7 -15 -18 -24 -26 -29 -22 -21 5 11 42 34 38
58 52 121 68 38 9 42 13 28 23 -20 14 -54 80 -64 121 -9 38 -1 31 29 -26z"/>
<path d="M3140 1001 c0 -5 23 -17 51 -26 61 -21 124 -61 109 -70 -7 -4 -7 -12
0 -26 8 -13 7 -19 0 -19 -6 0 -13 7 -16 15 -5 12 -10 12 -27 3 -32 -16 -37
-27 -37 -80 0 -34 5 -50 18 -58 14 -10 13 -11 -10 -7 -15 2 -25 0 -22 -4 3 -5
1 -9 -4 -9 -6 0 -8 -9 -5 -20 3 -11 9 -20 14 -20 4 0 16 -8 26 -19 10 -10 31
-21 47 -25 23 -6 27 -4 23 8 -5 12 0 16 16 16 18 0 19 -2 7 -10 -13 -9 -13
-10 1 -10 8 0 28 16 44 36 16 20 38 40 49 44 18 7 18 9 3 9 -15 1 -16 5 -7 21
12 23 4 63 -21 104 -10 16 -16 33 -13 38 3 4 -7 10 -21 14 -14 3 -25 11 -25
18 0 13 -121 71 -167 79 -18 4 -33 2 -33 -2z"/>
<path d="M7400 1541 c0 -7 -4 -9 -10 -6 -5 3 -10 -3 -10 -14 0 -11 5 -23 10
-26 6 -3 10 -10 10 -16 0 -5 -4 -9 -10 -9 -5 0 -10 7 -10 15 0 25 -27 17 -34
-10 -10 -40 -47 -58 -106 -50 -27 4 -50 11 -50 15 0 22 -183 49 -196 28 -4 -6
0 -16 8 -22 8 -6 17 -18 20 -27 6 -16 61 -49 81 -49 19 0 142 -52 158 -67 18
-15 33 -66 16 -56 -5 3 -7 -4 -3 -18 3 -13 3 -18 0 -11 -8 17 -27 15 -20 -3 4
-11 -1 -15 -18 -15 -14 0 -27 -6 -29 -12 -4 -10 -6 -10 -6 -1 -1 6 4 15 9 18
14 9 12 26 -2 24 -31 -4 -48 2 -48 17 0 10 -7 14 -22 12 -19 -2 -23 1 -21 20
2 14 -3 22 -12 22 -8 0 -15 -7 -15 -16 0 -13 -4 -12 -25 4 -15 12 -34 18 -46
15 -12 -4 -25 1 -33 12 -13 18 -14 17 -36 -3 -26 -24 -40 -21 -41 11 0 15 -2
17 -6 7 -3 -8 -10 -17 -14 -20 -21 -14 6 -51 55 -76 29 -14 59 -39 68 -55 10
-16 26 -29 36 -29 10 0 33 -14 51 -30 17 -17 31 -24 31 -17 0 13 38 42 55 42
6 0 17 6 25 13 8 6 44 33 80 59 36 27 72 55 81 63 21 21 88 73 106 84 9 5 24
4 37 -1 11 -6 42 -20 69 -31 26 -12 47 -18 47 -14 0 17 -103 112 -121 112 -10
0 -19 7 -19 15 0 9 -7 18 -15 21 -8 4 -15 13 -15 22 0 8 -3 12 -7 9 -3 -4 -17
8 -30 25 -12 18 -23 26 -23 19z"/>
<path d="M2771 1507 c-32 -11 -64 -57 -40 -57 5 0 9 -8 7 -17 -2 -11 9 -23 30
-33 19 -9 34 -21 34 -26 -1 -5 7 -7 16 -6 14 3 14 2 2 -13 -9 -11 -16 -13 -18
-6 -2 6 -12 11 -23 11 -10 0 -19 5 -19 10 0 6 -9 10 -19 10 -11 0 -23 5 -26
10 -3 6 -10 10 -16 10 -13 0 -11 -44 2 -57 8 -8 8 -17 0 -31 -14 -27 -14 -62
0 -62 6 0 28 13 48 29 20 15 49 34 65 42 19 9 34 27 42 52 13 36 12 38 -6 32
-22 -7 -26 6 -10 35 8 14 5 21 -15 34 -27 18 -33 36 -12 36 16 0 67 -54 67
-71 0 -15 18 -2 31 23 6 11 7 18 1 14 -5 -3 -26 5 -46 19 -41 28 -47 29 -95
12z"/>
<path d="M4473 1458 c-13 -6 -23 -15 -23 -20 0 -6 -9 -21 -20 -36 -15 -18 -17
-27 -9 -33 20 -12 15 -68 -7 -84 -25 -19 -69 -19 -87 0 -8 8 -17 11 -21 8 -3
-4 -6 6 -6 21 0 21 -4 27 -15 22 -9 -3 -15 0 -15 9 0 8 7 15 15 15 16 0 40 36
28 43 -5 2 -21 3 -38 3 l-30 -1 -3 -70 c-2 -44 -8 -76 -18 -86 -13 -15 -13
-18 1 -32 19 -20 21 -45 2 -28 -11 8 -18 6 -33 -10 -19 -21 -19 -22 4 -15 42
13 21 -22 -40 -68 -44 -33 -49 -29 -12 11 l26 28 -38 7 c-22 3 -49 9 -61 13
-13 4 -23 3 -24 -1 -1 -18 -10 -58 -12 -60 -7 -7 -47 9 -47 18 0 6 7 8 15 4 8
-3 15 -1 15 4 0 6 -5 10 -11 10 -6 0 -9 8 -7 18 3 10 -2 24 -10 31 -12 12 -15
12 -23 0 -6 -9 -4 -15 6 -17 8 -2 15 -7 15 -12 0 -14 -30 -32 -45 -26 -17 6
-45 -2 -45 -14 0 -4 9 -10 20 -13 20 -5 29 -47 10 -47 -5 0 -10 5 -10 10 0 6
-6 10 -14 10 -19 0 -29 -17 -19 -32 4 -7 8 -26 8 -43 0 -26 4 -30 30 -33 17
-2 37 -6 45 -9 16 -7 27 -10 49 -12 7 -1 11 -7 7 -16 -3 -9 3 -24 15 -36 11
-11 17 -25 13 -31 -4 -7 -13 -3 -24 12 -13 17 -19 19 -25 10 -4 -7 -2 -16 6
-21 8 -5 9 -9 3 -9 -6 0 -17 7 -24 15 -10 12 -10 15 1 15 11 0 11 2 -1 10 -13
9 -13 11 0 19 30 20 2 20 -35 1 -22 -11 -33 -20 -25 -20 7 0 11 -2 9 -4 -2 -2
-25 -1 -51 3 -37 6 -48 5 -48 -6 0 -7 11 -13 24 -13 14 0 28 -4 31 -10 3 -5
17 -10 31 -10 14 0 23 -5 21 -12 -1 -9 13 -12 51 -10 42 3 52 1 52 -12 0 -20
18 -20 41 0 16 14 19 14 37 -4 11 -11 23 -28 26 -39 3 -10 21 -28 39 -40 28
-19 43 -22 93 -19 l59 5 0 40 c1 44 11 63 24 42 7 -11 19 -10 67 4 72 22 92
38 44 34 -26 -2 -42 3 -58 19 -26 26 -69 39 -84 24 -17 -17 -58 7 -58 34 0 30
15 38 34 18 15 -14 16 -12 15 23 0 30 -2 34 -9 18 -8 -18 -9 -18 -9 -2 -1 10
-9 21 -18 24 -10 4 -24 15 -32 25 -12 18 -14 18 -31 3 -15 -14 -18 -14 -30 0
-7 8 -19 15 -27 15 -10 0 -7 10 11 33 15 19 26 40 26 48 0 8 25 25 55 39 30
14 55 28 55 33 0 4 5 7 12 7 6 0 48 10 92 22 l80 21 -32 15 c-43 21 -40 28 7
24 36 -4 39 -2 34 17 -4 15 1 23 20 30 38 15 66 61 55 90 -17 47 -65 63 -115
39z"/>
<path d="M5105 1371 c3 -6 -8 -8 -28 -4 -50 8 -90 -21 -85 -59 5 -34 -14 -33
-22 1 -7 30 -19 28 -37 -6 -9 -18 -11 -29 -4 -31 20 -7 11 -32 -11 -32 -30 -1
-64 -26 -46 -34 7 -3 -6 -3 -29 0 -35 5 -43 3 -43 -10 0 -12 10 -15 49 -12 54
4 74 12 66 27 -11 17 24 21 40 5 9 -9 23 -16 31 -16 11 0 13 -6 9 -20 -7 -22
20 -29 28 -7 4 9 8 8 16 -3 8 -11 9 -1 4 37 l-6 52 34 -12 c59 -21 62 -25 56
-78 -3 -27 -3 -51 1 -53 5 -3 19 18 32 45 13 27 40 64 62 80 21 17 38 35 38
40 0 17 -22 9 -57 -21 -34 -30 -61 -40 -46 -17 4 6 13 27 19 44 11 31 10 34
-24 63 -34 29 -59 40 -47 21z"/>
<path d="M543 1286 c27 -21 20 -29 -18 -22 -24 5 -44 1 -67 -11 -18 -9 -39
-16 -45 -15 -16 4 -16 0 2 -34 13 -26 13 -30 -1 -41 -13 -9 -6 -13 39 -18 75
-10 96 -1 118 51 18 40 19 46 4 74 -8 16 -23 30 -33 30 -16 -1 -16 -1 1 -14z"/>
<path d="M4690 1242 c0 -13 7 -34 17 -48 15 -24 15 -26 -5 -47 -21 -20 -22
-20 -42 -2 -20 18 -20 18 -20 -8 0 -15 -5 -27 -11 -27 -5 0 -7 5 -4 10 8 13
-1 13 -25 -2 -15 -9 -22 -10 -31 -1 -18 18 -38 4 -60 -38 -20 -40 -36 -48 -56
-28 -20 20 -36 -1 -17 -22 16 -18 16 -20 -1 -39 -18 -19 -17 -20 1 -20 11 0
25 5 32 12 8 8 15 8 28 -3 16 -13 17 -12 10 6 -15 38 -11 50 24 67 41 21 52
13 42 -27 -6 -20 -16 -31 -31 -33 -30 -5 -21 -26 12 -30 15 -2 36 -17 51 -37
37 -48 34 -74 -5 -39 -16 15 -17 14 -12 -4 8 -33 60 -36 117 -7 60 30 109 32
176 5 38 -15 56 -17 70 -10 10 5 26 7 34 4 9 -3 16 -1 16 5 0 6 -12 12 -27 13
-16 0 -32 2 -38 3 -5 1 -39 5 -75 9 -36 5 -69 11 -74 13 -13 9 16 23 49 23 29
1 29 1 10 16 -21 16 -61 15 -58 -2 1 -5 -13 -10 -32 -11 -32 -1 -33 0 -24 31
5 17 18 49 29 71 24 47 26 74 5 81 -8 4 -15 14 -15 24 0 10 -7 20 -15 24 -8 3
-15 16 -15 28 0 13 -7 32 -15 42 -15 19 -15 19 -15 -2z"/>
<path d="M6463 1138 c-6 -7 -17 -33 -24 -58 -13 -47 -43 -89 -56 -77 -3 4 -1
13 5 19 7 7 12 23 12 36 0 22 -2 23 -17 11 -15 -13 -16 -11 -11 14 3 15 2 30
-3 32 -10 7 -15 -2 -24 -43 -7 -32 -6 -34 16 -27 14 3 19 3 12 -2 -6 -4 -15
-21 -19 -37 -15 -62 -110 -169 -126 -144 -6 10 -8 9 -8 -2 0 -9 -14 -32 -31
-53 -29 -35 -30 -39 -15 -56 9 -10 16 -23 16 -31 0 -9 9 -11 31 -6 23 4 35 2
44 -10 11 -15 14 -15 37 0 19 12 24 23 20 38 -4 19 -10 20 -61 15 -61 -6 -52
6 16 21 34 8 42 6 51 -9 7 -10 12 -25 12 -33 0 -11 9 -15 30 -13 36 2 37 7 5
35 -28 24 -34 55 -10 45 11 -3 31 11 60 43 49 52 53 65 30 84 -22 18 -41 6
-55 -34 -13 -41 -29 -46 -48 -15 -16 25 -4 44 34 53 19 5 24 11 19 25 -7 24
43 67 59 51 19 -19 45 -10 61 20 19 37 19 40 -3 40 -22 0 -59 26 -50 35 8 8
127 -15 134 -26 11 -18 21 -8 18 17 -3 31 -21 46 -46 40 -10 -2 -18 -1 -18 3
0 13 -87 12 -97 -1z"/>
<path d="M6890 1127 c0 -7 5 -18 11 -24 5 -5 10 -29 11 -52 0 -26 6 -44 15
-50 11 -6 13 -15 8 -31 -7 -23 -8 -23 -24 -3 -21 26 -75 63 -92 63 -7 0 5 -19
28 -42 53 -55 69 -108 46 -152 -10 -17 -16 -34 -15 -38 2 -9 -38 -22 -45 -15
-8 9 -73 -61 -73 -78 0 -8 -6 -15 -14 -15 -17 0 -32 -33 -17 -38 7 -2 7 -12 0
-29 -5 -15 -8 -32 -5 -39 3 -8 1 -16 -4 -19 -18 -11 -10 -20 29 -32 47 -15 67
-10 74 19 5 19 7 19 28 5 14 -10 27 -13 38 -7 25 13 111 31 121 25 5 -3 13 2
18 11 5 9 12 15 17 15 4 -1 9 26 9 58 2 52 -1 61 -19 66 -12 4 -15 8 -7 12 6
2 12 9 12 14 0 5 -9 4 -19 -3 -14 -8 -17 -16 -10 -24 5 -6 6 -25 3 -43 -6 -31
-18 -39 -29 -22 -3 5 -18 8 -34 6 -28 -4 -28 -2 -27 40 0 24 4 47 9 51 4 4 7
15 7 23 0 9 14 34 32 55 23 28 28 40 18 46 -7 4 -9 13 -5 20 4 7 -2 18 -14 26
-27 19 -26 28 4 68 29 38 35 103 10 112 -8 4 -15 12 -15 18 0 7 -17 13 -40 14
-28 2 -40 -1 -40 -11z"/>
<path d="M185 987 c-81 -32 -95 -40 -95 -53 0 -8 -6 -11 -15 -8 -10 4 -15 0
-15 -15 0 -17 -6 -21 -30 -21 -30 0 -30 -1 -30 -55 0 -50 2 -55 18 -47 45 24
112 52 124 52 8 0 18 4 23 9 6 5 25 13 44 18 l35 9 -3 64 c-1 36 -3 65 -4 66
-1 0 -24 -8 -52 -19z"/>
<path d="M5993 751 c-3 -11 -13 -21 -24 -24 -10 -3 -17 -1 -13 4 6 11 -7 12
-21 1 -12 -9 -16 -44 -4 -37 4 3 18 -9 31 -26 29 -39 59 -52 121 -52 53 1 69
9 47 24 -12 7 -12 11 -2 17 10 7 7 13 -12 26 -14 9 -26 25 -26 35 0 41 -87 69
-97 32z"/>
<path d="M5410 710 c0 -5 -11 -10 -25 -10 -16 0 -25 -6 -25 -16 0 -8 -4 -12
-10 -9 -17 11 -32 -5 -20 -20 9 -10 7 -12 -7 -9 -10 2 -31 -8 -50 -25 l-32
-30 50 -52 50 -52 28 31 c15 18 42 37 59 43 18 6 32 15 32 20 0 5 13 9 29 9
23 0 33 7 45 31 15 31 15 31 -7 26 -21 -6 -21 -6 -3 8 11 8 17 16 13 16 -43 8
-67 21 -67 37 0 15 -2 15 -11 2 -8 -11 -12 -12 -16 -2 -6 14 -33 16 -33 2z"/>
<path d="M4580 676 c0 -23 -3 -25 -55 -24 -30 1 -55 5 -55 10 0 4 -16 8 -35 8
-24 0 -35 -5 -35 -15 0 -20 -12 -19 -52 3 l-33 19 -2 -41 c-7 -127 -15 -166
-34 -177 -24 -12 -15 -31 14 -28 38 2 42 -1 20 -16 -31 -21 -113 -47 -130 -41
-15 6 -52 -29 -53 -51 0 -7 -6 -10 -14 -7 -22 9 -29 -15 -12 -41 17 -26 12
-32 -13 -16 -7 5 -10 14 -6 21 5 9 2 10 -13 6 -14 -5 -24 -1 -31 11 -9 16 -10
16 -11 -4 0 -28 -16 -30 -23 -3 -3 13 -10 18 -21 14 -23 -9 -20 -23 10 -51 21
-19 29 -22 35 -12 4 8 11 10 16 6 4 -5 1 -12 -7 -17 -13 -8 -13 -13 -2 -30 7
-11 10 -25 7 -31 -6 -9 -28 14 -51 56 -6 10 -16 21 -22 23 -21 7 -13 -38 15
-90 l27 -50 22 26 c13 14 52 37 88 52 49 19 66 31 66 45 0 17 -11 24 -33 20
-5 -1 -6 3 -3 8 4 5 1 11 -5 13 -21 7 2 33 44 51 56 23 69 22 101 -8 31 -29
36 -30 36 -11 0 8 19 29 43 48 23 18 51 41 62 51 34 30 61 31 120 2 32 -15 60
-23 67 -18 7 4 19 8 26 9 8 2 15 4 15 6 1 2 8 14 15 27 13 23 13 23 -15 16
-28 -8 -82 -9 -90 -2 -2 2 8 24 21 48 36 66 41 111 17 164 -22 51 -31 56 -31
21z"/>
<path d="M127 666 c-9 -7 -22 -27 -28 -44 -8 -23 -15 -29 -30 -25 -13 4 -19 0
-19 -11 0 -9 -5 -16 -11 -16 -5 0 -7 5 -4 10 3 6 0 10 -8 10 -18 0 -33 -33
-18 -38 14 -5 14 -42 1 -42 -6 0 -10 -43 -10 -110 0 -60 4 -110 8 -110 5 0 24
8 43 17 25 13 30 18 16 21 -21 4 -12 22 11 22 10 0 29 11 44 25 15 14 29 25
32 25 3 0 25 13 49 30 46 30 76 60 61 60 -4 0 1 7 12 15 24 18 20 18 -38 1
-25 -8 -49 -12 -53 -8 -3 4 -10 0 -15 -8 -7 -10 -10 -11 -10 -2 0 6 -7 12 -15
12 -8 0 -15 5 -15 10 0 14 27 12 34 -2 3 -7 3 -1 0 15 -5 21 -2 27 12 29 44 4
60 5 71 7 19 2 25 36 11 66 -21 47 -93 70 -131 41z"/>
<path d="M7904 609 c-8 -13 -59 -17 -73 -6 -10 9 -16 7 -26 -6 -8 -12 -15 -14
-20 -8 -13 23 -35 9 -46 -28 -14 -47 -2 -105 36 -177 14 -25 23 -50 20 -54 -2
-4 21 -10 53 -13 31 -3 74 -9 95 -13 l37 -7 0 161 0 161 -36 -2 c-20 -1 -38
-5 -40 -8z"/>
<path d="M2181 559 c-19 -10 -37 -22 -40 -27 -3 -5 -14 -11 -24 -15 -23 -9
-13 -27 15 -27 17 0 18 -2 8 -15 -15 -18 1 -20 18 -3 17 17 16 -13 0 -31 -9
-10 -10 -12 -1 -7 13 7 37 -27 26 -38 -3 -3 -2 -6 3 -6 22 0 42 28 53 75 14
56 27 76 45 69 7 -3 23 -1 37 5 23 8 22 9 -13 16 -21 4 -45 5 -53 1 -19 -7
-47 3 -39 15 6 11 8 11 -35 -12z"/>
<path d="M7067 563 c7 -26 25 -46 56 -62 20 -11 26 -20 21 -35 -4 -15 -2 -17
4 -8 7 10 13 7 25 -12 23 -34 21 -43 -3 -21 -19 18 -20 17 -20 -3 0 -11 -5
-24 -12 -28 -8 -5 -9 -2 -5 9 3 9 1 19 -5 23 -7 5 -8 2 -3 -6 5 -9 2 -10 -14
-5 -16 5 -21 2 -21 -12 -1 -15 -5 -13 -26 11 -14 15 -28 25 -31 22 -4 -3 -1
-12 5 -18 7 -7 12 -21 12 -32 -1 -20 -1 -20 -14 -3 -18 23 -40 22 -33 -2 3
-12 -1 -18 -11 -17 -8 0 -17 -4 -19 -11 -3 -7 7 -11 27 -11 16 1 33 -2 37 -5
3 -4 12 1 19 11 12 16 13 16 14 0 0 -9 10 -24 21 -32 20 -13 25 -13 53 1 17 9
33 19 36 24 3 4 32 24 65 43 49 30 54 36 33 36 -46 0 -93 36 -175 133 -26 31
-43 35 -36 10z"/>
<path d="M2805 560 c-11 -5 -34 -9 -52 -9 -20 -1 -48 -14 -77 -36 -26 -19 -54
-35 -64 -35 -27 -1 -47 -22 -50 -52 -2 -25 2 -28 27 -28 16 0 37 7 46 17 12
12 19 13 24 5 9 -15 91 -7 139 14 19 8 47 14 62 14 15 0 33 6 40 14 6 8 25 16
43 18 l31 3 -45 30 c-24 17 -50 36 -57 43 -15 14 -38 15 -67 2z"/>
<path d="M6748 448 c-36 -21 -57 -48 -38 -48 6 0 10 -9 10 -19 0 -11 7 -27 16
-35 14 -15 13 -16 -8 -16 -15 0 -29 -10 -40 -30 -9 -17 -24 -30 -32 -30 -8 0
-17 -6 -19 -12 -4 -10 -6 -10 -6 0 -1 7 11 24 25 37 15 14 22 25 15 25 -20 0
-51 -39 -51 -65 0 -30 -20 -33 -27 -5 -6 22 -23 28 -23 8 0 -17 -27 23 -31 47
-3 11 -11 20 -19 20 -14 0 -26 -33 -37 -103 -4 -23 -9 -30 -17 -23 -8 7 -11
-1 -12 -26 0 -19 -7 -39 -15 -44 -27 -18 45 3 107 31 34 15 76 31 94 35 17 4
34 13 37 21 7 18 23 18 37 0 6 -8 30 -16 53 -19 38 -4 43 -2 54 25 11 28 93
108 110 108 14 0 10 30 -5 46 -8 7 -23 24 -33 37 -28 35 -62 52 -69 33 -3 -8
-12 -17 -21 -20 -12 -5 -14 -1 -10 14 8 29 -4 31 -45 8z"/>
<path d="M1876 381 c-34 -23 -116 -109 -116 -122 0 -5 10 -9 23 -9 12 0 29 -6
38 -13 20 -15 9 -34 -33 -56 -24 -12 -29 -41 -7 -41 15 0 63 24 116 57 29 19
65 38 80 44 16 6 47 21 70 35 41 24 42 25 25 44 -9 11 -22 20 -29 20 -8 0 -19
12 -25 28 -7 15 -13 29 -15 31 -5 7 -43 -37 -43 -49 0 -5 -7 -10 -15 -10 -8 0
-15 5 -15 10 0 19 -21 10 -29 -13 -9 -24 -38 -53 -46 -45 -9 9 30 78 47 84 10
3 18 10 18 15 0 14 -12 11 -44 -10z"/>
<path d="M4748 351 c-8 -11 -27 -21 -43 -23 -23 -2 -31 -9 -33 -27 -7 -46 7
-86 37 -104 27 -16 30 -16 48 1 10 9 36 41 57 69 31 43 35 54 22 59 -8 3 -18
14 -21 25 -8 25 -50 25 -67 0z"/>
<path d="M5898 310 c-19 -21 -26 -59 -15 -77 5 -8 3 -13 -7 -13 -10 0 -16 9
-16 24 0 29 -19 46 -21 19 -1 -10 -1 -24 0 -31 1 -9 -15 -4 -48 13 -28 14 -51
30 -51 35 0 17 -25 11 -74 -16 -25 -14 -52 -24 -58 -21 -7 2 -23 -5 -35 -16
-22 -20 -23 -20 -43 -2 -15 14 -17 21 -9 32 9 10 3 13 -35 13 -30 0 -46 4 -46
13 0 8 -3 8 -8 1 -4 -6 -15 -13 -25 -17 -31 -12 -7 -28 34 -24 45 5 52 -9 12
-24 -16 -6 -38 -20 -50 -31 -22 -21 -22 -21 -3 -48 21 -29 18 -40 -12 -40 -10
0 -17 -3 -17 -8 3 -19 -2 -32 -13 -30 -7 2 -14 -7 -16 -20 -2 -13 -9 -21 -17
-20 -8 2 -15 -1 -17 -7 -2 -6 21 -11 52 -13 54 -2 55 -1 88 41 38 51 39 58 12
82 -15 14 -17 21 -9 31 6 8 15 11 20 8 5 -3 6 2 3 10 -3 9 -2 16 4 16 17 0 35
-29 28 -46 -9 -24 2 -35 22 -23 14 9 29 5 71 -16 29 -16 56 -24 59 -19 4 5 21
16 37 24 17 8 32 15 34 17 9 6 -54 53 -80 58 -33 7 -34 12 -14 39 47 62 191 4
165 -68 -4 -14 -9 -16 -14 -8 -4 7 -4 17 0 24 5 7 3 8 -5 4 -7 -5 -21 0 -32
10 -28 25 -25 -3 4 -37 29 -34 57 -44 58 -21 0 9 5 2 10 -15 12 -43 36 -42 74
2 17 19 35 35 42 35 6 0 19 10 27 22 15 21 16 21 64 -28 27 -28 55 -61 62 -74
l13 -24 18 23 c11 13 19 28 19 35 1 10 82 64 125 81 19 8 19 8 1 13 -10 2 -21
0 -25 -5 -3 -4 -18 -9 -33 -11 -22 -2 -28 1 -28 17 0 11 -3 26 -6 35 -5 13
-10 12 -26 -10 -15 -18 -24 -22 -31 -15 -6 6 -19 11 -29 11 -10 0 -18 7 -18
15 0 18 -21 20 -38 3 -10 -10 -17 -7 -35 14 -12 15 -31 28 -42 30 -11 2 -24
13 -30 25 -11 21 -12 22 -27 3z"/>
<path d="M4137 164 c-3 -3 -2 -16 3 -29 7 -20 6 -22 -11 -18 -11 3 -19 0 -19
-7 0 -14 -25 -40 -38 -40 -5 0 -19 -9 -31 -19 -30 -26 -91 -7 -91 28 0 16 16
13 34 -5 15 -14 16 -14 13 7 -5 28 -16 33 -50 20 -35 -13 -34 -21 7 -65 35
-36 35 -36 119 -36 59 0 87 4 90 13 4 9 6 9 6 0 1 -9 17 -13 46 -13 28 0 47 5
49 13 2 6 8 27 14 45 6 18 6 32 1 32 -5 0 -9 7 -9 15 0 8 -9 19 -19 25 -27 14
-81 13 -81 -2 0 -7 -5 -5 -11 6 -9 14 -8 20 2 27 11 7 11 9 -2 9 -9 0 -18 -3
-22 -6z"/>
<path d="M7450 135 c0 -8 -4 -15 -10 -15 -5 0 -10 -7 -10 -15 0 -8 4 -15 9
-15 5 0 12 -20 15 -45 7 -42 9 -45 37 -45 20 0 29 5 29 16 0 8 5 12 10 9 6 -4
8 -11 5 -16 -4 -5 -1 -9 4 -9 6 0 17 16 25 35 8 19 17 35 20 35 2 0 14 -16 26
-35 21 -34 23 -35 85 -35 60 0 88 11 65 25 -5 3 -10 15 -10 26 0 14 -7 19 -26
19 -18 0 -28 6 -31 20 -5 19 -6 19 -18 3 -13 -17 -16 -16 -47 12 -18 16 -27
23 -20 15 12 -14 17 -50 6 -50 -4 0 -24 19 -46 43 -22 23 -37 36 -33 30 8 -16
-51 -18 -60 -3 -9 15 -25 12 -25 -5z"/>
<path d="M4642 116 c-8 -19 -8 -26 1 -30 7 -3 6 -5 -3 -3 -8 1 -41 -9 -72 -22
-71 -29 -105 -24 -172 24 -47 33 -49 34 -71 17 -16 -11 -23 -26 -22 -44 2 -30
14 -37 23 -14 3 8 13 12 26 8 15 -3 19 -11 15 -28 -4 -20 0 -24 22 -23 23 0
24 1 6 9 -17 7 -14 9 13 9 20 1 31 -3 27 -9 -4 -6 47 -10 145 -10 129 0 149 2
138 14 -10 11 -16 11 -27 2 -12 -9 -12 -8 -3 11 20 37 12 110 -10 97 -6 -4
-13 -1 -17 5 -5 7 -11 3 -19 -13z"/>
</g>
</svg>
